%FSLAX33Y33*%
%MOMM*%
%AMRR-H508000-W10160000-R152400-RO0.500*
21,1,9.8552,0.508,0.,0.,270*
21,1,10.16,0.2032,0.,0.,270*
1,1,0.3048,0.1016,4.9276*
1,1,0.3048,0.1016,-4.9276*
1,1,0.3048,-0.1016,-4.9276*
1,1,0.3048,-0.1016,4.9276*%
%AMRect-W1000000-H1500000-RO0.500*
21,1,1.,1.5,0.,0.,270*%
%ADD10C,0.15*%
%ADD11C,0.1*%
%ADD12RR-H508000-W10160000-R152400-RO0.500*%
%ADD13Rect-W1000000-H1500000-RO0.500*%
D10*
%LNbottom silkscreen_traces*%
%LNbottom silkscreen component 5223292f9ca4fa3a*%
G01*
X9365Y75200D02*
X7635Y75200D01*
X9365Y76800D02*
X7635Y76800D01*
G36*
X5502Y75951D02*
X5407Y75927D01*
X5425Y75872D01*
X5449Y75824D01*
X5478Y75783D01*
X5514Y75749D01*
X5555Y75722D01*
X5600Y75703D01*
X5650Y75692D01*
X5703Y75688D01*
X5759Y75691D01*
X5808Y75700D01*
X5853Y75714D01*
X5892Y75735D01*
X5926Y75761D01*
X5955Y75793D01*
X5981Y75829D01*
X6002Y75871D01*
X6019Y75917D01*
X6030Y75964D01*
X6037Y76013D01*
X6040Y76063D01*
X6037Y76117D01*
X6029Y76168D01*
X6016Y76215D01*
X5997Y76258D01*
X5973Y76297D01*
X5945Y76332D01*
X5913Y76361D01*
X5876Y76385D01*
X5835Y76404D01*
X5793Y76417D01*
X5748Y76425D01*
X5702Y76428D01*
X5650Y76425D01*
X5603Y76414D01*
X5560Y76397D01*
X5521Y76373D01*
X5487Y76343D01*
X5459Y76308D01*
X5436Y76266D01*
X5419Y76220D01*
X5512Y76198D01*
X5526Y76234D01*
X5543Y76265D01*
X5562Y76291D01*
X5585Y76311D01*
X5610Y76327D01*
X5638Y76338D01*
X5670Y76345D01*
X5704Y76347D01*
X5743Y76345D01*
X5780Y76337D01*
X5812Y76325D01*
X5842Y76307D01*
X5867Y76286D01*
X5889Y76261D01*
X5906Y76233D01*
X5920Y76201D01*
X5930Y76168D01*
X5937Y76134D01*
X5941Y76099D01*
X5942Y76064D01*
X5941Y76020D01*
X5936Y75978D01*
X5927Y75940D01*
X5916Y75904D01*
X5900Y75872D01*
X5882Y75845D01*
X5859Y75822D01*
X5833Y75803D01*
X5804Y75788D01*
X5774Y75777D01*
X5743Y75771D01*
X5711Y75769D01*
X5673Y75772D01*
X5638Y75780D01*
X5606Y75795D01*
X5576Y75815D01*
X5551Y75840D01*
X5530Y75872D01*
X5514Y75909D01*
X5502Y75951D01*
X5502Y75951D01*
X5044Y75700D02*
X5044Y75871D01*
X5355Y75871D01*
X5355Y75952D01*
X5100Y76314D01*
X5044Y76275D01*
X5268Y75952D01*
X5044Y75952D01*
X5044Y75952D01*
X5044Y76275D01*
X5100Y76314D01*
X5028Y76416D01*
X4956Y76416D01*
X4956Y75952D01*
X4860Y75952D01*
X4860Y75871D01*
X4956Y75871D01*
X4956Y75700D01*
X5044Y75700D01*
X5044Y75700D01*
G37*
%LNbottom silkscreen component df5c0e0204abdff7*%
X29365Y79700D02*
X27635Y79700D01*
X29365Y81300D02*
X27635Y81300D01*
G36*
X25502Y80451D02*
X25407Y80427D01*
X25425Y80372D01*
X25449Y80324D01*
X25478Y80283D01*
X25514Y80249D01*
X25555Y80222D01*
X25600Y80203D01*
X25650Y80192D01*
X25703Y80188D01*
X25759Y80191D01*
X25808Y80200D01*
X25853Y80214D01*
X25892Y80235D01*
X25926Y80261D01*
X25955Y80293D01*
X25981Y80329D01*
X26002Y80371D01*
X26019Y80417D01*
X26030Y80464D01*
X26037Y80513D01*
X26040Y80563D01*
X26037Y80617D01*
X26029Y80668D01*
X26016Y80715D01*
X25997Y80758D01*
X25973Y80797D01*
X25945Y80832D01*
X25913Y80861D01*
X25876Y80885D01*
X25835Y80904D01*
X25793Y80917D01*
X25748Y80925D01*
X25702Y80928D01*
X25650Y80925D01*
X25603Y80914D01*
X25560Y80897D01*
X25521Y80873D01*
X25487Y80843D01*
X25459Y80808D01*
X25436Y80766D01*
X25419Y80720D01*
X25512Y80698D01*
X25526Y80734D01*
X25543Y80765D01*
X25562Y80791D01*
X25585Y80811D01*
X25610Y80827D01*
X25638Y80838D01*
X25670Y80845D01*
X25704Y80847D01*
X25743Y80845D01*
X25780Y80837D01*
X25812Y80825D01*
X25842Y80807D01*
X25867Y80786D01*
X25889Y80761D01*
X25906Y80733D01*
X25920Y80701D01*
X25930Y80668D01*
X25937Y80634D01*
X25941Y80599D01*
X25942Y80564D01*
X25941Y80520D01*
X25936Y80478D01*
X25927Y80440D01*
X25916Y80404D01*
X25900Y80372D01*
X25882Y80345D01*
X25859Y80322D01*
X25833Y80303D01*
X25804Y80288D01*
X25774Y80277D01*
X25743Y80271D01*
X25711Y80269D01*
X25673Y80272D01*
X25638Y80280D01*
X25606Y80295D01*
X25576Y80315D01*
X25551Y80340D01*
X25530Y80372D01*
X25514Y80409D01*
X25502Y80451D01*
X25502Y80451D01*
X24995Y80200D02*
X25083Y80200D01*
X25083Y80760D01*
X25100Y80745D01*
X25119Y80730D01*
X25142Y80715D01*
X25166Y80700D01*
X25191Y80685D01*
X25215Y80673D01*
X25237Y80663D01*
X25259Y80654D01*
X25259Y80739D01*
X25223Y80757D01*
X25189Y80777D01*
X25158Y80799D01*
X25130Y80823D01*
X25104Y80848D01*
X25083Y80872D01*
X25065Y80895D01*
X25052Y80919D01*
X24995Y80919D01*
X24995Y80200D01*
X24995Y80200D01*
G37*
%LNbottom silkscreen component 450d204d92aa958c*%
X37365Y77200D02*
X35635Y77200D01*
X37365Y78800D02*
X35635Y78800D01*
G36*
X33502Y77951D02*
X33407Y77927D01*
X33425Y77872D01*
X33449Y77824D01*
X33478Y77783D01*
X33514Y77749D01*
X33555Y77722D01*
X33600Y77703D01*
X33650Y77692D01*
X33703Y77688D01*
X33759Y77691D01*
X33808Y77700D01*
X33853Y77714D01*
X33892Y77735D01*
X33926Y77761D01*
X33955Y77793D01*
X33981Y77829D01*
X34002Y77871D01*
X34019Y77917D01*
X34030Y77964D01*
X34037Y78013D01*
X34040Y78063D01*
X34037Y78117D01*
X34029Y78168D01*
X34016Y78215D01*
X33997Y78258D01*
X33973Y78297D01*
X33945Y78332D01*
X33913Y78361D01*
X33876Y78385D01*
X33835Y78404D01*
X33793Y78417D01*
X33748Y78425D01*
X33702Y78428D01*
X33650Y78425D01*
X33603Y78414D01*
X33560Y78397D01*
X33521Y78373D01*
X33487Y78343D01*
X33459Y78308D01*
X33436Y78266D01*
X33419Y78220D01*
X33512Y78198D01*
X33526Y78234D01*
X33543Y78265D01*
X33562Y78291D01*
X33585Y78311D01*
X33610Y78327D01*
X33638Y78338D01*
X33670Y78345D01*
X33704Y78347D01*
X33743Y78345D01*
X33780Y78337D01*
X33812Y78325D01*
X33842Y78307D01*
X33867Y78286D01*
X33889Y78261D01*
X33906Y78233D01*
X33920Y78201D01*
X33930Y78168D01*
X33937Y78134D01*
X33941Y78099D01*
X33942Y78064D01*
X33941Y78020D01*
X33936Y77978D01*
X33927Y77940D01*
X33916Y77904D01*
X33900Y77872D01*
X33882Y77845D01*
X33859Y77822D01*
X33833Y77803D01*
X33804Y77788D01*
X33774Y77777D01*
X33743Y77771D01*
X33711Y77769D01*
X33673Y77772D01*
X33638Y77780D01*
X33606Y77795D01*
X33576Y77815D01*
X33551Y77840D01*
X33530Y77872D01*
X33514Y77909D01*
X33502Y77951D01*
X33502Y77951D01*
X32870Y78241D02*
X32957Y78234D01*
X32964Y78258D01*
X32971Y78278D01*
X32980Y78295D01*
X32991Y78309D01*
X33009Y78325D01*
X33030Y78337D01*
X33053Y78344D01*
X33078Y78346D01*
X33099Y78345D01*
X33118Y78341D01*
X33136Y78333D01*
X33152Y78323D01*
X33172Y78306D01*
X33189Y78286D01*
X33205Y78262D01*
X33218Y78235D01*
X33228Y78203D01*
X33236Y78164D01*
X33241Y78120D01*
X33242Y78069D01*
X33196Y78033D01*
X33205Y78021D01*
X33218Y77995D01*
X33226Y77965D01*
X33229Y77932D01*
X33229Y77932D01*
X33228Y77909D01*
X33224Y77887D01*
X33218Y77866D01*
X33210Y77845D01*
X33199Y77826D01*
X33186Y77808D01*
X33172Y77794D01*
X33156Y77782D01*
X33138Y77772D01*
X33120Y77765D01*
X33102Y77761D01*
X33083Y77760D01*
X33056Y77763D01*
X33031Y77771D01*
X33008Y77785D01*
X32987Y77805D01*
X32970Y77829D01*
X32957Y77858D01*
X32950Y77890D01*
X32947Y77927D01*
X32950Y77962D01*
X32957Y77993D01*
X32969Y78021D01*
X32987Y78044D01*
X33008Y78063D01*
X33031Y78076D01*
X33057Y78084D01*
X33086Y78087D01*
X33115Y78084D01*
X33141Y78076D01*
X33165Y78063D01*
X33187Y78044D01*
X33196Y78033D01*
X33242Y78069D01*
X33226Y78092D01*
X33207Y78111D01*
X33187Y78128D01*
X33165Y78141D01*
X33142Y78151D01*
X33118Y78158D01*
X33094Y78163D01*
X33069Y78164D01*
X33026Y78160D01*
X32987Y78148D01*
X32952Y78128D01*
X32919Y78100D01*
X32892Y78065D01*
X32873Y78025D01*
X32861Y77981D01*
X32857Y77932D01*
X32859Y77899D01*
X32864Y77867D01*
X32874Y77837D01*
X32886Y77807D01*
X32902Y77780D01*
X32921Y77756D01*
X32942Y77736D01*
X32966Y77719D01*
X32992Y77705D01*
X33020Y77695D01*
X33050Y77690D01*
X33081Y77688D01*
X33134Y77693D01*
X33181Y77708D01*
X33223Y77733D01*
X33261Y77769D01*
X33291Y77816D01*
X33313Y77876D01*
X33326Y77949D01*
X33330Y78035D01*
X33325Y78132D01*
X33311Y78214D01*
X33287Y78283D01*
X33253Y78337D01*
X33217Y78373D01*
X33175Y78398D01*
X33127Y78414D01*
X33073Y78419D01*
X33033Y78416D01*
X32996Y78407D01*
X32963Y78392D01*
X32935Y78371D01*
X32910Y78345D01*
X32891Y78315D01*
X32878Y78280D01*
X32870Y78241D01*
X32870Y78241D01*
G37*
%LNbottom silkscreen component fcc7330a5c04ed33*%
X9365Y79700D02*
X7635Y79700D01*
X9365Y81300D02*
X7635Y81300D01*
G36*
X5502Y80451D02*
X5407Y80427D01*
X5425Y80372D01*
X5449Y80324D01*
X5478Y80283D01*
X5514Y80249D01*
X5555Y80222D01*
X5600Y80203D01*
X5650Y80192D01*
X5703Y80188D01*
X5759Y80191D01*
X5808Y80200D01*
X5853Y80214D01*
X5892Y80235D01*
X5926Y80261D01*
X5955Y80293D01*
X5981Y80329D01*
X6002Y80371D01*
X6019Y80417D01*
X6030Y80464D01*
X6037Y80513D01*
X6040Y80563D01*
X6037Y80617D01*
X6029Y80668D01*
X6016Y80715D01*
X5997Y80758D01*
X5973Y80797D01*
X5945Y80832D01*
X5913Y80861D01*
X5876Y80885D01*
X5835Y80904D01*
X5793Y80917D01*
X5748Y80925D01*
X5702Y80928D01*
X5650Y80925D01*
X5603Y80914D01*
X5560Y80897D01*
X5521Y80873D01*
X5487Y80843D01*
X5459Y80808D01*
X5436Y80766D01*
X5419Y80720D01*
X5512Y80698D01*
X5526Y80734D01*
X5543Y80765D01*
X5562Y80791D01*
X5585Y80811D01*
X5610Y80827D01*
X5638Y80838D01*
X5670Y80845D01*
X5704Y80847D01*
X5743Y80845D01*
X5780Y80837D01*
X5812Y80825D01*
X5842Y80807D01*
X5867Y80786D01*
X5889Y80761D01*
X5906Y80733D01*
X5920Y80701D01*
X5930Y80668D01*
X5937Y80634D01*
X5941Y80599D01*
X5942Y80564D01*
X5941Y80520D01*
X5936Y80478D01*
X5927Y80440D01*
X5916Y80404D01*
X5900Y80372D01*
X5882Y80345D01*
X5859Y80322D01*
X5833Y80303D01*
X5804Y80288D01*
X5774Y80277D01*
X5743Y80271D01*
X5711Y80269D01*
X5673Y80272D01*
X5638Y80280D01*
X5606Y80295D01*
X5576Y80315D01*
X5551Y80340D01*
X5530Y80372D01*
X5514Y80409D01*
X5502Y80451D01*
X5502Y80451D01*
X5325Y80389D02*
X5238Y80401D01*
X5229Y80366D01*
X5217Y80336D01*
X5203Y80312D01*
X5186Y80293D01*
X5167Y80279D01*
X5146Y80268D01*
X5123Y80262D01*
X5097Y80260D01*
X5068Y80263D01*
X5040Y80271D01*
X5015Y80284D01*
X4993Y80303D01*
X4974Y80326D01*
X4961Y80351D01*
X4953Y80379D01*
X4950Y80409D01*
X4952Y80438D01*
X4960Y80465D01*
X4972Y80488D01*
X4990Y80509D01*
X5011Y80527D01*
X5034Y80539D01*
X5061Y80546D01*
X5090Y80549D01*
X5103Y80548D01*
X5118Y80546D01*
X5134Y80543D01*
X5152Y80539D01*
X5142Y80616D01*
X5138Y80616D01*
X5134Y80615D01*
X5131Y80615D01*
X5128Y80615D01*
X5101Y80617D01*
X5075Y80622D01*
X5050Y80632D01*
X5027Y80644D01*
X5007Y80661D01*
X4993Y80682D01*
X4985Y80706D01*
X4982Y80735D01*
X4984Y80758D01*
X4990Y80779D01*
X5001Y80798D01*
X5015Y80815D01*
X5032Y80829D01*
X5052Y80839D01*
X5075Y80844D01*
X5099Y80846D01*
X5124Y80844D01*
X5146Y80838D01*
X5167Y80828D01*
X5185Y80814D01*
X5200Y80796D01*
X5213Y80774D01*
X5222Y80748D01*
X5229Y80718D01*
X5317Y80733D01*
X5306Y80775D01*
X5290Y80812D01*
X5269Y80843D01*
X5243Y80870D01*
X5213Y80891D01*
X5179Y80907D01*
X5142Y80916D01*
X5101Y80919D01*
X5073Y80917D01*
X5045Y80912D01*
X5019Y80905D01*
X4993Y80894D01*
X4970Y80880D01*
X4950Y80864D01*
X4933Y80846D01*
X4918Y80825D01*
X4907Y80803D01*
X4898Y80780D01*
X4894Y80757D01*
X4892Y80733D01*
X4893Y80710D01*
X4898Y80688D01*
X4906Y80668D01*
X4917Y80648D01*
X4931Y80630D01*
X4948Y80614D01*
X4968Y80600D01*
X4991Y80588D01*
X4961Y80578D01*
X4934Y80565D01*
X4911Y80548D01*
X4892Y80527D01*
X4877Y80502D01*
X4866Y80475D01*
X4859Y80445D01*
X4857Y80411D01*
X4861Y80366D01*
X4874Y80325D01*
X4895Y80287D01*
X4925Y80252D01*
X4962Y80224D01*
X5002Y80204D01*
X5048Y80191D01*
X5098Y80187D01*
X5143Y80191D01*
X5184Y80201D01*
X5221Y80219D01*
X5254Y80243D01*
X5282Y80274D01*
X5303Y80308D01*
X5318Y80346D01*
X5325Y80389D01*
X5325Y80389D01*
G37*
%LNbottom silkscreen component 666c8ae4d6e5a330*%
D11*
X33400Y21500D02*
X5900Y21500D01*
X5900Y13500*
X33400Y13500*
X33400Y21500*
X33650Y21750D02*
X5650Y21750D01*
X5650Y13250*
X33650Y13250*
X33650Y21750*
D12*
X4975Y17415D03*
D13*
X19650Y21200D03*
G36*
X28639Y11186D02*
X28553Y11186D01*
X28553Y10878D01*
X28823Y10878D01*
X28849Y10914D01*
X28872Y10950D01*
X28892Y10987D01*
X28908Y11025D01*
X28920Y11063D01*
X28929Y11101D01*
X28935Y11140D01*
X28936Y11179D01*
X28934Y11232D01*
X28925Y11282D01*
X28911Y11329D01*
X28891Y11374D01*
X28865Y11415D01*
X28834Y11451D01*
X28799Y11481D01*
X28758Y11506D01*
X28713Y11526D01*
X28666Y11540D01*
X28616Y11548D01*
X28564Y11551D01*
X28512Y11548D01*
X28461Y11540D01*
X28413Y11526D01*
X28366Y11507D01*
X28323Y11482D01*
X28285Y11452D01*
X28254Y11418D01*
X28229Y11379D01*
X28209Y11336D01*
X28195Y11289D01*
X28187Y11240D01*
X28184Y11187D01*
X28186Y11148D01*
X28191Y11112D01*
X28199Y11077D01*
X28210Y11044D01*
X28224Y11014D01*
X28240Y10987D01*
X28259Y10964D01*
X28281Y10944D01*
X28306Y10927D01*
X28334Y10912D01*
X28365Y10900D01*
X28400Y10889D01*
X28424Y10976D01*
X28398Y10985D01*
X28374Y10994D01*
X28354Y11005D01*
X28337Y11017D01*
X28322Y11030D01*
X28308Y11046D01*
X28296Y11065D01*
X28286Y11086D01*
X28277Y11109D01*
X28271Y11134D01*
X28268Y11159D01*
X28267Y11186D01*
X28268Y11218D01*
X28272Y11248D01*
X28278Y11275D01*
X28287Y11300D01*
X28298Y11323D01*
X28310Y11344D01*
X28324Y11362D01*
X28340Y11378D01*
X28356Y11392D01*
X28374Y11404D01*
X28392Y11415D01*
X28412Y11424D01*
X28446Y11436D01*
X28482Y11445D01*
X28519Y11450D01*
X28558Y11452D01*
X28605Y11450D01*
X28647Y11443D01*
X28686Y11433D01*
X28721Y11418D01*
X28751Y11400D01*
X28778Y11377D01*
X28800Y11351D01*
X28818Y11321D01*
X28832Y11288D01*
X28842Y11255D01*
X28848Y11220D01*
X28850Y11185D01*
X28848Y11154D01*
X28844Y11123D01*
X28836Y11093D01*
X28826Y11063D01*
X28813Y11035D01*
X28801Y11010D01*
X28788Y10990D01*
X28774Y10972D01*
X28639Y10972D01*
X28639Y11186D01*
X28639Y11186D01*
X28859Y10404D02*
X28879Y10429D01*
X28881Y10432D01*
X28831Y10466D01*
X28817Y10450D01*
X28800Y10437D01*
X28782Y10426D01*
X28765Y10419D01*
X28744Y10415D01*
X28720Y10412D01*
X28692Y10411D01*
X28660Y10411D01*
X28660Y10411D01*
X28669Y10439D01*
X28678Y10472D01*
X28686Y10512D01*
X28693Y10557D01*
X28697Y10583D01*
X28702Y10604D01*
X28706Y10622D01*
X28711Y10635D01*
X28717Y10646D01*
X28723Y10655D01*
X28731Y10663D01*
X28740Y10670D01*
X28750Y10676D01*
X28760Y10680D01*
X28771Y10682D01*
X28783Y10683D01*
X28800Y10681D01*
X28815Y10676D01*
X28829Y10668D01*
X28842Y10656D01*
X28853Y10641D01*
X28860Y10622D01*
X28864Y10601D01*
X28866Y10577D01*
X28865Y10551D01*
X28860Y10528D01*
X28853Y10506D01*
X28843Y10485D01*
X28831Y10466D01*
X28881Y10432D01*
X28895Y10453D01*
X28908Y10476D01*
X28919Y10499D01*
X28926Y10523D01*
X28932Y10547D01*
X28935Y10572D01*
X28936Y10598D01*
X28933Y10639D01*
X28925Y10675D01*
X28912Y10706D01*
X28893Y10731D01*
X28871Y10752D01*
X28845Y10766D01*
X28817Y10775D01*
X28785Y10778D01*
X28766Y10777D01*
X28748Y10774D01*
X28731Y10768D01*
X28714Y10760D01*
X28699Y10751D01*
X28686Y10740D01*
X28674Y10728D01*
X28663Y10714D01*
X28654Y10700D01*
X28646Y10684D01*
X28639Y10667D01*
X28634Y10650D01*
X28630Y10635D01*
X28627Y10617D01*
X28624Y10595D01*
X28620Y10571D01*
X28614Y10520D01*
X28606Y10477D01*
X28598Y10440D01*
X28590Y10411D01*
X28581Y10411D01*
X28575Y10411D01*
X28570Y10411D01*
X28566Y10411D01*
X28541Y10412D01*
X28520Y10417D01*
X28503Y10425D01*
X28489Y10436D01*
X28476Y10455D01*
X28467Y10479D01*
X28461Y10506D01*
X28459Y10538D01*
X28461Y10567D01*
X28465Y10593D01*
X28472Y10614D01*
X28481Y10631D01*
X28494Y10645D01*
X28512Y10657D01*
X28533Y10667D01*
X28559Y10675D01*
X28547Y10763D01*
X28521Y10756D01*
X28497Y10747D01*
X28476Y10736D01*
X28457Y10723D01*
X28441Y10708D01*
X28426Y10690D01*
X28414Y10669D01*
X28404Y10645D01*
X28396Y10618D01*
X28390Y10589D01*
X28386Y10558D01*
X28385Y10525D01*
X28386Y10493D01*
X28389Y10464D01*
X28394Y10438D01*
X28401Y10415D01*
X28410Y10396D01*
X28419Y10379D01*
X28430Y10365D01*
X28441Y10353D01*
X28454Y10344D01*
X28468Y10336D01*
X28484Y10330D01*
X28502Y10326D01*
X28516Y10324D01*
X28534Y10322D01*
X28557Y10321D01*
X28584Y10321D01*
X28703Y10321D01*
X28760Y10321D01*
X28805Y10320D01*
X28839Y10318D01*
X28861Y10315D01*
X28877Y10312D01*
X28893Y10307D01*
X28909Y10301D01*
X28924Y10293D01*
X28924Y10386D01*
X28910Y10392D01*
X28894Y10397D01*
X28877Y10401D01*
X28859Y10404D01*
X28859Y10404D01*
X28844Y9988D02*
X28923Y9975D01*
X28926Y9993D01*
X28929Y10011D01*
X28930Y10027D01*
X28931Y10042D01*
X28930Y10065D01*
X28927Y10085D01*
X28922Y10103D01*
X28916Y10118D01*
X28907Y10130D01*
X28898Y10141D01*
X28887Y10149D01*
X28875Y10155D01*
X28859Y10160D01*
X28836Y10164D01*
X28806Y10166D01*
X28770Y10166D01*
X28467Y10166D01*
X28467Y10232D01*
X28397Y10232D01*
X28397Y10166D01*
X28267Y10166D01*
X28213Y10077D01*
X28397Y10077D01*
X28397Y9988D01*
X28467Y9988D01*
X28467Y10077D01*
X28775Y10077D01*
X28792Y10077D01*
X28806Y10076D01*
X28817Y10075D01*
X28824Y10073D01*
X28829Y10070D01*
X28834Y10067D01*
X28838Y10062D01*
X28841Y10057D01*
X28844Y10051D01*
X28846Y10044D01*
X28847Y10036D01*
X28848Y10027D01*
X28847Y10019D01*
X28847Y10010D01*
X28846Y9999D01*
X28844Y9988D01*
X28844Y9988D01*
X28754Y9540D02*
X28766Y9447D01*
X28804Y9461D01*
X28838Y9479D01*
X28867Y9501D01*
X28891Y9528D01*
X28911Y9560D01*
X28925Y9596D01*
X28933Y9635D01*
X28936Y9679D01*
X28931Y9734D01*
X28918Y9783D01*
X28896Y9826D01*
X28865Y9862D01*
X28826Y9892D01*
X28779Y9913D01*
X28726Y9926D01*
X28665Y9930D01*
X28602Y9926D01*
X28547Y9913D01*
X28499Y9892D01*
X28459Y9862D01*
X28427Y9825D01*
X28404Y9783D01*
X28390Y9736D01*
X28385Y9684D01*
X28386Y9677D01*
X28459Y9683D01*
X28461Y9713D01*
X28469Y9740D01*
X28482Y9764D01*
X28500Y9787D01*
X28522Y9805D01*
X28548Y9819D01*
X28577Y9828D01*
X28610Y9833D01*
X28610Y9833D01*
X28610Y9539D01*
X28579Y9543D01*
X28552Y9550D01*
X28529Y9560D01*
X28510Y9572D01*
X28488Y9595D01*
X28472Y9621D01*
X28462Y9651D01*
X28459Y9683D01*
X28386Y9677D01*
X28390Y9634D01*
X28403Y9588D01*
X28426Y9547D01*
X28457Y9511D01*
X28497Y9482D01*
X28544Y9461D01*
X28598Y9449D01*
X28660Y9444D01*
X28664Y9445D01*
X28670Y9445D01*
X28676Y9445D01*
X28683Y9445D01*
X28683Y9838D01*
X28724Y9833D01*
X28760Y9823D01*
X28791Y9808D01*
X28816Y9789D01*
X28837Y9765D01*
X28851Y9739D01*
X28860Y9710D01*
X28862Y9679D01*
X28861Y9655D01*
X28856Y9633D01*
X28848Y9613D01*
X28837Y9595D01*
X28822Y9578D01*
X28803Y9564D01*
X28781Y9551D01*
X28754Y9540D01*
X28754Y9540D01*
X26129Y11008D02*
X26153Y10911D01*
X26209Y10930D01*
X26258Y10954D01*
X26299Y10984D01*
X26334Y11020D01*
X26361Y11062D01*
X26381Y11108D01*
X26393Y11158D01*
X26396Y11213D01*
X26393Y11269D01*
X26384Y11319D01*
X26369Y11364D01*
X26349Y11404D01*
X26322Y11438D01*
X26290Y11469D01*
X26253Y11495D01*
X26210Y11516D01*
X26164Y11533D01*
X26116Y11545D01*
X26066Y11552D01*
X26015Y11554D01*
X25960Y11552D01*
X25909Y11544D01*
X25861Y11530D01*
X25817Y11511D01*
X25777Y11487D01*
X25742Y11458D01*
X25713Y11425D01*
X25688Y11387D01*
X25669Y11346D01*
X25655Y11303D01*
X25647Y11258D01*
X25644Y11211D01*
X25648Y11159D01*
X25658Y11111D01*
X25676Y11067D01*
X25700Y11028D01*
X25730Y10993D01*
X25767Y10964D01*
X25809Y10941D01*
X25856Y10924D01*
X25878Y11019D01*
X25841Y11033D01*
X25810Y11050D01*
X25784Y11069D01*
X25763Y11092D01*
X25747Y11118D01*
X25736Y11146D01*
X25729Y11178D01*
X25727Y11213D01*
X25729Y11253D01*
X25737Y11290D01*
X25749Y11323D01*
X25767Y11353D01*
X25789Y11379D01*
X25814Y11401D01*
X25843Y11419D01*
X25875Y11432D01*
X25909Y11442D01*
X25944Y11449D01*
X25979Y11454D01*
X26014Y11455D01*
X26059Y11453D01*
X26101Y11448D01*
X26140Y11440D01*
X26176Y11428D01*
X26209Y11413D01*
X26237Y11394D01*
X26261Y11371D01*
X26280Y11344D01*
X26295Y11315D01*
X26305Y11285D01*
X26312Y11253D01*
X26314Y11221D01*
X26311Y11182D01*
X26302Y11146D01*
X26288Y11113D01*
X26267Y11084D01*
X26241Y11058D01*
X26209Y11037D01*
X26172Y11020D01*
X26129Y11008D01*
X26129Y11008D01*
X26384Y10585D02*
X25657Y10867D01*
X25657Y10763D01*
X26185Y10574D01*
X26216Y10563D01*
X26247Y10553D01*
X26276Y10544D01*
X26304Y10535D01*
X26274Y10527D01*
X26245Y10517D01*
X26215Y10507D01*
X26185Y10496D01*
X25657Y10300D01*
X25657Y10202D01*
X26384Y10486D01*
X26384Y10585D01*
X26384Y10585D01*
X23726Y11351D02*
X23527Y11351D01*
X23527Y11548D01*
X23444Y11548D01*
X23444Y11351D01*
X23246Y11351D01*
X23246Y11266D01*
X23444Y11266D01*
X23444Y11068D01*
X23527Y11068D01*
X23527Y11266D01*
X23726Y11266D01*
X23726Y11351D01*
X23726Y11351D01*
X23654Y10969D02*
X23646Y10876D01*
X23678Y10869D01*
X23706Y10858D01*
X23729Y10845D01*
X23749Y10827D01*
X23764Y10807D01*
X23774Y10786D01*
X23781Y10762D01*
X23783Y10736D01*
X23780Y10705D01*
X23771Y10676D01*
X23756Y10650D01*
X23734Y10627D01*
X23708Y10607D01*
X23678Y10593D01*
X23644Y10585D01*
X23605Y10582D01*
X23569Y10585D01*
X23537Y10593D01*
X23509Y10606D01*
X23485Y10625D01*
X23466Y10648D01*
X23452Y10674D01*
X23443Y10704D01*
X23441Y10737D01*
X23442Y10758D01*
X23446Y10778D01*
X23452Y10797D01*
X23460Y10815D01*
X23471Y10832D01*
X23483Y10846D01*
X23496Y10859D01*
X23511Y10870D01*
X23500Y10954D01*
X23127Y10883D01*
X23127Y10522D01*
X23212Y10522D01*
X23212Y10812D01*
X23407Y10851D01*
X23387Y10818D01*
X23373Y10784D01*
X23365Y10749D01*
X23362Y10714D01*
X23366Y10668D01*
X23378Y10626D01*
X23399Y10587D01*
X23428Y10553D01*
X23463Y10524D01*
X23503Y10504D01*
X23548Y10491D01*
X23597Y10487D01*
X23645Y10491D01*
X23689Y10502D01*
X23730Y10520D01*
X23768Y10545D01*
X23807Y10583D01*
X23834Y10628D01*
X23851Y10678D01*
X23856Y10736D01*
X23853Y10783D01*
X23843Y10826D01*
X23825Y10864D01*
X23801Y10898D01*
X23771Y10926D01*
X23736Y10947D01*
X23697Y10962D01*
X23654Y10969D01*
X23654Y10969D01*
X23844Y10160D02*
X23117Y10442D01*
X23117Y10338D01*
X23645Y10149D01*
X23676Y10138D01*
X23707Y10128D01*
X23736Y10119D01*
X23764Y10111D01*
X23734Y10102D01*
X23705Y10093D01*
X23675Y10082D01*
X23645Y10072D01*
X23117Y9875D01*
X23117Y9777D01*
X23844Y10062D01*
X23844Y10160D01*
X23844Y10160D01*
X21186Y11351D02*
X20987Y11351D01*
X20987Y11548D01*
X20904Y11548D01*
X20904Y11351D01*
X20706Y11351D01*
X20706Y11266D01*
X20904Y11266D01*
X20904Y11068D01*
X20987Y11068D01*
X20987Y11266D01*
X21186Y11266D01*
X21186Y11351D01*
X21186Y11351D01*
X21304Y10633D02*
X21304Y10722D01*
X20735Y10722D01*
X20750Y10740D01*
X20766Y10760D01*
X20781Y10782D01*
X20796Y10807D01*
X20811Y10833D01*
X20823Y10857D01*
X20834Y10880D01*
X20843Y10901D01*
X20756Y10901D01*
X20738Y10865D01*
X20717Y10831D01*
X20695Y10799D01*
X20671Y10770D01*
X20646Y10744D01*
X20622Y10722D01*
X20598Y10704D01*
X20574Y10691D01*
X20574Y10633D01*
X21304Y10633D01*
X21304Y10633D01*
X21218Y9935D02*
X21304Y9935D01*
X21304Y10416D01*
X21288Y10416D01*
X21272Y10414D01*
X21257Y10410D01*
X21242Y10405D01*
X21218Y10395D01*
X21193Y10382D01*
X21169Y10365D01*
X21145Y10347D01*
X21121Y10324D01*
X21094Y10297D01*
X21065Y10266D01*
X21035Y10230D01*
X20989Y10175D01*
X20948Y10130D01*
X20912Y10095D01*
X20881Y10070D01*
X20853Y10051D01*
X20826Y10038D01*
X20799Y10030D01*
X20774Y10028D01*
X20748Y10030D01*
X20725Y10037D01*
X20703Y10049D01*
X20684Y10066D01*
X20668Y10086D01*
X20657Y10110D01*
X20650Y10136D01*
X20648Y10165D01*
X20650Y10195D01*
X20657Y10223D01*
X20669Y10247D01*
X20686Y10268D01*
X20708Y10285D01*
X20733Y10297D01*
X20761Y10305D01*
X20794Y10307D01*
X20784Y10399D01*
X20736Y10391D01*
X20694Y10377D01*
X20658Y10356D01*
X20628Y10328D01*
X20604Y10295D01*
X20587Y10256D01*
X20577Y10212D01*
X20574Y10163D01*
X20577Y10113D01*
X20588Y10069D01*
X20606Y10030D01*
X20632Y9997D01*
X20663Y9970D01*
X20697Y9951D01*
X20734Y9940D01*
X20776Y9936D01*
X20797Y9937D01*
X20819Y9941D01*
X20840Y9946D01*
X20861Y9954D01*
X20883Y9964D01*
X20905Y9978D01*
X20927Y9994D01*
X20950Y10013D01*
X20976Y10037D01*
X21006Y10068D01*
X21040Y10106D01*
X21078Y10151D01*
X21109Y10188D01*
X21135Y10217D01*
X21155Y10239D01*
X21170Y10254D01*
X21182Y10265D01*
X21194Y10275D01*
X21206Y10284D01*
X21218Y10292D01*
X21218Y9935D01*
X21218Y9935D01*
X21304Y9595D02*
X20577Y9877D01*
X20577Y9773D01*
X21105Y9584D01*
X21136Y9573D01*
X21167Y9563D01*
X21196Y9554D01*
X21224Y9546D01*
X21194Y9537D01*
X21165Y9527D01*
X21135Y9517D01*
X21105Y9506D01*
X20577Y9310D01*
X20577Y9212D01*
X21304Y9497D01*
X21304Y9595D01*
X21304Y9595D01*
X10926Y11573D02*
X10836Y11573D01*
X10836Y11298D01*
X10926Y11298D01*
X10926Y11573D01*
X10926Y11573D01*
X11144Y10888D02*
X11144Y10977D01*
X10575Y10977D01*
X10590Y10995D01*
X10606Y11015D01*
X10621Y11037D01*
X10636Y11062D01*
X10651Y11088D01*
X10663Y11112D01*
X10674Y11135D01*
X10683Y11156D01*
X10596Y11156D01*
X10578Y11120D01*
X10557Y11086D01*
X10535Y11054D01*
X10511Y11025D01*
X10486Y10999D01*
X10462Y10977D01*
X10438Y10959D01*
X10414Y10946D01*
X10414Y10888D01*
X11144Y10888D01*
X11144Y10888D01*
X11058Y10190D02*
X11144Y10190D01*
X11144Y10671D01*
X11128Y10671D01*
X11112Y10669D01*
X11097Y10665D01*
X11082Y10660D01*
X11058Y10650D01*
X11033Y10637D01*
X11009Y10620D01*
X10985Y10602D01*
X10961Y10579D01*
X10934Y10552D01*
X10905Y10521D01*
X10875Y10485D01*
X10829Y10430D01*
X10788Y10385D01*
X10752Y10350D01*
X10721Y10325D01*
X10693Y10306D01*
X10666Y10293D01*
X10639Y10286D01*
X10614Y10283D01*
X10588Y10285D01*
X10565Y10292D01*
X10543Y10304D01*
X10524Y10321D01*
X10508Y10341D01*
X10497Y10365D01*
X10490Y10391D01*
X10488Y10420D01*
X10490Y10450D01*
X10497Y10478D01*
X10509Y10502D01*
X10526Y10523D01*
X10548Y10540D01*
X10573Y10552D01*
X10601Y10560D01*
X10634Y10562D01*
X10624Y10654D01*
X10576Y10646D01*
X10534Y10632D01*
X10498Y10611D01*
X10468Y10583D01*
X10444Y10550D01*
X10427Y10511D01*
X10417Y10467D01*
X10414Y10418D01*
X10417Y10368D01*
X10428Y10324D01*
X10446Y10285D01*
X10472Y10252D01*
X10503Y10225D01*
X10537Y10206D01*
X10574Y10195D01*
X10616Y10191D01*
X10637Y10192D01*
X10659Y10196D01*
X10680Y10201D01*
X10701Y10209D01*
X10723Y10219D01*
X10745Y10233D01*
X10767Y10249D01*
X10790Y10268D01*
X10816Y10292D01*
X10846Y10323D01*
X10880Y10361D01*
X10918Y10406D01*
X10949Y10443D01*
X10975Y10472D01*
X10995Y10494D01*
X11010Y10509D01*
X11022Y10520D01*
X11034Y10530D01*
X11046Y10539D01*
X11058Y10547D01*
X11058Y10190D01*
X11058Y10190D01*
X11144Y9850D02*
X10417Y10132D01*
X10417Y10028D01*
X10945Y9839D01*
X10976Y9828D01*
X11007Y9818D01*
X11036Y9809D01*
X11064Y9801D01*
X11034Y9792D01*
X11005Y9782D01*
X10975Y9772D01*
X10945Y9762D01*
X10417Y9565D01*
X10417Y9467D01*
X11144Y9752D01*
X11144Y9850D01*
X11144Y9850D01*
X13399Y11186D02*
X13313Y11186D01*
X13313Y10878D01*
X13583Y10878D01*
X13609Y10914D01*
X13632Y10950D01*
X13652Y10987D01*
X13668Y11025D01*
X13680Y11063D01*
X13689Y11101D01*
X13695Y11140D01*
X13696Y11179D01*
X13694Y11232D01*
X13685Y11282D01*
X13671Y11329D01*
X13651Y11374D01*
X13625Y11415D01*
X13594Y11451D01*
X13559Y11481D01*
X13518Y11506D01*
X13473Y11526D01*
X13426Y11540D01*
X13376Y11548D01*
X13324Y11551D01*
X13272Y11548D01*
X13221Y11540D01*
X13173Y11526D01*
X13126Y11507D01*
X13083Y11482D01*
X13045Y11452D01*
X13014Y11418D01*
X12989Y11379D01*
X12969Y11336D01*
X12955Y11289D01*
X12947Y11240D01*
X12944Y11187D01*
X12946Y11148D01*
X12951Y11112D01*
X12959Y11077D01*
X12970Y11044D01*
X12984Y11014D01*
X13000Y10987D01*
X13019Y10964D01*
X13041Y10944D01*
X13066Y10927D01*
X13094Y10912D01*
X13125Y10900D01*
X13160Y10889D01*
X13184Y10976D01*
X13158Y10985D01*
X13134Y10994D01*
X13114Y11005D01*
X13097Y11017D01*
X13082Y11030D01*
X13068Y11046D01*
X13056Y11065D01*
X13046Y11086D01*
X13037Y11109D01*
X13031Y11134D01*
X13028Y11159D01*
X13027Y11186D01*
X13028Y11218D01*
X13032Y11248D01*
X13038Y11275D01*
X13047Y11300D01*
X13058Y11323D01*
X13070Y11344D01*
X13084Y11362D01*
X13100Y11378D01*
X13116Y11392D01*
X13134Y11404D01*
X13152Y11415D01*
X13172Y11424D01*
X13206Y11436D01*
X13242Y11445D01*
X13279Y11450D01*
X13318Y11452D01*
X13365Y11450D01*
X13407Y11443D01*
X13446Y11433D01*
X13481Y11418D01*
X13511Y11400D01*
X13538Y11377D01*
X13560Y11351D01*
X13578Y11321D01*
X13592Y11288D01*
X13602Y11255D01*
X13608Y11220D01*
X13610Y11185D01*
X13608Y11154D01*
X13604Y11123D01*
X13596Y11093D01*
X13586Y11063D01*
X13573Y11035D01*
X13561Y11010D01*
X13548Y10990D01*
X13534Y10972D01*
X13399Y10972D01*
X13399Y11186D01*
X13399Y11186D01*
X13684Y10737D02*
X12957Y10737D01*
X12957Y10639D01*
X13528Y10257D01*
X12957Y10257D01*
X12957Y10164D01*
X13684Y10164D01*
X13684Y10263D01*
X13113Y10645D01*
X13684Y10645D01*
X13684Y10737D01*
X13684Y10737D01*
X13684Y10003D02*
X12957Y10003D01*
X12957Y9754D01*
X13043Y9754D01*
X13043Y9906D01*
X13598Y9906D01*
X13598Y9906D01*
X13598Y9751D01*
X13597Y9717D01*
X13595Y9687D01*
X13591Y9661D01*
X13585Y9638D01*
X13577Y9619D01*
X13569Y9601D01*
X13559Y9586D01*
X13547Y9573D01*
X13528Y9557D01*
X13507Y9543D01*
X13482Y9530D01*
X13455Y9520D01*
X13425Y9511D01*
X13391Y9505D01*
X13355Y9502D01*
X13315Y9501D01*
X13261Y9503D01*
X13214Y9510D01*
X13173Y9522D01*
X13140Y9538D01*
X13111Y9558D01*
X13088Y9579D01*
X13070Y9603D01*
X13057Y9629D01*
X13051Y9651D01*
X13046Y9680D01*
X13043Y9714D01*
X13043Y9754D01*
X12957Y9754D01*
X12957Y9752D01*
X12957Y9712D01*
X12959Y9677D01*
X12963Y9647D01*
X12967Y9623D01*
X12976Y9592D01*
X12987Y9565D01*
X13002Y9539D01*
X13019Y9516D01*
X13045Y9489D01*
X13075Y9466D01*
X13107Y9446D01*
X13144Y9430D01*
X13183Y9417D01*
X13225Y9408D01*
X13269Y9403D01*
X13316Y9401D01*
X13357Y9403D01*
X13395Y9406D01*
X13430Y9412D01*
X13463Y9421D01*
X13494Y9431D01*
X13522Y9443D01*
X13547Y9456D01*
X13569Y9470D01*
X13589Y9486D01*
X13607Y9502D01*
X13622Y9519D01*
X13635Y9537D01*
X13646Y9555D01*
X13656Y9576D01*
X13665Y9599D01*
X13672Y9623D01*
X13677Y9650D01*
X13681Y9678D01*
X13683Y9708D01*
X13684Y9740D01*
X13684Y10003D01*
X13684Y10003D01*
X15939Y11186D02*
X15853Y11186D01*
X15853Y10878D01*
X16123Y10878D01*
X16149Y10914D01*
X16172Y10950D01*
X16192Y10987D01*
X16208Y11025D01*
X16220Y11063D01*
X16229Y11101D01*
X16235Y11140D01*
X16236Y11179D01*
X16234Y11232D01*
X16225Y11282D01*
X16211Y11329D01*
X16191Y11374D01*
X16165Y11415D01*
X16134Y11451D01*
X16099Y11481D01*
X16058Y11506D01*
X16013Y11526D01*
X15966Y11540D01*
X15916Y11548D01*
X15864Y11551D01*
X15812Y11548D01*
X15761Y11540D01*
X15713Y11526D01*
X15666Y11507D01*
X15623Y11482D01*
X15585Y11452D01*
X15554Y11418D01*
X15529Y11379D01*
X15509Y11336D01*
X15495Y11289D01*
X15487Y11240D01*
X15484Y11187D01*
X15486Y11148D01*
X15491Y11112D01*
X15499Y11077D01*
X15510Y11044D01*
X15524Y11014D01*
X15540Y10987D01*
X15559Y10964D01*
X15581Y10944D01*
X15606Y10927D01*
X15634Y10912D01*
X15665Y10900D01*
X15700Y10889D01*
X15724Y10976D01*
X15698Y10985D01*
X15674Y10994D01*
X15654Y11005D01*
X15637Y11017D01*
X15622Y11030D01*
X15608Y11046D01*
X15596Y11065D01*
X15586Y11086D01*
X15577Y11109D01*
X15571Y11134D01*
X15568Y11159D01*
X15567Y11186D01*
X15568Y11218D01*
X15572Y11248D01*
X15578Y11275D01*
X15587Y11300D01*
X15598Y11323D01*
X15610Y11344D01*
X15624Y11362D01*
X15640Y11378D01*
X15656Y11392D01*
X15674Y11404D01*
X15692Y11415D01*
X15712Y11424D01*
X15746Y11436D01*
X15782Y11445D01*
X15819Y11450D01*
X15858Y11452D01*
X15905Y11450D01*
X15947Y11443D01*
X15986Y11433D01*
X16021Y11418D01*
X16051Y11400D01*
X16078Y11377D01*
X16100Y11351D01*
X16118Y11321D01*
X16132Y11288D01*
X16142Y11255D01*
X16148Y11220D01*
X16150Y11185D01*
X16148Y11154D01*
X16144Y11123D01*
X16136Y11093D01*
X16126Y11063D01*
X16113Y11035D01*
X16101Y11010D01*
X16088Y10990D01*
X16074Y10972D01*
X15939Y10972D01*
X15939Y11186D01*
X15939Y11186D01*
X16224Y10737D02*
X15497Y10737D01*
X15497Y10639D01*
X16068Y10257D01*
X15497Y10257D01*
X15497Y10164D01*
X16224Y10164D01*
X16224Y10263D01*
X15652Y10645D01*
X16224Y10645D01*
X16224Y10737D01*
X16224Y10737D01*
X16224Y10003D02*
X15497Y10003D01*
X15497Y9754D01*
X15583Y9754D01*
X15583Y9906D01*
X16138Y9906D01*
X16138Y9906D01*
X16138Y9751D01*
X16137Y9717D01*
X16135Y9687D01*
X16131Y9661D01*
X16125Y9638D01*
X16117Y9619D01*
X16109Y9601D01*
X16099Y9586D01*
X16087Y9573D01*
X16068Y9557D01*
X16047Y9543D01*
X16022Y9530D01*
X15995Y9520D01*
X15965Y9511D01*
X15931Y9505D01*
X15895Y9502D01*
X15855Y9501D01*
X15801Y9503D01*
X15754Y9510D01*
X15713Y9522D01*
X15680Y9538D01*
X15651Y9558D01*
X15628Y9579D01*
X15610Y9603D01*
X15597Y9629D01*
X15591Y9651D01*
X15586Y9680D01*
X15583Y9714D01*
X15583Y9754D01*
X15497Y9754D01*
X15497Y9752D01*
X15497Y9712D01*
X15499Y9677D01*
X15503Y9647D01*
X15507Y9623D01*
X15516Y9592D01*
X15527Y9565D01*
X15542Y9539D01*
X15559Y9516D01*
X15585Y9489D01*
X15615Y9466D01*
X15647Y9446D01*
X15684Y9430D01*
X15723Y9417D01*
X15765Y9408D01*
X15809Y9403D01*
X15856Y9401D01*
X15897Y9403D01*
X15935Y9406D01*
X15970Y9412D01*
X16003Y9421D01*
X16034Y9431D01*
X16062Y9443D01*
X16087Y9456D01*
X16109Y9470D01*
X16129Y9486D01*
X16147Y9502D01*
X16162Y9519D01*
X16175Y9537D01*
X16186Y9555D01*
X16196Y9576D01*
X16205Y9599D01*
X16212Y9623D01*
X16217Y9650D01*
X16221Y9678D01*
X16223Y9708D01*
X16224Y9740D01*
X16224Y10003D01*
X16224Y10003D01*
X18479Y11186D02*
X18393Y11186D01*
X18393Y10878D01*
X18663Y10878D01*
X18689Y10914D01*
X18712Y10950D01*
X18732Y10987D01*
X18748Y11025D01*
X18760Y11063D01*
X18769Y11101D01*
X18775Y11140D01*
X18776Y11179D01*
X18774Y11232D01*
X18765Y11282D01*
X18751Y11329D01*
X18731Y11374D01*
X18705Y11415D01*
X18674Y11451D01*
X18639Y11481D01*
X18598Y11506D01*
X18553Y11526D01*
X18506Y11540D01*
X18456Y11548D01*
X18404Y11551D01*
X18352Y11548D01*
X18301Y11540D01*
X18253Y11526D01*
X18206Y11507D01*
X18163Y11482D01*
X18125Y11452D01*
X18094Y11418D01*
X18069Y11379D01*
X18049Y11336D01*
X18035Y11289D01*
X18027Y11240D01*
X18024Y11187D01*
X18026Y11148D01*
X18031Y11112D01*
X18039Y11077D01*
X18050Y11044D01*
X18064Y11014D01*
X18080Y10987D01*
X18099Y10964D01*
X18121Y10944D01*
X18146Y10927D01*
X18174Y10912D01*
X18205Y10900D01*
X18240Y10889D01*
X18264Y10976D01*
X18238Y10985D01*
X18214Y10994D01*
X18194Y11005D01*
X18177Y11017D01*
X18162Y11030D01*
X18148Y11046D01*
X18136Y11065D01*
X18126Y11086D01*
X18117Y11109D01*
X18111Y11134D01*
X18108Y11159D01*
X18107Y11186D01*
X18108Y11218D01*
X18112Y11248D01*
X18118Y11275D01*
X18127Y11300D01*
X18138Y11323D01*
X18150Y11344D01*
X18164Y11362D01*
X18180Y11378D01*
X18196Y11392D01*
X18214Y11404D01*
X18232Y11415D01*
X18252Y11424D01*
X18286Y11436D01*
X18322Y11445D01*
X18359Y11450D01*
X18398Y11452D01*
X18445Y11450D01*
X18487Y11443D01*
X18526Y11433D01*
X18561Y11418D01*
X18591Y11400D01*
X18618Y11377D01*
X18640Y11351D01*
X18658Y11321D01*
X18672Y11288D01*
X18682Y11255D01*
X18688Y11220D01*
X18690Y11185D01*
X18688Y11154D01*
X18684Y11123D01*
X18676Y11093D01*
X18666Y11063D01*
X18653Y11035D01*
X18641Y11010D01*
X18628Y10990D01*
X18614Y10972D01*
X18479Y10972D01*
X18479Y11186D01*
X18479Y11186D01*
X18764Y10737D02*
X18037Y10737D01*
X18037Y10639D01*
X18608Y10257D01*
X18037Y10257D01*
X18037Y10164D01*
X18764Y10164D01*
X18764Y10263D01*
X18192Y10645D01*
X18764Y10645D01*
X18764Y10737D01*
X18764Y10737D01*
X18764Y10003D02*
X18037Y10003D01*
X18037Y9754D01*
X18123Y9754D01*
X18123Y9906D01*
X18678Y9906D01*
X18678Y9906D01*
X18678Y9751D01*
X18677Y9717D01*
X18675Y9687D01*
X18671Y9661D01*
X18665Y9638D01*
X18657Y9619D01*
X18649Y9601D01*
X18639Y9586D01*
X18627Y9573D01*
X18608Y9557D01*
X18587Y9543D01*
X18562Y9530D01*
X18535Y9520D01*
X18505Y9511D01*
X18471Y9505D01*
X18435Y9502D01*
X18395Y9501D01*
X18341Y9503D01*
X18294Y9510D01*
X18253Y9522D01*
X18220Y9538D01*
X18191Y9558D01*
X18168Y9579D01*
X18150Y9603D01*
X18137Y9629D01*
X18131Y9651D01*
X18126Y9680D01*
X18123Y9714D01*
X18123Y9754D01*
X18037Y9754D01*
X18037Y9752D01*
X18037Y9712D01*
X18039Y9677D01*
X18043Y9647D01*
X18047Y9623D01*
X18056Y9592D01*
X18067Y9565D01*
X18082Y9539D01*
X18099Y9516D01*
X18125Y9489D01*
X18155Y9466D01*
X18187Y9446D01*
X18224Y9430D01*
X18263Y9417D01*
X18305Y9408D01*
X18349Y9403D01*
X18396Y9401D01*
X18437Y9403D01*
X18475Y9406D01*
X18510Y9412D01*
X18543Y9421D01*
X18574Y9431D01*
X18602Y9443D01*
X18627Y9456D01*
X18649Y9470D01*
X18669Y9486D01*
X18687Y9502D01*
X18702Y9519D01*
X18715Y9537D01*
X18726Y9555D01*
X18736Y9576D01*
X18745Y9599D01*
X18752Y9623D01*
X18757Y9650D01*
X18761Y9678D01*
X18763Y9708D01*
X18764Y9740D01*
X18764Y10003D01*
X18764Y10003D01*
X4442Y20302D02*
X3351Y20302D01*
X3351Y19818D01*
X3353Y19750D01*
X3358Y19690D01*
X3368Y19639D01*
X3380Y19596D01*
X3398Y19560D01*
X3421Y19528D01*
X3450Y19500D01*
X3484Y19475D01*
X3522Y19455D01*
X3563Y19441D01*
X3605Y19433D01*
X3649Y19430D01*
X3705Y19434D01*
X3756Y19449D01*
X3802Y19472D01*
X3844Y19505D01*
X3881Y19548D01*
X3910Y19601D01*
X3931Y19664D01*
X3938Y19700D01*
X3821Y19723D01*
X3812Y19692D01*
X3800Y19666D01*
X3785Y19643D01*
X3768Y19624D01*
X3747Y19608D01*
X3724Y19595D01*
X3700Y19586D01*
X3675Y19580D01*
X3649Y19579D01*
X3612Y19582D01*
X3578Y19593D01*
X3548Y19610D01*
X3521Y19635D01*
X3500Y19667D01*
X3484Y19707D01*
X3475Y19756D01*
X3472Y19812D01*
X3472Y20158D01*
X3833Y20158D01*
X3833Y20158D01*
X3833Y19847D01*
X3831Y19800D01*
X3827Y19759D01*
X3821Y19723D01*
X3938Y19700D01*
X3946Y19737D01*
X3959Y19710D01*
X3973Y19687D01*
X3987Y19667D01*
X4000Y19650D01*
X4031Y19619D01*
X4065Y19588D01*
X4103Y19559D01*
X4145Y19530D01*
X4442Y19340D01*
X4442Y19522D01*
X4215Y19666D01*
X4169Y19697D01*
X4128Y19724D01*
X4094Y19749D01*
X4065Y19771D01*
X4041Y19790D01*
X4020Y19809D01*
X4004Y19827D01*
X3992Y19844D01*
X3982Y19860D01*
X3974Y19877D01*
X3968Y19893D01*
X3963Y19910D01*
X3960Y19924D01*
X3959Y19942D01*
X3958Y19964D01*
X3958Y19990D01*
X3958Y20158D01*
X4442Y20158D01*
X4442Y20302D01*
X4442Y20302D01*
X4188Y18680D02*
X4205Y18541D01*
X4262Y18561D01*
X4312Y18588D01*
X4356Y18622D01*
X4393Y18663D01*
X4422Y18710D01*
X4443Y18763D01*
X4456Y18823D01*
X4460Y18889D01*
X4453Y18971D01*
X4433Y19044D01*
X4400Y19108D01*
X4353Y19164D01*
X4294Y19208D01*
X4225Y19240D01*
X4145Y19259D01*
X4054Y19265D01*
X3959Y19259D01*
X3876Y19240D01*
X3805Y19208D01*
X3744Y19163D01*
X3696Y19107D01*
X3661Y19045D01*
X3641Y18974D01*
X3634Y18896D01*
X3635Y18885D01*
X3744Y18895D01*
X3748Y18939D01*
X3759Y18980D01*
X3779Y19017D01*
X3806Y19050D01*
X3839Y19078D01*
X3878Y19099D01*
X3922Y19113D01*
X3971Y19119D01*
X3971Y19119D01*
X3971Y18678D01*
X3924Y18685D01*
X3884Y18695D01*
X3849Y18710D01*
X3821Y18729D01*
X3788Y18763D01*
X3763Y18802D01*
X3749Y18846D01*
X3744Y18895D01*
X3635Y18885D01*
X3641Y18821D01*
X3661Y18752D01*
X3695Y18691D01*
X3742Y18637D01*
X3801Y18593D01*
X3872Y18562D01*
X3953Y18543D01*
X4045Y18537D01*
X4052Y18537D01*
X4060Y18537D01*
X4070Y18537D01*
X4081Y18538D01*
X4081Y19127D01*
X4142Y19119D01*
X4196Y19105D01*
X4242Y19083D01*
X4281Y19053D01*
X4311Y19018D01*
X4332Y18979D01*
X4345Y18935D01*
X4350Y18888D01*
X4347Y18853D01*
X4340Y18820D01*
X4328Y18790D01*
X4311Y18762D01*
X4289Y18738D01*
X4261Y18716D01*
X4227Y18696D01*
X4188Y18680D01*
X4188Y18680D01*
X4442Y17860D02*
X4342Y17860D01*
X4280Y17921D01*
X4278Y17919D01*
X4237Y17893D01*
X4187Y17873D01*
X4128Y17862D01*
X4059Y17858D01*
X3983Y17862D01*
X3918Y17874D01*
X3864Y17893D01*
X3821Y17921D01*
X3787Y17954D01*
X3764Y17990D01*
X3749Y18031D01*
X3745Y18075D01*
X3749Y18117D01*
X3763Y18157D01*
X3786Y18192D01*
X3818Y18224D01*
X3859Y18250D01*
X3912Y18269D01*
X3974Y18280D01*
X4048Y18284D01*
X4048Y18284D01*
X4119Y18280D01*
X4180Y18268D01*
X4232Y18248D01*
X4275Y18220D01*
X4307Y18186D01*
X4331Y18150D01*
X4345Y18111D01*
X4350Y18069D01*
X4345Y18026D01*
X4332Y17987D01*
X4309Y17952D01*
X4280Y17921D01*
X4342Y17860D01*
X4394Y17902D01*
X4430Y17953D01*
X4453Y18013D01*
X4460Y18081D01*
X4457Y18128D01*
X4447Y18172D01*
X4431Y18215D01*
X4408Y18255D01*
X4379Y18292D01*
X4345Y18325D01*
X4306Y18354D01*
X4262Y18378D01*
X4214Y18397D01*
X4162Y18411D01*
X4107Y18419D01*
X4048Y18421D01*
X3990Y18419D01*
X3935Y18412D01*
X3882Y18399D01*
X3833Y18382D01*
X3788Y18360D01*
X3748Y18333D01*
X3714Y18301D01*
X3685Y18264D01*
X3663Y18223D01*
X3647Y18180D01*
X3637Y18135D01*
X3634Y18087D01*
X3636Y18053D01*
X3641Y18020D01*
X3651Y17989D01*
X3664Y17960D01*
X3680Y17933D01*
X3699Y17909D01*
X3719Y17888D01*
X3743Y17869D01*
X3351Y17869D01*
X3351Y17736D01*
X4442Y17736D01*
X4442Y17860D01*
X4442Y17860D01*
X4442Y16956D02*
X3652Y17198D01*
X3652Y17060D01*
X4108Y16934D01*
X4278Y16887D01*
X4263Y16883D01*
X4230Y16875D01*
X4181Y16863D01*
X4115Y16846D01*
X3652Y16720D01*
X3652Y16583D01*
X4110Y16464D01*
X4261Y16425D01*
X4109Y16379D01*
X3652Y16244D01*
X3652Y16114D01*
X4442Y16361D01*
X4442Y16500D01*
X3969Y16626D01*
X3834Y16656D01*
X4442Y16816D01*
X4442Y16956D01*
X4442Y16956D01*
X4442Y16001D02*
X3652Y16001D01*
X3652Y15867D01*
X4442Y15867D01*
X4442Y16001D01*
X4442Y16001D01*
X3505Y16001D02*
X3351Y16001D01*
X3351Y15867D01*
X3505Y15867D01*
X3505Y16001D01*
X3505Y16001D01*
X4442Y15664D02*
X3652Y15664D01*
X3652Y15544D01*
X3772Y15544D01*
X3733Y15521D01*
X3702Y15499D01*
X3678Y15479D01*
X3661Y15459D01*
X3649Y15439D01*
X3641Y15418D01*
X3636Y15396D01*
X3634Y15373D01*
X3637Y15339D01*
X3645Y15304D01*
X3658Y15270D01*
X3677Y15235D01*
X3801Y15281D01*
X3789Y15306D01*
X3780Y15330D01*
X3774Y15355D01*
X3772Y15379D01*
X3774Y15401D01*
X3779Y15421D01*
X3787Y15440D01*
X3799Y15458D01*
X3813Y15475D01*
X3830Y15488D01*
X3850Y15499D01*
X3872Y15508D01*
X3909Y15518D01*
X3947Y15525D01*
X3987Y15529D01*
X4028Y15530D01*
X4442Y15530D01*
X4442Y15664D01*
X4442Y15664D01*
X4188Y14614D02*
X4205Y14476D01*
X4262Y14496D01*
X4312Y14523D01*
X4356Y14557D01*
X4393Y14597D01*
X4422Y14645D01*
X4443Y14698D01*
X4456Y14758D01*
X4460Y14824D01*
X4453Y14906D01*
X4433Y14979D01*
X4400Y15043D01*
X4353Y15099D01*
X4294Y15143D01*
X4225Y15175D01*
X4145Y15194D01*
X4054Y15200D01*
X3959Y15194D01*
X3876Y15174D01*
X3805Y15142D01*
X3744Y15097D01*
X3696Y15042D01*
X3661Y14979D01*
X3641Y14909D01*
X3634Y14831D01*
X3635Y14820D01*
X3744Y14830D01*
X3748Y14874D01*
X3759Y14914D01*
X3779Y14951D01*
X3806Y14985D01*
X3839Y15013D01*
X3878Y15033D01*
X3922Y15047D01*
X3971Y15054D01*
X3971Y15054D01*
X3971Y14613D01*
X3924Y14619D01*
X3884Y14630D01*
X3849Y14645D01*
X3821Y14664D01*
X3788Y14698D01*
X3763Y14737D01*
X3749Y14781D01*
X3744Y14830D01*
X3635Y14820D01*
X3641Y14755D01*
X3661Y14687D01*
X3695Y14626D01*
X3742Y14572D01*
X3801Y14528D01*
X3872Y14497D01*
X3953Y14478D01*
X4045Y14472D01*
X4052Y14472D01*
X4060Y14472D01*
X4070Y14472D01*
X4081Y14472D01*
X4081Y15062D01*
X4142Y15054D01*
X4196Y15040D01*
X4242Y15017D01*
X4281Y14988D01*
X4311Y14953D01*
X4332Y14914D01*
X4345Y14870D01*
X4350Y14823D01*
X4347Y14787D01*
X4340Y14755D01*
X4328Y14724D01*
X4311Y14697D01*
X4289Y14672D01*
X4261Y14650D01*
X4227Y14631D01*
X4188Y14614D01*
X4188Y14614D01*
X10926Y25439D02*
X10836Y25439D01*
X10836Y25165D01*
X10926Y25165D01*
X10926Y25439D01*
X10926Y25439D01*
X11144Y24754D02*
X11144Y24844D01*
X10575Y24844D01*
X10590Y24861D01*
X10606Y24881D01*
X10621Y24903D01*
X10636Y24928D01*
X10651Y24954D01*
X10663Y24978D01*
X10674Y25001D01*
X10683Y25022D01*
X10596Y25022D01*
X10578Y24986D01*
X10557Y24952D01*
X10535Y24920D01*
X10511Y24891D01*
X10486Y24865D01*
X10462Y24843D01*
X10438Y24826D01*
X10414Y24812D01*
X10414Y24754D01*
X11144Y24754D01*
X11144Y24754D01*
X11058Y24056D02*
X11144Y24056D01*
X11144Y24537D01*
X11128Y24537D01*
X11112Y24535D01*
X11097Y24531D01*
X11082Y24527D01*
X11058Y24516D01*
X11033Y24503D01*
X11009Y24487D01*
X10985Y24468D01*
X10961Y24445D01*
X10934Y24418D01*
X10905Y24387D01*
X10875Y24351D01*
X10829Y24296D01*
X10788Y24252D01*
X10752Y24216D01*
X10721Y24191D01*
X10693Y24172D01*
X10666Y24159D01*
X10639Y24152D01*
X10614Y24149D01*
X10588Y24151D01*
X10565Y24159D01*
X10543Y24170D01*
X10524Y24187D01*
X10508Y24207D01*
X10497Y24231D01*
X10490Y24257D01*
X10488Y24286D01*
X10490Y24317D01*
X10497Y24344D01*
X10509Y24368D01*
X10526Y24389D01*
X10548Y24406D01*
X10573Y24418D01*
X10601Y24426D01*
X10634Y24428D01*
X10624Y24520D01*
X10576Y24512D01*
X10534Y24498D01*
X10498Y24477D01*
X10468Y24449D01*
X10444Y24416D01*
X10427Y24377D01*
X10417Y24333D01*
X10414Y24284D01*
X10417Y24234D01*
X10428Y24190D01*
X10446Y24152D01*
X10472Y24118D01*
X10503Y24092D01*
X10537Y24073D01*
X10574Y24061D01*
X10616Y24057D01*
X10637Y24058D01*
X10659Y24062D01*
X10680Y24067D01*
X10701Y24075D01*
X10723Y24086D01*
X10745Y24099D01*
X10767Y24115D01*
X10790Y24134D01*
X10816Y24159D01*
X10846Y24190D01*
X10880Y24227D01*
X10918Y24272D01*
X10949Y24309D01*
X10975Y24338D01*
X10995Y24360D01*
X11010Y24375D01*
X11022Y24386D01*
X11034Y24396D01*
X11046Y24405D01*
X11058Y24413D01*
X11058Y24056D01*
X11058Y24056D01*
X11144Y23716D02*
X10417Y23998D01*
X10417Y23894D01*
X10945Y23705D01*
X10976Y23694D01*
X11007Y23684D01*
X11036Y23675D01*
X11064Y23667D01*
X11034Y23658D01*
X11005Y23649D01*
X10975Y23638D01*
X10945Y23628D01*
X10417Y23431D01*
X10417Y23333D01*
X11144Y23618D01*
X11144Y23716D01*
X11144Y23716D01*
X28639Y25109D02*
X28553Y25109D01*
X28553Y24801D01*
X28823Y24801D01*
X28849Y24837D01*
X28872Y24873D01*
X28892Y24910D01*
X28908Y24947D01*
X28920Y24985D01*
X28929Y25024D01*
X28935Y25063D01*
X28936Y25102D01*
X28934Y25154D01*
X28925Y25204D01*
X28911Y25252D01*
X28891Y25297D01*
X28865Y25338D01*
X28834Y25374D01*
X28799Y25404D01*
X28758Y25429D01*
X28713Y25448D01*
X28666Y25462D01*
X28616Y25471D01*
X28564Y25474D01*
X28512Y25471D01*
X28461Y25463D01*
X28413Y25449D01*
X28366Y25429D01*
X28323Y25405D01*
X28285Y25375D01*
X28254Y25341D01*
X28229Y25301D01*
X28209Y25258D01*
X28195Y25212D01*
X28187Y25162D01*
X28184Y25109D01*
X28186Y25071D01*
X28191Y25034D01*
X28199Y25000D01*
X28210Y24967D01*
X28224Y24937D01*
X28240Y24910D01*
X28259Y24887D01*
X28281Y24867D01*
X28306Y24850D01*
X28334Y24835D01*
X28365Y24822D01*
X28400Y24812D01*
X28424Y24899D01*
X28398Y24907D01*
X28374Y24917D01*
X28354Y24928D01*
X28337Y24939D01*
X28322Y24953D01*
X28308Y24969D01*
X28296Y24988D01*
X28286Y25009D01*
X28277Y25032D01*
X28271Y25056D01*
X28268Y25082D01*
X28267Y25109D01*
X28268Y25141D01*
X28272Y25170D01*
X28278Y25198D01*
X28287Y25223D01*
X28298Y25246D01*
X28310Y25267D01*
X28324Y25285D01*
X28340Y25301D01*
X28356Y25315D01*
X28374Y25327D01*
X28392Y25338D01*
X28412Y25347D01*
X28446Y25359D01*
X28482Y25367D01*
X28519Y25373D01*
X28558Y25374D01*
X28605Y25372D01*
X28647Y25366D01*
X28686Y25356D01*
X28721Y25341D01*
X28751Y25322D01*
X28778Y25300D01*
X28800Y25274D01*
X28818Y25243D01*
X28832Y25211D01*
X28842Y25177D01*
X28848Y25143D01*
X28850Y25107D01*
X28848Y25076D01*
X28844Y25046D01*
X28836Y25015D01*
X28826Y24985D01*
X28813Y24957D01*
X28801Y24933D01*
X28788Y24912D01*
X28774Y24895D01*
X28639Y24895D01*
X28639Y25109D01*
X28639Y25109D01*
X28859Y24327D02*
X28879Y24351D01*
X28881Y24355D01*
X28831Y24389D01*
X28817Y24373D01*
X28800Y24359D01*
X28782Y24348D01*
X28765Y24342D01*
X28744Y24338D01*
X28720Y24335D01*
X28692Y24334D01*
X28660Y24334D01*
X28660Y24334D01*
X28669Y24361D01*
X28678Y24395D01*
X28686Y24434D01*
X28693Y24480D01*
X28697Y24505D01*
X28702Y24527D01*
X28706Y24544D01*
X28711Y24558D01*
X28717Y24569D01*
X28723Y24578D01*
X28731Y24586D01*
X28740Y24593D01*
X28750Y24598D01*
X28760Y24602D01*
X28771Y24605D01*
X28783Y24605D01*
X28800Y24604D01*
X28815Y24599D01*
X28829Y24590D01*
X28842Y24578D01*
X28853Y24563D01*
X28860Y24545D01*
X28864Y24524D01*
X28866Y24499D01*
X28865Y24474D01*
X28860Y24451D01*
X28853Y24428D01*
X28843Y24407D01*
X28831Y24389D01*
X28881Y24355D01*
X28895Y24375D01*
X28908Y24399D01*
X28919Y24422D01*
X28926Y24445D01*
X28932Y24470D01*
X28935Y24495D01*
X28936Y24521D01*
X28933Y24561D01*
X28925Y24597D01*
X28912Y24628D01*
X28893Y24654D01*
X28871Y24674D01*
X28845Y24689D01*
X28817Y24698D01*
X28785Y24701D01*
X28766Y24700D01*
X28748Y24696D01*
X28731Y24691D01*
X28714Y24683D01*
X28699Y24674D01*
X28686Y24663D01*
X28674Y24651D01*
X28663Y24637D01*
X28654Y24622D01*
X28646Y24607D01*
X28639Y24590D01*
X28634Y24573D01*
X28630Y24558D01*
X28627Y24540D01*
X28624Y24518D01*
X28620Y24493D01*
X28614Y24443D01*
X28606Y24399D01*
X28598Y24363D01*
X28590Y24334D01*
X28581Y24334D01*
X28575Y24334D01*
X28570Y24334D01*
X28566Y24334D01*
X28541Y24335D01*
X28520Y24340D01*
X28503Y24348D01*
X28489Y24359D01*
X28476Y24378D01*
X28467Y24401D01*
X28461Y24429D01*
X28459Y24461D01*
X28461Y24490D01*
X28465Y24515D01*
X28472Y24537D01*
X28481Y24554D01*
X28494Y24568D01*
X28512Y24580D01*
X28533Y24590D01*
X28559Y24598D01*
X28547Y24685D01*
X28521Y24678D01*
X28497Y24670D01*
X28476Y24659D01*
X28457Y24646D01*
X28441Y24631D01*
X28426Y24613D01*
X28414Y24592D01*
X28404Y24567D01*
X28396Y24540D01*
X28390Y24512D01*
X28386Y24481D01*
X28385Y24448D01*
X28386Y24416D01*
X28389Y24387D01*
X28394Y24361D01*
X28401Y24338D01*
X28410Y24318D01*
X28419Y24301D01*
X28430Y24287D01*
X28441Y24276D01*
X28454Y24267D01*
X28468Y24259D01*
X28484Y24253D01*
X28502Y24248D01*
X28516Y24246D01*
X28534Y24245D01*
X28557Y24244D01*
X28584Y24244D01*
X28703Y24244D01*
X28760Y24243D01*
X28805Y24242D01*
X28839Y24241D01*
X28861Y24238D01*
X28877Y24235D01*
X28893Y24230D01*
X28909Y24223D01*
X28924Y24215D01*
X28924Y24309D01*
X28910Y24315D01*
X28894Y24320D01*
X28877Y24324D01*
X28859Y24327D01*
X28859Y24327D01*
X28844Y23910D02*
X28923Y23897D01*
X28926Y23916D01*
X28929Y23933D01*
X28930Y23950D01*
X28931Y23965D01*
X28930Y23988D01*
X28927Y24008D01*
X28922Y24026D01*
X28916Y24040D01*
X28907Y24053D01*
X28898Y24063D01*
X28887Y24072D01*
X28875Y24078D01*
X28859Y24083D01*
X28836Y24086D01*
X28806Y24088D01*
X28770Y24089D01*
X28467Y24089D01*
X28467Y24154D01*
X28397Y24154D01*
X28397Y24089D01*
X28267Y24089D01*
X28213Y24000D01*
X28397Y24000D01*
X28397Y23910D01*
X28467Y23910D01*
X28467Y24000D01*
X28775Y24000D01*
X28792Y24000D01*
X28806Y23999D01*
X28817Y23998D01*
X28824Y23995D01*
X28829Y23993D01*
X28834Y23989D01*
X28838Y23985D01*
X28841Y23980D01*
X28844Y23974D01*
X28846Y23967D01*
X28847Y23959D01*
X28848Y23950D01*
X28847Y23942D01*
X28847Y23932D01*
X28846Y23922D01*
X28844Y23910D01*
X28844Y23910D01*
X28754Y23462D02*
X28766Y23370D01*
X28804Y23383D01*
X28838Y23401D01*
X28867Y23424D01*
X28891Y23451D01*
X28911Y23483D01*
X28925Y23518D01*
X28933Y23558D01*
X28936Y23602D01*
X28931Y23657D01*
X28918Y23705D01*
X28896Y23748D01*
X28865Y23785D01*
X28826Y23815D01*
X28779Y23836D01*
X28726Y23849D01*
X28665Y23853D01*
X28602Y23849D01*
X28547Y23836D01*
X28499Y23814D01*
X28459Y23784D01*
X28427Y23748D01*
X28404Y23706D01*
X28390Y23659D01*
X28385Y23607D01*
X28386Y23599D01*
X28459Y23606D01*
X28461Y23635D01*
X28469Y23662D01*
X28482Y23687D01*
X28500Y23709D01*
X28522Y23728D01*
X28548Y23742D01*
X28577Y23751D01*
X28610Y23756D01*
X28610Y23756D01*
X28610Y23461D01*
X28579Y23466D01*
X28552Y23473D01*
X28529Y23483D01*
X28510Y23495D01*
X28488Y23518D01*
X28472Y23544D01*
X28462Y23573D01*
X28459Y23606D01*
X28386Y23599D01*
X28390Y23556D01*
X28403Y23511D01*
X28426Y23470D01*
X28457Y23434D01*
X28497Y23405D01*
X28544Y23384D01*
X28598Y23371D01*
X28660Y23367D01*
X28664Y23367D01*
X28670Y23367D01*
X28676Y23367D01*
X28683Y23368D01*
X28683Y23761D01*
X28724Y23756D01*
X28760Y23746D01*
X28791Y23731D01*
X28816Y23711D01*
X28837Y23688D01*
X28851Y23662D01*
X28860Y23633D01*
X28862Y23601D01*
X28861Y23578D01*
X28856Y23556D01*
X28848Y23536D01*
X28837Y23517D01*
X28822Y23501D01*
X28803Y23486D01*
X28781Y23473D01*
X28754Y23462D01*
X28754Y23462D01*
X26129Y24139D02*
X26153Y24043D01*
X26209Y24061D01*
X26258Y24085D01*
X26299Y24115D01*
X26334Y24152D01*
X26361Y24193D01*
X26381Y24239D01*
X26393Y24289D01*
X26396Y24344D01*
X26393Y24400D01*
X26384Y24451D01*
X26369Y24496D01*
X26349Y24535D01*
X26322Y24570D01*
X26290Y24600D01*
X26253Y24626D01*
X26210Y24647D01*
X26164Y24664D01*
X26116Y24676D01*
X26066Y24683D01*
X26015Y24686D01*
X25960Y24683D01*
X25909Y24675D01*
X25861Y24661D01*
X25817Y24642D01*
X25777Y24618D01*
X25742Y24590D01*
X25713Y24557D01*
X25688Y24519D01*
X25669Y24478D01*
X25655Y24435D01*
X25647Y24390D01*
X25644Y24343D01*
X25648Y24290D01*
X25658Y24242D01*
X25676Y24198D01*
X25700Y24159D01*
X25730Y24125D01*
X25767Y24096D01*
X25809Y24073D01*
X25856Y24055D01*
X25878Y24150D01*
X25841Y24164D01*
X25810Y24181D01*
X25784Y24201D01*
X25763Y24223D01*
X25747Y24249D01*
X25736Y24278D01*
X25729Y24310D01*
X25727Y24344D01*
X25729Y24385D01*
X25737Y24421D01*
X25749Y24455D01*
X25767Y24485D01*
X25789Y24511D01*
X25814Y24533D01*
X25843Y24550D01*
X25875Y24564D01*
X25909Y24574D01*
X25944Y24581D01*
X25979Y24585D01*
X26014Y24587D01*
X26059Y24585D01*
X26101Y24580D01*
X26140Y24571D01*
X26176Y24560D01*
X26209Y24544D01*
X26237Y24525D01*
X26261Y24502D01*
X26280Y24475D01*
X26295Y24446D01*
X26305Y24416D01*
X26312Y24385D01*
X26314Y24352D01*
X26311Y24313D01*
X26302Y24277D01*
X26288Y24245D01*
X26267Y24215D01*
X26241Y24189D01*
X26209Y24168D01*
X26172Y24151D01*
X26129Y24139D01*
X26129Y24139D01*
X26384Y23716D02*
X25657Y23998D01*
X25657Y23894D01*
X26185Y23705D01*
X26216Y23694D01*
X26247Y23684D01*
X26276Y23675D01*
X26304Y23667D01*
X26274Y23658D01*
X26245Y23649D01*
X26215Y23638D01*
X26185Y23628D01*
X25657Y23431D01*
X25657Y23333D01*
X26384Y23618D01*
X26384Y23716D01*
X26384Y23716D01*
X13399Y25164D02*
X13313Y25164D01*
X13313Y24856D01*
X13583Y24856D01*
X13609Y24892D01*
X13632Y24928D01*
X13652Y24965D01*
X13668Y25002D01*
X13680Y25040D01*
X13689Y25079D01*
X13695Y25118D01*
X13696Y25157D01*
X13694Y25209D01*
X13685Y25259D01*
X13671Y25307D01*
X13651Y25352D01*
X13625Y25393D01*
X13594Y25429D01*
X13559Y25459D01*
X13518Y25484D01*
X13473Y25504D01*
X13426Y25518D01*
X13376Y25526D01*
X13324Y25529D01*
X13272Y25526D01*
X13221Y25518D01*
X13173Y25504D01*
X13126Y25484D01*
X13083Y25460D01*
X13045Y25430D01*
X13014Y25396D01*
X12989Y25357D01*
X12969Y25313D01*
X12955Y25267D01*
X12947Y25217D01*
X12944Y25165D01*
X12946Y25126D01*
X12951Y25089D01*
X12959Y25055D01*
X12970Y25022D01*
X12984Y24992D01*
X13000Y24965D01*
X13019Y24942D01*
X13041Y24922D01*
X13066Y24905D01*
X13094Y24890D01*
X13125Y24877D01*
X13160Y24867D01*
X13184Y24954D01*
X13158Y24962D01*
X13134Y24972D01*
X13114Y24983D01*
X13097Y24994D01*
X13082Y25008D01*
X13068Y25024D01*
X13056Y25043D01*
X13046Y25064D01*
X13037Y25087D01*
X13031Y25111D01*
X13028Y25137D01*
X13027Y25164D01*
X13028Y25196D01*
X13032Y25226D01*
X13038Y25253D01*
X13047Y25278D01*
X13058Y25301D01*
X13070Y25322D01*
X13084Y25340D01*
X13100Y25356D01*
X13116Y25370D01*
X13134Y25382D01*
X13152Y25393D01*
X13172Y25402D01*
X13206Y25414D01*
X13242Y25423D01*
X13279Y25428D01*
X13318Y25429D01*
X13365Y25427D01*
X13407Y25421D01*
X13446Y25411D01*
X13481Y25396D01*
X13511Y25377D01*
X13538Y25355D01*
X13560Y25329D01*
X13578Y25298D01*
X13592Y25266D01*
X13602Y25233D01*
X13608Y25198D01*
X13610Y25163D01*
X13608Y25132D01*
X13604Y25101D01*
X13596Y25070D01*
X13586Y25041D01*
X13573Y25013D01*
X13561Y24988D01*
X13548Y24967D01*
X13534Y24950D01*
X13399Y24950D01*
X13399Y25164D01*
X13399Y25164D01*
X13684Y24715D02*
X12957Y24715D01*
X12957Y24616D01*
X13528Y24234D01*
X12957Y24234D01*
X12957Y24142D01*
X13684Y24142D01*
X13684Y24241D01*
X13113Y24623D01*
X13684Y24623D01*
X13684Y24715D01*
X13684Y24715D01*
X13684Y23980D02*
X12957Y23980D01*
X12957Y23731D01*
X13043Y23731D01*
X13043Y23884D01*
X13598Y23884D01*
X13598Y23884D01*
X13598Y23729D01*
X13597Y23695D01*
X13595Y23665D01*
X13591Y23638D01*
X13585Y23616D01*
X13577Y23597D01*
X13569Y23579D01*
X13559Y23564D01*
X13547Y23551D01*
X13528Y23535D01*
X13507Y23520D01*
X13482Y23508D01*
X13455Y23497D01*
X13425Y23489D01*
X13391Y23483D01*
X13355Y23479D01*
X13315Y23478D01*
X13261Y23481D01*
X13214Y23488D01*
X13173Y23499D01*
X13140Y23516D01*
X13111Y23535D01*
X13088Y23557D01*
X13070Y23581D01*
X13057Y23607D01*
X13051Y23629D01*
X13046Y23657D01*
X13043Y23691D01*
X13043Y23731D01*
X12957Y23731D01*
X12957Y23730D01*
X12957Y23690D01*
X12959Y23655D01*
X12963Y23625D01*
X12967Y23600D01*
X12976Y23570D01*
X12987Y23542D01*
X13002Y23517D01*
X13019Y23494D01*
X13045Y23467D01*
X13075Y23443D01*
X13107Y23424D01*
X13144Y23408D01*
X13183Y23395D01*
X13225Y23386D01*
X13269Y23381D01*
X13316Y23379D01*
X13357Y23380D01*
X13395Y23384D01*
X13430Y23390D01*
X13463Y23398D01*
X13494Y23409D01*
X13522Y23421D01*
X13547Y23434D01*
X13569Y23448D01*
X13589Y23464D01*
X13607Y23480D01*
X13622Y23497D01*
X13635Y23514D01*
X13646Y23533D01*
X13656Y23554D01*
X13665Y23577D01*
X13672Y23601D01*
X13677Y23627D01*
X13681Y23656D01*
X13683Y23686D01*
X13684Y23718D01*
X13684Y23980D01*
X13684Y23980D01*
X15939Y25164D02*
X15853Y25164D01*
X15853Y24856D01*
X16123Y24856D01*
X16149Y24892D01*
X16172Y24928D01*
X16192Y24965D01*
X16208Y25002D01*
X16220Y25040D01*
X16229Y25079D01*
X16235Y25118D01*
X16236Y25157D01*
X16234Y25209D01*
X16225Y25259D01*
X16211Y25307D01*
X16191Y25352D01*
X16165Y25393D01*
X16134Y25429D01*
X16099Y25459D01*
X16058Y25484D01*
X16013Y25504D01*
X15966Y25518D01*
X15916Y25526D01*
X15864Y25529D01*
X15812Y25526D01*
X15761Y25518D01*
X15713Y25504D01*
X15666Y25484D01*
X15623Y25460D01*
X15585Y25430D01*
X15554Y25396D01*
X15529Y25357D01*
X15509Y25313D01*
X15495Y25267D01*
X15487Y25217D01*
X15484Y25165D01*
X15486Y25126D01*
X15491Y25089D01*
X15499Y25055D01*
X15510Y25022D01*
X15524Y24992D01*
X15540Y24965D01*
X15559Y24942D01*
X15581Y24922D01*
X15606Y24905D01*
X15634Y24890D01*
X15665Y24877D01*
X15700Y24867D01*
X15724Y24954D01*
X15698Y24962D01*
X15674Y24972D01*
X15654Y24983D01*
X15637Y24994D01*
X15622Y25008D01*
X15608Y25024D01*
X15596Y25043D01*
X15586Y25064D01*
X15577Y25087D01*
X15571Y25111D01*
X15568Y25137D01*
X15567Y25164D01*
X15568Y25196D01*
X15572Y25226D01*
X15578Y25253D01*
X15587Y25278D01*
X15598Y25301D01*
X15610Y25322D01*
X15624Y25340D01*
X15640Y25356D01*
X15656Y25370D01*
X15674Y25382D01*
X15692Y25393D01*
X15712Y25402D01*
X15746Y25414D01*
X15782Y25423D01*
X15819Y25428D01*
X15858Y25429D01*
X15905Y25427D01*
X15947Y25421D01*
X15986Y25411D01*
X16021Y25396D01*
X16051Y25377D01*
X16078Y25355D01*
X16100Y25329D01*
X16118Y25298D01*
X16132Y25266D01*
X16142Y25233D01*
X16148Y25198D01*
X16150Y25163D01*
X16148Y25132D01*
X16144Y25101D01*
X16136Y25070D01*
X16126Y25041D01*
X16113Y25013D01*
X16101Y24988D01*
X16088Y24967D01*
X16074Y24950D01*
X15939Y24950D01*
X15939Y25164D01*
X15939Y25164D01*
X16224Y24715D02*
X15497Y24715D01*
X15497Y24616D01*
X16068Y24234D01*
X15497Y24234D01*
X15497Y24142D01*
X16224Y24142D01*
X16224Y24241D01*
X15652Y24623D01*
X16224Y24623D01*
X16224Y24715D01*
X16224Y24715D01*
X16224Y23980D02*
X15497Y23980D01*
X15497Y23731D01*
X15583Y23731D01*
X15583Y23884D01*
X16138Y23884D01*
X16138Y23884D01*
X16138Y23729D01*
X16137Y23695D01*
X16135Y23665D01*
X16131Y23638D01*
X16125Y23616D01*
X16117Y23597D01*
X16109Y23579D01*
X16099Y23564D01*
X16087Y23551D01*
X16068Y23535D01*
X16047Y23520D01*
X16022Y23508D01*
X15995Y23497D01*
X15965Y23489D01*
X15931Y23483D01*
X15895Y23479D01*
X15855Y23478D01*
X15801Y23481D01*
X15754Y23488D01*
X15713Y23499D01*
X15680Y23516D01*
X15651Y23535D01*
X15628Y23557D01*
X15610Y23581D01*
X15597Y23607D01*
X15591Y23629D01*
X15586Y23657D01*
X15583Y23691D01*
X15583Y23731D01*
X15497Y23731D01*
X15497Y23730D01*
X15497Y23690D01*
X15499Y23655D01*
X15503Y23625D01*
X15507Y23600D01*
X15516Y23570D01*
X15527Y23542D01*
X15542Y23517D01*
X15559Y23494D01*
X15585Y23467D01*
X15615Y23443D01*
X15647Y23424D01*
X15684Y23408D01*
X15723Y23395D01*
X15765Y23386D01*
X15809Y23381D01*
X15856Y23379D01*
X15897Y23380D01*
X15935Y23384D01*
X15970Y23390D01*
X16003Y23398D01*
X16034Y23409D01*
X16062Y23421D01*
X16087Y23434D01*
X16109Y23448D01*
X16129Y23464D01*
X16147Y23480D01*
X16162Y23497D01*
X16175Y23514D01*
X16186Y23533D01*
X16196Y23554D01*
X16205Y23577D01*
X16212Y23601D01*
X16217Y23627D01*
X16221Y23656D01*
X16223Y23686D01*
X16224Y23718D01*
X16224Y23980D01*
X16224Y23980D01*
X18479Y25164D02*
X18393Y25164D01*
X18393Y24856D01*
X18663Y24856D01*
X18689Y24892D01*
X18712Y24928D01*
X18732Y24965D01*
X18748Y25002D01*
X18760Y25040D01*
X18769Y25079D01*
X18775Y25118D01*
X18776Y25157D01*
X18774Y25209D01*
X18765Y25259D01*
X18751Y25307D01*
X18731Y25352D01*
X18705Y25393D01*
X18674Y25429D01*
X18639Y25459D01*
X18598Y25484D01*
X18553Y25504D01*
X18506Y25518D01*
X18456Y25526D01*
X18404Y25529D01*
X18352Y25526D01*
X18301Y25518D01*
X18253Y25504D01*
X18206Y25484D01*
X18163Y25460D01*
X18125Y25430D01*
X18094Y25396D01*
X18069Y25357D01*
X18049Y25313D01*
X18035Y25267D01*
X18027Y25217D01*
X18024Y25165D01*
X18026Y25126D01*
X18031Y25089D01*
X18039Y25055D01*
X18050Y25022D01*
X18064Y24992D01*
X18080Y24965D01*
X18099Y24942D01*
X18121Y24922D01*
X18146Y24905D01*
X18174Y24890D01*
X18205Y24877D01*
X18240Y24867D01*
X18264Y24954D01*
X18238Y24962D01*
X18214Y24972D01*
X18194Y24983D01*
X18177Y24994D01*
X18162Y25008D01*
X18148Y25024D01*
X18136Y25043D01*
X18126Y25064D01*
X18117Y25087D01*
X18111Y25111D01*
X18108Y25137D01*
X18107Y25164D01*
X18108Y25196D01*
X18112Y25226D01*
X18118Y25253D01*
X18127Y25278D01*
X18138Y25301D01*
X18150Y25322D01*
X18164Y25340D01*
X18180Y25356D01*
X18196Y25370D01*
X18214Y25382D01*
X18232Y25393D01*
X18252Y25402D01*
X18286Y25414D01*
X18322Y25423D01*
X18359Y25428D01*
X18398Y25429D01*
X18445Y25427D01*
X18487Y25421D01*
X18526Y25411D01*
X18561Y25396D01*
X18591Y25377D01*
X18618Y25355D01*
X18640Y25329D01*
X18658Y25298D01*
X18672Y25266D01*
X18682Y25233D01*
X18688Y25198D01*
X18690Y25163D01*
X18688Y25132D01*
X18684Y25101D01*
X18676Y25070D01*
X18666Y25041D01*
X18653Y25013D01*
X18641Y24988D01*
X18628Y24967D01*
X18614Y24950D01*
X18479Y24950D01*
X18479Y25164D01*
X18479Y25164D01*
X18764Y24715D02*
X18037Y24715D01*
X18037Y24616D01*
X18608Y24234D01*
X18037Y24234D01*
X18037Y24142D01*
X18764Y24142D01*
X18764Y24241D01*
X18192Y24623D01*
X18764Y24623D01*
X18764Y24715D01*
X18764Y24715D01*
X18764Y23980D02*
X18037Y23980D01*
X18037Y23731D01*
X18123Y23731D01*
X18123Y23884D01*
X18678Y23884D01*
X18678Y23884D01*
X18678Y23729D01*
X18677Y23695D01*
X18675Y23665D01*
X18671Y23638D01*
X18665Y23616D01*
X18657Y23597D01*
X18649Y23579D01*
X18639Y23564D01*
X18627Y23551D01*
X18608Y23535D01*
X18587Y23520D01*
X18562Y23508D01*
X18535Y23497D01*
X18505Y23489D01*
X18471Y23483D01*
X18435Y23479D01*
X18395Y23478D01*
X18341Y23481D01*
X18294Y23488D01*
X18253Y23499D01*
X18220Y23516D01*
X18191Y23535D01*
X18168Y23557D01*
X18150Y23581D01*
X18137Y23607D01*
X18131Y23629D01*
X18126Y23657D01*
X18123Y23691D01*
X18123Y23731D01*
X18037Y23731D01*
X18037Y23730D01*
X18037Y23690D01*
X18039Y23655D01*
X18043Y23625D01*
X18047Y23600D01*
X18056Y23570D01*
X18067Y23542D01*
X18082Y23517D01*
X18099Y23494D01*
X18125Y23467D01*
X18155Y23443D01*
X18187Y23424D01*
X18224Y23408D01*
X18263Y23395D01*
X18305Y23386D01*
X18349Y23381D01*
X18396Y23379D01*
X18437Y23380D01*
X18475Y23384D01*
X18510Y23390D01*
X18543Y23398D01*
X18574Y23409D01*
X18602Y23421D01*
X18627Y23434D01*
X18649Y23448D01*
X18669Y23464D01*
X18687Y23480D01*
X18702Y23497D01*
X18715Y23514D01*
X18726Y23533D01*
X18736Y23554D01*
X18745Y23577D01*
X18752Y23601D01*
X18757Y23627D01*
X18761Y23656D01*
X18763Y23686D01*
X18764Y23718D01*
X18764Y23980D01*
X18764Y23980D01*
X21240Y25472D02*
X21041Y25472D01*
X21041Y25670D01*
X20958Y25670D01*
X20958Y25472D01*
X20760Y25472D01*
X20760Y25387D01*
X20958Y25387D01*
X20958Y25189D01*
X21041Y25189D01*
X21041Y25387D01*
X21240Y25387D01*
X21240Y25472D01*
X21240Y25472D01*
X21358Y24754D02*
X21358Y24844D01*
X20789Y24844D01*
X20804Y24861D01*
X20820Y24881D01*
X20835Y24903D01*
X20850Y24928D01*
X20865Y24954D01*
X20877Y24978D01*
X20888Y25001D01*
X20897Y25022D01*
X20810Y25022D01*
X20792Y24986D01*
X20771Y24952D01*
X20749Y24920D01*
X20725Y24891D01*
X20700Y24865D01*
X20676Y24843D01*
X20652Y24826D01*
X20628Y24812D01*
X20628Y24754D01*
X21358Y24754D01*
X21358Y24754D01*
X21272Y24056D02*
X21358Y24056D01*
X21358Y24537D01*
X21342Y24537D01*
X21326Y24535D01*
X21311Y24531D01*
X21296Y24527D01*
X21272Y24516D01*
X21247Y24503D01*
X21223Y24487D01*
X21199Y24468D01*
X21175Y24445D01*
X21148Y24418D01*
X21119Y24387D01*
X21089Y24351D01*
X21043Y24296D01*
X21002Y24252D01*
X20966Y24216D01*
X20935Y24191D01*
X20907Y24172D01*
X20880Y24159D01*
X20853Y24152D01*
X20828Y24149D01*
X20802Y24151D01*
X20779Y24159D01*
X20757Y24170D01*
X20738Y24187D01*
X20722Y24207D01*
X20711Y24231D01*
X20704Y24257D01*
X20702Y24286D01*
X20704Y24317D01*
X20711Y24344D01*
X20723Y24368D01*
X20740Y24389D01*
X20762Y24406D01*
X20787Y24418D01*
X20815Y24426D01*
X20848Y24428D01*
X20838Y24520D01*
X20790Y24512D01*
X20748Y24498D01*
X20712Y24477D01*
X20682Y24449D01*
X20658Y24416D01*
X20641Y24377D01*
X20631Y24333D01*
X20628Y24284D01*
X20631Y24234D01*
X20642Y24190D01*
X20660Y24152D01*
X20686Y24118D01*
X20717Y24092D01*
X20751Y24073D01*
X20788Y24061D01*
X20830Y24057D01*
X20851Y24058D01*
X20873Y24062D01*
X20894Y24067D01*
X20915Y24075D01*
X20937Y24086D01*
X20959Y24099D01*
X20981Y24115D01*
X21004Y24134D01*
X21030Y24159D01*
X21060Y24190D01*
X21094Y24227D01*
X21132Y24272D01*
X21163Y24309D01*
X21189Y24338D01*
X21209Y24360D01*
X21224Y24375D01*
X21236Y24386D01*
X21248Y24396D01*
X21260Y24405D01*
X21272Y24413D01*
X21272Y24056D01*
X21272Y24056D01*
X21358Y23716D02*
X20631Y23998D01*
X20631Y23894D01*
X21159Y23705D01*
X21190Y23694D01*
X21221Y23684D01*
X21250Y23675D01*
X21278Y23667D01*
X21248Y23658D01*
X21219Y23649D01*
X21189Y23638D01*
X21159Y23628D01*
X20631Y23431D01*
X20631Y23333D01*
X21358Y23618D01*
X21358Y23716D01*
X21358Y23716D01*
X23726Y24907D02*
X23527Y24907D01*
X23527Y25105D01*
X23444Y25105D01*
X23444Y24907D01*
X23246Y24907D01*
X23246Y24822D01*
X23444Y24822D01*
X23444Y24624D01*
X23527Y24624D01*
X23527Y24822D01*
X23726Y24822D01*
X23726Y24907D01*
X23726Y24907D01*
X23654Y24526D02*
X23646Y24432D01*
X23678Y24425D01*
X23706Y24415D01*
X23729Y24401D01*
X23749Y24383D01*
X23764Y24363D01*
X23774Y24342D01*
X23781Y24318D01*
X23783Y24292D01*
X23780Y24261D01*
X23771Y24232D01*
X23756Y24206D01*
X23734Y24183D01*
X23708Y24163D01*
X23678Y24149D01*
X23644Y24141D01*
X23605Y24138D01*
X23569Y24141D01*
X23537Y24149D01*
X23509Y24162D01*
X23485Y24181D01*
X23466Y24204D01*
X23452Y24231D01*
X23443Y24260D01*
X23441Y24293D01*
X23442Y24314D01*
X23446Y24334D01*
X23452Y24353D01*
X23460Y24371D01*
X23471Y24388D01*
X23483Y24402D01*
X23496Y24415D01*
X23511Y24426D01*
X23500Y24510D01*
X23127Y24439D01*
X23127Y24078D01*
X23212Y24078D01*
X23212Y24368D01*
X23407Y24407D01*
X23387Y24374D01*
X23373Y24340D01*
X23365Y24305D01*
X23362Y24270D01*
X23366Y24224D01*
X23378Y24182D01*
X23399Y24143D01*
X23428Y24109D01*
X23463Y24080D01*
X23503Y24060D01*
X23548Y24047D01*
X23597Y24043D01*
X23645Y24047D01*
X23689Y24058D01*
X23730Y24076D01*
X23768Y24101D01*
X23807Y24139D01*
X23834Y24184D01*
X23851Y24235D01*
X23856Y24292D01*
X23853Y24339D01*
X23843Y24382D01*
X23825Y24420D01*
X23801Y24454D01*
X23771Y24482D01*
X23736Y24503D01*
X23697Y24518D01*
X23654Y24526D01*
X23654Y24526D01*
X23844Y23716D02*
X23117Y23998D01*
X23117Y23894D01*
X23645Y23705D01*
X23676Y23694D01*
X23707Y23684D01*
X23736Y23675D01*
X23764Y23667D01*
X23734Y23658D01*
X23705Y23649D01*
X23675Y23638D01*
X23645Y23628D01*
X23117Y23431D01*
X23117Y23333D01*
X23844Y23618D01*
X23844Y23716D01*
X23844Y23716D01*
X35074Y18499D02*
X35050Y18328D01*
X35126Y18321D01*
X35188Y18309D01*
X35238Y18291D01*
X35275Y18266D01*
X35301Y18236D01*
X35320Y18201D01*
X35332Y18161D01*
X35335Y18115D01*
X35333Y18080D01*
X35327Y18048D01*
X35317Y18019D01*
X35303Y17992D01*
X35285Y17968D01*
X35264Y17948D01*
X35240Y17932D01*
X35214Y17920D01*
X35182Y17912D01*
X35141Y17906D01*
X35092Y17902D01*
X35035Y17901D01*
X34048Y17901D01*
X34048Y17711D01*
X35024Y17711D01*
X35109Y17714D01*
X35183Y17722D01*
X35248Y17736D01*
X35302Y17755D01*
X35349Y17780D01*
X35389Y17811D01*
X35424Y17849D01*
X35453Y17893D01*
X35475Y17942D01*
X35491Y17995D01*
X35501Y18052D01*
X35504Y18114D01*
X35498Y18203D01*
X35477Y18280D01*
X35443Y18347D01*
X35396Y18402D01*
X35335Y18446D01*
X35261Y18476D01*
X35174Y18494D01*
X35074Y18499D01*
X35074Y18499D01*
X35480Y16811D02*
X35480Y16987D01*
X34360Y16987D01*
X34390Y17021D01*
X34420Y17060D01*
X34451Y17104D01*
X34481Y17153D01*
X34509Y17203D01*
X34534Y17251D01*
X34555Y17296D01*
X34572Y17338D01*
X34402Y17338D01*
X34365Y17267D01*
X34325Y17200D01*
X34281Y17138D01*
X34234Y17081D01*
X34185Y17029D01*
X34137Y16986D01*
X34089Y16951D01*
X34042Y16924D01*
X34042Y16811D01*
X35480Y16811D01*
X35480Y16811D01*
G37*
%LNbottom silkscreen component ec5c1160eed49731*%
D10*
X37365Y81700D02*
X35635Y81700D01*
X37365Y83300D02*
X35635Y83300D01*
G36*
X33502Y82451D02*
X33407Y82427D01*
X33425Y82372D01*
X33449Y82324D01*
X33478Y82283D01*
X33514Y82249D01*
X33555Y82222D01*
X33600Y82203D01*
X33650Y82192D01*
X33703Y82188D01*
X33759Y82191D01*
X33808Y82200D01*
X33853Y82214D01*
X33892Y82235D01*
X33926Y82261D01*
X33955Y82293D01*
X33981Y82329D01*
X34002Y82371D01*
X34019Y82417D01*
X34030Y82464D01*
X34037Y82513D01*
X34040Y82563D01*
X34037Y82617D01*
X34029Y82668D01*
X34016Y82715D01*
X33997Y82758D01*
X33973Y82797D01*
X33945Y82832D01*
X33913Y82861D01*
X33876Y82885D01*
X33835Y82904D01*
X33793Y82917D01*
X33748Y82925D01*
X33702Y82928D01*
X33650Y82925D01*
X33603Y82914D01*
X33560Y82897D01*
X33521Y82873D01*
X33487Y82843D01*
X33459Y82808D01*
X33436Y82766D01*
X33419Y82720D01*
X33512Y82698D01*
X33526Y82734D01*
X33543Y82765D01*
X33562Y82791D01*
X33585Y82811D01*
X33610Y82827D01*
X33638Y82838D01*
X33670Y82845D01*
X33704Y82847D01*
X33743Y82845D01*
X33780Y82837D01*
X33812Y82825D01*
X33842Y82807D01*
X33867Y82786D01*
X33889Y82761D01*
X33906Y82733D01*
X33920Y82701D01*
X33930Y82668D01*
X33937Y82634D01*
X33941Y82599D01*
X33942Y82564D01*
X33941Y82520D01*
X33936Y82478D01*
X33927Y82440D01*
X33916Y82404D01*
X33900Y82372D01*
X33882Y82345D01*
X33859Y82322D01*
X33833Y82303D01*
X33804Y82288D01*
X33774Y82277D01*
X33743Y82271D01*
X33711Y82269D01*
X33673Y82272D01*
X33638Y82280D01*
X33606Y82295D01*
X33576Y82315D01*
X33551Y82340D01*
X33530Y82372D01*
X33514Y82409D01*
X33502Y82451D01*
X33502Y82451D01*
X33326Y82388D02*
X33234Y82395D01*
X33227Y82364D01*
X33217Y82336D01*
X33203Y82313D01*
X33186Y82294D01*
X33166Y82279D01*
X33145Y82269D01*
X33121Y82262D01*
X33096Y82260D01*
X33065Y82263D01*
X33037Y82272D01*
X33012Y82287D01*
X32989Y82308D01*
X32969Y82334D01*
X32956Y82364D01*
X32947Y82397D01*
X32945Y82435D01*
X32947Y82470D01*
X32955Y82502D01*
X32968Y82530D01*
X32987Y82554D01*
X33010Y82573D01*
X33036Y82586D01*
X33065Y82594D01*
X33097Y82597D01*
X33118Y82596D01*
X33138Y82592D01*
X33157Y82586D01*
X33174Y82578D01*
X33190Y82567D01*
X33205Y82556D01*
X33217Y82542D01*
X33228Y82528D01*
X33310Y82538D01*
X33241Y82906D01*
X32885Y82906D01*
X32885Y82822D01*
X33171Y82822D01*
X33209Y82630D01*
X33177Y82649D01*
X33143Y82663D01*
X33109Y82672D01*
X33074Y82675D01*
X33029Y82671D01*
X32988Y82658D01*
X32950Y82638D01*
X32916Y82610D01*
X32888Y82575D01*
X32867Y82535D01*
X32855Y82491D01*
X32851Y82443D01*
X32855Y82396D01*
X32866Y82352D01*
X32883Y82312D01*
X32908Y82275D01*
X32946Y82237D01*
X32989Y82210D01*
X33040Y82193D01*
X33096Y82188D01*
X33143Y82191D01*
X33185Y82201D01*
X33222Y82219D01*
X33255Y82242D01*
X33283Y82272D01*
X33304Y82306D01*
X33318Y82345D01*
X33326Y82388D01*
X33326Y82388D01*
G37*
%LNbottom silkscreen component c93e3f70910718a6*%
X29365Y75200D02*
X27635Y75200D01*
X29365Y76800D02*
X27635Y76800D01*
G36*
X25502Y75951D02*
X25407Y75927D01*
X25425Y75872D01*
X25449Y75824D01*
X25478Y75783D01*
X25514Y75749D01*
X25555Y75722D01*
X25600Y75703D01*
X25650Y75692D01*
X25703Y75688D01*
X25759Y75691D01*
X25808Y75700D01*
X25853Y75714D01*
X25892Y75735D01*
X25926Y75761D01*
X25955Y75793D01*
X25981Y75829D01*
X26002Y75871D01*
X26019Y75917D01*
X26030Y75964D01*
X26037Y76013D01*
X26040Y76063D01*
X26037Y76117D01*
X26029Y76168D01*
X26016Y76215D01*
X25997Y76258D01*
X25973Y76297D01*
X25945Y76332D01*
X25913Y76361D01*
X25876Y76385D01*
X25835Y76404D01*
X25793Y76417D01*
X25748Y76425D01*
X25702Y76428D01*
X25650Y76425D01*
X25603Y76414D01*
X25560Y76397D01*
X25521Y76373D01*
X25487Y76343D01*
X25459Y76308D01*
X25436Y76266D01*
X25419Y76220D01*
X25512Y76198D01*
X25526Y76234D01*
X25543Y76265D01*
X25562Y76291D01*
X25585Y76311D01*
X25610Y76327D01*
X25638Y76338D01*
X25670Y76345D01*
X25704Y76347D01*
X25743Y76345D01*
X25780Y76337D01*
X25812Y76325D01*
X25842Y76307D01*
X25867Y76286D01*
X25889Y76261D01*
X25906Y76233D01*
X25920Y76201D01*
X25930Y76168D01*
X25937Y76134D01*
X25941Y76099D01*
X25942Y76064D01*
X25941Y76020D01*
X25936Y75978D01*
X25927Y75940D01*
X25916Y75904D01*
X25900Y75872D01*
X25882Y75845D01*
X25859Y75822D01*
X25833Y75803D01*
X25804Y75788D01*
X25774Y75777D01*
X25743Y75771D01*
X25711Y75769D01*
X25673Y75772D01*
X25638Y75780D01*
X25606Y75795D01*
X25576Y75815D01*
X25551Y75840D01*
X25530Y75872D01*
X25514Y75909D01*
X25502Y75951D01*
X25502Y75951D01*
X24864Y75784D02*
X24864Y75700D01*
X25337Y75700D01*
X25337Y75716D01*
X25335Y75731D01*
X25332Y75746D01*
X25327Y75761D01*
X25317Y75785D01*
X25303Y75809D01*
X25288Y75833D01*
X25269Y75856D01*
X25247Y75881D01*
X25220Y75907D01*
X25189Y75935D01*
X25154Y75965D01*
X25100Y76010D01*
X25056Y76050D01*
X25022Y76086D01*
X24996Y76116D01*
X24978Y76144D01*
X24966Y76171D01*
X24958Y76197D01*
X24955Y76222D01*
X24958Y76247D01*
X24965Y76270D01*
X24976Y76291D01*
X24993Y76310D01*
X25013Y76326D01*
X25036Y76337D01*
X25062Y76344D01*
X25090Y76346D01*
X25120Y76344D01*
X25147Y76336D01*
X25171Y76325D01*
X25192Y76308D01*
X25208Y76287D01*
X25220Y76262D01*
X25228Y76234D01*
X25230Y76202D01*
X25321Y76212D01*
X25313Y76259D01*
X25299Y76301D01*
X25278Y76336D01*
X25251Y76366D01*
X25218Y76389D01*
X25180Y76406D01*
X25137Y76415D01*
X25088Y76419D01*
X25039Y76415D01*
X24996Y76404D01*
X24958Y76387D01*
X24925Y76362D01*
X24899Y76331D01*
X24880Y76298D01*
X24869Y76261D01*
X24865Y76220D01*
X24866Y76199D01*
X24869Y76177D01*
X24875Y76156D01*
X24883Y76136D01*
X24893Y76115D01*
X24906Y76093D01*
X24922Y76071D01*
X24941Y76048D01*
X24965Y76023D01*
X24995Y75994D01*
X25032Y75960D01*
X25076Y75922D01*
X25112Y75892D01*
X25141Y75866D01*
X25163Y75847D01*
X25178Y75832D01*
X25189Y75820D01*
X25199Y75808D01*
X25207Y75796D01*
X25215Y75784D01*
X24864Y75784D01*
X24864Y75784D01*
G37*
%LNtext*%
G36*
X29092Y125500D02*
X29092Y126932D01*
X28057Y126932D01*
X28057Y126763D01*
X28902Y126763D01*
X28902Y126324D01*
X28110Y126324D01*
X28110Y126156D01*
X28902Y126156D01*
X28902Y125669D01*
X28023Y125669D01*
X28023Y125500D01*
X29092Y125500D01*
X29092Y125500D01*
X27104Y125500D02*
X27104Y125652D01*
X27170Y125575D01*
X27247Y125521D01*
X27335Y125488D01*
X27434Y125477D01*
X27479Y125479D01*
X27522Y125485D01*
X27564Y125496D01*
X27605Y125512D01*
X27642Y125530D01*
X27674Y125551D01*
X27701Y125575D01*
X27723Y125600D01*
X27741Y125628D01*
X27756Y125659D01*
X27768Y125693D01*
X27777Y125730D01*
X27782Y125760D01*
X27785Y125797D01*
X27787Y125842D01*
X27788Y125895D01*
X27788Y126537D01*
X27612Y126537D01*
X27612Y125962D01*
X27612Y125899D01*
X27610Y125847D01*
X27606Y125806D01*
X27602Y125776D01*
X27591Y125744D01*
X27576Y125714D01*
X27556Y125689D01*
X27531Y125667D01*
X27503Y125650D01*
X27471Y125638D01*
X27436Y125630D01*
X27398Y125628D01*
X27359Y125630D01*
X27322Y125638D01*
X27285Y125651D01*
X27250Y125668D01*
X27218Y125691D01*
X27191Y125716D01*
X27169Y125746D01*
X27152Y125779D01*
X27139Y125818D01*
X27130Y125864D01*
X27125Y125919D01*
X27123Y125981D01*
X27123Y126537D01*
X26947Y126537D01*
X26947Y125500D01*
X27104Y125500D01*
X27104Y125500D01*
X26674Y125500D02*
X26674Y126537D01*
X26516Y126537D01*
X26516Y126380D01*
X26486Y126430D01*
X26457Y126471D01*
X26430Y126503D01*
X26404Y126525D01*
X26377Y126541D01*
X26350Y126552D01*
X26321Y126558D01*
X26291Y126561D01*
X26246Y126557D01*
X26201Y126546D01*
X26156Y126529D01*
X26110Y126504D01*
X26171Y126341D01*
X26203Y126357D01*
X26235Y126369D01*
X26268Y126377D01*
X26300Y126379D01*
X26328Y126377D01*
X26354Y126370D01*
X26380Y126359D01*
X26403Y126344D01*
X26425Y126325D01*
X26443Y126303D01*
X26457Y126277D01*
X26469Y126248D01*
X26482Y126200D01*
X26491Y126150D01*
X26496Y126098D01*
X26498Y126043D01*
X26498Y125500D01*
X26674Y125500D01*
X26674Y125500D01*
X26071Y126019D02*
X26061Y126153D01*
X26031Y126269D01*
X25981Y126367D01*
X25911Y126445D01*
X25841Y126496D01*
X25763Y126532D01*
X25677Y126553D01*
X25585Y126561D01*
X25483Y126552D01*
X25391Y126526D01*
X25308Y126482D01*
X25235Y126420D01*
X25176Y126344D01*
X25134Y126254D01*
X25108Y126150D01*
X25100Y126033D01*
X25103Y125938D01*
X25115Y125854D01*
X25133Y125781D01*
X25160Y125718D01*
X25193Y125664D01*
X25233Y125616D01*
X25281Y125575D01*
X25334Y125540D01*
X25393Y125512D01*
X25454Y125492D01*
X25518Y125481D01*
X25585Y125477D01*
X25597Y125478D01*
X25585Y125621D01*
X25522Y125627D01*
X25465Y125646D01*
X25413Y125677D01*
X25367Y125721D01*
X25329Y125777D01*
X25302Y125846D01*
X25286Y125929D01*
X25280Y126024D01*
X25286Y126115D01*
X25302Y126193D01*
X25329Y126261D01*
X25368Y126316D01*
X25414Y126359D01*
X25466Y126390D01*
X25523Y126409D01*
X25585Y126415D01*
X25648Y126409D01*
X25706Y126390D01*
X25757Y126360D01*
X25804Y126316D01*
X25842Y126261D01*
X25869Y126193D01*
X25885Y126112D01*
X25891Y126019D01*
X25891Y126019D01*
X25885Y125925D01*
X25869Y125844D01*
X25842Y125776D01*
X25804Y125720D01*
X25757Y125677D01*
X25706Y125646D01*
X25648Y125627D01*
X25585Y125621D01*
X25597Y125478D01*
X25689Y125485D01*
X25782Y125511D01*
X25865Y125555D01*
X25937Y125616D01*
X25996Y125694D01*
X26038Y125787D01*
X26063Y125895D01*
X26071Y126019D01*
X26071Y126019D01*
X24895Y125500D02*
X24895Y126537D01*
X24737Y126537D01*
X24737Y126380D01*
X24708Y126430D01*
X24679Y126471D01*
X24652Y126503D01*
X24625Y126525D01*
X24599Y126541D01*
X24572Y126552D01*
X24543Y126558D01*
X24513Y126561D01*
X24468Y126557D01*
X24423Y126546D01*
X24378Y126529D01*
X24332Y126504D01*
X24393Y126341D01*
X24425Y126357D01*
X24457Y126369D01*
X24489Y126377D01*
X24521Y126379D01*
X24550Y126377D01*
X24576Y126370D01*
X24601Y126359D01*
X24625Y126344D01*
X24646Y126325D01*
X24664Y126303D01*
X24679Y126277D01*
X24690Y126248D01*
X24703Y126200D01*
X24712Y126150D01*
X24718Y126098D01*
X24720Y126043D01*
X24720Y125500D01*
X24895Y125500D01*
X24895Y125500D01*
X23551Y125628D02*
X23599Y125589D01*
X23606Y125585D01*
X23673Y125683D01*
X23641Y125711D01*
X23615Y125744D01*
X23594Y125780D01*
X23581Y125814D01*
X23573Y125854D01*
X23567Y125901D01*
X23565Y125956D01*
X23565Y126021D01*
X23565Y126021D01*
X23619Y126002D01*
X23685Y125984D01*
X23763Y125969D01*
X23853Y125954D01*
X23903Y125946D01*
X23945Y125937D01*
X23979Y125928D01*
X24006Y125919D01*
X24027Y125908D01*
X24046Y125895D01*
X24062Y125879D01*
X24075Y125862D01*
X24086Y125842D01*
X24094Y125822D01*
X24098Y125801D01*
X24100Y125778D01*
X24096Y125745D01*
X24086Y125714D01*
X24070Y125686D01*
X24046Y125661D01*
X24017Y125641D01*
X23981Y125626D01*
X23939Y125617D01*
X23891Y125614D01*
X23841Y125617D01*
X23795Y125625D01*
X23751Y125639D01*
X23710Y125659D01*
X23673Y125683D01*
X23606Y125585D01*
X23647Y125557D01*
X23693Y125531D01*
X23739Y125511D01*
X23785Y125496D01*
X23832Y125485D01*
X23882Y125479D01*
X23933Y125477D01*
X24013Y125482D01*
X24084Y125497D01*
X24144Y125524D01*
X24195Y125560D01*
X24235Y125605D01*
X24264Y125655D01*
X24281Y125711D01*
X24287Y125773D01*
X24285Y125811D01*
X24278Y125846D01*
X24268Y125880D01*
X24252Y125913D01*
X24234Y125943D01*
X24212Y125969D01*
X24188Y125993D01*
X24162Y126014D01*
X24133Y126032D01*
X24102Y126047D01*
X24069Y126060D01*
X24035Y126071D01*
X24006Y126078D01*
X23970Y126085D01*
X23928Y126091D01*
X23879Y126098D01*
X23779Y126111D01*
X23694Y126125D01*
X23623Y126141D01*
X23565Y126158D01*
X23565Y126175D01*
X23565Y126188D01*
X23565Y126198D01*
X23564Y126204D01*
X23568Y126254D01*
X23577Y126296D01*
X23592Y126330D01*
X23614Y126355D01*
X23652Y126382D01*
X23698Y126400D01*
X23752Y126411D01*
X23814Y126415D01*
X23872Y126412D01*
X23922Y126404D01*
X23964Y126391D01*
X23998Y126372D01*
X24025Y126346D01*
X24049Y126311D01*
X24069Y126269D01*
X24085Y126218D01*
X24257Y126241D01*
X24243Y126294D01*
X24226Y126341D01*
X24205Y126383D01*
X24180Y126419D01*
X24150Y126451D01*
X24114Y126479D01*
X24072Y126504D01*
X24024Y126524D01*
X23972Y126540D01*
X23915Y126551D01*
X23854Y126558D01*
X23789Y126561D01*
X23726Y126559D01*
X23669Y126553D01*
X23618Y126543D01*
X23573Y126529D01*
X23534Y126513D01*
X23501Y126494D01*
X23473Y126473D01*
X23451Y126451D01*
X23433Y126425D01*
X23418Y126397D01*
X23406Y126366D01*
X23396Y126331D01*
X23393Y126304D01*
X23390Y126268D01*
X23388Y126223D01*
X23388Y126169D01*
X23388Y125935D01*
X23387Y125823D01*
X23385Y125734D01*
X23381Y125668D01*
X23376Y125625D01*
X23369Y125592D01*
X23360Y125561D01*
X23347Y125530D01*
X23332Y125500D01*
X23516Y125500D01*
X23528Y125529D01*
X23538Y125559D01*
X23546Y125592D01*
X23551Y125628D01*
X23551Y125628D01*
X22438Y125880D02*
X22266Y125857D01*
X22285Y125773D01*
X22316Y125698D01*
X22358Y125633D01*
X22411Y125578D01*
X22472Y125533D01*
X22541Y125502D01*
X22616Y125483D01*
X22697Y125477D01*
X22798Y125485D01*
X22889Y125511D01*
X22970Y125555D01*
X23040Y125616D01*
X23096Y125693D01*
X23137Y125785D01*
X23161Y125892D01*
X23169Y126015D01*
X23165Y126096D01*
X23155Y126172D01*
X23138Y126243D01*
X23113Y126309D01*
X23082Y126368D01*
X23043Y126419D01*
X22997Y126462D01*
X22944Y126498D01*
X22886Y126525D01*
X22825Y126545D01*
X22762Y126557D01*
X22696Y126561D01*
X22616Y126555D01*
X22543Y126539D01*
X22477Y126512D01*
X22420Y126475D01*
X22371Y126428D01*
X22332Y126372D01*
X22302Y126307D01*
X22282Y126232D01*
X22453Y126206D01*
X22468Y126255D01*
X22487Y126298D01*
X22511Y126334D01*
X22540Y126363D01*
X22572Y126386D01*
X22608Y126403D01*
X22647Y126413D01*
X22689Y126416D01*
X22753Y126410D01*
X22810Y126392D01*
X22861Y126362D01*
X22905Y126321D01*
X22942Y126266D01*
X22968Y126198D01*
X22983Y126116D01*
X22988Y126020D01*
X22983Y125922D01*
X22968Y125839D01*
X22943Y125770D01*
X22908Y125716D01*
X22865Y125674D01*
X22816Y125645D01*
X22761Y125627D01*
X22699Y125621D01*
X22650Y125625D01*
X22604Y125637D01*
X22563Y125657D01*
X22526Y125685D01*
X22495Y125721D01*
X22470Y125765D01*
X22451Y125818D01*
X22438Y125880D01*
X22438Y125880D01*
X22114Y125500D02*
X22114Y126932D01*
X21938Y126932D01*
X21938Y126115D01*
X21522Y126537D01*
X21295Y126537D01*
X21691Y126152D01*
X21255Y125500D01*
X21472Y125500D01*
X21814Y126030D01*
X21938Y125911D01*
X21938Y125500D01*
X22114Y125500D01*
X22114Y125500D01*
X20559Y125103D02*
X20559Y126537D01*
X20399Y126537D01*
X20399Y126402D01*
X20313Y126318D01*
X20314Y126318D01*
X20352Y126259D01*
X20379Y126189D01*
X20395Y126107D01*
X20400Y126013D01*
X20400Y126013D01*
X20395Y125919D01*
X20380Y125839D01*
X20355Y125771D01*
X20319Y125717D01*
X20277Y125675D01*
X20230Y125645D01*
X20178Y125627D01*
X20123Y125621D01*
X20066Y125627D01*
X20014Y125646D01*
X19966Y125677D01*
X19922Y125720D01*
X19886Y125777D01*
X19860Y125847D01*
X19844Y125930D01*
X19839Y126027D01*
X19844Y126120D01*
X19859Y126201D01*
X19885Y126269D01*
X19920Y126324D01*
X19963Y126367D01*
X20010Y126398D01*
X20060Y126417D01*
X20115Y126423D01*
X20170Y126416D01*
X20221Y126397D01*
X20269Y126364D01*
X20313Y126318D01*
X20399Y126402D01*
X20370Y126439D01*
X20339Y126472D01*
X20306Y126499D01*
X20271Y126521D01*
X20234Y126538D01*
X20193Y126551D01*
X20147Y126558D01*
X20099Y126561D01*
X20034Y126556D01*
X19974Y126543D01*
X19917Y126522D01*
X19864Y126492D01*
X19816Y126454D01*
X19775Y126410D01*
X19740Y126358D01*
X19711Y126299D01*
X19688Y126236D01*
X19672Y126169D01*
X19662Y126099D01*
X19659Y126026D01*
X19663Y125949D01*
X19673Y125875D01*
X19691Y125805D01*
X19716Y125740D01*
X19748Y125680D01*
X19786Y125627D01*
X19831Y125582D01*
X19882Y125544D01*
X19937Y125515D01*
X19994Y125494D01*
X20052Y125481D01*
X20111Y125477D01*
X20154Y125479D01*
X20195Y125486D01*
X20233Y125497D01*
X20269Y125514D01*
X20302Y125533D01*
X20333Y125556D01*
X20360Y125580D01*
X20384Y125607D01*
X20384Y125103D01*
X20559Y125103D01*
X20559Y125103D01*
X19513Y126019D02*
X19503Y126153D01*
X19473Y126269D01*
X19422Y126367D01*
X19352Y126445D01*
X19282Y126496D01*
X19204Y126532D01*
X19119Y126553D01*
X19026Y126561D01*
X18924Y126552D01*
X18832Y126526D01*
X18749Y126482D01*
X18677Y126420D01*
X18617Y126344D01*
X18575Y126254D01*
X18549Y126150D01*
X18541Y126033D01*
X18545Y125938D01*
X18556Y125854D01*
X18575Y125781D01*
X18601Y125718D01*
X18634Y125664D01*
X18675Y125616D01*
X18722Y125575D01*
X18776Y125540D01*
X18834Y125512D01*
X18896Y125492D01*
X18960Y125481D01*
X19026Y125477D01*
X19038Y125478D01*
X19026Y125621D01*
X18964Y125627D01*
X18906Y125646D01*
X18855Y125677D01*
X18808Y125721D01*
X18770Y125777D01*
X18743Y125846D01*
X18727Y125929D01*
X18722Y126024D01*
X18727Y126115D01*
X18743Y126193D01*
X18771Y126261D01*
X18809Y126316D01*
X18855Y126359D01*
X18907Y126390D01*
X18964Y126409D01*
X19026Y126415D01*
X19089Y126409D01*
X19147Y126390D01*
X19199Y126360D01*
X19245Y126316D01*
X19283Y126261D01*
X19310Y126193D01*
X19326Y126112D01*
X19332Y126019D01*
X19332Y126019D01*
X19326Y125925D01*
X19310Y125844D01*
X19283Y125776D01*
X19245Y125720D01*
X19199Y125677D01*
X19147Y125646D01*
X19089Y125627D01*
X19026Y125621D01*
X19038Y125478D01*
X19130Y125485D01*
X19223Y125511D01*
X19306Y125555D01*
X19378Y125616D01*
X19437Y125694D01*
X19479Y125787D01*
X19504Y125895D01*
X19513Y126019D01*
X19513Y126019D01*
X18143Y125500D02*
X18461Y126537D01*
X18279Y126537D01*
X18114Y125938D01*
X18053Y125716D01*
X18048Y125735D01*
X18037Y125778D01*
X18021Y125842D01*
X17999Y125930D01*
X17834Y126537D01*
X17653Y126537D01*
X17498Y125936D01*
X17446Y125737D01*
X17387Y125938D01*
X17209Y126537D01*
X17038Y126537D01*
X17362Y125500D01*
X17545Y125500D01*
X17710Y126121D01*
X17750Y126298D01*
X17960Y125500D01*
X18143Y125500D01*
X18143Y125500D01*
X16180Y125834D02*
X15999Y125812D01*
X16025Y125736D01*
X16060Y125670D01*
X16105Y125613D01*
X16158Y125564D01*
X16220Y125526D01*
X16290Y125499D01*
X16369Y125482D01*
X16455Y125477D01*
X16563Y125485D01*
X16659Y125512D01*
X16743Y125555D01*
X16816Y125617D01*
X16874Y125694D01*
X16916Y125785D01*
X16941Y125890D01*
X16949Y126010D01*
X16941Y126133D01*
X16915Y126242D01*
X16873Y126336D01*
X16814Y126416D01*
X16742Y126479D01*
X16659Y126524D01*
X16567Y126552D01*
X16465Y126561D01*
X16450Y126559D01*
X16463Y126416D01*
X16521Y126411D01*
X16574Y126396D01*
X16623Y126370D01*
X16666Y126335D01*
X16703Y126291D01*
X16730Y126240D01*
X16749Y126183D01*
X16758Y126118D01*
X16758Y126118D01*
X16179Y126118D01*
X16187Y126180D01*
X16201Y126233D01*
X16220Y126278D01*
X16245Y126314D01*
X16290Y126359D01*
X16341Y126391D01*
X16399Y126410D01*
X16463Y126416D01*
X16450Y126559D01*
X16365Y126552D01*
X16276Y126525D01*
X16196Y126481D01*
X16125Y126419D01*
X16067Y126341D01*
X16026Y126249D01*
X16001Y126142D01*
X15993Y126021D01*
X15993Y126012D01*
X15993Y126001D01*
X15994Y125988D01*
X15994Y125974D01*
X16767Y125974D01*
X16758Y125893D01*
X16738Y125823D01*
X16709Y125762D01*
X16671Y125712D01*
X16625Y125672D01*
X16573Y125644D01*
X16516Y125627D01*
X16454Y125621D01*
X16407Y125624D01*
X16364Y125634D01*
X16325Y125650D01*
X16289Y125672D01*
X16256Y125701D01*
X16228Y125738D01*
X16202Y125782D01*
X16180Y125834D01*
X16180Y125834D01*
X15780Y125500D02*
X15780Y126537D01*
X15622Y126537D01*
X15622Y126380D01*
X15592Y126430D01*
X15564Y126471D01*
X15536Y126503D01*
X15510Y126525D01*
X15484Y126541D01*
X15456Y126552D01*
X15427Y126558D01*
X15397Y126561D01*
X15353Y126557D01*
X15308Y126546D01*
X15262Y126529D01*
X15217Y126504D01*
X15277Y126341D01*
X15309Y126357D01*
X15342Y126369D01*
X15374Y126377D01*
X15406Y126379D01*
X15434Y126377D01*
X15461Y126370D01*
X15486Y126359D01*
X15510Y126344D01*
X15531Y126325D01*
X15549Y126303D01*
X15564Y126277D01*
X15575Y126248D01*
X15588Y126200D01*
X15597Y126150D01*
X15602Y126098D01*
X15604Y126043D01*
X15604Y125500D01*
X15780Y125500D01*
X15780Y125500D01*
X14622Y126019D02*
X14612Y126153D01*
X14582Y126269D01*
X14532Y126367D01*
X14462Y126445D01*
X14391Y126496D01*
X14313Y126532D01*
X14228Y126553D01*
X14136Y126561D01*
X14034Y126552D01*
X13941Y126526D01*
X13859Y126482D01*
X13786Y126420D01*
X13727Y126344D01*
X13684Y126254D01*
X13659Y126150D01*
X13650Y126033D01*
X13654Y125938D01*
X13665Y125854D01*
X13684Y125781D01*
X13710Y125718D01*
X13744Y125664D01*
X13784Y125616D01*
X13831Y125575D01*
X13885Y125540D01*
X13944Y125512D01*
X14005Y125492D01*
X14069Y125481D01*
X14136Y125477D01*
X14148Y125478D01*
X14136Y125621D01*
X14073Y125627D01*
X14016Y125646D01*
X13964Y125677D01*
X13918Y125721D01*
X13880Y125777D01*
X13853Y125846D01*
X13836Y125929D01*
X13831Y126024D01*
X13836Y126115D01*
X13853Y126193D01*
X13880Y126261D01*
X13918Y126316D01*
X13965Y126359D01*
X14016Y126390D01*
X14073Y126409D01*
X14136Y126415D01*
X14199Y126409D01*
X14256Y126390D01*
X14308Y126360D01*
X14354Y126316D01*
X14392Y126261D01*
X14420Y126193D01*
X14436Y126112D01*
X14441Y126019D01*
X14441Y126019D01*
X14436Y125925D01*
X14420Y125844D01*
X14392Y125776D01*
X14354Y125720D01*
X14308Y125677D01*
X14256Y125646D01*
X14199Y125627D01*
X14136Y125621D01*
X14148Y125478D01*
X14239Y125485D01*
X14333Y125511D01*
X14415Y125555D01*
X14488Y125616D01*
X14546Y125694D01*
X14588Y125787D01*
X14614Y125895D01*
X14622Y126019D01*
X14622Y126019D01*
X12764Y125500D02*
X12764Y125652D01*
X12830Y125575D01*
X12907Y125521D01*
X12995Y125488D01*
X13094Y125477D01*
X13139Y125479D01*
X13182Y125485D01*
X13224Y125496D01*
X13265Y125512D01*
X13302Y125530D01*
X13334Y125551D01*
X13361Y125575D01*
X13383Y125600D01*
X13401Y125628D01*
X13416Y125659D01*
X13428Y125693D01*
X13437Y125730D01*
X13442Y125760D01*
X13445Y125797D01*
X13447Y125842D01*
X13448Y125895D01*
X13448Y126537D01*
X13272Y126537D01*
X13272Y125962D01*
X13272Y125899D01*
X13270Y125847D01*
X13266Y125806D01*
X13262Y125776D01*
X13251Y125744D01*
X13236Y125714D01*
X13216Y125689D01*
X13191Y125667D01*
X13163Y125650D01*
X13131Y125638D01*
X13096Y125630D01*
X13058Y125628D01*
X13019Y125630D01*
X12982Y125638D01*
X12945Y125651D01*
X12910Y125668D01*
X12878Y125691D01*
X12851Y125716D01*
X12829Y125746D01*
X12812Y125779D01*
X12799Y125818D01*
X12790Y125864D01*
X12785Y125919D01*
X12783Y125981D01*
X12783Y126537D01*
X12607Y126537D01*
X12607Y125500D01*
X12764Y125500D01*
X12764Y125500D01*
X11948Y125657D02*
X11923Y125502D01*
X11959Y125495D01*
X11993Y125490D01*
X12025Y125487D01*
X12055Y125486D01*
X12101Y125488D01*
X12140Y125494D01*
X12175Y125503D01*
X12204Y125517D01*
X12228Y125533D01*
X12249Y125552D01*
X12265Y125573D01*
X12278Y125596D01*
X12288Y125628D01*
X12294Y125673D01*
X12298Y125731D01*
X12300Y125804D01*
X12300Y126400D01*
X12429Y126400D01*
X12429Y126537D01*
X12300Y126537D01*
X12300Y126794D01*
X12125Y126899D01*
X12125Y126537D01*
X11948Y126537D01*
X11948Y126400D01*
X12125Y126400D01*
X12125Y125794D01*
X12124Y125760D01*
X12123Y125732D01*
X12120Y125711D01*
X12116Y125697D01*
X12110Y125687D01*
X12103Y125678D01*
X12095Y125670D01*
X12085Y125663D01*
X12074Y125658D01*
X12060Y125654D01*
X12044Y125651D01*
X12025Y125650D01*
X12009Y125651D01*
X11991Y125652D01*
X11971Y125654D01*
X11948Y125657D01*
X11948Y125657D01*
X11776Y125103D02*
X11776Y126537D01*
X11616Y126537D01*
X11616Y126402D01*
X11530Y126318D01*
X11531Y126318D01*
X11568Y126259D01*
X11595Y126189D01*
X11612Y126107D01*
X11617Y126013D01*
X11617Y126013D01*
X11612Y125919D01*
X11597Y125839D01*
X11571Y125771D01*
X11536Y125717D01*
X11493Y125675D01*
X11446Y125645D01*
X11395Y125627D01*
X11340Y125621D01*
X11283Y125627D01*
X11231Y125646D01*
X11183Y125677D01*
X11139Y125720D01*
X11102Y125777D01*
X11076Y125847D01*
X11061Y125930D01*
X11056Y126027D01*
X11061Y126120D01*
X11076Y126201D01*
X11101Y126269D01*
X11137Y126324D01*
X11180Y126367D01*
X11227Y126398D01*
X11277Y126417D01*
X11332Y126423D01*
X11386Y126416D01*
X11438Y126397D01*
X11486Y126364D01*
X11530Y126318D01*
X11616Y126402D01*
X11587Y126439D01*
X11556Y126472D01*
X11523Y126499D01*
X11488Y126521D01*
X11451Y126538D01*
X11409Y126551D01*
X11364Y126558D01*
X11315Y126561D01*
X11251Y126556D01*
X11190Y126543D01*
X11134Y126522D01*
X11081Y126492D01*
X11033Y126454D01*
X10992Y126410D01*
X10957Y126358D01*
X10928Y126299D01*
X10905Y126236D01*
X10889Y126169D01*
X10879Y126099D01*
X10876Y126026D01*
X10879Y125949D01*
X10890Y125875D01*
X10908Y125805D01*
X10933Y125740D01*
X10965Y125680D01*
X11003Y125627D01*
X11048Y125582D01*
X11099Y125544D01*
X11154Y125515D01*
X11211Y125494D01*
X11269Y125481D01*
X11328Y125477D01*
X11371Y125479D01*
X11411Y125486D01*
X11450Y125497D01*
X11486Y125514D01*
X11519Y125533D01*
X11549Y125556D01*
X11576Y125580D01*
X11600Y125607D01*
X11600Y125103D01*
X11776Y125103D01*
X11776Y125103D01*
X9984Y125500D02*
X9984Y125652D01*
X10050Y125575D01*
X10127Y125521D01*
X10215Y125488D01*
X10313Y125477D01*
X10358Y125479D01*
X10402Y125485D01*
X10444Y125496D01*
X10485Y125512D01*
X10522Y125530D01*
X10554Y125551D01*
X10581Y125575D01*
X10603Y125600D01*
X10621Y125628D01*
X10636Y125659D01*
X10648Y125693D01*
X10657Y125730D01*
X10662Y125760D01*
X10665Y125797D01*
X10667Y125842D01*
X10668Y125895D01*
X10668Y126537D01*
X10492Y126537D01*
X10492Y125962D01*
X10491Y125899D01*
X10489Y125847D01*
X10486Y125806D01*
X10481Y125776D01*
X10471Y125744D01*
X10455Y125714D01*
X10435Y125689D01*
X10411Y125667D01*
X10383Y125650D01*
X10351Y125638D01*
X10316Y125630D01*
X10278Y125628D01*
X10239Y125630D01*
X10201Y125638D01*
X10165Y125651D01*
X10130Y125668D01*
X10098Y125691D01*
X10071Y125716D01*
X10049Y125746D01*
X10032Y125779D01*
X10019Y125818D01*
X10010Y125864D01*
X10005Y125919D01*
X10003Y125981D01*
X10003Y126537D01*
X9827Y126537D01*
X9827Y125500D01*
X9984Y125500D01*
X9984Y125500D01*
X9168Y125657D02*
X9142Y125502D01*
X9179Y125495D01*
X9213Y125490D01*
X9245Y125487D01*
X9275Y125486D01*
X9320Y125488D01*
X9360Y125494D01*
X9395Y125503D01*
X9424Y125517D01*
X9448Y125533D01*
X9469Y125552D01*
X9485Y125573D01*
X9498Y125596D01*
X9507Y125628D01*
X9514Y125673D01*
X9518Y125731D01*
X9519Y125804D01*
X9519Y126400D01*
X9648Y126400D01*
X9648Y126537D01*
X9519Y126537D01*
X9519Y126794D01*
X9345Y126899D01*
X9345Y126537D01*
X9168Y126537D01*
X9168Y126400D01*
X9345Y126400D01*
X9345Y125794D01*
X9344Y125760D01*
X9342Y125732D01*
X9339Y125711D01*
X9335Y125697D01*
X9330Y125687D01*
X9323Y125678D01*
X9315Y125670D01*
X9305Y125663D01*
X9293Y125658D01*
X9279Y125654D01*
X9263Y125651D01*
X9245Y125650D01*
X9229Y125651D01*
X9211Y125652D01*
X9191Y125654D01*
X9168Y125657D01*
X9168Y125657D01*
X8440Y125500D02*
X8440Y126537D01*
X8283Y126537D01*
X8283Y126392D01*
X8257Y126428D01*
X8226Y126460D01*
X8192Y126489D01*
X8153Y126514D01*
X8111Y126534D01*
X8066Y126549D01*
X8019Y126558D01*
X7969Y126561D01*
X7914Y126558D01*
X7864Y126549D01*
X7819Y126534D01*
X7780Y126513D01*
X7745Y126486D01*
X7717Y126455D01*
X7693Y126419D01*
X7676Y126379D01*
X7609Y126458D01*
X7534Y126515D01*
X7449Y126549D01*
X7355Y126561D01*
X7283Y126555D01*
X7219Y126539D01*
X7164Y126512D01*
X7118Y126475D01*
X7082Y126427D01*
X7056Y126367D01*
X7040Y126295D01*
X7035Y126212D01*
X7035Y125500D01*
X7210Y125500D01*
X7210Y126153D01*
X7211Y126202D01*
X7214Y126244D01*
X7219Y126278D01*
X7227Y126305D01*
X7237Y126327D01*
X7251Y126347D01*
X7268Y126365D01*
X7289Y126380D01*
X7312Y126392D01*
X7338Y126401D01*
X7365Y126406D01*
X7394Y126408D01*
X7447Y126404D01*
X7494Y126390D01*
X7538Y126367D01*
X7576Y126335D01*
X7608Y126294D01*
X7630Y126241D01*
X7644Y126177D01*
X7648Y126103D01*
X7648Y125500D01*
X7824Y125500D01*
X7824Y126174D01*
X7827Y126229D01*
X7835Y126276D01*
X7848Y126317D01*
X7867Y126350D01*
X7892Y126375D01*
X7924Y126394D01*
X7962Y126405D01*
X8008Y126408D01*
X8044Y126406D01*
X8079Y126398D01*
X8113Y126386D01*
X8145Y126369D01*
X8174Y126347D01*
X8199Y126321D01*
X8220Y126290D01*
X8236Y126255D01*
X8249Y126213D01*
X8257Y126163D01*
X8263Y126105D01*
X8264Y126038D01*
X8264Y125500D01*
X8440Y125500D01*
X8440Y125500D01*
X6840Y126019D02*
X6830Y126153D01*
X6800Y126269D01*
X6750Y126367D01*
X6680Y126445D01*
X6609Y126496D01*
X6531Y126532D01*
X6446Y126553D01*
X6353Y126561D01*
X6251Y126552D01*
X6159Y126526D01*
X6076Y126482D01*
X6004Y126420D01*
X5944Y126344D01*
X5902Y126254D01*
X5876Y126150D01*
X5868Y126033D01*
X5872Y125938D01*
X5883Y125854D01*
X5902Y125781D01*
X5928Y125718D01*
X5961Y125664D01*
X6002Y125616D01*
X6049Y125575D01*
X6103Y125540D01*
X6162Y125512D01*
X6223Y125492D01*
X6287Y125481D01*
X6353Y125477D01*
X6365Y125478D01*
X6353Y125621D01*
X6291Y125627D01*
X6233Y125646D01*
X6182Y125677D01*
X6136Y125721D01*
X6098Y125777D01*
X6070Y125846D01*
X6054Y125929D01*
X6049Y126024D01*
X6054Y126115D01*
X6070Y126193D01*
X6098Y126261D01*
X6136Y126316D01*
X6182Y126359D01*
X6234Y126390D01*
X6291Y126409D01*
X6353Y126415D01*
X6416Y126409D01*
X6474Y126390D01*
X6526Y126360D01*
X6572Y126316D01*
X6610Y126261D01*
X6637Y126193D01*
X6654Y126112D01*
X6659Y126019D01*
X6659Y126019D01*
X6654Y125925D01*
X6637Y125844D01*
X6610Y125776D01*
X6572Y125720D01*
X6526Y125677D01*
X6474Y125646D01*
X6416Y125627D01*
X6353Y125621D01*
X6365Y125478D01*
X6457Y125485D01*
X6550Y125511D01*
X6633Y125555D01*
X6705Y125616D01*
X6764Y125694D01*
X6806Y125787D01*
X6831Y125895D01*
X6840Y126019D01*
X6840Y126019D01*
X4989Y125500D02*
X4989Y125631D01*
X5069Y125713D01*
X5067Y125715D01*
X5031Y125769D01*
X5006Y125834D01*
X4991Y125912D01*
X4986Y126003D01*
X4991Y126102D01*
X5007Y126188D01*
X5032Y126259D01*
X5068Y126315D01*
X5112Y126359D01*
X5160Y126390D01*
X5213Y126409D01*
X5270Y126415D01*
X5326Y126409D01*
X5378Y126391D01*
X5424Y126361D01*
X5466Y126319D01*
X5501Y126265D01*
X5525Y126196D01*
X5540Y126114D01*
X5545Y126018D01*
X5545Y126018D01*
X5539Y125924D01*
X5524Y125844D01*
X5497Y125775D01*
X5461Y125720D01*
X5417Y125677D01*
X5369Y125646D01*
X5318Y125627D01*
X5262Y125621D01*
X5207Y125627D01*
X5156Y125645D01*
X5109Y125674D01*
X5069Y125713D01*
X4989Y125631D01*
X5044Y125563D01*
X5111Y125515D01*
X5189Y125486D01*
X5279Y125477D01*
X5340Y125481D01*
X5398Y125494D01*
X5454Y125515D01*
X5507Y125545D01*
X5556Y125582D01*
X5599Y125627D01*
X5637Y125678D01*
X5668Y125736D01*
X5693Y125799D01*
X5711Y125868D01*
X5722Y125940D01*
X5725Y126018D01*
X5722Y126093D01*
X5712Y126166D01*
X5696Y126234D01*
X5674Y126299D01*
X5645Y126359D01*
X5609Y126411D01*
X5567Y126456D01*
X5518Y126493D01*
X5465Y126523D01*
X5409Y126544D01*
X5349Y126556D01*
X5287Y126561D01*
X5241Y126558D01*
X5198Y126551D01*
X5158Y126538D01*
X5120Y126521D01*
X5085Y126500D01*
X5054Y126475D01*
X5025Y126448D01*
X5001Y126418D01*
X5001Y126932D01*
X4826Y126932D01*
X4826Y125500D01*
X4989Y125500D01*
X4989Y125500D01*
X3870Y125500D02*
X3870Y125652D01*
X3936Y125575D01*
X4013Y125521D01*
X4100Y125488D01*
X4199Y125477D01*
X4244Y125479D01*
X4288Y125485D01*
X4330Y125496D01*
X4370Y125512D01*
X4408Y125530D01*
X4440Y125551D01*
X4467Y125575D01*
X4489Y125600D01*
X4506Y125628D01*
X4521Y125659D01*
X4534Y125693D01*
X4543Y125730D01*
X4547Y125760D01*
X4551Y125797D01*
X4553Y125842D01*
X4553Y125895D01*
X4553Y126537D01*
X4378Y126537D01*
X4378Y125962D01*
X4377Y125899D01*
X4375Y125847D01*
X4372Y125806D01*
X4367Y125776D01*
X4356Y125744D01*
X4341Y125714D01*
X4321Y125689D01*
X4297Y125667D01*
X4268Y125650D01*
X4237Y125638D01*
X4202Y125630D01*
X4164Y125628D01*
X4125Y125630D01*
X4087Y125638D01*
X4051Y125651D01*
X4015Y125668D01*
X3983Y125691D01*
X3956Y125716D01*
X3934Y125746D01*
X3917Y125779D01*
X3905Y125818D01*
X3896Y125864D01*
X3890Y125919D01*
X3888Y125981D01*
X3888Y126537D01*
X3713Y126537D01*
X3713Y125500D01*
X3870Y125500D01*
X3870Y125500D01*
X3441Y125500D02*
X3441Y126932D01*
X3265Y126932D01*
X3265Y125500D01*
X3441Y125500D01*
X3441Y125500D01*
X2283Y125834D02*
X2101Y125812D01*
X2127Y125736D01*
X2163Y125670D01*
X2207Y125613D01*
X2261Y125564D01*
X2323Y125526D01*
X2393Y125499D01*
X2471Y125482D01*
X2557Y125477D01*
X2665Y125485D01*
X2761Y125512D01*
X2846Y125555D01*
X2918Y125617D01*
X2977Y125694D01*
X3018Y125785D01*
X3043Y125890D01*
X3052Y126010D01*
X3043Y126133D01*
X3018Y126242D01*
X2976Y126336D01*
X2917Y126416D01*
X2844Y126479D01*
X2762Y126524D01*
X2670Y126552D01*
X2567Y126561D01*
X2552Y126559D01*
X2565Y126416D01*
X2623Y126411D01*
X2677Y126396D01*
X2725Y126370D01*
X2769Y126335D01*
X2806Y126291D01*
X2833Y126240D01*
X2851Y126183D01*
X2860Y126118D01*
X2860Y126118D01*
X2281Y126118D01*
X2290Y126180D01*
X2304Y126233D01*
X2323Y126278D01*
X2347Y126314D01*
X2393Y126359D01*
X2444Y126391D01*
X2501Y126410D01*
X2565Y126416D01*
X2552Y126559D01*
X2468Y126552D01*
X2378Y126525D01*
X2298Y126481D01*
X2227Y126419D01*
X2170Y126341D01*
X2128Y126249D01*
X2104Y126142D01*
X2096Y126021D01*
X2096Y126012D01*
X2096Y126001D01*
X2096Y125988D01*
X2096Y125974D01*
X2870Y125974D01*
X2860Y125893D01*
X2841Y125823D01*
X2812Y125762D01*
X2773Y125712D01*
X2727Y125672D01*
X2676Y125644D01*
X2619Y125627D01*
X2556Y125621D01*
X2510Y125624D01*
X2467Y125634D01*
X2427Y125650D01*
X2391Y125672D01*
X2359Y125701D01*
X2330Y125738D01*
X2305Y125782D01*
X2283Y125834D01*
X2283Y125834D01*
X20336Y122522D02*
X20891Y123954D01*
X20686Y123954D01*
X20314Y122914D01*
X20292Y122852D01*
X20272Y122793D01*
X20254Y122735D01*
X20238Y122679D01*
X20221Y122738D01*
X20202Y122797D01*
X20183Y122855D01*
X20161Y122914D01*
X19774Y123954D01*
X19581Y123954D01*
X20142Y122522D01*
X20336Y122522D01*
X20336Y122522D01*
X18834Y122856D02*
X18652Y122834D01*
X18678Y122759D01*
X18714Y122692D01*
X18758Y122635D01*
X18812Y122587D01*
X18874Y122548D01*
X18944Y122521D01*
X19022Y122504D01*
X19108Y122499D01*
X19216Y122507D01*
X19312Y122534D01*
X19397Y122578D01*
X19469Y122639D01*
X19528Y122716D01*
X19569Y122807D01*
X19594Y122913D01*
X19603Y123032D01*
X19594Y123155D01*
X19569Y123264D01*
X19527Y123359D01*
X19468Y123438D01*
X19395Y123501D01*
X19313Y123547D01*
X19221Y123574D01*
X19118Y123583D01*
X19103Y123581D01*
X19116Y123438D01*
X19174Y123433D01*
X19228Y123418D01*
X19276Y123393D01*
X19320Y123357D01*
X19356Y123313D01*
X19384Y123262D01*
X19402Y123205D01*
X19411Y123140D01*
X19411Y123140D01*
X18832Y123140D01*
X18841Y123202D01*
X18855Y123255D01*
X18874Y123300D01*
X18898Y123337D01*
X18944Y123381D01*
X18995Y123413D01*
X19052Y123432D01*
X19116Y123438D01*
X19103Y123581D01*
X19019Y123574D01*
X18929Y123547D01*
X18849Y123503D01*
X18778Y123441D01*
X18721Y123363D01*
X18679Y123271D01*
X18655Y123164D01*
X18647Y123043D01*
X18647Y123034D01*
X18647Y123023D01*
X18647Y123010D01*
X18647Y122996D01*
X19421Y122996D01*
X19411Y122915D01*
X19392Y122845D01*
X19363Y122785D01*
X19324Y122734D01*
X19278Y122694D01*
X19227Y122666D01*
X19170Y122649D01*
X19107Y122643D01*
X19061Y122646D01*
X19018Y122656D01*
X18978Y122672D01*
X18942Y122694D01*
X18910Y122723D01*
X18881Y122760D01*
X18856Y122804D01*
X18834Y122856D01*
X18834Y122856D01*
X18434Y122522D02*
X18434Y123559D01*
X18275Y123559D01*
X18275Y123402D01*
X18246Y123453D01*
X18217Y123494D01*
X18190Y123525D01*
X18164Y123548D01*
X18137Y123563D01*
X18110Y123574D01*
X18081Y123581D01*
X18051Y123583D01*
X18006Y123579D01*
X17961Y123569D01*
X17916Y123551D01*
X17870Y123526D01*
X17931Y123363D01*
X17963Y123380D01*
X17995Y123392D01*
X18027Y123399D01*
X18060Y123401D01*
X18088Y123399D01*
X18114Y123392D01*
X18139Y123382D01*
X18163Y123366D01*
X18184Y123347D01*
X18202Y123325D01*
X18217Y123299D01*
X18229Y123270D01*
X18241Y123222D01*
X18250Y123172D01*
X18256Y123120D01*
X18258Y123065D01*
X18258Y122522D01*
X18434Y122522D01*
X18434Y122522D01*
X17836Y122832D02*
X17662Y122859D01*
X17652Y122810D01*
X17634Y122767D01*
X17611Y122730D01*
X17581Y122699D01*
X17544Y122675D01*
X17500Y122657D01*
X17450Y122647D01*
X17394Y122643D01*
X17337Y122646D01*
X17288Y122656D01*
X17247Y122671D01*
X17214Y122693D01*
X17188Y122718D01*
X17170Y122746D01*
X17159Y122776D01*
X17155Y122808D01*
X17159Y122837D01*
X17168Y122862D01*
X17184Y122883D01*
X17207Y122902D01*
X17232Y122915D01*
X17270Y122929D01*
X17322Y122944D01*
X17387Y122962D01*
X17476Y122985D01*
X17550Y123007D01*
X17610Y123027D01*
X17655Y123046D01*
X17690Y123066D01*
X17720Y123089D01*
X17747Y123115D01*
X17768Y123145D01*
X17785Y123177D01*
X17797Y123211D01*
X17804Y123247D01*
X17807Y123284D01*
X17805Y123318D01*
X17799Y123351D01*
X17789Y123382D01*
X17775Y123412D01*
X17758Y123441D01*
X17737Y123466D01*
X17714Y123490D01*
X17689Y123510D01*
X17666Y123525D01*
X17640Y123538D01*
X17610Y123551D01*
X17577Y123562D01*
X17541Y123571D01*
X17503Y123577D01*
X17465Y123581D01*
X17425Y123583D01*
X17366Y123581D01*
X17310Y123574D01*
X17258Y123563D01*
X17210Y123548D01*
X17167Y123528D01*
X17130Y123506D01*
X17099Y123481D01*
X17074Y123452D01*
X17054Y123420D01*
X17037Y123382D01*
X17024Y123339D01*
X17014Y123292D01*
X17186Y123268D01*
X17194Y123306D01*
X17208Y123340D01*
X17228Y123369D01*
X17253Y123393D01*
X17284Y123413D01*
X17321Y123427D01*
X17364Y123435D01*
X17412Y123438D01*
X17468Y123436D01*
X17516Y123428D01*
X17555Y123416D01*
X17585Y123398D01*
X17608Y123377D01*
X17624Y123355D01*
X17634Y123330D01*
X17637Y123304D01*
X17635Y123288D01*
X17631Y123272D01*
X17625Y123257D01*
X17615Y123243D01*
X17603Y123229D01*
X17588Y123217D01*
X17569Y123206D01*
X17548Y123196D01*
X17528Y123190D01*
X17496Y123180D01*
X17451Y123167D01*
X17393Y123151D01*
X17306Y123127D01*
X17234Y123106D01*
X17176Y123087D01*
X17132Y123070D01*
X17097Y123052D01*
X17067Y123031D01*
X17040Y123006D01*
X17017Y122977D01*
X16998Y122945D01*
X16985Y122909D01*
X16977Y122870D01*
X16975Y122827D01*
X16978Y122784D01*
X16987Y122742D01*
X17003Y122701D01*
X17026Y122661D01*
X17054Y122625D01*
X17089Y122592D01*
X17128Y122565D01*
X17174Y122541D01*
X17224Y122523D01*
X17277Y122509D01*
X17333Y122501D01*
X17393Y122499D01*
X17488Y122504D01*
X17571Y122520D01*
X17642Y122546D01*
X17701Y122583D01*
X17749Y122630D01*
X17788Y122687D01*
X17817Y122754D01*
X17836Y122832D01*
X17836Y122832D01*
X16765Y122522D02*
X16765Y123559D01*
X16589Y123559D01*
X16589Y122522D01*
X16765Y122522D01*
X16765Y122522D01*
X16765Y123752D02*
X16765Y123954D01*
X16589Y123954D01*
X16589Y123752D01*
X16765Y123752D01*
X16765Y123752D01*
X16387Y123041D02*
X16377Y123175D01*
X16347Y123291D01*
X16297Y123389D01*
X16227Y123467D01*
X16156Y123518D01*
X16078Y123554D01*
X15993Y123576D01*
X15900Y123583D01*
X15798Y123574D01*
X15706Y123548D01*
X15624Y123504D01*
X15551Y123443D01*
X15491Y123366D01*
X15449Y123276D01*
X15424Y123172D01*
X15415Y123055D01*
X15419Y122961D01*
X15430Y122877D01*
X15449Y122803D01*
X15475Y122740D01*
X15509Y122686D01*
X15549Y122639D01*
X15596Y122597D01*
X15650Y122562D01*
X15709Y122534D01*
X15770Y122515D01*
X15834Y122503D01*
X15900Y122499D01*
X15912Y122500D01*
X15900Y122643D01*
X15838Y122649D01*
X15781Y122668D01*
X15729Y122699D01*
X15683Y122743D01*
X15645Y122799D01*
X15617Y122869D01*
X15601Y122951D01*
X15596Y123047D01*
X15601Y123137D01*
X15618Y123216D01*
X15645Y123283D01*
X15683Y123338D01*
X15729Y123381D01*
X15781Y123412D01*
X15838Y123431D01*
X15900Y123437D01*
X15964Y123431D01*
X16021Y123413D01*
X16073Y123382D01*
X16119Y123339D01*
X16157Y123283D01*
X16184Y123215D01*
X16201Y123134D01*
X16206Y123041D01*
X16206Y123041D01*
X16201Y122947D01*
X16184Y122867D01*
X16157Y122798D01*
X16119Y122742D01*
X16073Y122699D01*
X16021Y122668D01*
X15964Y122649D01*
X15900Y122643D01*
X15912Y122500D01*
X16004Y122507D01*
X16097Y122534D01*
X16180Y122577D01*
X16252Y122638D01*
X16311Y122716D01*
X16353Y122809D01*
X16378Y122917D01*
X16387Y123041D01*
X16387Y123041D01*
X15209Y122522D02*
X15209Y123559D01*
X15051Y123559D01*
X15051Y123412D01*
X14987Y123487D01*
X14911Y123540D01*
X14822Y123572D01*
X14721Y123583D01*
X14675Y123581D01*
X14631Y123574D01*
X14589Y123564D01*
X14548Y123549D01*
X14512Y123531D01*
X14480Y123510D01*
X14453Y123487D01*
X14431Y123461D01*
X14413Y123432D01*
X14397Y123401D01*
X14385Y123367D01*
X14376Y123331D01*
X14372Y123302D01*
X14369Y123264D01*
X14367Y123216D01*
X14366Y123160D01*
X14366Y122522D01*
X14542Y122522D01*
X14542Y123153D01*
X14543Y123203D01*
X14547Y123247D01*
X14554Y123284D01*
X14563Y123314D01*
X14575Y123339D01*
X14591Y123362D01*
X14611Y123381D01*
X14635Y123399D01*
X14663Y123413D01*
X14692Y123422D01*
X14724Y123428D01*
X14758Y123430D01*
X14812Y123426D01*
X14862Y123413D01*
X14909Y123390D01*
X14952Y123359D01*
X14987Y123315D01*
X15013Y123256D01*
X15028Y123180D01*
X15033Y123089D01*
X15033Y122522D01*
X15209Y122522D01*
X15209Y122522D01*
X12928Y122522D02*
X13104Y122522D01*
X13104Y123642D01*
X13138Y123612D01*
X13177Y123582D01*
X13221Y123551D01*
X13270Y123521D01*
X13320Y123493D01*
X13368Y123468D01*
X13413Y123447D01*
X13455Y123430D01*
X13455Y123600D01*
X13384Y123637D01*
X13317Y123677D01*
X13255Y123721D01*
X13197Y123768D01*
X13146Y123817D01*
X13103Y123865D01*
X13068Y123913D01*
X13041Y123960D01*
X12928Y123960D01*
X12928Y122522D01*
X12928Y122522D01*
X12379Y122522D02*
X12379Y122722D01*
X12179Y122722D01*
X12179Y122522D01*
X12379Y122522D01*
X12379Y122522D01*
X11260Y122522D02*
X11436Y122522D01*
X11436Y123642D01*
X11470Y123612D01*
X11509Y123582D01*
X11553Y123551D01*
X11602Y123521D01*
X11652Y123493D01*
X11700Y123468D01*
X11745Y123447D01*
X11787Y123430D01*
X11787Y123600D01*
X11716Y123637D01*
X11649Y123677D01*
X11587Y123721D01*
X11529Y123768D01*
X11478Y123817D01*
X11435Y123865D01*
X11400Y123913D01*
X11373Y123960D01*
X11260Y123960D01*
X11260Y122522D01*
X11260Y122522D01*
X10711Y122522D02*
X10711Y122722D01*
X10511Y122722D01*
X10511Y122522D01*
X10711Y122522D01*
X10711Y122522D01*
X10254Y123228D02*
X10251Y123349D01*
X10241Y123457D01*
X10225Y123553D01*
X10202Y123637D01*
X10172Y123710D01*
X10137Y123774D01*
X10095Y123829D01*
X10046Y123876D01*
X9992Y123912D01*
X9930Y123939D01*
X9862Y123954D01*
X9787Y123960D01*
X9731Y123957D01*
X9679Y123948D01*
X9630Y123934D01*
X9585Y123913D01*
X9543Y123888D01*
X9506Y123857D01*
X9472Y123821D01*
X9441Y123779D01*
X9415Y123733D01*
X9391Y123683D01*
X9370Y123627D01*
X9353Y123567D01*
X9338Y123498D01*
X9328Y123419D01*
X9322Y123329D01*
X9320Y123228D01*
X9324Y123108D01*
X9333Y123001D01*
X9349Y122905D01*
X9372Y122821D01*
X9401Y122748D01*
X9437Y122684D01*
X9479Y122629D01*
X9527Y122582D01*
X9582Y122545D01*
X9643Y122519D01*
X9712Y122503D01*
X9787Y122498D01*
X9801Y122499D01*
X9787Y122642D01*
X9729Y122650D01*
X9676Y122672D01*
X9627Y122708D01*
X9584Y122759D01*
X9547Y122833D01*
X9522Y122935D01*
X9506Y123067D01*
X9501Y123228D01*
X9506Y123390D01*
X9522Y123522D01*
X9547Y123625D01*
X9584Y123698D01*
X9627Y123749D01*
X9676Y123785D01*
X9730Y123807D01*
X9789Y123814D01*
X9847Y123808D01*
X9898Y123789D01*
X9943Y123756D01*
X9982Y123712D01*
X10022Y123632D01*
X10051Y123525D01*
X10068Y123391D01*
X10073Y123228D01*
X10073Y123228D01*
X10068Y123067D01*
X10053Y122935D01*
X10027Y122832D01*
X9991Y122759D01*
X9947Y122708D01*
X9899Y122671D01*
X9845Y122650D01*
X9787Y122642D01*
X9801Y122499D01*
X9885Y122507D01*
X9972Y122535D01*
X10048Y122581D01*
X10112Y122646D01*
X10174Y122750D01*
X10219Y122881D01*
X10245Y123041D01*
X10254Y123228D01*
X10254Y123228D01*
G37*
M02*