%FSLAX33Y33*%
%MOMM*%
%AMRect-W4800000-H890000-RO1.000*
21,1,4.8,0.89,0.,0.,180*%
%ADD10R,2.049999X2.049999*%
%ADD11C,2.049999*%
%ADD12C,5.5*%
%ADD13Rect-W4800000-H890000-RO1.000*%
D10*
%LNbottom solder mask_traces*%
%LNbottom solder mask component e891f58c8b78544a*%
G01*
X8730Y73140D03*
D11*
X8730Y70600D03*
X8730Y68060D03*
X8730Y65520D03*
X8730Y62980D03*
X8730Y60440D03*
X8730Y57900D03*
X8730Y55360D03*
X11270Y73140D03*
X11270Y70600D03*
X11270Y68060D03*
X11270Y65520D03*
X11270Y62980D03*
X11270Y60440D03*
X11270Y57900D03*
X11270Y55360D03*
%LNbottom solder mask component a5e058b9900ffb4b*%
D12*
X7500Y3000D03*
%LNbottom solder mask component b19c0e67674e22d9*%
X7500Y125500D03*
%LNbottom solder mask component f9d0310573364d19*%
D10*
X8730Y109557D03*
D11*
X8730Y107017D03*
X8730Y104477D03*
X8730Y101937D03*
X8730Y99397D03*
X8730Y96857D03*
X8730Y94317D03*
X8730Y91777D03*
X11270Y109557D03*
X11270Y107017D03*
X11270Y104477D03*
X11270Y101937D03*
X11270Y99397D03*
X11270Y96857D03*
X11270Y94317D03*
X11270Y91777D03*
%LNbottom solder mask component aee47269770e5b20*%
D13*
X13250Y36723D03*
X13250Y34183D03*
X13250Y31643D03*
X13250Y29103D03*
X13250Y26563D03*
X13250Y24023D03*
X13250Y21483D03*
X13250Y18943D03*
X6750Y18943D03*
X6750Y21483D03*
X6750Y24023D03*
X6750Y26563D03*
X6750Y29103D03*
X6750Y31643D03*
X6750Y34183D03*
X6750Y36723D03*
M02*