%FSLAX33Y33*%
%MOMM*%
%AMRect-W2049999-H2049999-RO1.750*
21,1,2.049999,2.049999,0.,0.,45*%
%AMRect-W4800000-H890000-RO0.500*
21,1,4.8,0.89,0.,0.,270*%
%AMRect-W820710-H1670710-RO1.000*
21,1,0.82071,1.67071,0.,0.,180*%
%ADD10C,2.049999*%
%ADD11Rect-W2049999-H2049999-RO1.750*%
%ADD12Rect-W4800000-H890000-RO0.500*%
%ADD13Rect-W820710-H1670710-RO1.000*%
D10*
%LNbottom solder mask_traces*%
%LNbottom solder mask component 6f45595ed46c503a*%
G01*
X14262Y43592D03*
X16058Y41796D03*
X17854Y40000D03*
X19650Y38204D03*
X21446Y36408D03*
X23242Y34612D03*
X25038Y32816D03*
X14262Y47184D03*
X16058Y45388D03*
X17854Y43592D03*
X19650Y41796D03*
X21446Y40000D03*
X23242Y38204D03*
X25038Y36408D03*
X26834Y34612D03*
D11*
X12466Y45388D03*
%LNbottom solder mask component 0a00c536e324cf6a*%
D10*
X14262Y66092D03*
X16058Y64296D03*
X17854Y62500D03*
X19650Y60704D03*
X21446Y58908D03*
X23242Y57112D03*
X25038Y55316D03*
X14262Y69684D03*
X16058Y67888D03*
X17854Y66092D03*
X19650Y64296D03*
X21446Y62500D03*
X23242Y60704D03*
X25038Y58908D03*
X26834Y57112D03*
D11*
X12466Y67888D03*
%LNbottom solder mask component aee47269770e5b20*%
D12*
X10760Y20750D03*
X13300Y20750D03*
X15840Y20750D03*
X18380Y20750D03*
X20920Y20750D03*
X23460Y20750D03*
X26000Y20750D03*
X28540Y20750D03*
X28540Y14250D03*
X26000Y14250D03*
X23460Y14250D03*
X20920Y14250D03*
X18380Y14250D03*
X15840Y14250D03*
X13300Y14250D03*
X10760Y14250D03*
%LNbottom solder mask component fcc7330a5c04ed33*%
D13*
X10075Y80500D03*
X6925Y80500D03*
%LNbottom solder mask component 5223292f9ca4fa3a*%
X10075Y76000D03*
X6925Y76000D03*
%LNbottom solder mask component df5c0e0204abdff7*%
X30075Y80500D03*
X26925Y80500D03*
%LNbottom solder mask component c93e3f70910718a6*%
X30075Y76000D03*
X26925Y76000D03*
%LNbottom solder mask component 450d204d92aa958c*%
X38075Y78000D03*
X34925Y78000D03*
%LNbottom solder mask component ec5c1160eed49731*%
X38075Y82500D03*
X34925Y82500D03*
M02*