%FSLAX33Y33*%
%MOMM*%
%AMRR-H508000-W10160000-R152400-RO0.000*
21,1,9.8552,0.508,0.,0.,360*
21,1,10.16,0.2032,0.,0.,360*
1,1,0.3048,-4.9276,0.1016*
1,1,0.3048,4.9276,0.1016*
1,1,0.3048,4.9276,-0.1016*
1,1,0.3048,-4.9276,-0.1016*%
%ADD10C,0.1*%
%ADD11R,1.X4.5*%
%ADD12RR-H508000-W10160000-R152400-RO0.000*%
D10*
%LNtop silkscreen_traces*%
%LNtop silkscreen component e891f58c8b78544a*%
G01*
X5750Y50250D02*
X5750Y78250D01*
X14250Y78250*
X14250Y50250*
X5750Y50250*
X6000Y50500D02*
X6000Y78000D01*
X14000Y78000*
X14000Y50500*
X6000Y50500*
D11*
X6250Y64275D03*
D12*
X10000Y78855D03*
G36*
X9001Y48756D02*
X9172Y48780D01*
X9179Y48704D01*
X9191Y48642D01*
X9209Y48592D01*
X9234Y48555D01*
X9264Y48529D01*
X9299Y48510D01*
X9339Y48498D01*
X9385Y48495D01*
X9420Y48497D01*
X9452Y48503D01*
X9481Y48513D01*
X9508Y48527D01*
X9532Y48545D01*
X9552Y48566D01*
X9568Y48590D01*
X9580Y48616D01*
X9588Y48648D01*
X9594Y48689D01*
X9598Y48738D01*
X9599Y48795D01*
X9599Y49782D01*
X9789Y49782D01*
X9789Y48806D01*
X9786Y48721D01*
X9778Y48647D01*
X9764Y48582D01*
X9745Y48528D01*
X9720Y48481D01*
X9689Y48441D01*
X9651Y48406D01*
X9607Y48377D01*
X9558Y48355D01*
X9505Y48339D01*
X9448Y48329D01*
X9386Y48326D01*
X9297Y48332D01*
X9220Y48353D01*
X9153Y48387D01*
X9098Y48434D01*
X9054Y48495D01*
X9024Y48569D01*
X9006Y48656D01*
X9001Y48756D01*
X9001Y48756D01*
X10951Y48519D02*
X10951Y48350D01*
X10004Y48350D01*
X10005Y48381D01*
X10009Y48412D01*
X10015Y48442D01*
X10025Y48472D01*
X10046Y48520D01*
X10072Y48568D01*
X10104Y48615D01*
X10141Y48663D01*
X10185Y48711D01*
X10238Y48764D01*
X10300Y48820D01*
X10371Y48879D01*
X10478Y48970D01*
X10566Y49051D01*
X10636Y49122D01*
X10686Y49183D01*
X10722Y49238D01*
X10748Y49291D01*
X10763Y49343D01*
X10768Y49394D01*
X10763Y49444D01*
X10749Y49490D01*
X10726Y49532D01*
X10693Y49570D01*
X10653Y49602D01*
X10607Y49624D01*
X10556Y49638D01*
X10499Y49642D01*
X10438Y49637D01*
X10384Y49623D01*
X10337Y49599D01*
X10295Y49566D01*
X10262Y49524D01*
X10238Y49475D01*
X10223Y49419D01*
X10218Y49355D01*
X10038Y49373D01*
X10053Y49468D01*
X10082Y49552D01*
X10123Y49623D01*
X10177Y49682D01*
X10243Y49728D01*
X10319Y49761D01*
X10406Y49781D01*
X10502Y49788D01*
X10600Y49780D01*
X10687Y49759D01*
X10763Y49723D01*
X10829Y49673D01*
X10881Y49613D01*
X10919Y49545D01*
X10941Y49471D01*
X10949Y49390D01*
X10947Y49347D01*
X10940Y49305D01*
X10929Y49263D01*
X10914Y49221D01*
X10893Y49179D01*
X10867Y49136D01*
X10835Y49092D01*
X10797Y49046D01*
X10749Y48996D01*
X10688Y48937D01*
X10614Y48870D01*
X10526Y48794D01*
X10454Y48733D01*
X10396Y48683D01*
X10352Y48643D01*
X10323Y48614D01*
X10301Y48590D01*
X10282Y48567D01*
X10264Y48543D01*
X10249Y48519D01*
X10951Y48519D01*
X10951Y48519D01*
X7113Y79388D02*
X7113Y80479D01*
X7597Y80479D01*
X7665Y80477D01*
X7725Y80472D01*
X7776Y80462D01*
X7819Y80450D01*
X7855Y80432D01*
X7887Y80409D01*
X7915Y80380D01*
X7940Y80346D01*
X7960Y80308D01*
X7974Y80267D01*
X7982Y80225D01*
X7985Y80181D01*
X7981Y80125D01*
X7966Y80074D01*
X7943Y80028D01*
X7910Y79986D01*
X7867Y79949D01*
X7814Y79920D01*
X7751Y79899D01*
X7715Y79892D01*
X7692Y80009D01*
X7723Y80018D01*
X7749Y80030D01*
X7772Y80045D01*
X7791Y80062D01*
X7807Y80083D01*
X7820Y80106D01*
X7829Y80130D01*
X7835Y80155D01*
X7836Y80181D01*
X7833Y80218D01*
X7822Y80252D01*
X7805Y80282D01*
X7780Y80309D01*
X7748Y80330D01*
X7708Y80346D01*
X7659Y80355D01*
X7603Y80358D01*
X7257Y80358D01*
X7257Y79997D01*
X7257Y79997D01*
X7568Y79997D01*
X7615Y79999D01*
X7656Y80003D01*
X7692Y80009D01*
X7715Y79892D01*
X7678Y79884D01*
X7705Y79871D01*
X7728Y79857D01*
X7748Y79843D01*
X7765Y79830D01*
X7796Y79799D01*
X7827Y79765D01*
X7856Y79727D01*
X7885Y79685D01*
X8075Y79388D01*
X7893Y79388D01*
X7749Y79615D01*
X7718Y79661D01*
X7691Y79702D01*
X7666Y79736D01*
X7644Y79765D01*
X7625Y79789D01*
X7606Y79810D01*
X7588Y79826D01*
X7571Y79838D01*
X7555Y79848D01*
X7538Y79856D01*
X7522Y79862D01*
X7505Y79867D01*
X7491Y79870D01*
X7473Y79871D01*
X7451Y79872D01*
X7425Y79872D01*
X7257Y79872D01*
X7257Y79388D01*
X7113Y79388D01*
X7113Y79388D01*
X8735Y79642D02*
X8874Y79625D01*
X8854Y79568D01*
X8827Y79518D01*
X8793Y79474D01*
X8752Y79437D01*
X8705Y79408D01*
X8652Y79387D01*
X8592Y79374D01*
X8526Y79370D01*
X8444Y79377D01*
X8371Y79397D01*
X8307Y79430D01*
X8251Y79477D01*
X8207Y79536D01*
X8175Y79605D01*
X8156Y79685D01*
X8150Y79776D01*
X8156Y79871D01*
X8175Y79954D01*
X8207Y80025D01*
X8252Y80086D01*
X8308Y80134D01*
X8370Y80169D01*
X8441Y80189D01*
X8519Y80196D01*
X8530Y80195D01*
X8520Y80086D01*
X8476Y80082D01*
X8435Y80071D01*
X8398Y80051D01*
X8365Y80024D01*
X8337Y79991D01*
X8316Y79952D01*
X8302Y79908D01*
X8296Y79859D01*
X8296Y79859D01*
X8737Y79859D01*
X8730Y79906D01*
X8720Y79946D01*
X8705Y79981D01*
X8686Y80009D01*
X8652Y80042D01*
X8613Y80067D01*
X8569Y80081D01*
X8520Y80086D01*
X8530Y80195D01*
X8594Y80189D01*
X8663Y80169D01*
X8724Y80135D01*
X8778Y80088D01*
X8822Y80029D01*
X8853Y79958D01*
X8872Y79877D01*
X8878Y79785D01*
X8878Y79778D01*
X8878Y79770D01*
X8878Y79760D01*
X8877Y79749D01*
X8288Y79749D01*
X8296Y79688D01*
X8310Y79634D01*
X8332Y79588D01*
X8362Y79549D01*
X8397Y79519D01*
X8436Y79498D01*
X8480Y79485D01*
X8527Y79480D01*
X8562Y79483D01*
X8595Y79490D01*
X8625Y79502D01*
X8653Y79519D01*
X8677Y79541D01*
X8699Y79569D01*
X8719Y79603D01*
X8735Y79642D01*
X8735Y79642D01*
X9555Y79388D02*
X9555Y79488D01*
X9494Y79550D01*
X9496Y79552D01*
X9522Y79593D01*
X9542Y79643D01*
X9553Y79702D01*
X9557Y79771D01*
X9553Y79847D01*
X9541Y79912D01*
X9522Y79966D01*
X9494Y80009D01*
X9461Y80043D01*
X9425Y80066D01*
X9384Y80081D01*
X9340Y80085D01*
X9298Y80081D01*
X9258Y80067D01*
X9223Y80044D01*
X9191Y80012D01*
X9165Y79971D01*
X9146Y79918D01*
X9135Y79856D01*
X9131Y79782D01*
X9131Y79782D01*
X9135Y79711D01*
X9147Y79650D01*
X9167Y79598D01*
X9195Y79555D01*
X9229Y79523D01*
X9265Y79499D01*
X9304Y79485D01*
X9346Y79480D01*
X9389Y79485D01*
X9428Y79498D01*
X9463Y79521D01*
X9494Y79550D01*
X9555Y79488D01*
X9513Y79436D01*
X9462Y79400D01*
X9402Y79377D01*
X9334Y79370D01*
X9287Y79373D01*
X9243Y79383D01*
X9200Y79399D01*
X9160Y79422D01*
X9123Y79451D01*
X9090Y79485D01*
X9061Y79524D01*
X9037Y79568D01*
X9018Y79616D01*
X9004Y79668D01*
X8996Y79723D01*
X8994Y79782D01*
X8996Y79840D01*
X9003Y79895D01*
X9016Y79948D01*
X9033Y79997D01*
X9055Y80042D01*
X9082Y80082D01*
X9114Y80116D01*
X9151Y80145D01*
X9192Y80167D01*
X9235Y80183D01*
X9280Y80193D01*
X9328Y80196D01*
X9362Y80194D01*
X9395Y80189D01*
X9426Y80179D01*
X9455Y80166D01*
X9482Y80150D01*
X9506Y80131D01*
X9527Y80111D01*
X9546Y80087D01*
X9546Y80479D01*
X9679Y80479D01*
X9679Y79388D01*
X9555Y79388D01*
X9555Y79388D01*
X10459Y79388D02*
X10217Y80178D01*
X10355Y80178D01*
X10481Y79722D01*
X10528Y79552D01*
X10532Y79567D01*
X10540Y79600D01*
X10552Y79649D01*
X10569Y79715D01*
X10695Y80178D01*
X10832Y80178D01*
X10951Y79720D01*
X10990Y79569D01*
X11036Y79721D01*
X11171Y80178D01*
X11301Y80178D01*
X11054Y79388D01*
X10915Y79388D01*
X10789Y79861D01*
X10759Y79996D01*
X10599Y79388D01*
X10459Y79388D01*
X10459Y79388D01*
X11414Y79388D02*
X11414Y80178D01*
X11548Y80178D01*
X11548Y79388D01*
X11414Y79388D01*
X11414Y79388D01*
X11414Y80325D02*
X11414Y80479D01*
X11548Y80479D01*
X11548Y80325D01*
X11414Y80325D01*
X11414Y80325D01*
X11751Y79388D02*
X11751Y80178D01*
X11871Y80178D01*
X11871Y80058D01*
X11894Y80097D01*
X11916Y80128D01*
X11936Y80152D01*
X11956Y80169D01*
X11976Y80181D01*
X11997Y80189D01*
X12019Y80194D01*
X12042Y80196D01*
X12076Y80193D01*
X12111Y80185D01*
X12145Y80172D01*
X12180Y80153D01*
X12134Y80029D01*
X12109Y80041D01*
X12085Y80050D01*
X12060Y80056D01*
X12036Y80058D01*
X12014Y80056D01*
X11994Y80051D01*
X11975Y80043D01*
X11957Y80031D01*
X11940Y80017D01*
X11927Y80000D01*
X11916Y79980D01*
X11907Y79958D01*
X11897Y79921D01*
X11890Y79883D01*
X11886Y79843D01*
X11885Y79802D01*
X11885Y79388D01*
X11751Y79388D01*
X11751Y79388D01*
X12801Y79642D02*
X12939Y79625D01*
X12919Y79568D01*
X12892Y79518D01*
X12858Y79474D01*
X12818Y79437D01*
X12770Y79408D01*
X12717Y79387D01*
X12657Y79374D01*
X12591Y79370D01*
X12509Y79377D01*
X12436Y79397D01*
X12372Y79430D01*
X12316Y79477D01*
X12272Y79536D01*
X12240Y79605D01*
X12221Y79685D01*
X12215Y79776D01*
X12221Y79871D01*
X12241Y79954D01*
X12273Y80025D01*
X12318Y80086D01*
X12373Y80134D01*
X12436Y80169D01*
X12506Y80189D01*
X12584Y80196D01*
X12595Y80195D01*
X12585Y80086D01*
X12541Y80082D01*
X12501Y80071D01*
X12464Y80051D01*
X12430Y80024D01*
X12402Y79991D01*
X12382Y79952D01*
X12368Y79908D01*
X12361Y79859D01*
X12361Y79859D01*
X12802Y79859D01*
X12796Y79906D01*
X12785Y79946D01*
X12770Y79981D01*
X12751Y80009D01*
X12717Y80042D01*
X12678Y80067D01*
X12634Y80081D01*
X12585Y80086D01*
X12595Y80195D01*
X12660Y80189D01*
X12728Y80169D01*
X12789Y80135D01*
X12843Y80088D01*
X12887Y80029D01*
X12918Y79958D01*
X12937Y79877D01*
X12943Y79785D01*
X12943Y79778D01*
X12943Y79770D01*
X12943Y79760D01*
X12943Y79749D01*
X12353Y79749D01*
X12361Y79688D01*
X12375Y79634D01*
X12398Y79588D01*
X12427Y79549D01*
X12462Y79519D01*
X12501Y79498D01*
X12545Y79485D01*
X12592Y79480D01*
X12628Y79483D01*
X12660Y79490D01*
X12691Y79502D01*
X12718Y79519D01*
X12743Y79541D01*
X12765Y79569D01*
X12784Y79603D01*
X12801Y79642D01*
X12801Y79642D01*
X15229Y55391D02*
X15229Y55477D01*
X15537Y55477D01*
X15537Y55207D01*
X15501Y55181D01*
X15465Y55158D01*
X15428Y55138D01*
X15390Y55122D01*
X15352Y55110D01*
X15314Y55101D01*
X15275Y55095D01*
X15236Y55094D01*
X15183Y55096D01*
X15133Y55105D01*
X15086Y55119D01*
X15041Y55139D01*
X15000Y55165D01*
X14964Y55196D01*
X14934Y55231D01*
X14909Y55272D01*
X14889Y55317D01*
X14875Y55364D01*
X14867Y55414D01*
X14864Y55466D01*
X14867Y55518D01*
X14875Y55569D01*
X14889Y55617D01*
X14908Y55664D01*
X14933Y55707D01*
X14963Y55745D01*
X14997Y55776D01*
X15036Y55801D01*
X15079Y55821D01*
X15126Y55835D01*
X15175Y55843D01*
X15228Y55846D01*
X15267Y55844D01*
X15303Y55839D01*
X15338Y55831D01*
X15371Y55820D01*
X15401Y55806D01*
X15428Y55790D01*
X15451Y55771D01*
X15471Y55749D01*
X15488Y55724D01*
X15503Y55696D01*
X15515Y55665D01*
X15526Y55630D01*
X15439Y55606D01*
X15430Y55632D01*
X15421Y55656D01*
X15410Y55676D01*
X15398Y55693D01*
X15385Y55708D01*
X15369Y55722D01*
X15350Y55734D01*
X15329Y55744D01*
X15306Y55753D01*
X15281Y55759D01*
X15256Y55762D01*
X15229Y55763D01*
X15197Y55762D01*
X15167Y55758D01*
X15140Y55752D01*
X15115Y55743D01*
X15092Y55732D01*
X15071Y55720D01*
X15053Y55706D01*
X15037Y55690D01*
X15023Y55674D01*
X15011Y55656D01*
X15000Y55638D01*
X14991Y55618D01*
X14979Y55584D01*
X14970Y55548D01*
X14965Y55511D01*
X14963Y55472D01*
X14965Y55425D01*
X14972Y55383D01*
X14982Y55344D01*
X14997Y55309D01*
X15015Y55279D01*
X15038Y55252D01*
X15064Y55230D01*
X15094Y55212D01*
X15127Y55198D01*
X15160Y55188D01*
X15195Y55182D01*
X15230Y55180D01*
X15261Y55182D01*
X15292Y55186D01*
X15322Y55194D01*
X15352Y55204D01*
X15380Y55217D01*
X15405Y55229D01*
X15425Y55242D01*
X15443Y55256D01*
X15443Y55391D01*
X15229Y55391D01*
X15229Y55391D01*
X16011Y55171D02*
X15986Y55151D01*
X15983Y55149D01*
X15949Y55199D01*
X15965Y55213D01*
X15978Y55230D01*
X15989Y55248D01*
X15996Y55265D01*
X16000Y55286D01*
X16003Y55310D01*
X16004Y55338D01*
X16004Y55370D01*
X16004Y55370D01*
X15976Y55361D01*
X15943Y55352D01*
X15903Y55344D01*
X15858Y55337D01*
X15832Y55333D01*
X15811Y55328D01*
X15793Y55324D01*
X15780Y55319D01*
X15769Y55313D01*
X15760Y55307D01*
X15752Y55299D01*
X15745Y55290D01*
X15739Y55280D01*
X15735Y55270D01*
X15733Y55259D01*
X15732Y55247D01*
X15734Y55230D01*
X15739Y55215D01*
X15747Y55201D01*
X15759Y55188D01*
X15774Y55177D01*
X15793Y55170D01*
X15814Y55166D01*
X15838Y55164D01*
X15864Y55165D01*
X15887Y55170D01*
X15909Y55177D01*
X15930Y55187D01*
X15949Y55199D01*
X15983Y55149D01*
X15962Y55135D01*
X15939Y55122D01*
X15916Y55111D01*
X15892Y55104D01*
X15868Y55098D01*
X15843Y55095D01*
X15817Y55094D01*
X15776Y55097D01*
X15740Y55105D01*
X15709Y55118D01*
X15684Y55137D01*
X15663Y55159D01*
X15649Y55185D01*
X15640Y55213D01*
X15637Y55245D01*
X15638Y55264D01*
X15641Y55282D01*
X15647Y55299D01*
X15655Y55316D01*
X15664Y55331D01*
X15675Y55344D01*
X15687Y55356D01*
X15701Y55367D01*
X15715Y55376D01*
X15731Y55384D01*
X15748Y55391D01*
X15765Y55396D01*
X15780Y55400D01*
X15798Y55403D01*
X15820Y55406D01*
X15844Y55410D01*
X15895Y55416D01*
X15938Y55424D01*
X15975Y55432D01*
X16004Y55440D01*
X16004Y55449D01*
X16004Y55455D01*
X16004Y55460D01*
X16004Y55464D01*
X16003Y55489D01*
X15998Y55510D01*
X15990Y55527D01*
X15979Y55541D01*
X15960Y55554D01*
X15936Y55563D01*
X15909Y55569D01*
X15877Y55571D01*
X15848Y55569D01*
X15822Y55565D01*
X15801Y55558D01*
X15784Y55549D01*
X15770Y55536D01*
X15758Y55518D01*
X15748Y55497D01*
X15740Y55471D01*
X15652Y55483D01*
X15659Y55509D01*
X15668Y55533D01*
X15679Y55554D01*
X15692Y55573D01*
X15707Y55589D01*
X15725Y55604D01*
X15746Y55616D01*
X15770Y55626D01*
X15797Y55634D01*
X15826Y55640D01*
X15857Y55644D01*
X15890Y55645D01*
X15922Y55644D01*
X15951Y55641D01*
X15977Y55636D01*
X16000Y55629D01*
X16019Y55620D01*
X16036Y55611D01*
X16050Y55600D01*
X16062Y55589D01*
X16071Y55576D01*
X16079Y55562D01*
X16085Y55546D01*
X16089Y55528D01*
X16091Y55514D01*
X16093Y55496D01*
X16094Y55473D01*
X16094Y55446D01*
X16094Y55327D01*
X16094Y55270D01*
X16095Y55225D01*
X16097Y55191D01*
X16100Y55169D01*
X16103Y55153D01*
X16108Y55137D01*
X16114Y55121D01*
X16122Y55106D01*
X16029Y55106D01*
X16023Y55120D01*
X16018Y55136D01*
X16014Y55153D01*
X16011Y55171D01*
X16011Y55171D01*
X16427Y55186D02*
X16440Y55107D01*
X16422Y55104D01*
X16404Y55101D01*
X16388Y55100D01*
X16373Y55099D01*
X16350Y55100D01*
X16330Y55103D01*
X16312Y55108D01*
X16297Y55114D01*
X16285Y55123D01*
X16274Y55132D01*
X16266Y55143D01*
X16260Y55155D01*
X16255Y55171D01*
X16251Y55194D01*
X16249Y55224D01*
X16249Y55260D01*
X16249Y55563D01*
X16183Y55563D01*
X16183Y55633D01*
X16249Y55633D01*
X16249Y55763D01*
X16338Y55817D01*
X16338Y55633D01*
X16427Y55633D01*
X16427Y55563D01*
X16338Y55563D01*
X16338Y55255D01*
X16338Y55238D01*
X16339Y55224D01*
X16340Y55213D01*
X16342Y55206D01*
X16345Y55201D01*
X16348Y55196D01*
X16353Y55192D01*
X16358Y55189D01*
X16364Y55186D01*
X16371Y55184D01*
X16379Y55183D01*
X16388Y55182D01*
X16396Y55183D01*
X16405Y55183D01*
X16416Y55184D01*
X16427Y55186D01*
X16427Y55186D01*
X16875Y55276D02*
X16968Y55264D01*
X16954Y55226D01*
X16936Y55192D01*
X16914Y55163D01*
X16887Y55139D01*
X16855Y55119D01*
X16819Y55105D01*
X16780Y55097D01*
X16736Y55094D01*
X16681Y55099D01*
X16632Y55112D01*
X16589Y55134D01*
X16553Y55165D01*
X16523Y55204D01*
X16502Y55251D01*
X16489Y55304D01*
X16485Y55365D01*
X16489Y55428D01*
X16502Y55483D01*
X16523Y55531D01*
X16553Y55571D01*
X16590Y55603D01*
X16632Y55626D01*
X16679Y55640D01*
X16731Y55645D01*
X16738Y55644D01*
X16732Y55571D01*
X16702Y55569D01*
X16675Y55561D01*
X16651Y55548D01*
X16628Y55530D01*
X16610Y55508D01*
X16596Y55482D01*
X16587Y55453D01*
X16582Y55420D01*
X16582Y55420D01*
X16876Y55420D01*
X16872Y55451D01*
X16865Y55478D01*
X16855Y55501D01*
X16843Y55520D01*
X16820Y55542D01*
X16794Y55558D01*
X16764Y55568D01*
X16732Y55571D01*
X16738Y55644D01*
X16781Y55640D01*
X16827Y55627D01*
X16868Y55604D01*
X16904Y55573D01*
X16933Y55533D01*
X16954Y55486D01*
X16966Y55432D01*
X16971Y55370D01*
X16970Y55366D01*
X16970Y55360D01*
X16970Y55354D01*
X16970Y55347D01*
X16577Y55347D01*
X16582Y55306D01*
X16592Y55270D01*
X16607Y55239D01*
X16626Y55214D01*
X16650Y55193D01*
X16676Y55179D01*
X16705Y55170D01*
X16736Y55168D01*
X16760Y55169D01*
X16782Y55174D01*
X16802Y55182D01*
X16820Y55193D01*
X16837Y55208D01*
X16851Y55227D01*
X16864Y55249D01*
X16875Y55276D01*
X16875Y55276D01*
X15407Y57901D02*
X15504Y57877D01*
X15485Y57821D01*
X15461Y57772D01*
X15431Y57731D01*
X15395Y57696D01*
X15353Y57669D01*
X15307Y57649D01*
X15257Y57637D01*
X15202Y57634D01*
X15146Y57637D01*
X15096Y57646D01*
X15051Y57661D01*
X15011Y57681D01*
X14977Y57708D01*
X14946Y57740D01*
X14920Y57777D01*
X14899Y57820D01*
X14882Y57866D01*
X14870Y57914D01*
X14863Y57964D01*
X14861Y58015D01*
X14863Y58070D01*
X14871Y58121D01*
X14885Y58169D01*
X14904Y58213D01*
X14928Y58253D01*
X14957Y58288D01*
X14990Y58317D01*
X15028Y58342D01*
X15069Y58361D01*
X15112Y58375D01*
X15157Y58383D01*
X15204Y58386D01*
X15256Y58382D01*
X15304Y58372D01*
X15348Y58354D01*
X15387Y58330D01*
X15422Y58300D01*
X15451Y58263D01*
X15474Y58221D01*
X15491Y58174D01*
X15396Y58152D01*
X15382Y58189D01*
X15365Y58220D01*
X15346Y58246D01*
X15323Y58267D01*
X15297Y58283D01*
X15269Y58294D01*
X15237Y58301D01*
X15202Y58303D01*
X15162Y58301D01*
X15125Y58293D01*
X15092Y58281D01*
X15062Y58263D01*
X15036Y58241D01*
X15014Y58216D01*
X14996Y58187D01*
X14983Y58155D01*
X14973Y58121D01*
X14966Y58086D01*
X14961Y58051D01*
X14960Y58016D01*
X14962Y57971D01*
X14967Y57929D01*
X14975Y57890D01*
X14987Y57854D01*
X15002Y57821D01*
X15021Y57793D01*
X15044Y57769D01*
X15071Y57750D01*
X15100Y57735D01*
X15130Y57725D01*
X15162Y57718D01*
X15194Y57716D01*
X15233Y57719D01*
X15269Y57728D01*
X15302Y57742D01*
X15331Y57763D01*
X15357Y57789D01*
X15378Y57821D01*
X15395Y57858D01*
X15407Y57901D01*
X15407Y57901D01*
X15830Y57646D02*
X15548Y58373D01*
X15652Y58373D01*
X15841Y57845D01*
X15852Y57814D01*
X15862Y57783D01*
X15871Y57754D01*
X15880Y57726D01*
X15888Y57756D01*
X15898Y57785D01*
X15908Y57815D01*
X15919Y57845D01*
X16115Y58373D01*
X16213Y58373D01*
X15929Y57646D01*
X15830Y57646D01*
X15830Y57646D01*
X15064Y60304D02*
X15064Y60503D01*
X14867Y60503D01*
X14867Y60586D01*
X15064Y60586D01*
X15064Y60784D01*
X15149Y60784D01*
X15149Y60586D01*
X15347Y60586D01*
X15347Y60503D01*
X15149Y60503D01*
X15149Y60304D01*
X15064Y60304D01*
X15064Y60304D01*
X15446Y60377D02*
X15539Y60384D01*
X15546Y60352D01*
X15557Y60324D01*
X15570Y60301D01*
X15588Y60281D01*
X15608Y60266D01*
X15630Y60256D01*
X15653Y60249D01*
X15679Y60247D01*
X15710Y60250D01*
X15739Y60259D01*
X15765Y60274D01*
X15788Y60296D01*
X15808Y60322D01*
X15822Y60352D01*
X15830Y60386D01*
X15833Y60425D01*
X15830Y60461D01*
X15822Y60493D01*
X15809Y60521D01*
X15790Y60545D01*
X15767Y60564D01*
X15741Y60578D01*
X15711Y60587D01*
X15678Y60589D01*
X15657Y60588D01*
X15637Y60584D01*
X15618Y60578D01*
X15600Y60570D01*
X15583Y60559D01*
X15569Y60547D01*
X15556Y60534D01*
X15545Y60519D01*
X15461Y60530D01*
X15532Y60903D01*
X15893Y60903D01*
X15893Y60818D01*
X15603Y60818D01*
X15564Y60623D01*
X15597Y60643D01*
X15631Y60657D01*
X15666Y60665D01*
X15701Y60668D01*
X15747Y60664D01*
X15789Y60652D01*
X15828Y60631D01*
X15862Y60602D01*
X15891Y60567D01*
X15911Y60527D01*
X15924Y60482D01*
X15928Y60433D01*
X15924Y60385D01*
X15913Y60341D01*
X15895Y60300D01*
X15870Y60262D01*
X15832Y60223D01*
X15787Y60196D01*
X15737Y60179D01*
X15679Y60174D01*
X15632Y60177D01*
X15589Y60187D01*
X15551Y60205D01*
X15517Y60229D01*
X15489Y60259D01*
X15468Y60294D01*
X15453Y60333D01*
X15446Y60377D01*
X15446Y60377D01*
X16255Y60186D02*
X15973Y60913D01*
X16077Y60913D01*
X16266Y60385D01*
X16277Y60354D01*
X16287Y60323D01*
X16296Y60294D01*
X16304Y60266D01*
X16313Y60296D01*
X16322Y60325D01*
X16333Y60355D01*
X16343Y60385D01*
X16540Y60913D01*
X16638Y60913D01*
X16353Y60186D01*
X16255Y60186D01*
X16255Y60186D01*
X15064Y62844D02*
X15064Y63043D01*
X14867Y63043D01*
X14867Y63126D01*
X15064Y63126D01*
X15064Y63324D01*
X15149Y63324D01*
X15149Y63126D01*
X15347Y63126D01*
X15347Y63043D01*
X15149Y63043D01*
X15149Y62844D01*
X15064Y62844D01*
X15064Y62844D01*
X15782Y62726D02*
X15693Y62726D01*
X15693Y63295D01*
X15675Y63280D01*
X15655Y63264D01*
X15633Y63249D01*
X15608Y63234D01*
X15582Y63219D01*
X15558Y63207D01*
X15535Y63196D01*
X15514Y63187D01*
X15514Y63274D01*
X15550Y63292D01*
X15584Y63313D01*
X15616Y63335D01*
X15645Y63359D01*
X15671Y63384D01*
X15693Y63408D01*
X15711Y63432D01*
X15724Y63456D01*
X15782Y63456D01*
X15782Y62726D01*
X15782Y62726D01*
X16480Y62812D02*
X16480Y62726D01*
X15999Y62726D01*
X15999Y62742D01*
X16001Y62758D01*
X16005Y62773D01*
X16010Y62788D01*
X16020Y62812D01*
X16033Y62837D01*
X16050Y62861D01*
X16068Y62885D01*
X16091Y62909D01*
X16118Y62936D01*
X16149Y62965D01*
X16185Y62995D01*
X16240Y63041D01*
X16285Y63082D01*
X16320Y63118D01*
X16345Y63149D01*
X16364Y63177D01*
X16377Y63204D01*
X16384Y63231D01*
X16387Y63256D01*
X16385Y63282D01*
X16378Y63305D01*
X16366Y63327D01*
X16349Y63346D01*
X16329Y63362D01*
X16305Y63373D01*
X16279Y63380D01*
X16250Y63382D01*
X16220Y63380D01*
X16192Y63373D01*
X16168Y63361D01*
X16147Y63344D01*
X16130Y63322D01*
X16118Y63297D01*
X16110Y63269D01*
X16108Y63236D01*
X16016Y63246D01*
X16024Y63294D01*
X16038Y63336D01*
X16059Y63372D01*
X16087Y63402D01*
X16120Y63426D01*
X16159Y63443D01*
X16203Y63453D01*
X16252Y63456D01*
X16302Y63453D01*
X16346Y63442D01*
X16385Y63424D01*
X16418Y63398D01*
X16445Y63367D01*
X16464Y63333D01*
X16475Y63296D01*
X16479Y63254D01*
X16478Y63233D01*
X16474Y63211D01*
X16469Y63190D01*
X16461Y63169D01*
X16451Y63147D01*
X16437Y63125D01*
X16421Y63103D01*
X16402Y63080D01*
X16378Y63054D01*
X16347Y63024D01*
X16309Y62990D01*
X16264Y62952D01*
X16227Y62921D01*
X16198Y62895D01*
X16176Y62875D01*
X16161Y62860D01*
X16150Y62848D01*
X16140Y62836D01*
X16131Y62824D01*
X16123Y62812D01*
X16480Y62812D01*
X16480Y62812D01*
X16820Y62726D02*
X16538Y63453D01*
X16642Y63453D01*
X16831Y62925D01*
X16842Y62894D01*
X16852Y62863D01*
X16861Y62834D01*
X16869Y62806D01*
X16878Y62836D01*
X16888Y62865D01*
X16898Y62895D01*
X16909Y62925D01*
X17105Y63453D01*
X17203Y63453D01*
X16918Y62726D01*
X16820Y62726D01*
X16820Y62726D01*
X14842Y73104D02*
X14842Y73194D01*
X15117Y73194D01*
X15117Y73104D01*
X14842Y73104D01*
X14842Y73104D01*
X15527Y72886D02*
X15438Y72886D01*
X15438Y73455D01*
X15420Y73440D01*
X15400Y73424D01*
X15378Y73409D01*
X15353Y73394D01*
X15327Y73379D01*
X15303Y73367D01*
X15280Y73356D01*
X15259Y73347D01*
X15259Y73434D01*
X15295Y73452D01*
X15329Y73473D01*
X15361Y73495D01*
X15390Y73519D01*
X15416Y73544D01*
X15438Y73568D01*
X15456Y73592D01*
X15469Y73616D01*
X15527Y73616D01*
X15527Y72886D01*
X15527Y72886D01*
X16225Y72972D02*
X16225Y72886D01*
X15744Y72886D01*
X15744Y72902D01*
X15746Y72918D01*
X15750Y72933D01*
X15755Y72948D01*
X15765Y72972D01*
X15778Y72997D01*
X15795Y73021D01*
X15813Y73045D01*
X15836Y73069D01*
X15863Y73096D01*
X15894Y73125D01*
X15930Y73155D01*
X15985Y73201D01*
X16030Y73242D01*
X16065Y73278D01*
X16090Y73309D01*
X16109Y73337D01*
X16122Y73364D01*
X16129Y73391D01*
X16132Y73416D01*
X16130Y73442D01*
X16123Y73465D01*
X16111Y73487D01*
X16094Y73506D01*
X16074Y73522D01*
X16050Y73533D01*
X16024Y73540D01*
X15995Y73542D01*
X15965Y73540D01*
X15937Y73533D01*
X15913Y73521D01*
X15892Y73504D01*
X15875Y73482D01*
X15863Y73457D01*
X15855Y73429D01*
X15853Y73396D01*
X15761Y73406D01*
X15769Y73454D01*
X15783Y73496D01*
X15804Y73532D01*
X15832Y73562D01*
X15865Y73586D01*
X15904Y73603D01*
X15948Y73613D01*
X15997Y73616D01*
X16047Y73613D01*
X16091Y73602D01*
X16130Y73584D01*
X16163Y73558D01*
X16190Y73527D01*
X16209Y73493D01*
X16220Y73456D01*
X16224Y73414D01*
X16223Y73393D01*
X16219Y73371D01*
X16214Y73350D01*
X16206Y73329D01*
X16196Y73307D01*
X16182Y73285D01*
X16166Y73263D01*
X16147Y73240D01*
X16123Y73214D01*
X16092Y73184D01*
X16054Y73150D01*
X16009Y73112D01*
X15972Y73081D01*
X15943Y73055D01*
X15921Y73035D01*
X15906Y73020D01*
X15895Y73008D01*
X15885Y72996D01*
X15876Y72984D01*
X15868Y72972D01*
X16225Y72972D01*
X16225Y72972D01*
X16565Y72886D02*
X16283Y73613D01*
X16387Y73613D01*
X16576Y73085D01*
X16587Y73054D01*
X16597Y73023D01*
X16606Y72994D01*
X16614Y72966D01*
X16623Y72996D01*
X16633Y73025D01*
X16643Y73055D01*
X16653Y73085D01*
X16850Y73613D01*
X16948Y73613D01*
X16663Y72886D01*
X16565Y72886D01*
X16565Y72886D01*
X15229Y70631D02*
X15229Y70717D01*
X15537Y70717D01*
X15537Y70447D01*
X15501Y70421D01*
X15465Y70398D01*
X15428Y70378D01*
X15390Y70362D01*
X15352Y70350D01*
X15314Y70341D01*
X15275Y70335D01*
X15236Y70334D01*
X15183Y70336D01*
X15133Y70345D01*
X15086Y70359D01*
X15041Y70379D01*
X15000Y70405D01*
X14964Y70436D01*
X14934Y70471D01*
X14909Y70512D01*
X14889Y70557D01*
X14875Y70604D01*
X14867Y70654D01*
X14864Y70706D01*
X14867Y70758D01*
X14875Y70809D01*
X14889Y70857D01*
X14908Y70904D01*
X14933Y70947D01*
X14963Y70985D01*
X14997Y71016D01*
X15036Y71041D01*
X15079Y71061D01*
X15126Y71075D01*
X15175Y71083D01*
X15228Y71086D01*
X15267Y71084D01*
X15303Y71079D01*
X15338Y71071D01*
X15371Y71060D01*
X15401Y71046D01*
X15428Y71030D01*
X15451Y71011D01*
X15471Y70989D01*
X15488Y70964D01*
X15503Y70936D01*
X15515Y70905D01*
X15526Y70870D01*
X15439Y70846D01*
X15430Y70872D01*
X15421Y70896D01*
X15410Y70916D01*
X15398Y70933D01*
X15385Y70948D01*
X15369Y70962D01*
X15350Y70974D01*
X15329Y70984D01*
X15306Y70993D01*
X15281Y70999D01*
X15256Y71002D01*
X15229Y71003D01*
X15197Y71002D01*
X15167Y70998D01*
X15140Y70992D01*
X15115Y70983D01*
X15092Y70972D01*
X15071Y70960D01*
X15053Y70946D01*
X15037Y70930D01*
X15023Y70914D01*
X15011Y70896D01*
X15000Y70878D01*
X14991Y70858D01*
X14979Y70824D01*
X14970Y70788D01*
X14965Y70751D01*
X14963Y70712D01*
X14965Y70665D01*
X14972Y70623D01*
X14982Y70584D01*
X14997Y70549D01*
X15015Y70519D01*
X15038Y70492D01*
X15064Y70470D01*
X15094Y70452D01*
X15127Y70438D01*
X15160Y70428D01*
X15195Y70422D01*
X15230Y70420D01*
X15261Y70422D01*
X15292Y70426D01*
X15322Y70434D01*
X15352Y70444D01*
X15380Y70457D01*
X15405Y70469D01*
X15425Y70482D01*
X15443Y70496D01*
X15443Y70631D01*
X15229Y70631D01*
X15229Y70631D01*
X15678Y70346D02*
X15678Y71073D01*
X15776Y71073D01*
X16158Y70502D01*
X16158Y71073D01*
X16251Y71073D01*
X16251Y70346D01*
X16152Y70346D01*
X15770Y70918D01*
X15770Y70346D01*
X15678Y70346D01*
X15678Y70346D01*
X16412Y70346D02*
X16412Y71073D01*
X16661Y71073D01*
X16661Y70987D01*
X16509Y70987D01*
X16509Y70432D01*
X16509Y70432D01*
X16664Y70432D01*
X16698Y70433D01*
X16728Y70435D01*
X16754Y70439D01*
X16777Y70445D01*
X16796Y70453D01*
X16814Y70461D01*
X16829Y70471D01*
X16842Y70483D01*
X16858Y70502D01*
X16872Y70523D01*
X16885Y70548D01*
X16895Y70575D01*
X16904Y70605D01*
X16910Y70639D01*
X16913Y70675D01*
X16914Y70715D01*
X16912Y70769D01*
X16905Y70816D01*
X16893Y70857D01*
X16877Y70890D01*
X16857Y70919D01*
X16836Y70942D01*
X16812Y70960D01*
X16786Y70973D01*
X16764Y70979D01*
X16735Y70984D01*
X16701Y70987D01*
X16661Y70987D01*
X16661Y71073D01*
X16663Y71073D01*
X16703Y71073D01*
X16738Y71071D01*
X16768Y71067D01*
X16792Y71063D01*
X16823Y71054D01*
X16850Y71043D01*
X16876Y71028D01*
X16899Y71011D01*
X16926Y70985D01*
X16949Y70955D01*
X16969Y70923D01*
X16985Y70886D01*
X16998Y70847D01*
X17007Y70805D01*
X17012Y70761D01*
X17014Y70714D01*
X17012Y70673D01*
X17009Y70635D01*
X17003Y70600D01*
X16994Y70567D01*
X16984Y70536D01*
X16972Y70508D01*
X16959Y70483D01*
X16945Y70461D01*
X16929Y70441D01*
X16913Y70423D01*
X16896Y70408D01*
X16878Y70395D01*
X16860Y70384D01*
X16839Y70374D01*
X16816Y70365D01*
X16792Y70358D01*
X16765Y70353D01*
X16737Y70349D01*
X16707Y70347D01*
X16675Y70346D01*
X16412Y70346D01*
X16412Y70346D01*
X15229Y68091D02*
X15229Y68177D01*
X15537Y68177D01*
X15537Y67907D01*
X15501Y67881D01*
X15465Y67858D01*
X15428Y67838D01*
X15390Y67822D01*
X15352Y67810D01*
X15314Y67801D01*
X15275Y67795D01*
X15236Y67794D01*
X15183Y67796D01*
X15133Y67805D01*
X15086Y67819D01*
X15041Y67839D01*
X15000Y67865D01*
X14964Y67896D01*
X14934Y67931D01*
X14909Y67972D01*
X14889Y68017D01*
X14875Y68064D01*
X14867Y68114D01*
X14864Y68166D01*
X14867Y68218D01*
X14875Y68269D01*
X14889Y68317D01*
X14908Y68364D01*
X14933Y68407D01*
X14963Y68445D01*
X14997Y68476D01*
X15036Y68501D01*
X15079Y68521D01*
X15126Y68535D01*
X15175Y68543D01*
X15228Y68546D01*
X15267Y68544D01*
X15303Y68539D01*
X15338Y68531D01*
X15371Y68520D01*
X15401Y68506D01*
X15428Y68490D01*
X15451Y68471D01*
X15471Y68449D01*
X15488Y68424D01*
X15503Y68396D01*
X15515Y68365D01*
X15526Y68330D01*
X15439Y68306D01*
X15430Y68332D01*
X15421Y68356D01*
X15410Y68376D01*
X15398Y68393D01*
X15385Y68408D01*
X15369Y68422D01*
X15350Y68434D01*
X15329Y68444D01*
X15306Y68453D01*
X15281Y68459D01*
X15256Y68462D01*
X15229Y68463D01*
X15197Y68462D01*
X15167Y68458D01*
X15140Y68452D01*
X15115Y68443D01*
X15092Y68432D01*
X15071Y68420D01*
X15053Y68406D01*
X15037Y68390D01*
X15023Y68374D01*
X15011Y68356D01*
X15000Y68338D01*
X14991Y68318D01*
X14979Y68284D01*
X14970Y68248D01*
X14965Y68211D01*
X14963Y68172D01*
X14965Y68125D01*
X14972Y68083D01*
X14982Y68044D01*
X14997Y68009D01*
X15015Y67979D01*
X15038Y67952D01*
X15064Y67930D01*
X15094Y67912D01*
X15127Y67898D01*
X15160Y67888D01*
X15195Y67882D01*
X15230Y67880D01*
X15261Y67882D01*
X15292Y67886D01*
X15322Y67894D01*
X15352Y67904D01*
X15380Y67917D01*
X15405Y67929D01*
X15425Y67942D01*
X15443Y67956D01*
X15443Y68091D01*
X15229Y68091D01*
X15229Y68091D01*
X15678Y67806D02*
X15678Y68533D01*
X15776Y68533D01*
X16158Y67962D01*
X16158Y68533D01*
X16251Y68533D01*
X16251Y67806D01*
X16152Y67806D01*
X15770Y68377D01*
X15770Y67806D01*
X15678Y67806D01*
X15678Y67806D01*
X16412Y67806D02*
X16412Y68533D01*
X16661Y68533D01*
X16661Y68447D01*
X16509Y68447D01*
X16509Y67892D01*
X16509Y67892D01*
X16664Y67892D01*
X16698Y67893D01*
X16728Y67895D01*
X16754Y67899D01*
X16777Y67905D01*
X16796Y67913D01*
X16814Y67921D01*
X16829Y67931D01*
X16842Y67943D01*
X16858Y67962D01*
X16872Y67983D01*
X16885Y68008D01*
X16895Y68035D01*
X16904Y68065D01*
X16910Y68099D01*
X16913Y68135D01*
X16914Y68175D01*
X16912Y68229D01*
X16905Y68276D01*
X16893Y68317D01*
X16877Y68350D01*
X16857Y68379D01*
X16836Y68402D01*
X16812Y68420D01*
X16786Y68433D01*
X16764Y68439D01*
X16735Y68444D01*
X16701Y68447D01*
X16661Y68447D01*
X16661Y68533D01*
X16663Y68533D01*
X16703Y68533D01*
X16738Y68531D01*
X16768Y68527D01*
X16792Y68523D01*
X16823Y68514D01*
X16850Y68503D01*
X16876Y68488D01*
X16899Y68471D01*
X16926Y68445D01*
X16949Y68415D01*
X16969Y68383D01*
X16985Y68346D01*
X16998Y68307D01*
X17007Y68265D01*
X17012Y68221D01*
X17014Y68174D01*
X17012Y68133D01*
X17009Y68095D01*
X17003Y68060D01*
X16994Y68027D01*
X16984Y67996D01*
X16972Y67968D01*
X16959Y67943D01*
X16945Y67921D01*
X16929Y67901D01*
X16913Y67883D01*
X16896Y67868D01*
X16878Y67855D01*
X16860Y67844D01*
X16839Y67834D01*
X16816Y67825D01*
X16792Y67818D01*
X16765Y67813D01*
X16737Y67809D01*
X16707Y67807D01*
X16675Y67806D01*
X16412Y67806D01*
X16412Y67806D01*
X15229Y65551D02*
X15229Y65637D01*
X15537Y65637D01*
X15537Y65367D01*
X15501Y65341D01*
X15465Y65318D01*
X15428Y65298D01*
X15390Y65282D01*
X15352Y65270D01*
X15314Y65261D01*
X15275Y65255D01*
X15236Y65254D01*
X15183Y65256D01*
X15133Y65265D01*
X15086Y65279D01*
X15041Y65299D01*
X15000Y65325D01*
X14964Y65356D01*
X14934Y65391D01*
X14909Y65432D01*
X14889Y65477D01*
X14875Y65524D01*
X14867Y65574D01*
X14864Y65626D01*
X14867Y65678D01*
X14875Y65729D01*
X14889Y65777D01*
X14908Y65824D01*
X14933Y65867D01*
X14963Y65905D01*
X14997Y65936D01*
X15036Y65961D01*
X15079Y65981D01*
X15126Y65995D01*
X15175Y66003D01*
X15228Y66006D01*
X15267Y66004D01*
X15303Y65999D01*
X15338Y65991D01*
X15371Y65980D01*
X15401Y65966D01*
X15428Y65950D01*
X15451Y65931D01*
X15471Y65909D01*
X15488Y65884D01*
X15503Y65856D01*
X15515Y65825D01*
X15526Y65790D01*
X15439Y65766D01*
X15430Y65792D01*
X15421Y65816D01*
X15410Y65836D01*
X15398Y65853D01*
X15385Y65868D01*
X15369Y65882D01*
X15350Y65894D01*
X15329Y65904D01*
X15306Y65913D01*
X15281Y65919D01*
X15256Y65922D01*
X15229Y65923D01*
X15197Y65922D01*
X15167Y65918D01*
X15140Y65912D01*
X15115Y65903D01*
X15092Y65892D01*
X15071Y65880D01*
X15053Y65866D01*
X15037Y65850D01*
X15023Y65834D01*
X15011Y65816D01*
X15000Y65798D01*
X14991Y65778D01*
X14979Y65744D01*
X14970Y65708D01*
X14965Y65671D01*
X14963Y65632D01*
X14965Y65585D01*
X14972Y65543D01*
X14982Y65504D01*
X14997Y65469D01*
X15015Y65439D01*
X15038Y65412D01*
X15064Y65390D01*
X15094Y65372D01*
X15127Y65358D01*
X15160Y65348D01*
X15195Y65342D01*
X15230Y65340D01*
X15261Y65342D01*
X15292Y65346D01*
X15322Y65354D01*
X15352Y65364D01*
X15380Y65377D01*
X15405Y65389D01*
X15425Y65402D01*
X15443Y65416D01*
X15443Y65551D01*
X15229Y65551D01*
X15229Y65551D01*
X15678Y65266D02*
X15678Y65993D01*
X15776Y65993D01*
X16158Y65422D01*
X16158Y65993D01*
X16251Y65993D01*
X16251Y65266D01*
X16152Y65266D01*
X15770Y65838D01*
X15770Y65266D01*
X15678Y65266D01*
X15678Y65266D01*
X16412Y65266D02*
X16412Y65993D01*
X16661Y65993D01*
X16661Y65907D01*
X16509Y65907D01*
X16509Y65352D01*
X16509Y65352D01*
X16664Y65352D01*
X16698Y65353D01*
X16728Y65355D01*
X16754Y65359D01*
X16777Y65365D01*
X16796Y65373D01*
X16814Y65381D01*
X16829Y65391D01*
X16842Y65403D01*
X16858Y65422D01*
X16872Y65443D01*
X16885Y65468D01*
X16895Y65495D01*
X16904Y65525D01*
X16910Y65559D01*
X16913Y65595D01*
X16914Y65635D01*
X16912Y65689D01*
X16905Y65736D01*
X16893Y65777D01*
X16877Y65810D01*
X16857Y65839D01*
X16836Y65862D01*
X16812Y65880D01*
X16786Y65893D01*
X16764Y65899D01*
X16735Y65904D01*
X16701Y65907D01*
X16661Y65907D01*
X16661Y65993D01*
X16663Y65993D01*
X16703Y65993D01*
X16738Y65991D01*
X16768Y65987D01*
X16792Y65983D01*
X16823Y65974D01*
X16850Y65963D01*
X16876Y65948D01*
X16899Y65931D01*
X16926Y65905D01*
X16949Y65875D01*
X16969Y65843D01*
X16985Y65806D01*
X16998Y65767D01*
X17007Y65725D01*
X17012Y65681D01*
X17014Y65634D01*
X17012Y65593D01*
X17009Y65555D01*
X17003Y65520D01*
X16994Y65487D01*
X16984Y65456D01*
X16972Y65428D01*
X16959Y65403D01*
X16945Y65381D01*
X16929Y65361D01*
X16913Y65343D01*
X16896Y65328D01*
X16878Y65315D01*
X16860Y65304D01*
X16839Y65294D01*
X16816Y65285D01*
X16792Y65278D01*
X16765Y65273D01*
X16737Y65269D01*
X16707Y65267D01*
X16675Y65266D01*
X16412Y65266D01*
X16412Y65266D01*
X3406Y55391D02*
X3406Y55477D01*
X3714Y55477D01*
X3714Y55207D01*
X3678Y55181D01*
X3642Y55158D01*
X3605Y55138D01*
X3568Y55122D01*
X3530Y55110D01*
X3491Y55101D01*
X3452Y55095D01*
X3413Y55094D01*
X3361Y55096D01*
X3311Y55105D01*
X3263Y55119D01*
X3218Y55139D01*
X3177Y55165D01*
X3141Y55196D01*
X3111Y55231D01*
X3086Y55272D01*
X3067Y55317D01*
X3053Y55364D01*
X3044Y55414D01*
X3041Y55466D01*
X3044Y55518D01*
X3052Y55569D01*
X3066Y55617D01*
X3086Y55664D01*
X3110Y55707D01*
X3140Y55745D01*
X3174Y55776D01*
X3214Y55801D01*
X3257Y55821D01*
X3303Y55835D01*
X3353Y55843D01*
X3406Y55846D01*
X3444Y55844D01*
X3481Y55839D01*
X3515Y55831D01*
X3548Y55820D01*
X3578Y55806D01*
X3605Y55790D01*
X3628Y55771D01*
X3648Y55749D01*
X3665Y55724D01*
X3680Y55696D01*
X3693Y55665D01*
X3703Y55630D01*
X3616Y55606D01*
X3608Y55632D01*
X3598Y55656D01*
X3587Y55676D01*
X3576Y55693D01*
X3562Y55708D01*
X3546Y55722D01*
X3527Y55734D01*
X3506Y55744D01*
X3483Y55753D01*
X3459Y55759D01*
X3433Y55762D01*
X3406Y55763D01*
X3374Y55762D01*
X3345Y55758D01*
X3317Y55752D01*
X3292Y55743D01*
X3269Y55732D01*
X3248Y55720D01*
X3230Y55706D01*
X3214Y55690D01*
X3200Y55674D01*
X3188Y55656D01*
X3177Y55638D01*
X3168Y55618D01*
X3156Y55584D01*
X3148Y55548D01*
X3142Y55511D01*
X3141Y55472D01*
X3143Y55425D01*
X3149Y55383D01*
X3159Y55344D01*
X3174Y55309D01*
X3193Y55279D01*
X3215Y55252D01*
X3241Y55230D01*
X3272Y55212D01*
X3304Y55198D01*
X3338Y55188D01*
X3372Y55182D01*
X3408Y55180D01*
X3439Y55182D01*
X3469Y55186D01*
X3500Y55194D01*
X3530Y55204D01*
X3558Y55217D01*
X3582Y55229D01*
X3603Y55242D01*
X3620Y55256D01*
X3620Y55391D01*
X3406Y55391D01*
X3406Y55391D01*
X4188Y55171D02*
X4164Y55151D01*
X4160Y55149D01*
X4126Y55199D01*
X4142Y55213D01*
X4156Y55230D01*
X4167Y55248D01*
X4173Y55265D01*
X4177Y55286D01*
X4180Y55310D01*
X4181Y55338D01*
X4181Y55370D01*
X4181Y55370D01*
X4154Y55361D01*
X4120Y55352D01*
X4081Y55344D01*
X4035Y55337D01*
X4010Y55333D01*
X3988Y55328D01*
X3971Y55324D01*
X3957Y55319D01*
X3946Y55313D01*
X3937Y55307D01*
X3929Y55299D01*
X3922Y55290D01*
X3917Y55280D01*
X3913Y55270D01*
X3910Y55259D01*
X3910Y55247D01*
X3911Y55230D01*
X3916Y55215D01*
X3925Y55201D01*
X3937Y55188D01*
X3952Y55177D01*
X3970Y55170D01*
X3991Y55166D01*
X4016Y55164D01*
X4041Y55165D01*
X4064Y55170D01*
X4087Y55177D01*
X4108Y55187D01*
X4126Y55199D01*
X4160Y55149D01*
X4140Y55135D01*
X4116Y55122D01*
X4093Y55111D01*
X4070Y55104D01*
X4045Y55098D01*
X4020Y55095D01*
X3994Y55094D01*
X3954Y55097D01*
X3918Y55105D01*
X3887Y55118D01*
X3861Y55137D01*
X3841Y55159D01*
X3826Y55185D01*
X3817Y55213D01*
X3814Y55245D01*
X3815Y55264D01*
X3819Y55282D01*
X3824Y55299D01*
X3832Y55316D01*
X3841Y55331D01*
X3852Y55344D01*
X3864Y55356D01*
X3878Y55367D01*
X3893Y55376D01*
X3908Y55384D01*
X3925Y55391D01*
X3942Y55396D01*
X3957Y55400D01*
X3975Y55403D01*
X3997Y55406D01*
X4022Y55410D01*
X4072Y55416D01*
X4116Y55424D01*
X4152Y55432D01*
X4181Y55440D01*
X4181Y55449D01*
X4181Y55455D01*
X4181Y55460D01*
X4181Y55464D01*
X4180Y55489D01*
X4175Y55510D01*
X4167Y55527D01*
X4156Y55541D01*
X4137Y55554D01*
X4114Y55563D01*
X4086Y55569D01*
X4054Y55571D01*
X4025Y55569D01*
X4000Y55565D01*
X3978Y55558D01*
X3961Y55549D01*
X3947Y55536D01*
X3935Y55518D01*
X3925Y55497D01*
X3917Y55471D01*
X3830Y55483D01*
X3837Y55509D01*
X3845Y55533D01*
X3856Y55554D01*
X3869Y55573D01*
X3884Y55589D01*
X3902Y55604D01*
X3923Y55616D01*
X3948Y55626D01*
X3975Y55634D01*
X4003Y55640D01*
X4034Y55644D01*
X4067Y55645D01*
X4099Y55644D01*
X4128Y55641D01*
X4154Y55636D01*
X4177Y55629D01*
X4197Y55620D01*
X4214Y55611D01*
X4228Y55600D01*
X4239Y55589D01*
X4248Y55576D01*
X4256Y55562D01*
X4262Y55546D01*
X4267Y55528D01*
X4269Y55514D01*
X4270Y55496D01*
X4271Y55473D01*
X4271Y55446D01*
X4271Y55327D01*
X4272Y55270D01*
X4273Y55225D01*
X4274Y55191D01*
X4277Y55169D01*
X4280Y55153D01*
X4285Y55137D01*
X4292Y55121D01*
X4300Y55106D01*
X4206Y55106D01*
X4200Y55120D01*
X4195Y55136D01*
X4191Y55153D01*
X4188Y55171D01*
X4188Y55171D01*
X4605Y55186D02*
X4618Y55107D01*
X4599Y55104D01*
X4582Y55101D01*
X4565Y55100D01*
X4550Y55099D01*
X4527Y55100D01*
X4507Y55103D01*
X4489Y55108D01*
X4475Y55114D01*
X4462Y55123D01*
X4452Y55132D01*
X4443Y55143D01*
X4437Y55155D01*
X4432Y55171D01*
X4429Y55194D01*
X4427Y55224D01*
X4426Y55260D01*
X4426Y55563D01*
X4361Y55563D01*
X4361Y55633D01*
X4426Y55633D01*
X4426Y55763D01*
X4515Y55817D01*
X4515Y55633D01*
X4605Y55633D01*
X4605Y55563D01*
X4515Y55563D01*
X4515Y55255D01*
X4515Y55238D01*
X4516Y55224D01*
X4517Y55213D01*
X4520Y55206D01*
X4522Y55201D01*
X4526Y55196D01*
X4530Y55192D01*
X4535Y55189D01*
X4541Y55186D01*
X4548Y55184D01*
X4556Y55183D01*
X4565Y55182D01*
X4573Y55183D01*
X4583Y55183D01*
X4593Y55184D01*
X4605Y55186D01*
X4605Y55186D01*
X5053Y55276D02*
X5145Y55264D01*
X5132Y55226D01*
X5114Y55192D01*
X5091Y55163D01*
X5064Y55139D01*
X5032Y55119D01*
X4997Y55105D01*
X4957Y55097D01*
X4913Y55094D01*
X4858Y55099D01*
X4810Y55112D01*
X4767Y55134D01*
X4730Y55165D01*
X4700Y55204D01*
X4679Y55251D01*
X4666Y55304D01*
X4662Y55365D01*
X4666Y55428D01*
X4679Y55483D01*
X4701Y55531D01*
X4731Y55571D01*
X4767Y55603D01*
X4809Y55626D01*
X4856Y55640D01*
X4908Y55645D01*
X4916Y55644D01*
X4909Y55571D01*
X4880Y55569D01*
X4853Y55561D01*
X4828Y55548D01*
X4806Y55530D01*
X4787Y55508D01*
X4773Y55482D01*
X4764Y55453D01*
X4759Y55420D01*
X4759Y55420D01*
X5054Y55420D01*
X5049Y55451D01*
X5042Y55478D01*
X5032Y55501D01*
X5020Y55520D01*
X4997Y55542D01*
X4971Y55558D01*
X4942Y55568D01*
X4909Y55571D01*
X4916Y55644D01*
X4959Y55640D01*
X5004Y55627D01*
X5045Y55604D01*
X5081Y55573D01*
X5110Y55533D01*
X5131Y55486D01*
X5144Y55432D01*
X5148Y55370D01*
X5148Y55366D01*
X5148Y55360D01*
X5148Y55354D01*
X5147Y55347D01*
X4754Y55347D01*
X4759Y55306D01*
X4769Y55270D01*
X4784Y55239D01*
X4804Y55214D01*
X4827Y55193D01*
X4853Y55179D01*
X4882Y55170D01*
X4914Y55168D01*
X4937Y55169D01*
X4959Y55174D01*
X4979Y55182D01*
X4998Y55193D01*
X5014Y55208D01*
X5029Y55227D01*
X5042Y55249D01*
X5053Y55276D01*
X5053Y55276D01*
X4376Y57901D02*
X4472Y57877D01*
X4454Y57821D01*
X4430Y57772D01*
X4400Y57731D01*
X4363Y57696D01*
X4322Y57669D01*
X4276Y57649D01*
X4226Y57637D01*
X4171Y57634D01*
X4115Y57637D01*
X4064Y57646D01*
X4019Y57661D01*
X3980Y57681D01*
X3945Y57708D01*
X3915Y57740D01*
X3889Y57777D01*
X3868Y57820D01*
X3851Y57866D01*
X3839Y57914D01*
X3832Y57964D01*
X3829Y58015D01*
X3832Y58070D01*
X3840Y58121D01*
X3854Y58169D01*
X3873Y58213D01*
X3897Y58253D01*
X3925Y58288D01*
X3958Y58317D01*
X3996Y58342D01*
X4037Y58361D01*
X4080Y58375D01*
X4125Y58383D01*
X4172Y58386D01*
X4225Y58382D01*
X4273Y58372D01*
X4317Y58354D01*
X4356Y58330D01*
X4390Y58300D01*
X4419Y58263D01*
X4442Y58221D01*
X4460Y58174D01*
X4365Y58152D01*
X4351Y58189D01*
X4334Y58220D01*
X4314Y58246D01*
X4292Y58267D01*
X4266Y58283D01*
X4237Y58294D01*
X4205Y58301D01*
X4171Y58303D01*
X4130Y58301D01*
X4094Y58293D01*
X4060Y58281D01*
X4030Y58263D01*
X4004Y58241D01*
X3982Y58216D01*
X3965Y58187D01*
X3951Y58155D01*
X3941Y58121D01*
X3934Y58086D01*
X3930Y58051D01*
X3928Y58016D01*
X3930Y57971D01*
X3935Y57929D01*
X3944Y57890D01*
X3955Y57854D01*
X3971Y57821D01*
X3990Y57793D01*
X4013Y57769D01*
X4040Y57750D01*
X4069Y57735D01*
X4099Y57725D01*
X4130Y57718D01*
X4163Y57716D01*
X4202Y57719D01*
X4238Y57728D01*
X4270Y57742D01*
X4300Y57763D01*
X4326Y57789D01*
X4347Y57821D01*
X4364Y57858D01*
X4376Y57901D01*
X4376Y57901D01*
X4799Y57646D02*
X4517Y58373D01*
X4621Y58373D01*
X4810Y57845D01*
X4821Y57814D01*
X4831Y57783D01*
X4840Y57754D01*
X4848Y57726D01*
X4857Y57756D01*
X4866Y57785D01*
X4877Y57815D01*
X4887Y57845D01*
X5084Y58373D01*
X5182Y58373D01*
X4897Y57646D01*
X4799Y57646D01*
X4799Y57646D01*
X3043Y62590D02*
X3043Y62789D01*
X2845Y62789D01*
X2845Y62872D01*
X3043Y62872D01*
X3043Y63070D01*
X3128Y63070D01*
X3128Y62872D01*
X3326Y62872D01*
X3326Y62789D01*
X3128Y62789D01*
X3128Y62590D01*
X3043Y62590D01*
X3043Y62590D01*
X3761Y62472D02*
X3671Y62472D01*
X3671Y63041D01*
X3654Y63026D01*
X3634Y63010D01*
X3612Y62995D01*
X3587Y62980D01*
X3561Y62965D01*
X3537Y62953D01*
X3514Y62942D01*
X3493Y62933D01*
X3493Y63020D01*
X3529Y63038D01*
X3563Y63059D01*
X3595Y63081D01*
X3624Y63105D01*
X3650Y63130D01*
X3672Y63154D01*
X3689Y63178D01*
X3703Y63202D01*
X3761Y63202D01*
X3761Y62472D01*
X3761Y62472D01*
X4459Y62558D02*
X4459Y62472D01*
X3978Y62472D01*
X3978Y62488D01*
X3980Y62504D01*
X3984Y62519D01*
X3988Y62534D01*
X3999Y62558D01*
X4012Y62583D01*
X4028Y62607D01*
X4047Y62631D01*
X4070Y62655D01*
X4097Y62682D01*
X4128Y62711D01*
X4164Y62741D01*
X4219Y62787D01*
X4263Y62828D01*
X4299Y62864D01*
X4324Y62895D01*
X4343Y62923D01*
X4356Y62950D01*
X4363Y62977D01*
X4366Y63002D01*
X4364Y63028D01*
X4356Y63051D01*
X4345Y63073D01*
X4328Y63092D01*
X4308Y63108D01*
X4284Y63119D01*
X4258Y63126D01*
X4229Y63128D01*
X4198Y63126D01*
X4171Y63119D01*
X4147Y63107D01*
X4126Y63090D01*
X4109Y63068D01*
X4097Y63043D01*
X4089Y63015D01*
X4087Y62982D01*
X3995Y62992D01*
X4003Y63040D01*
X4017Y63082D01*
X4038Y63118D01*
X4066Y63148D01*
X4099Y63172D01*
X4138Y63189D01*
X4182Y63199D01*
X4231Y63202D01*
X4281Y63199D01*
X4325Y63188D01*
X4363Y63170D01*
X4397Y63144D01*
X4423Y63113D01*
X4442Y63079D01*
X4454Y63042D01*
X4458Y63000D01*
X4457Y62979D01*
X4453Y62957D01*
X4448Y62936D01*
X4440Y62915D01*
X4429Y62893D01*
X4416Y62871D01*
X4400Y62849D01*
X4381Y62826D01*
X4356Y62800D01*
X4325Y62770D01*
X4288Y62736D01*
X4243Y62698D01*
X4206Y62667D01*
X4177Y62641D01*
X4155Y62621D01*
X4140Y62606D01*
X4129Y62594D01*
X4119Y62582D01*
X4110Y62570D01*
X4102Y62558D01*
X4459Y62558D01*
X4459Y62558D01*
X4799Y62472D02*
X4517Y63199D01*
X4621Y63199D01*
X4810Y62671D01*
X4821Y62640D01*
X4831Y62609D01*
X4840Y62580D01*
X4848Y62552D01*
X4857Y62582D01*
X4866Y62611D01*
X4877Y62641D01*
X4887Y62671D01*
X5084Y63199D01*
X5182Y63199D01*
X4897Y62472D01*
X4799Y62472D01*
X4799Y62472D01*
X3608Y60304D02*
X3608Y60503D01*
X3410Y60503D01*
X3410Y60586D01*
X3608Y60586D01*
X3608Y60784D01*
X3693Y60784D01*
X3693Y60586D01*
X3891Y60586D01*
X3891Y60503D01*
X3693Y60503D01*
X3693Y60304D01*
X3608Y60304D01*
X3608Y60304D01*
X3989Y60377D02*
X4083Y60384D01*
X4090Y60352D01*
X4100Y60324D01*
X4114Y60301D01*
X4132Y60281D01*
X4152Y60266D01*
X4173Y60256D01*
X4197Y60249D01*
X4223Y60247D01*
X4254Y60250D01*
X4283Y60259D01*
X4309Y60274D01*
X4332Y60296D01*
X4352Y60322D01*
X4366Y60352D01*
X4374Y60386D01*
X4377Y60425D01*
X4374Y60461D01*
X4366Y60493D01*
X4353Y60521D01*
X4334Y60545D01*
X4311Y60564D01*
X4284Y60578D01*
X4255Y60587D01*
X4222Y60589D01*
X4201Y60588D01*
X4181Y60584D01*
X4162Y60578D01*
X4144Y60570D01*
X4127Y60559D01*
X4113Y60547D01*
X4100Y60534D01*
X4089Y60519D01*
X4005Y60530D01*
X4076Y60903D01*
X4437Y60903D01*
X4437Y60818D01*
X4147Y60818D01*
X4108Y60623D01*
X4141Y60643D01*
X4175Y60657D01*
X4210Y60665D01*
X4245Y60668D01*
X4291Y60664D01*
X4333Y60652D01*
X4372Y60631D01*
X4406Y60602D01*
X4435Y60567D01*
X4455Y60527D01*
X4468Y60482D01*
X4472Y60433D01*
X4468Y60385D01*
X4457Y60341D01*
X4439Y60300D01*
X4414Y60262D01*
X4376Y60223D01*
X4331Y60196D01*
X4280Y60179D01*
X4223Y60174D01*
X4176Y60177D01*
X4133Y60187D01*
X4095Y60205D01*
X4061Y60229D01*
X4033Y60259D01*
X4012Y60294D01*
X3997Y60333D01*
X3989Y60377D01*
X3989Y60377D01*
X4799Y60186D02*
X4517Y60913D01*
X4621Y60913D01*
X4810Y60385D01*
X4821Y60354D01*
X4831Y60323D01*
X4840Y60294D01*
X4848Y60266D01*
X4857Y60296D01*
X4866Y60325D01*
X4877Y60355D01*
X4887Y60385D01*
X5084Y60913D01*
X5182Y60913D01*
X4897Y60186D01*
X4799Y60186D01*
X4799Y60186D01*
X3351Y65551D02*
X3351Y65637D01*
X3659Y65637D01*
X3659Y65367D01*
X3623Y65341D01*
X3587Y65318D01*
X3550Y65298D01*
X3513Y65282D01*
X3475Y65270D01*
X3436Y65261D01*
X3397Y65255D01*
X3358Y65254D01*
X3306Y65256D01*
X3256Y65265D01*
X3208Y65279D01*
X3163Y65299D01*
X3122Y65325D01*
X3086Y65356D01*
X3056Y65391D01*
X3031Y65432D01*
X3011Y65477D01*
X2997Y65524D01*
X2989Y65574D01*
X2986Y65626D01*
X2989Y65678D01*
X2997Y65729D01*
X3011Y65777D01*
X3031Y65824D01*
X3055Y65867D01*
X3085Y65905D01*
X3119Y65936D01*
X3158Y65961D01*
X3202Y65981D01*
X3248Y65995D01*
X3298Y66003D01*
X3350Y66006D01*
X3389Y66004D01*
X3426Y65999D01*
X3460Y65991D01*
X3493Y65980D01*
X3523Y65966D01*
X3550Y65950D01*
X3573Y65931D01*
X3593Y65909D01*
X3610Y65884D01*
X3625Y65856D01*
X3638Y65825D01*
X3648Y65790D01*
X3561Y65766D01*
X3553Y65792D01*
X3543Y65816D01*
X3532Y65836D01*
X3521Y65853D01*
X3507Y65868D01*
X3491Y65882D01*
X3472Y65894D01*
X3451Y65904D01*
X3428Y65913D01*
X3404Y65919D01*
X3378Y65922D01*
X3351Y65923D01*
X3319Y65922D01*
X3289Y65918D01*
X3262Y65912D01*
X3237Y65903D01*
X3214Y65892D01*
X3193Y65880D01*
X3175Y65866D01*
X3159Y65850D01*
X3145Y65834D01*
X3133Y65816D01*
X3122Y65798D01*
X3113Y65778D01*
X3101Y65744D01*
X3092Y65708D01*
X3087Y65671D01*
X3086Y65632D01*
X3088Y65585D01*
X3094Y65543D01*
X3104Y65504D01*
X3119Y65469D01*
X3138Y65439D01*
X3160Y65412D01*
X3186Y65390D01*
X3217Y65372D01*
X3249Y65358D01*
X3282Y65348D01*
X3317Y65342D01*
X3352Y65340D01*
X3383Y65342D01*
X3414Y65346D01*
X3445Y65354D01*
X3474Y65364D01*
X3502Y65377D01*
X3527Y65389D01*
X3548Y65402D01*
X3565Y65416D01*
X3565Y65551D01*
X3351Y65551D01*
X3351Y65551D01*
X3800Y65266D02*
X3800Y65993D01*
X3899Y65993D01*
X4281Y65422D01*
X4281Y65993D01*
X4373Y65993D01*
X4373Y65266D01*
X4274Y65266D01*
X3892Y65838D01*
X3892Y65266D01*
X3800Y65266D01*
X3800Y65266D01*
X4535Y65266D02*
X4535Y65993D01*
X4784Y65993D01*
X4784Y65907D01*
X4631Y65907D01*
X4631Y65352D01*
X4631Y65352D01*
X4786Y65352D01*
X4820Y65353D01*
X4850Y65355D01*
X4877Y65359D01*
X4899Y65365D01*
X4918Y65373D01*
X4936Y65381D01*
X4951Y65391D01*
X4964Y65403D01*
X4980Y65422D01*
X4995Y65443D01*
X5007Y65468D01*
X5018Y65495D01*
X5026Y65525D01*
X5032Y65559D01*
X5036Y65595D01*
X5037Y65635D01*
X5034Y65689D01*
X5027Y65736D01*
X5016Y65777D01*
X4999Y65810D01*
X4980Y65839D01*
X4958Y65862D01*
X4934Y65880D01*
X4908Y65893D01*
X4886Y65899D01*
X4858Y65904D01*
X4824Y65907D01*
X4784Y65907D01*
X4784Y65993D01*
X4785Y65993D01*
X4825Y65993D01*
X4860Y65991D01*
X4890Y65987D01*
X4915Y65983D01*
X4945Y65974D01*
X4973Y65963D01*
X4998Y65948D01*
X5021Y65931D01*
X5048Y65905D01*
X5072Y65875D01*
X5091Y65843D01*
X5107Y65806D01*
X5120Y65767D01*
X5129Y65725D01*
X5134Y65681D01*
X5136Y65634D01*
X5135Y65593D01*
X5131Y65555D01*
X5125Y65520D01*
X5117Y65487D01*
X5106Y65456D01*
X5094Y65428D01*
X5081Y65403D01*
X5067Y65381D01*
X5051Y65361D01*
X5035Y65343D01*
X5018Y65328D01*
X5001Y65315D01*
X4982Y65304D01*
X4961Y65294D01*
X4938Y65285D01*
X4914Y65278D01*
X4888Y65273D01*
X4859Y65269D01*
X4829Y65267D01*
X4797Y65266D01*
X4535Y65266D01*
X4535Y65266D01*
X3351Y68091D02*
X3351Y68177D01*
X3659Y68177D01*
X3659Y67907D01*
X3623Y67881D01*
X3587Y67858D01*
X3550Y67838D01*
X3513Y67822D01*
X3475Y67810D01*
X3436Y67801D01*
X3397Y67795D01*
X3358Y67794D01*
X3306Y67796D01*
X3256Y67805D01*
X3208Y67819D01*
X3163Y67839D01*
X3122Y67865D01*
X3086Y67896D01*
X3056Y67931D01*
X3031Y67972D01*
X3011Y68017D01*
X2997Y68064D01*
X2989Y68114D01*
X2986Y68166D01*
X2989Y68218D01*
X2997Y68269D01*
X3011Y68317D01*
X3031Y68364D01*
X3055Y68407D01*
X3085Y68445D01*
X3119Y68476D01*
X3158Y68501D01*
X3202Y68521D01*
X3248Y68535D01*
X3298Y68543D01*
X3350Y68546D01*
X3389Y68544D01*
X3426Y68539D01*
X3460Y68531D01*
X3493Y68520D01*
X3523Y68506D01*
X3550Y68490D01*
X3573Y68471D01*
X3593Y68449D01*
X3610Y68424D01*
X3625Y68396D01*
X3638Y68365D01*
X3648Y68330D01*
X3561Y68306D01*
X3553Y68332D01*
X3543Y68356D01*
X3532Y68376D01*
X3521Y68393D01*
X3507Y68408D01*
X3491Y68422D01*
X3472Y68434D01*
X3451Y68444D01*
X3428Y68453D01*
X3404Y68459D01*
X3378Y68462D01*
X3351Y68463D01*
X3319Y68462D01*
X3289Y68458D01*
X3262Y68452D01*
X3237Y68443D01*
X3214Y68432D01*
X3193Y68420D01*
X3175Y68406D01*
X3159Y68390D01*
X3145Y68374D01*
X3133Y68356D01*
X3122Y68338D01*
X3113Y68318D01*
X3101Y68284D01*
X3092Y68248D01*
X3087Y68211D01*
X3086Y68172D01*
X3088Y68125D01*
X3094Y68083D01*
X3104Y68044D01*
X3119Y68009D01*
X3138Y67979D01*
X3160Y67952D01*
X3186Y67930D01*
X3217Y67912D01*
X3249Y67898D01*
X3282Y67888D01*
X3317Y67882D01*
X3352Y67880D01*
X3383Y67882D01*
X3414Y67886D01*
X3445Y67894D01*
X3474Y67904D01*
X3502Y67917D01*
X3527Y67929D01*
X3548Y67942D01*
X3565Y67956D01*
X3565Y68091D01*
X3351Y68091D01*
X3351Y68091D01*
X3800Y67806D02*
X3800Y68533D01*
X3899Y68533D01*
X4281Y67962D01*
X4281Y68533D01*
X4373Y68533D01*
X4373Y67806D01*
X4274Y67806D01*
X3892Y68377D01*
X3892Y67806D01*
X3800Y67806D01*
X3800Y67806D01*
X4535Y67806D02*
X4535Y68533D01*
X4784Y68533D01*
X4784Y68447D01*
X4631Y68447D01*
X4631Y67892D01*
X4631Y67892D01*
X4786Y67892D01*
X4820Y67893D01*
X4850Y67895D01*
X4877Y67899D01*
X4899Y67905D01*
X4918Y67913D01*
X4936Y67921D01*
X4951Y67931D01*
X4964Y67943D01*
X4980Y67962D01*
X4995Y67983D01*
X5007Y68008D01*
X5018Y68035D01*
X5026Y68065D01*
X5032Y68099D01*
X5036Y68135D01*
X5037Y68175D01*
X5034Y68229D01*
X5027Y68276D01*
X5016Y68317D01*
X4999Y68350D01*
X4980Y68379D01*
X4958Y68402D01*
X4934Y68420D01*
X4908Y68433D01*
X4886Y68439D01*
X4858Y68444D01*
X4824Y68447D01*
X4784Y68447D01*
X4784Y68533D01*
X4785Y68533D01*
X4825Y68533D01*
X4860Y68531D01*
X4890Y68527D01*
X4915Y68523D01*
X4945Y68514D01*
X4973Y68503D01*
X4998Y68488D01*
X5021Y68471D01*
X5048Y68445D01*
X5072Y68415D01*
X5091Y68383D01*
X5107Y68346D01*
X5120Y68307D01*
X5129Y68265D01*
X5134Y68221D01*
X5136Y68174D01*
X5135Y68133D01*
X5131Y68095D01*
X5125Y68060D01*
X5117Y68027D01*
X5106Y67996D01*
X5094Y67968D01*
X5081Y67943D01*
X5067Y67921D01*
X5051Y67901D01*
X5035Y67883D01*
X5018Y67868D01*
X5001Y67855D01*
X4982Y67844D01*
X4961Y67834D01*
X4938Y67825D01*
X4914Y67818D01*
X4888Y67813D01*
X4859Y67809D01*
X4829Y67807D01*
X4797Y67806D01*
X4535Y67806D01*
X4535Y67806D01*
X3351Y70631D02*
X3351Y70717D01*
X3659Y70717D01*
X3659Y70447D01*
X3623Y70421D01*
X3587Y70398D01*
X3550Y70378D01*
X3513Y70362D01*
X3475Y70350D01*
X3436Y70341D01*
X3397Y70335D01*
X3358Y70334D01*
X3306Y70336D01*
X3256Y70345D01*
X3208Y70359D01*
X3163Y70379D01*
X3122Y70405D01*
X3086Y70436D01*
X3056Y70471D01*
X3031Y70512D01*
X3011Y70557D01*
X2997Y70604D01*
X2989Y70654D01*
X2986Y70706D01*
X2989Y70758D01*
X2997Y70809D01*
X3011Y70857D01*
X3031Y70904D01*
X3055Y70947D01*
X3085Y70985D01*
X3119Y71016D01*
X3158Y71041D01*
X3202Y71061D01*
X3248Y71075D01*
X3298Y71083D01*
X3350Y71086D01*
X3389Y71084D01*
X3426Y71079D01*
X3460Y71071D01*
X3493Y71060D01*
X3523Y71046D01*
X3550Y71030D01*
X3573Y71011D01*
X3593Y70989D01*
X3610Y70964D01*
X3625Y70936D01*
X3638Y70905D01*
X3648Y70870D01*
X3561Y70846D01*
X3553Y70872D01*
X3543Y70896D01*
X3532Y70916D01*
X3521Y70933D01*
X3507Y70948D01*
X3491Y70962D01*
X3472Y70974D01*
X3451Y70984D01*
X3428Y70993D01*
X3404Y70999D01*
X3378Y71002D01*
X3351Y71003D01*
X3319Y71002D01*
X3289Y70998D01*
X3262Y70992D01*
X3237Y70983D01*
X3214Y70972D01*
X3193Y70960D01*
X3175Y70946D01*
X3159Y70930D01*
X3145Y70914D01*
X3133Y70896D01*
X3122Y70878D01*
X3113Y70858D01*
X3101Y70824D01*
X3092Y70788D01*
X3087Y70751D01*
X3086Y70712D01*
X3088Y70665D01*
X3094Y70623D01*
X3104Y70584D01*
X3119Y70549D01*
X3138Y70519D01*
X3160Y70492D01*
X3186Y70470D01*
X3217Y70452D01*
X3249Y70438D01*
X3282Y70428D01*
X3317Y70422D01*
X3352Y70420D01*
X3383Y70422D01*
X3414Y70426D01*
X3445Y70434D01*
X3474Y70444D01*
X3502Y70457D01*
X3527Y70469D01*
X3548Y70482D01*
X3565Y70496D01*
X3565Y70631D01*
X3351Y70631D01*
X3351Y70631D01*
X3800Y70346D02*
X3800Y71073D01*
X3899Y71073D01*
X4281Y70502D01*
X4281Y71073D01*
X4373Y71073D01*
X4373Y70346D01*
X4274Y70346D01*
X3892Y70918D01*
X3892Y70346D01*
X3800Y70346D01*
X3800Y70346D01*
X4535Y70346D02*
X4535Y71073D01*
X4784Y71073D01*
X4784Y70987D01*
X4631Y70987D01*
X4631Y70432D01*
X4631Y70432D01*
X4786Y70432D01*
X4820Y70433D01*
X4850Y70435D01*
X4877Y70439D01*
X4899Y70445D01*
X4918Y70453D01*
X4936Y70461D01*
X4951Y70471D01*
X4964Y70483D01*
X4980Y70502D01*
X4995Y70523D01*
X5007Y70548D01*
X5018Y70575D01*
X5026Y70605D01*
X5032Y70639D01*
X5036Y70675D01*
X5037Y70715D01*
X5034Y70769D01*
X5027Y70816D01*
X5016Y70857D01*
X4999Y70890D01*
X4980Y70919D01*
X4958Y70942D01*
X4934Y70960D01*
X4908Y70973D01*
X4886Y70979D01*
X4858Y70984D01*
X4824Y70987D01*
X4784Y70987D01*
X4784Y71073D01*
X4785Y71073D01*
X4825Y71073D01*
X4860Y71071D01*
X4890Y71067D01*
X4915Y71063D01*
X4945Y71054D01*
X4973Y71043D01*
X4998Y71028D01*
X5021Y71011D01*
X5048Y70985D01*
X5072Y70955D01*
X5091Y70923D01*
X5107Y70886D01*
X5120Y70847D01*
X5129Y70805D01*
X5134Y70761D01*
X5136Y70714D01*
X5135Y70673D01*
X5131Y70635D01*
X5125Y70600D01*
X5117Y70567D01*
X5106Y70536D01*
X5094Y70508D01*
X5081Y70483D01*
X5067Y70461D01*
X5051Y70441D01*
X5035Y70423D01*
X5018Y70408D01*
X5001Y70395D01*
X4982Y70384D01*
X4961Y70374D01*
X4938Y70365D01*
X4914Y70358D01*
X4888Y70353D01*
X4859Y70349D01*
X4829Y70347D01*
X4797Y70346D01*
X4535Y70346D01*
X4535Y70346D01*
X3076Y73104D02*
X3076Y73194D01*
X3350Y73194D01*
X3350Y73104D01*
X3076Y73104D01*
X3076Y73104D01*
X3761Y72886D02*
X3671Y72886D01*
X3671Y73455D01*
X3654Y73440D01*
X3634Y73424D01*
X3612Y73409D01*
X3587Y73394D01*
X3561Y73379D01*
X3537Y73367D01*
X3514Y73356D01*
X3493Y73347D01*
X3493Y73434D01*
X3529Y73452D01*
X3563Y73473D01*
X3595Y73495D01*
X3624Y73519D01*
X3650Y73544D01*
X3672Y73568D01*
X3689Y73592D01*
X3703Y73616D01*
X3761Y73616D01*
X3761Y72886D01*
X3761Y72886D01*
X4459Y72972D02*
X4459Y72886D01*
X3978Y72886D01*
X3978Y72902D01*
X3980Y72918D01*
X3984Y72933D01*
X3988Y72948D01*
X3999Y72972D01*
X4012Y72997D01*
X4028Y73021D01*
X4047Y73045D01*
X4070Y73069D01*
X4097Y73096D01*
X4128Y73125D01*
X4164Y73155D01*
X4219Y73201D01*
X4263Y73242D01*
X4299Y73278D01*
X4324Y73309D01*
X4343Y73337D01*
X4356Y73364D01*
X4363Y73391D01*
X4366Y73416D01*
X4364Y73442D01*
X4356Y73465D01*
X4345Y73487D01*
X4328Y73506D01*
X4308Y73522D01*
X4284Y73533D01*
X4258Y73540D01*
X4229Y73542D01*
X4198Y73540D01*
X4171Y73533D01*
X4147Y73521D01*
X4126Y73504D01*
X4109Y73482D01*
X4097Y73457D01*
X4089Y73429D01*
X4087Y73396D01*
X3995Y73406D01*
X4003Y73454D01*
X4017Y73496D01*
X4038Y73532D01*
X4066Y73562D01*
X4099Y73586D01*
X4138Y73603D01*
X4182Y73613D01*
X4231Y73616D01*
X4281Y73613D01*
X4325Y73602D01*
X4363Y73584D01*
X4397Y73558D01*
X4423Y73527D01*
X4442Y73493D01*
X4454Y73456D01*
X4458Y73414D01*
X4457Y73393D01*
X4453Y73371D01*
X4448Y73350D01*
X4440Y73329D01*
X4429Y73307D01*
X4416Y73285D01*
X4400Y73263D01*
X4381Y73240D01*
X4356Y73214D01*
X4325Y73184D01*
X4288Y73150D01*
X4243Y73112D01*
X4206Y73081D01*
X4177Y73055D01*
X4155Y73035D01*
X4140Y73020D01*
X4129Y73008D01*
X4119Y72996D01*
X4110Y72984D01*
X4102Y72972D01*
X4459Y72972D01*
X4459Y72972D01*
X4799Y72886D02*
X4517Y73613D01*
X4621Y73613D01*
X4810Y73085D01*
X4821Y73054D01*
X4831Y73023D01*
X4840Y72994D01*
X4848Y72966D01*
X4857Y72996D01*
X4866Y73025D01*
X4877Y73055D01*
X4887Y73085D01*
X5084Y73613D01*
X5182Y73613D01*
X4897Y72886D01*
X4799Y72886D01*
X4799Y72886D01*
G37*
%LNtop silkscreen component f9d0310573364d19*%
D10*
X5750Y86667D02*
X5750Y114667D01*
X14250Y114667*
X14250Y86667*
X5750Y86667*
X6000Y86917D02*
X6000Y114417D01*
X14000Y114417*
X14000Y86917*
X6000Y86917*
D11*
X6250Y100692D03*
D12*
X10000Y115272D03*
G36*
X9001Y85173D02*
X9172Y85196D01*
X9179Y85121D01*
X9191Y85058D01*
X9209Y85008D01*
X9234Y84972D01*
X9264Y84945D01*
X9299Y84926D01*
X9339Y84915D01*
X9385Y84911D01*
X9420Y84913D01*
X9452Y84919D01*
X9481Y84930D01*
X9508Y84944D01*
X9532Y84962D01*
X9552Y84982D01*
X9568Y85006D01*
X9580Y85033D01*
X9588Y85065D01*
X9594Y85106D01*
X9598Y85155D01*
X9599Y85212D01*
X9599Y86198D01*
X9789Y86198D01*
X9789Y85223D01*
X9786Y85138D01*
X9778Y85063D01*
X9764Y84999D01*
X9745Y84944D01*
X9720Y84898D01*
X9689Y84857D01*
X9651Y84823D01*
X9607Y84794D01*
X9558Y84771D01*
X9505Y84755D01*
X9448Y84745D01*
X9386Y84742D01*
X9297Y84749D01*
X9220Y84769D01*
X9153Y84803D01*
X9098Y84851D01*
X9054Y84911D01*
X9024Y84985D01*
X9006Y85073D01*
X9001Y85173D01*
X9001Y85173D01*
X10689Y84767D02*
X10513Y84767D01*
X10513Y85887D01*
X10479Y85857D01*
X10440Y85826D01*
X10396Y85796D01*
X10347Y85766D01*
X10297Y85737D01*
X10249Y85713D01*
X10204Y85692D01*
X10162Y85675D01*
X10162Y85845D01*
X10233Y85881D01*
X10300Y85921D01*
X10362Y85965D01*
X10419Y86013D01*
X10471Y86062D01*
X10514Y86110D01*
X10549Y86157D01*
X10576Y86204D01*
X10689Y86204D01*
X10689Y84767D01*
X10689Y84767D01*
X7113Y115805D02*
X7113Y116896D01*
X7597Y116896D01*
X7665Y116894D01*
X7725Y116888D01*
X7776Y116879D01*
X7819Y116866D01*
X7855Y116849D01*
X7887Y116826D01*
X7915Y116797D01*
X7940Y116762D01*
X7960Y116724D01*
X7974Y116684D01*
X7982Y116642D01*
X7985Y116598D01*
X7981Y116542D01*
X7966Y116491D01*
X7943Y116444D01*
X7910Y116402D01*
X7867Y116366D01*
X7814Y116337D01*
X7751Y116315D01*
X7715Y116308D01*
X7692Y116426D01*
X7723Y116435D01*
X7749Y116446D01*
X7772Y116461D01*
X7791Y116479D01*
X7807Y116500D01*
X7820Y116523D01*
X7829Y116547D01*
X7835Y116572D01*
X7836Y116598D01*
X7833Y116635D01*
X7822Y116668D01*
X7805Y116699D01*
X7780Y116725D01*
X7748Y116747D01*
X7708Y116763D01*
X7659Y116772D01*
X7603Y116775D01*
X7257Y116775D01*
X7257Y116414D01*
X7257Y116414D01*
X7568Y116414D01*
X7615Y116415D01*
X7656Y116419D01*
X7692Y116426D01*
X7715Y116308D01*
X7678Y116301D01*
X7705Y116287D01*
X7728Y116274D01*
X7748Y116260D01*
X7765Y116247D01*
X7796Y116216D01*
X7827Y116181D01*
X7856Y116143D01*
X7885Y116102D01*
X8075Y115805D01*
X7893Y115805D01*
X7749Y116032D01*
X7718Y116078D01*
X7691Y116118D01*
X7666Y116153D01*
X7644Y116182D01*
X7625Y116206D01*
X7606Y116226D01*
X7588Y116242D01*
X7571Y116255D01*
X7555Y116264D01*
X7538Y116273D01*
X7522Y116279D01*
X7505Y116284D01*
X7491Y116286D01*
X7473Y116288D01*
X7451Y116289D01*
X7425Y116289D01*
X7257Y116289D01*
X7257Y115805D01*
X7113Y115805D01*
X7113Y115805D01*
X8735Y116059D02*
X8874Y116042D01*
X8854Y115985D01*
X8827Y115934D01*
X8793Y115891D01*
X8752Y115854D01*
X8705Y115824D01*
X8652Y115804D01*
X8592Y115791D01*
X8526Y115787D01*
X8444Y115793D01*
X8371Y115814D01*
X8307Y115847D01*
X8251Y115894D01*
X8207Y115952D01*
X8175Y116022D01*
X8156Y116102D01*
X8150Y116193D01*
X8156Y116287D01*
X8175Y116370D01*
X8207Y116442D01*
X8252Y116503D01*
X8308Y116551D01*
X8370Y116585D01*
X8441Y116606D01*
X8519Y116613D01*
X8530Y116612D01*
X8520Y116503D01*
X8476Y116499D01*
X8435Y116487D01*
X8398Y116468D01*
X8365Y116441D01*
X8337Y116407D01*
X8316Y116369D01*
X8302Y116325D01*
X8296Y116276D01*
X8296Y116276D01*
X8737Y116276D01*
X8730Y116322D01*
X8720Y116363D01*
X8705Y116397D01*
X8686Y116425D01*
X8652Y116459D01*
X8613Y116483D01*
X8569Y116498D01*
X8520Y116503D01*
X8530Y116612D01*
X8594Y116606D01*
X8663Y116586D01*
X8724Y116552D01*
X8778Y116505D01*
X8822Y116445D01*
X8853Y116375D01*
X8872Y116294D01*
X8878Y116201D01*
X8878Y116195D01*
X8878Y116186D01*
X8878Y116177D01*
X8877Y116166D01*
X8288Y116166D01*
X8296Y116104D01*
X8310Y116051D01*
X8332Y116005D01*
X8362Y115966D01*
X8397Y115936D01*
X8436Y115914D01*
X8480Y115901D01*
X8527Y115897D01*
X8562Y115899D01*
X8595Y115907D01*
X8625Y115919D01*
X8653Y115936D01*
X8677Y115958D01*
X8699Y115986D01*
X8719Y116020D01*
X8735Y116059D01*
X8735Y116059D01*
X9555Y115805D02*
X9555Y115904D01*
X9494Y115967D01*
X9496Y115969D01*
X9522Y116009D01*
X9542Y116059D01*
X9553Y116119D01*
X9557Y116188D01*
X9553Y116264D01*
X9541Y116329D01*
X9522Y116383D01*
X9494Y116426D01*
X9461Y116459D01*
X9425Y116483D01*
X9384Y116497D01*
X9340Y116502D01*
X9298Y116497D01*
X9258Y116484D01*
X9223Y116461D01*
X9191Y116429D01*
X9165Y116387D01*
X9146Y116335D01*
X9135Y116272D01*
X9131Y116199D01*
X9131Y116199D01*
X9135Y116128D01*
X9147Y116066D01*
X9167Y116014D01*
X9195Y115972D01*
X9229Y115939D01*
X9265Y115916D01*
X9304Y115902D01*
X9346Y115897D01*
X9389Y115901D01*
X9428Y115915D01*
X9463Y115937D01*
X9494Y115967D01*
X9555Y115904D01*
X9513Y115853D01*
X9462Y115816D01*
X9402Y115794D01*
X9334Y115787D01*
X9287Y115790D01*
X9243Y115800D01*
X9200Y115816D01*
X9160Y115839D01*
X9123Y115868D01*
X9090Y115901D01*
X9061Y115940D01*
X9037Y115984D01*
X9018Y116033D01*
X9004Y116085D01*
X8996Y116140D01*
X8994Y116199D01*
X8996Y116257D01*
X9003Y116312D01*
X9016Y116364D01*
X9033Y116414D01*
X9055Y116459D01*
X9082Y116499D01*
X9114Y116533D01*
X9151Y116561D01*
X9192Y116584D01*
X9235Y116600D01*
X9280Y116610D01*
X9328Y116613D01*
X9362Y116611D01*
X9395Y116605D01*
X9426Y116596D01*
X9455Y116583D01*
X9482Y116566D01*
X9506Y116548D01*
X9527Y116527D01*
X9546Y116504D01*
X9546Y116896D01*
X9679Y116896D01*
X9679Y115805D01*
X9555Y115805D01*
X9555Y115805D01*
X10459Y115805D02*
X10217Y116595D01*
X10355Y116595D01*
X10481Y116139D01*
X10528Y115969D01*
X10532Y115984D01*
X10540Y116016D01*
X10552Y116066D01*
X10569Y116132D01*
X10695Y116595D01*
X10832Y116595D01*
X10951Y116137D01*
X10990Y115985D01*
X11036Y116138D01*
X11171Y116595D01*
X11301Y116595D01*
X11054Y115805D01*
X10915Y115805D01*
X10789Y116278D01*
X10759Y116413D01*
X10599Y115805D01*
X10459Y115805D01*
X10459Y115805D01*
X11414Y115805D02*
X11414Y116595D01*
X11548Y116595D01*
X11548Y115805D01*
X11414Y115805D01*
X11414Y115805D01*
X11414Y116742D02*
X11414Y116896D01*
X11548Y116896D01*
X11548Y116742D01*
X11414Y116742D01*
X11414Y116742D01*
X11751Y115805D02*
X11751Y116595D01*
X11871Y116595D01*
X11871Y116475D01*
X11894Y116514D01*
X11916Y116545D01*
X11936Y116569D01*
X11956Y116586D01*
X11976Y116598D01*
X11997Y116606D01*
X12019Y116611D01*
X12042Y116613D01*
X12076Y116610D01*
X12111Y116602D01*
X12145Y116589D01*
X12180Y116570D01*
X12134Y116445D01*
X12109Y116458D01*
X12085Y116467D01*
X12060Y116473D01*
X12036Y116474D01*
X12014Y116473D01*
X11994Y116468D01*
X11975Y116460D01*
X11957Y116448D01*
X11940Y116433D01*
X11927Y116416D01*
X11916Y116397D01*
X11907Y116375D01*
X11897Y116338D01*
X11890Y116300D01*
X11886Y116260D01*
X11885Y116218D01*
X11885Y115805D01*
X11751Y115805D01*
X11751Y115805D01*
X12801Y116059D02*
X12939Y116042D01*
X12919Y115985D01*
X12892Y115934D01*
X12858Y115891D01*
X12818Y115854D01*
X12770Y115824D01*
X12717Y115804D01*
X12657Y115791D01*
X12591Y115787D01*
X12509Y115793D01*
X12436Y115814D01*
X12372Y115847D01*
X12316Y115894D01*
X12272Y115952D01*
X12240Y116022D01*
X12221Y116102D01*
X12215Y116193D01*
X12221Y116287D01*
X12241Y116370D01*
X12273Y116442D01*
X12318Y116503D01*
X12373Y116551D01*
X12436Y116585D01*
X12506Y116606D01*
X12584Y116613D01*
X12595Y116612D01*
X12585Y116503D01*
X12541Y116499D01*
X12501Y116487D01*
X12464Y116468D01*
X12430Y116441D01*
X12402Y116407D01*
X12382Y116369D01*
X12368Y116325D01*
X12361Y116276D01*
X12361Y116276D01*
X12802Y116276D01*
X12796Y116322D01*
X12785Y116363D01*
X12770Y116397D01*
X12751Y116425D01*
X12717Y116459D01*
X12678Y116483D01*
X12634Y116498D01*
X12585Y116503D01*
X12595Y116612D01*
X12660Y116606D01*
X12728Y116586D01*
X12789Y116552D01*
X12843Y116505D01*
X12887Y116445D01*
X12918Y116375D01*
X12937Y116294D01*
X12943Y116201D01*
X12943Y116195D01*
X12943Y116186D01*
X12943Y116177D01*
X12943Y116166D01*
X12353Y116166D01*
X12361Y116104D01*
X12375Y116051D01*
X12398Y116005D01*
X12427Y115966D01*
X12462Y115936D01*
X12501Y115914D01*
X12545Y115901D01*
X12592Y115897D01*
X12628Y115899D01*
X12660Y115907D01*
X12691Y115919D01*
X12718Y115936D01*
X12743Y115958D01*
X12765Y115986D01*
X12784Y116020D01*
X12801Y116059D01*
X12801Y116059D01*
X15229Y91808D02*
X15229Y91893D01*
X15537Y91894D01*
X15537Y91624D01*
X15501Y91597D01*
X15465Y91574D01*
X15428Y91555D01*
X15390Y91539D01*
X15352Y91526D01*
X15314Y91517D01*
X15275Y91512D01*
X15236Y91510D01*
X15183Y91513D01*
X15133Y91522D01*
X15086Y91536D01*
X15041Y91556D01*
X15000Y91582D01*
X14964Y91612D01*
X14934Y91648D01*
X14909Y91689D01*
X14889Y91734D01*
X14875Y91781D01*
X14867Y91831D01*
X14864Y91883D01*
X14867Y91935D01*
X14875Y91985D01*
X14889Y92034D01*
X14908Y92081D01*
X14933Y92124D01*
X14963Y92161D01*
X14997Y92192D01*
X15036Y92218D01*
X15079Y92237D01*
X15126Y92251D01*
X15175Y92260D01*
X15228Y92262D01*
X15267Y92261D01*
X15303Y92256D01*
X15338Y92248D01*
X15371Y92237D01*
X15401Y92223D01*
X15428Y92206D01*
X15451Y92187D01*
X15471Y92166D01*
X15488Y92141D01*
X15503Y92113D01*
X15515Y92082D01*
X15526Y92047D01*
X15439Y92023D01*
X15430Y92049D01*
X15421Y92072D01*
X15410Y92093D01*
X15398Y92110D01*
X15385Y92125D01*
X15369Y92139D01*
X15350Y92151D01*
X15329Y92161D01*
X15306Y92169D01*
X15281Y92175D01*
X15256Y92179D01*
X15229Y92180D01*
X15197Y92179D01*
X15167Y92175D01*
X15140Y92169D01*
X15115Y92160D01*
X15092Y92149D01*
X15071Y92137D01*
X15053Y92123D01*
X15037Y92107D01*
X15023Y92090D01*
X15011Y92073D01*
X15000Y92054D01*
X14991Y92035D01*
X14979Y92001D01*
X14970Y91965D01*
X14965Y91928D01*
X14963Y91889D01*
X14965Y91842D01*
X14972Y91799D01*
X14982Y91761D01*
X14997Y91726D01*
X15015Y91695D01*
X15038Y91669D01*
X15064Y91647D01*
X15094Y91629D01*
X15127Y91615D01*
X15160Y91605D01*
X15195Y91599D01*
X15230Y91597D01*
X15261Y91599D01*
X15292Y91603D01*
X15322Y91611D01*
X15352Y91621D01*
X15380Y91633D01*
X15405Y91646D01*
X15425Y91659D01*
X15443Y91672D01*
X15443Y91808D01*
X15229Y91808D01*
X15229Y91808D01*
X16011Y91588D02*
X15986Y91568D01*
X15983Y91566D01*
X15949Y91616D01*
X15965Y91630D01*
X15978Y91646D01*
X15989Y91665D01*
X15996Y91682D01*
X16000Y91703D01*
X16003Y91727D01*
X16004Y91754D01*
X16004Y91787D01*
X16004Y91787D01*
X15976Y91778D01*
X15943Y91769D01*
X15903Y91761D01*
X15858Y91753D01*
X15832Y91749D01*
X15811Y91745D01*
X15793Y91740D01*
X15780Y91735D01*
X15769Y91730D01*
X15760Y91723D01*
X15752Y91715D01*
X15745Y91706D01*
X15739Y91697D01*
X15735Y91686D01*
X15733Y91675D01*
X15732Y91664D01*
X15734Y91647D01*
X15739Y91631D01*
X15747Y91617D01*
X15759Y91605D01*
X15774Y91594D01*
X15793Y91587D01*
X15814Y91582D01*
X15838Y91581D01*
X15864Y91582D01*
X15887Y91586D01*
X15909Y91593D01*
X15930Y91603D01*
X15949Y91616D01*
X15983Y91566D01*
X15962Y91552D01*
X15939Y91538D01*
X15916Y91528D01*
X15892Y91521D01*
X15868Y91515D01*
X15843Y91512D01*
X15817Y91511D01*
X15776Y91513D01*
X15740Y91521D01*
X15709Y91535D01*
X15684Y91553D01*
X15663Y91576D01*
X15649Y91601D01*
X15640Y91630D01*
X15637Y91662D01*
X15638Y91681D01*
X15641Y91699D01*
X15647Y91716D01*
X15655Y91732D01*
X15664Y91747D01*
X15675Y91761D01*
X15687Y91773D01*
X15701Y91784D01*
X15715Y91793D01*
X15731Y91801D01*
X15748Y91807D01*
X15765Y91813D01*
X15780Y91816D01*
X15798Y91820D01*
X15820Y91823D01*
X15844Y91826D01*
X15895Y91833D01*
X15938Y91840D01*
X15975Y91848D01*
X16004Y91857D01*
X16004Y91865D01*
X16004Y91872D01*
X16004Y91877D01*
X16004Y91880D01*
X16003Y91906D01*
X15998Y91927D01*
X15990Y91944D01*
X15979Y91957D01*
X15960Y91970D01*
X15936Y91980D01*
X15909Y91986D01*
X15877Y91988D01*
X15848Y91986D01*
X15822Y91982D01*
X15801Y91975D01*
X15784Y91965D01*
X15770Y91952D01*
X15758Y91935D01*
X15748Y91913D01*
X15740Y91887D01*
X15652Y91899D01*
X15659Y91926D01*
X15668Y91950D01*
X15679Y91971D01*
X15692Y91990D01*
X15707Y92006D01*
X15725Y92020D01*
X15746Y92033D01*
X15770Y92043D01*
X15797Y92051D01*
X15826Y92057D01*
X15857Y92060D01*
X15890Y92061D01*
X15922Y92060D01*
X15951Y92057D01*
X15977Y92052D01*
X16000Y92046D01*
X16019Y92037D01*
X16036Y92028D01*
X16050Y92017D01*
X16062Y92006D01*
X16071Y91993D01*
X16079Y91978D01*
X16085Y91962D01*
X16089Y91945D01*
X16091Y91931D01*
X16093Y91913D01*
X16094Y91890D01*
X16094Y91862D01*
X16094Y91743D01*
X16094Y91687D01*
X16095Y91642D01*
X16097Y91608D01*
X16100Y91586D01*
X16103Y91570D01*
X16108Y91554D01*
X16114Y91538D01*
X16122Y91523D01*
X16029Y91523D01*
X16023Y91537D01*
X16018Y91553D01*
X16014Y91570D01*
X16011Y91588D01*
X16011Y91588D01*
X16427Y91603D02*
X16440Y91524D01*
X16422Y91520D01*
X16404Y91518D01*
X16388Y91516D01*
X16373Y91516D01*
X16350Y91517D01*
X16330Y91520D01*
X16312Y91524D01*
X16297Y91531D01*
X16285Y91539D01*
X16274Y91549D01*
X16266Y91560D01*
X16260Y91572D01*
X16255Y91588D01*
X16251Y91610D01*
X16249Y91640D01*
X16249Y91677D01*
X16249Y91980D01*
X16183Y91980D01*
X16183Y92050D01*
X16249Y92050D01*
X16249Y92180D01*
X16338Y92234D01*
X16338Y92050D01*
X16427Y92050D01*
X16427Y91980D01*
X16338Y91980D01*
X16338Y91672D01*
X16338Y91655D01*
X16339Y91641D01*
X16340Y91630D01*
X16342Y91623D01*
X16345Y91618D01*
X16348Y91613D01*
X16353Y91609D01*
X16358Y91606D01*
X16364Y91603D01*
X16371Y91601D01*
X16379Y91599D01*
X16388Y91599D01*
X16396Y91599D01*
X16405Y91600D01*
X16416Y91601D01*
X16427Y91603D01*
X16427Y91603D01*
X16875Y91692D02*
X16968Y91681D01*
X16954Y91643D01*
X16936Y91609D01*
X16914Y91580D01*
X16887Y91555D01*
X16855Y91536D01*
X16819Y91522D01*
X16780Y91514D01*
X16736Y91511D01*
X16681Y91515D01*
X16632Y91529D01*
X16589Y91551D01*
X16553Y91582D01*
X16523Y91621D01*
X16502Y91667D01*
X16489Y91721D01*
X16485Y91782D01*
X16489Y91844D01*
X16502Y91900D01*
X16523Y91948D01*
X16553Y91988D01*
X16590Y92020D01*
X16632Y92043D01*
X16679Y92057D01*
X16731Y92061D01*
X16738Y92061D01*
X16732Y91988D01*
X16702Y91985D01*
X16675Y91978D01*
X16651Y91965D01*
X16628Y91947D01*
X16610Y91925D01*
X16596Y91899D01*
X16587Y91869D01*
X16582Y91837D01*
X16582Y91837D01*
X16876Y91837D01*
X16872Y91868D01*
X16865Y91895D01*
X16855Y91918D01*
X16843Y91936D01*
X16820Y91959D01*
X16794Y91975D01*
X16764Y91985D01*
X16732Y91988D01*
X16738Y92061D01*
X16781Y92057D01*
X16827Y92043D01*
X16868Y92021D01*
X16904Y91989D01*
X16933Y91950D01*
X16954Y91903D01*
X16966Y91849D01*
X16971Y91787D01*
X16970Y91783D01*
X16970Y91777D01*
X16970Y91771D01*
X16970Y91763D01*
X16577Y91763D01*
X16582Y91722D01*
X16592Y91687D01*
X16607Y91656D01*
X16626Y91630D01*
X16650Y91610D01*
X16676Y91596D01*
X16705Y91587D01*
X16736Y91584D01*
X16760Y91586D01*
X16782Y91591D01*
X16802Y91599D01*
X16820Y91610D01*
X16837Y91625D01*
X16851Y91643D01*
X16864Y91666D01*
X16875Y91692D01*
X16875Y91692D01*
X15407Y94318D02*
X15504Y94293D01*
X15485Y94238D01*
X15461Y94189D01*
X15431Y94147D01*
X15395Y94113D01*
X15353Y94085D01*
X15307Y94066D01*
X15257Y94054D01*
X15202Y94050D01*
X15146Y94053D01*
X15096Y94062D01*
X15051Y94077D01*
X15011Y94098D01*
X14977Y94125D01*
X14946Y94157D01*
X14920Y94194D01*
X14899Y94237D01*
X14882Y94283D01*
X14870Y94331D01*
X14863Y94381D01*
X14861Y94432D01*
X14863Y94487D01*
X14871Y94538D01*
X14885Y94586D01*
X14904Y94630D01*
X14928Y94670D01*
X14957Y94704D01*
X14990Y94734D01*
X15028Y94758D01*
X15069Y94778D01*
X15112Y94791D01*
X15157Y94800D01*
X15204Y94802D01*
X15256Y94799D01*
X15304Y94788D01*
X15348Y94771D01*
X15387Y94747D01*
X15422Y94716D01*
X15451Y94680D01*
X15474Y94638D01*
X15491Y94591D01*
X15396Y94568D01*
X15382Y94605D01*
X15365Y94637D01*
X15346Y94663D01*
X15323Y94684D01*
X15297Y94700D01*
X15269Y94711D01*
X15237Y94718D01*
X15202Y94720D01*
X15162Y94717D01*
X15125Y94710D01*
X15092Y94697D01*
X15062Y94680D01*
X15036Y94658D01*
X15014Y94633D01*
X14996Y94604D01*
X14983Y94572D01*
X14973Y94538D01*
X14966Y94503D01*
X14961Y94468D01*
X14960Y94432D01*
X14962Y94387D01*
X14967Y94345D01*
X14975Y94306D01*
X14987Y94270D01*
X15002Y94238D01*
X15021Y94210D01*
X15044Y94186D01*
X15071Y94167D01*
X15100Y94152D01*
X15130Y94141D01*
X15162Y94135D01*
X15194Y94133D01*
X15233Y94136D01*
X15269Y94144D01*
X15302Y94159D01*
X15331Y94179D01*
X15357Y94205D01*
X15378Y94237D01*
X15395Y94275D01*
X15407Y94318D01*
X15407Y94318D01*
X15830Y94063D02*
X15548Y94790D01*
X15652Y94790D01*
X15841Y94262D01*
X15852Y94230D01*
X15862Y94200D01*
X15871Y94171D01*
X15880Y94143D01*
X15888Y94172D01*
X15898Y94202D01*
X15908Y94232D01*
X15919Y94262D01*
X16115Y94790D01*
X16213Y94790D01*
X15929Y94063D01*
X15830Y94063D01*
X15830Y94063D01*
X15064Y96720D02*
X15064Y96920D01*
X14867Y96920D01*
X14867Y97003D01*
X15064Y97003D01*
X15064Y97201D01*
X15149Y97201D01*
X15149Y97003D01*
X15347Y97003D01*
X15347Y96920D01*
X15149Y96920D01*
X15149Y96720D01*
X15064Y96720D01*
X15064Y96720D01*
X15446Y96793D02*
X15539Y96801D01*
X15546Y96769D01*
X15557Y96741D01*
X15570Y96718D01*
X15588Y96698D01*
X15608Y96683D01*
X15630Y96672D01*
X15653Y96666D01*
X15679Y96664D01*
X15710Y96667D01*
X15739Y96676D01*
X15765Y96691D01*
X15788Y96712D01*
X15808Y96739D01*
X15822Y96769D01*
X15830Y96803D01*
X15833Y96841D01*
X15830Y96877D01*
X15822Y96910D01*
X15809Y96938D01*
X15790Y96962D01*
X15767Y96981D01*
X15741Y96995D01*
X15711Y97003D01*
X15678Y97006D01*
X15657Y97005D01*
X15637Y97001D01*
X15618Y96995D01*
X15600Y96986D01*
X15583Y96976D01*
X15569Y96964D01*
X15556Y96950D01*
X15545Y96936D01*
X15461Y96946D01*
X15532Y97320D01*
X15893Y97320D01*
X15893Y97235D01*
X15603Y97235D01*
X15564Y97039D01*
X15597Y97059D01*
X15631Y97073D01*
X15666Y97082D01*
X15701Y97085D01*
X15747Y97081D01*
X15789Y97068D01*
X15828Y97048D01*
X15862Y97019D01*
X15891Y96984D01*
X15911Y96943D01*
X15924Y96899D01*
X15928Y96849D01*
X15924Y96802D01*
X15913Y96757D01*
X15895Y96716D01*
X15870Y96679D01*
X15832Y96640D01*
X15787Y96612D01*
X15737Y96596D01*
X15679Y96590D01*
X15632Y96594D01*
X15589Y96604D01*
X15551Y96622D01*
X15517Y96646D01*
X15489Y96676D01*
X15468Y96710D01*
X15453Y96750D01*
X15446Y96793D01*
X15446Y96793D01*
X16255Y96603D02*
X15973Y97330D01*
X16077Y97330D01*
X16266Y96802D01*
X16277Y96770D01*
X16287Y96740D01*
X16296Y96711D01*
X16304Y96683D01*
X16313Y96712D01*
X16322Y96742D01*
X16333Y96772D01*
X16343Y96802D01*
X16540Y97330D01*
X16638Y97330D01*
X16353Y96603D01*
X16255Y96603D01*
X16255Y96603D01*
X15064Y99260D02*
X15064Y99460D01*
X14867Y99460D01*
X14867Y99543D01*
X15064Y99543D01*
X15064Y99741D01*
X15149Y99741D01*
X15149Y99543D01*
X15347Y99543D01*
X15347Y99460D01*
X15149Y99460D01*
X15149Y99260D01*
X15064Y99260D01*
X15064Y99260D01*
X15782Y99143D02*
X15693Y99143D01*
X15693Y99712D01*
X15675Y99696D01*
X15655Y99681D01*
X15633Y99666D01*
X15608Y99650D01*
X15582Y99636D01*
X15558Y99623D01*
X15535Y99613D01*
X15514Y99604D01*
X15514Y99690D01*
X15550Y99709D01*
X15584Y99729D01*
X15616Y99752D01*
X15645Y99776D01*
X15671Y99801D01*
X15693Y99825D01*
X15711Y99849D01*
X15724Y99873D01*
X15782Y99873D01*
X15782Y99143D01*
X15782Y99143D01*
X16480Y99228D02*
X16480Y99143D01*
X15999Y99143D01*
X15999Y99159D01*
X16001Y99174D01*
X16005Y99190D01*
X16010Y99205D01*
X16020Y99229D01*
X16033Y99253D01*
X16050Y99278D01*
X16068Y99301D01*
X16091Y99326D01*
X16118Y99353D01*
X16149Y99381D01*
X16185Y99412D01*
X16240Y99458D01*
X16285Y99499D01*
X16320Y99535D01*
X16345Y99566D01*
X16364Y99594D01*
X16377Y99621D01*
X16384Y99647D01*
X16387Y99673D01*
X16385Y99698D01*
X16378Y99722D01*
X16366Y99743D01*
X16349Y99763D01*
X16329Y99778D01*
X16305Y99790D01*
X16279Y99797D01*
X16250Y99799D01*
X16220Y99797D01*
X16192Y99789D01*
X16168Y99777D01*
X16147Y99760D01*
X16130Y99739D01*
X16118Y99714D01*
X16110Y99686D01*
X16108Y99653D01*
X16016Y99663D01*
X16024Y99711D01*
X16038Y99753D01*
X16059Y99789D01*
X16087Y99819D01*
X16120Y99843D01*
X16159Y99859D01*
X16203Y99870D01*
X16252Y99873D01*
X16302Y99869D01*
X16346Y99858D01*
X16385Y99840D01*
X16418Y99815D01*
X16445Y99784D01*
X16464Y99750D01*
X16475Y99712D01*
X16479Y99671D01*
X16478Y99649D01*
X16474Y99628D01*
X16469Y99606D01*
X16461Y99585D01*
X16451Y99564D01*
X16437Y99542D01*
X16421Y99519D01*
X16402Y99496D01*
X16378Y99471D01*
X16347Y99441D01*
X16309Y99407D01*
X16264Y99368D01*
X16227Y99337D01*
X16198Y99312D01*
X16176Y99292D01*
X16161Y99277D01*
X16150Y99265D01*
X16140Y99253D01*
X16131Y99241D01*
X16123Y99228D01*
X16480Y99228D01*
X16480Y99228D01*
X16820Y99143D02*
X16538Y99870D01*
X16642Y99870D01*
X16831Y99342D01*
X16842Y99310D01*
X16852Y99280D01*
X16861Y99251D01*
X16869Y99223D01*
X16878Y99252D01*
X16888Y99282D01*
X16898Y99312D01*
X16909Y99342D01*
X17105Y99870D01*
X17203Y99870D01*
X16918Y99143D01*
X16820Y99143D01*
X16820Y99143D01*
X14842Y109521D02*
X14842Y109611D01*
X15117Y109611D01*
X15117Y109521D01*
X14842Y109521D01*
X14842Y109521D01*
X15527Y109303D02*
X15438Y109303D01*
X15438Y109872D01*
X15420Y109856D01*
X15400Y109841D01*
X15378Y109826D01*
X15353Y109810D01*
X15327Y109796D01*
X15303Y109783D01*
X15280Y109773D01*
X15259Y109764D01*
X15259Y109850D01*
X15295Y109869D01*
X15329Y109889D01*
X15361Y109912D01*
X15390Y109936D01*
X15416Y109961D01*
X15438Y109985D01*
X15456Y110009D01*
X15469Y110033D01*
X15527Y110033D01*
X15527Y109303D01*
X15527Y109303D01*
X16225Y109388D02*
X16225Y109303D01*
X15744Y109303D01*
X15744Y109319D01*
X15746Y109334D01*
X15750Y109350D01*
X15755Y109365D01*
X15765Y109389D01*
X15778Y109413D01*
X15795Y109438D01*
X15813Y109461D01*
X15836Y109486D01*
X15863Y109513D01*
X15894Y109541D01*
X15930Y109572D01*
X15985Y109618D01*
X16030Y109659D01*
X16065Y109695D01*
X16090Y109726D01*
X16109Y109754D01*
X16122Y109781D01*
X16129Y109807D01*
X16132Y109833D01*
X16130Y109858D01*
X16123Y109882D01*
X16111Y109903D01*
X16094Y109923D01*
X16074Y109938D01*
X16050Y109950D01*
X16024Y109957D01*
X15995Y109959D01*
X15965Y109957D01*
X15937Y109949D01*
X15913Y109937D01*
X15892Y109920D01*
X15875Y109899D01*
X15863Y109874D01*
X15855Y109846D01*
X15853Y109813D01*
X15761Y109823D01*
X15769Y109871D01*
X15783Y109913D01*
X15804Y109949D01*
X15832Y109979D01*
X15865Y110003D01*
X15904Y110019D01*
X15948Y110030D01*
X15997Y110033D01*
X16047Y110029D01*
X16091Y110018D01*
X16130Y110000D01*
X16163Y109975D01*
X16190Y109944D01*
X16209Y109910D01*
X16220Y109872D01*
X16224Y109831D01*
X16223Y109809D01*
X16219Y109788D01*
X16214Y109766D01*
X16206Y109745D01*
X16196Y109724D01*
X16182Y109702D01*
X16166Y109679D01*
X16147Y109656D01*
X16123Y109631D01*
X16092Y109601D01*
X16054Y109567D01*
X16009Y109528D01*
X15972Y109497D01*
X15943Y109472D01*
X15921Y109452D01*
X15906Y109437D01*
X15895Y109425D01*
X15885Y109413D01*
X15876Y109401D01*
X15868Y109388D01*
X16225Y109388D01*
X16225Y109388D01*
X16565Y109303D02*
X16283Y110030D01*
X16387Y110030D01*
X16576Y109502D01*
X16587Y109470D01*
X16597Y109440D01*
X16606Y109411D01*
X16614Y109383D01*
X16623Y109412D01*
X16633Y109442D01*
X16643Y109472D01*
X16653Y109502D01*
X16850Y110030D01*
X16948Y110030D01*
X16663Y109303D01*
X16565Y109303D01*
X16565Y109303D01*
X15229Y107048D02*
X15229Y107133D01*
X15537Y107134D01*
X15537Y106864D01*
X15501Y106837D01*
X15465Y106814D01*
X15428Y106795D01*
X15390Y106779D01*
X15352Y106766D01*
X15314Y106757D01*
X15275Y106752D01*
X15236Y106750D01*
X15183Y106753D01*
X15133Y106762D01*
X15086Y106776D01*
X15041Y106796D01*
X15000Y106822D01*
X14964Y106852D01*
X14934Y106888D01*
X14909Y106929D01*
X14889Y106974D01*
X14875Y107021D01*
X14867Y107071D01*
X14864Y107123D01*
X14867Y107175D01*
X14875Y107225D01*
X14889Y107274D01*
X14908Y107321D01*
X14933Y107364D01*
X14963Y107401D01*
X14997Y107432D01*
X15036Y107458D01*
X15079Y107477D01*
X15126Y107491D01*
X15175Y107500D01*
X15228Y107502D01*
X15267Y107501D01*
X15303Y107496D01*
X15338Y107488D01*
X15371Y107477D01*
X15401Y107463D01*
X15428Y107446D01*
X15451Y107427D01*
X15471Y107406D01*
X15488Y107381D01*
X15503Y107353D01*
X15515Y107322D01*
X15526Y107287D01*
X15439Y107263D01*
X15430Y107289D01*
X15421Y107312D01*
X15410Y107333D01*
X15398Y107350D01*
X15385Y107365D01*
X15369Y107379D01*
X15350Y107391D01*
X15329Y107401D01*
X15306Y107409D01*
X15281Y107415D01*
X15256Y107419D01*
X15229Y107420D01*
X15197Y107419D01*
X15167Y107415D01*
X15140Y107409D01*
X15115Y107400D01*
X15092Y107389D01*
X15071Y107377D01*
X15053Y107363D01*
X15037Y107347D01*
X15023Y107330D01*
X15011Y107313D01*
X15000Y107294D01*
X14991Y107275D01*
X14979Y107241D01*
X14970Y107205D01*
X14965Y107168D01*
X14963Y107129D01*
X14965Y107082D01*
X14972Y107039D01*
X14982Y107001D01*
X14997Y106966D01*
X15015Y106935D01*
X15038Y106909D01*
X15064Y106887D01*
X15094Y106869D01*
X15127Y106855D01*
X15160Y106845D01*
X15195Y106839D01*
X15230Y106837D01*
X15261Y106839D01*
X15292Y106843D01*
X15322Y106851D01*
X15352Y106861D01*
X15380Y106873D01*
X15405Y106886D01*
X15425Y106899D01*
X15443Y106912D01*
X15443Y107048D01*
X15229Y107048D01*
X15229Y107048D01*
X15678Y106763D02*
X15678Y107490D01*
X15776Y107490D01*
X16158Y106919D01*
X16158Y107490D01*
X16251Y107490D01*
X16251Y106763D01*
X16152Y106763D01*
X15770Y107334D01*
X15770Y106763D01*
X15678Y106763D01*
X15678Y106763D01*
X16412Y106763D02*
X16412Y107490D01*
X16661Y107490D01*
X16661Y107404D01*
X16509Y107404D01*
X16509Y106848D01*
X16509Y106848D01*
X16664Y106848D01*
X16698Y106849D01*
X16728Y106852D01*
X16754Y106856D01*
X16777Y106862D01*
X16796Y106869D01*
X16814Y106878D01*
X16829Y106888D01*
X16842Y106900D01*
X16858Y106918D01*
X16872Y106940D01*
X16885Y106964D01*
X16895Y106992D01*
X16904Y107022D01*
X16910Y107056D01*
X16913Y107092D01*
X16914Y107132D01*
X16912Y107186D01*
X16905Y107233D01*
X16893Y107273D01*
X16877Y107307D01*
X16857Y107335D01*
X16836Y107358D01*
X16812Y107376D01*
X16786Y107389D01*
X16764Y107396D01*
X16735Y107400D01*
X16701Y107403D01*
X16661Y107404D01*
X16661Y107490D01*
X16663Y107490D01*
X16703Y107489D01*
X16738Y107487D01*
X16768Y107484D01*
X16792Y107480D01*
X16823Y107471D01*
X16850Y107459D01*
X16876Y107445D01*
X16899Y107427D01*
X16926Y107401D01*
X16949Y107372D01*
X16969Y107339D01*
X16985Y107303D01*
X16998Y107264D01*
X17007Y107222D01*
X17012Y107178D01*
X17014Y107130D01*
X17012Y107090D01*
X17009Y107052D01*
X17003Y107017D01*
X16994Y106983D01*
X16984Y106953D01*
X16972Y106925D01*
X16959Y106900D01*
X16945Y106878D01*
X16929Y106858D01*
X16913Y106840D01*
X16896Y106825D01*
X16878Y106812D01*
X16860Y106800D01*
X16839Y106790D01*
X16816Y106782D01*
X16792Y106775D01*
X16765Y106770D01*
X16737Y106766D01*
X16707Y106763D01*
X16675Y106763D01*
X16412Y106763D01*
X16412Y106763D01*
X15229Y104508D02*
X15229Y104593D01*
X15537Y104594D01*
X15537Y104324D01*
X15501Y104297D01*
X15465Y104274D01*
X15428Y104255D01*
X15390Y104239D01*
X15352Y104226D01*
X15314Y104217D01*
X15275Y104212D01*
X15236Y104210D01*
X15183Y104213D01*
X15133Y104222D01*
X15086Y104236D01*
X15041Y104256D01*
X15000Y104282D01*
X14964Y104312D01*
X14934Y104348D01*
X14909Y104389D01*
X14889Y104434D01*
X14875Y104481D01*
X14867Y104531D01*
X14864Y104583D01*
X14867Y104635D01*
X14875Y104685D01*
X14889Y104734D01*
X14908Y104781D01*
X14933Y104824D01*
X14963Y104861D01*
X14997Y104892D01*
X15036Y104918D01*
X15079Y104937D01*
X15126Y104951D01*
X15175Y104960D01*
X15228Y104962D01*
X15267Y104961D01*
X15303Y104956D01*
X15338Y104948D01*
X15371Y104937D01*
X15401Y104923D01*
X15428Y104906D01*
X15451Y104887D01*
X15471Y104866D01*
X15488Y104841D01*
X15503Y104813D01*
X15515Y104782D01*
X15526Y104747D01*
X15439Y104723D01*
X15430Y104749D01*
X15421Y104772D01*
X15410Y104793D01*
X15398Y104810D01*
X15385Y104825D01*
X15369Y104839D01*
X15350Y104851D01*
X15329Y104861D01*
X15306Y104869D01*
X15281Y104875D01*
X15256Y104879D01*
X15229Y104880D01*
X15197Y104879D01*
X15167Y104875D01*
X15140Y104869D01*
X15115Y104860D01*
X15092Y104849D01*
X15071Y104837D01*
X15053Y104823D01*
X15037Y104807D01*
X15023Y104790D01*
X15011Y104773D01*
X15000Y104754D01*
X14991Y104735D01*
X14979Y104701D01*
X14970Y104665D01*
X14965Y104628D01*
X14963Y104589D01*
X14965Y104542D01*
X14972Y104499D01*
X14982Y104461D01*
X14997Y104426D01*
X15015Y104395D01*
X15038Y104369D01*
X15064Y104347D01*
X15094Y104329D01*
X15127Y104315D01*
X15160Y104305D01*
X15195Y104299D01*
X15230Y104297D01*
X15261Y104299D01*
X15292Y104303D01*
X15322Y104311D01*
X15352Y104321D01*
X15380Y104333D01*
X15405Y104346D01*
X15425Y104359D01*
X15443Y104372D01*
X15443Y104508D01*
X15229Y104508D01*
X15229Y104508D01*
X15678Y104223D02*
X15678Y104950D01*
X15776Y104950D01*
X16158Y104379D01*
X16158Y104950D01*
X16251Y104950D01*
X16251Y104223D01*
X16152Y104223D01*
X15770Y104794D01*
X15770Y104223D01*
X15678Y104223D01*
X15678Y104223D01*
X16412Y104223D02*
X16412Y104950D01*
X16661Y104950D01*
X16661Y104864D01*
X16509Y104864D01*
X16509Y104308D01*
X16509Y104308D01*
X16664Y104308D01*
X16698Y104309D01*
X16728Y104312D01*
X16754Y104316D01*
X16777Y104322D01*
X16796Y104329D01*
X16814Y104338D01*
X16829Y104348D01*
X16842Y104360D01*
X16858Y104378D01*
X16872Y104400D01*
X16885Y104424D01*
X16895Y104452D01*
X16904Y104482D01*
X16910Y104516D01*
X16913Y104552D01*
X16914Y104592D01*
X16912Y104646D01*
X16905Y104693D01*
X16893Y104733D01*
X16877Y104767D01*
X16857Y104795D01*
X16836Y104818D01*
X16812Y104836D01*
X16786Y104849D01*
X16764Y104856D01*
X16735Y104860D01*
X16701Y104863D01*
X16661Y104864D01*
X16661Y104950D01*
X16663Y104950D01*
X16703Y104949D01*
X16738Y104947D01*
X16768Y104944D01*
X16792Y104940D01*
X16823Y104931D01*
X16850Y104919D01*
X16876Y104905D01*
X16899Y104887D01*
X16926Y104861D01*
X16949Y104832D01*
X16969Y104799D01*
X16985Y104763D01*
X16998Y104724D01*
X17007Y104682D01*
X17012Y104638D01*
X17014Y104590D01*
X17012Y104550D01*
X17009Y104512D01*
X17003Y104477D01*
X16994Y104443D01*
X16984Y104413D01*
X16972Y104385D01*
X16959Y104360D01*
X16945Y104338D01*
X16929Y104318D01*
X16913Y104300D01*
X16896Y104285D01*
X16878Y104272D01*
X16860Y104260D01*
X16839Y104250D01*
X16816Y104242D01*
X16792Y104235D01*
X16765Y104230D01*
X16737Y104226D01*
X16707Y104223D01*
X16675Y104223D01*
X16412Y104223D01*
X16412Y104223D01*
X15229Y101968D02*
X15229Y102053D01*
X15537Y102054D01*
X15537Y101784D01*
X15501Y101757D01*
X15465Y101734D01*
X15428Y101715D01*
X15390Y101699D01*
X15352Y101686D01*
X15314Y101677D01*
X15275Y101672D01*
X15236Y101670D01*
X15183Y101673D01*
X15133Y101682D01*
X15086Y101696D01*
X15041Y101716D01*
X15000Y101742D01*
X14964Y101772D01*
X14934Y101808D01*
X14909Y101849D01*
X14889Y101894D01*
X14875Y101941D01*
X14867Y101991D01*
X14864Y102043D01*
X14867Y102095D01*
X14875Y102145D01*
X14889Y102194D01*
X14908Y102241D01*
X14933Y102284D01*
X14963Y102321D01*
X14997Y102352D01*
X15036Y102378D01*
X15079Y102397D01*
X15126Y102411D01*
X15175Y102420D01*
X15228Y102422D01*
X15267Y102421D01*
X15303Y102416D01*
X15338Y102408D01*
X15371Y102397D01*
X15401Y102383D01*
X15428Y102366D01*
X15451Y102347D01*
X15471Y102326D01*
X15488Y102301D01*
X15503Y102273D01*
X15515Y102242D01*
X15526Y102207D01*
X15439Y102183D01*
X15430Y102209D01*
X15421Y102232D01*
X15410Y102253D01*
X15398Y102270D01*
X15385Y102285D01*
X15369Y102299D01*
X15350Y102311D01*
X15329Y102321D01*
X15306Y102329D01*
X15281Y102335D01*
X15256Y102339D01*
X15229Y102340D01*
X15197Y102339D01*
X15167Y102335D01*
X15140Y102329D01*
X15115Y102320D01*
X15092Y102309D01*
X15071Y102297D01*
X15053Y102283D01*
X15037Y102267D01*
X15023Y102250D01*
X15011Y102233D01*
X15000Y102214D01*
X14991Y102195D01*
X14979Y102161D01*
X14970Y102125D01*
X14965Y102088D01*
X14963Y102049D01*
X14965Y102002D01*
X14972Y101959D01*
X14982Y101921D01*
X14997Y101886D01*
X15015Y101855D01*
X15038Y101829D01*
X15064Y101807D01*
X15094Y101789D01*
X15127Y101775D01*
X15160Y101765D01*
X15195Y101759D01*
X15230Y101757D01*
X15261Y101759D01*
X15292Y101763D01*
X15322Y101771D01*
X15352Y101781D01*
X15380Y101793D01*
X15405Y101806D01*
X15425Y101819D01*
X15443Y101832D01*
X15443Y101968D01*
X15229Y101968D01*
X15229Y101968D01*
X15678Y101683D02*
X15678Y102410D01*
X15776Y102410D01*
X16158Y101839D01*
X16158Y102410D01*
X16251Y102410D01*
X16251Y101683D01*
X16152Y101683D01*
X15770Y102254D01*
X15770Y101683D01*
X15678Y101683D01*
X15678Y101683D01*
X16412Y101683D02*
X16412Y102410D01*
X16661Y102410D01*
X16661Y102324D01*
X16509Y102324D01*
X16509Y101768D01*
X16509Y101768D01*
X16664Y101768D01*
X16698Y101769D01*
X16728Y101772D01*
X16754Y101776D01*
X16777Y101782D01*
X16796Y101789D01*
X16814Y101798D01*
X16829Y101808D01*
X16842Y101820D01*
X16858Y101838D01*
X16872Y101860D01*
X16885Y101884D01*
X16895Y101912D01*
X16904Y101942D01*
X16910Y101976D01*
X16913Y102012D01*
X16914Y102052D01*
X16912Y102106D01*
X16905Y102153D01*
X16893Y102193D01*
X16877Y102227D01*
X16857Y102255D01*
X16836Y102278D01*
X16812Y102296D01*
X16786Y102309D01*
X16764Y102316D01*
X16735Y102320D01*
X16701Y102323D01*
X16661Y102324D01*
X16661Y102410D01*
X16663Y102410D01*
X16703Y102409D01*
X16738Y102407D01*
X16768Y102404D01*
X16792Y102400D01*
X16823Y102391D01*
X16850Y102379D01*
X16876Y102365D01*
X16899Y102347D01*
X16926Y102321D01*
X16949Y102292D01*
X16969Y102259D01*
X16985Y102223D01*
X16998Y102184D01*
X17007Y102142D01*
X17012Y102098D01*
X17014Y102050D01*
X17012Y102010D01*
X17009Y101972D01*
X17003Y101937D01*
X16994Y101903D01*
X16984Y101873D01*
X16972Y101845D01*
X16959Y101820D01*
X16945Y101798D01*
X16929Y101778D01*
X16913Y101760D01*
X16896Y101745D01*
X16878Y101732D01*
X16860Y101720D01*
X16839Y101710D01*
X16816Y101702D01*
X16792Y101695D01*
X16765Y101690D01*
X16737Y101686D01*
X16707Y101683D01*
X16675Y101683D01*
X16412Y101683D01*
X16412Y101683D01*
X3406Y91808D02*
X3406Y91893D01*
X3714Y91894D01*
X3714Y91624D01*
X3678Y91597D01*
X3642Y91574D01*
X3605Y91555D01*
X3568Y91539D01*
X3530Y91526D01*
X3491Y91517D01*
X3452Y91512D01*
X3413Y91510D01*
X3361Y91513D01*
X3311Y91522D01*
X3263Y91536D01*
X3218Y91556D01*
X3177Y91582D01*
X3141Y91612D01*
X3111Y91648D01*
X3086Y91689D01*
X3067Y91734D01*
X3053Y91781D01*
X3044Y91831D01*
X3041Y91883D01*
X3044Y91935D01*
X3052Y91985D01*
X3066Y92034D01*
X3086Y92081D01*
X3110Y92124D01*
X3140Y92161D01*
X3174Y92192D01*
X3214Y92218D01*
X3257Y92237D01*
X3303Y92251D01*
X3353Y92260D01*
X3406Y92262D01*
X3444Y92261D01*
X3481Y92256D01*
X3515Y92248D01*
X3548Y92237D01*
X3578Y92223D01*
X3605Y92206D01*
X3628Y92187D01*
X3648Y92166D01*
X3665Y92141D01*
X3680Y92113D01*
X3693Y92082D01*
X3703Y92047D01*
X3616Y92023D01*
X3608Y92049D01*
X3598Y92072D01*
X3587Y92093D01*
X3576Y92110D01*
X3562Y92125D01*
X3546Y92139D01*
X3527Y92151D01*
X3506Y92161D01*
X3483Y92169D01*
X3459Y92175D01*
X3433Y92179D01*
X3406Y92180D01*
X3374Y92179D01*
X3345Y92175D01*
X3317Y92169D01*
X3292Y92160D01*
X3269Y92149D01*
X3248Y92137D01*
X3230Y92123D01*
X3214Y92107D01*
X3200Y92090D01*
X3188Y92073D01*
X3177Y92054D01*
X3168Y92035D01*
X3156Y92001D01*
X3148Y91965D01*
X3142Y91928D01*
X3141Y91889D01*
X3143Y91842D01*
X3149Y91799D01*
X3159Y91761D01*
X3174Y91726D01*
X3193Y91695D01*
X3215Y91669D01*
X3241Y91647D01*
X3272Y91629D01*
X3304Y91615D01*
X3338Y91605D01*
X3372Y91599D01*
X3408Y91597D01*
X3439Y91599D01*
X3469Y91603D01*
X3500Y91611D01*
X3530Y91621D01*
X3558Y91633D01*
X3582Y91646D01*
X3603Y91659D01*
X3620Y91672D01*
X3620Y91808D01*
X3406Y91808D01*
X3406Y91808D01*
X4188Y91588D02*
X4164Y91568D01*
X4160Y91566D01*
X4126Y91616D01*
X4142Y91630D01*
X4156Y91646D01*
X4167Y91665D01*
X4173Y91682D01*
X4177Y91703D01*
X4180Y91727D01*
X4181Y91754D01*
X4181Y91787D01*
X4181Y91787D01*
X4154Y91778D01*
X4120Y91769D01*
X4081Y91761D01*
X4035Y91753D01*
X4010Y91749D01*
X3988Y91745D01*
X3971Y91740D01*
X3957Y91735D01*
X3946Y91730D01*
X3937Y91723D01*
X3929Y91715D01*
X3922Y91706D01*
X3917Y91697D01*
X3913Y91686D01*
X3910Y91675D01*
X3910Y91664D01*
X3911Y91647D01*
X3916Y91631D01*
X3925Y91617D01*
X3937Y91605D01*
X3952Y91594D01*
X3970Y91587D01*
X3991Y91582D01*
X4016Y91581D01*
X4041Y91582D01*
X4064Y91586D01*
X4087Y91593D01*
X4108Y91603D01*
X4126Y91616D01*
X4160Y91566D01*
X4140Y91552D01*
X4116Y91538D01*
X4093Y91528D01*
X4070Y91521D01*
X4045Y91515D01*
X4020Y91512D01*
X3994Y91511D01*
X3954Y91513D01*
X3918Y91521D01*
X3887Y91535D01*
X3861Y91553D01*
X3841Y91576D01*
X3826Y91601D01*
X3817Y91630D01*
X3814Y91662D01*
X3815Y91681D01*
X3819Y91699D01*
X3824Y91716D01*
X3832Y91732D01*
X3841Y91747D01*
X3852Y91761D01*
X3864Y91773D01*
X3878Y91784D01*
X3893Y91793D01*
X3908Y91801D01*
X3925Y91807D01*
X3942Y91813D01*
X3957Y91816D01*
X3975Y91820D01*
X3997Y91823D01*
X4022Y91826D01*
X4072Y91833D01*
X4116Y91840D01*
X4152Y91848D01*
X4181Y91857D01*
X4181Y91865D01*
X4181Y91872D01*
X4181Y91877D01*
X4181Y91880D01*
X4180Y91906D01*
X4175Y91927D01*
X4167Y91944D01*
X4156Y91957D01*
X4137Y91970D01*
X4114Y91980D01*
X4086Y91986D01*
X4054Y91988D01*
X4025Y91986D01*
X4000Y91982D01*
X3978Y91975D01*
X3961Y91965D01*
X3947Y91952D01*
X3935Y91935D01*
X3925Y91913D01*
X3917Y91887D01*
X3830Y91899D01*
X3837Y91926D01*
X3845Y91950D01*
X3856Y91971D01*
X3869Y91990D01*
X3884Y92006D01*
X3902Y92020D01*
X3923Y92033D01*
X3948Y92043D01*
X3975Y92051D01*
X4003Y92057D01*
X4034Y92060D01*
X4067Y92061D01*
X4099Y92060D01*
X4128Y92057D01*
X4154Y92052D01*
X4177Y92046D01*
X4197Y92037D01*
X4214Y92028D01*
X4228Y92017D01*
X4239Y92006D01*
X4248Y91993D01*
X4256Y91978D01*
X4262Y91962D01*
X4267Y91945D01*
X4269Y91931D01*
X4270Y91913D01*
X4271Y91890D01*
X4271Y91862D01*
X4271Y91743D01*
X4272Y91687D01*
X4273Y91642D01*
X4274Y91608D01*
X4277Y91586D01*
X4280Y91570D01*
X4285Y91554D01*
X4292Y91538D01*
X4300Y91523D01*
X4206Y91523D01*
X4200Y91537D01*
X4195Y91553D01*
X4191Y91570D01*
X4188Y91588D01*
X4188Y91588D01*
X4605Y91603D02*
X4618Y91524D01*
X4599Y91520D01*
X4582Y91518D01*
X4565Y91516D01*
X4550Y91516D01*
X4527Y91517D01*
X4507Y91520D01*
X4489Y91524D01*
X4475Y91531D01*
X4462Y91539D01*
X4452Y91549D01*
X4443Y91560D01*
X4437Y91572D01*
X4432Y91588D01*
X4429Y91610D01*
X4427Y91640D01*
X4426Y91677D01*
X4426Y91980D01*
X4361Y91980D01*
X4361Y92050D01*
X4426Y92050D01*
X4426Y92180D01*
X4515Y92234D01*
X4515Y92050D01*
X4605Y92050D01*
X4605Y91980D01*
X4515Y91980D01*
X4515Y91672D01*
X4515Y91655D01*
X4516Y91641D01*
X4517Y91630D01*
X4520Y91623D01*
X4522Y91618D01*
X4526Y91613D01*
X4530Y91609D01*
X4535Y91606D01*
X4541Y91603D01*
X4548Y91601D01*
X4556Y91599D01*
X4565Y91599D01*
X4573Y91599D01*
X4583Y91600D01*
X4593Y91601D01*
X4605Y91603D01*
X4605Y91603D01*
X5053Y91692D02*
X5145Y91681D01*
X5132Y91643D01*
X5114Y91609D01*
X5091Y91580D01*
X5064Y91555D01*
X5032Y91536D01*
X4997Y91522D01*
X4957Y91514D01*
X4913Y91511D01*
X4858Y91515D01*
X4810Y91529D01*
X4767Y91551D01*
X4730Y91582D01*
X4700Y91621D01*
X4679Y91667D01*
X4666Y91721D01*
X4662Y91782D01*
X4666Y91844D01*
X4679Y91900D01*
X4701Y91948D01*
X4731Y91988D01*
X4767Y92020D01*
X4809Y92043D01*
X4856Y92057D01*
X4908Y92061D01*
X4916Y92061D01*
X4909Y91988D01*
X4880Y91985D01*
X4853Y91978D01*
X4828Y91965D01*
X4806Y91947D01*
X4787Y91925D01*
X4773Y91899D01*
X4764Y91869D01*
X4759Y91837D01*
X4759Y91837D01*
X5054Y91837D01*
X5049Y91868D01*
X5042Y91895D01*
X5032Y91918D01*
X5020Y91936D01*
X4997Y91959D01*
X4971Y91975D01*
X4942Y91985D01*
X4909Y91988D01*
X4916Y92061D01*
X4959Y92057D01*
X5004Y92043D01*
X5045Y92021D01*
X5081Y91989D01*
X5110Y91950D01*
X5131Y91903D01*
X5144Y91849D01*
X5148Y91787D01*
X5148Y91783D01*
X5148Y91777D01*
X5148Y91771D01*
X5147Y91763D01*
X4754Y91763D01*
X4759Y91722D01*
X4769Y91687D01*
X4784Y91656D01*
X4804Y91630D01*
X4827Y91610D01*
X4853Y91596D01*
X4882Y91587D01*
X4914Y91584D01*
X4937Y91586D01*
X4959Y91591D01*
X4979Y91599D01*
X4998Y91610D01*
X5014Y91625D01*
X5029Y91643D01*
X5042Y91666D01*
X5053Y91692D01*
X5053Y91692D01*
X4376Y94318D02*
X4472Y94293D01*
X4454Y94238D01*
X4430Y94189D01*
X4400Y94147D01*
X4363Y94113D01*
X4322Y94085D01*
X4276Y94066D01*
X4226Y94054D01*
X4171Y94050D01*
X4115Y94053D01*
X4064Y94062D01*
X4019Y94077D01*
X3980Y94098D01*
X3945Y94125D01*
X3915Y94157D01*
X3889Y94194D01*
X3868Y94237D01*
X3851Y94283D01*
X3839Y94331D01*
X3832Y94381D01*
X3829Y94432D01*
X3832Y94487D01*
X3840Y94538D01*
X3854Y94586D01*
X3873Y94630D01*
X3897Y94670D01*
X3925Y94704D01*
X3958Y94734D01*
X3996Y94758D01*
X4037Y94778D01*
X4080Y94791D01*
X4125Y94800D01*
X4172Y94802D01*
X4225Y94799D01*
X4273Y94788D01*
X4317Y94771D01*
X4356Y94747D01*
X4390Y94716D01*
X4419Y94680D01*
X4442Y94638D01*
X4460Y94591D01*
X4365Y94568D01*
X4351Y94605D01*
X4334Y94637D01*
X4314Y94663D01*
X4292Y94684D01*
X4266Y94700D01*
X4237Y94711D01*
X4205Y94718D01*
X4171Y94720D01*
X4130Y94717D01*
X4094Y94710D01*
X4060Y94697D01*
X4030Y94680D01*
X4004Y94658D01*
X3982Y94633D01*
X3965Y94604D01*
X3951Y94572D01*
X3941Y94538D01*
X3934Y94503D01*
X3930Y94468D01*
X3928Y94432D01*
X3930Y94387D01*
X3935Y94345D01*
X3944Y94306D01*
X3955Y94270D01*
X3971Y94238D01*
X3990Y94210D01*
X4013Y94186D01*
X4040Y94167D01*
X4069Y94152D01*
X4099Y94141D01*
X4130Y94135D01*
X4163Y94133D01*
X4202Y94136D01*
X4238Y94144D01*
X4270Y94159D01*
X4300Y94179D01*
X4326Y94205D01*
X4347Y94237D01*
X4364Y94275D01*
X4376Y94318D01*
X4376Y94318D01*
X4799Y94063D02*
X4517Y94790D01*
X4621Y94790D01*
X4810Y94262D01*
X4821Y94230D01*
X4831Y94200D01*
X4840Y94171D01*
X4848Y94143D01*
X4857Y94172D01*
X4866Y94202D01*
X4877Y94232D01*
X4887Y94262D01*
X5084Y94790D01*
X5182Y94790D01*
X4897Y94063D01*
X4799Y94063D01*
X4799Y94063D01*
X3043Y99006D02*
X3043Y99206D01*
X2845Y99206D01*
X2845Y99289D01*
X3043Y99289D01*
X3043Y99487D01*
X3128Y99487D01*
X3128Y99289D01*
X3326Y99289D01*
X3326Y99206D01*
X3128Y99206D01*
X3128Y99006D01*
X3043Y99006D01*
X3043Y99006D01*
X3761Y98889D02*
X3671Y98889D01*
X3671Y99458D01*
X3654Y99442D01*
X3634Y99427D01*
X3612Y99412D01*
X3587Y99396D01*
X3561Y99382D01*
X3537Y99369D01*
X3514Y99359D01*
X3493Y99350D01*
X3493Y99436D01*
X3529Y99455D01*
X3563Y99475D01*
X3595Y99498D01*
X3624Y99522D01*
X3650Y99547D01*
X3672Y99571D01*
X3689Y99595D01*
X3703Y99619D01*
X3761Y99619D01*
X3761Y98889D01*
X3761Y98889D01*
X4459Y98974D02*
X4459Y98889D01*
X3978Y98889D01*
X3978Y98905D01*
X3980Y98920D01*
X3984Y98936D01*
X3988Y98951D01*
X3999Y98975D01*
X4012Y98999D01*
X4028Y99024D01*
X4047Y99047D01*
X4070Y99072D01*
X4097Y99099D01*
X4128Y99127D01*
X4164Y99158D01*
X4219Y99204D01*
X4263Y99245D01*
X4299Y99281D01*
X4324Y99312D01*
X4343Y99340D01*
X4356Y99367D01*
X4363Y99393D01*
X4366Y99419D01*
X4364Y99444D01*
X4356Y99468D01*
X4345Y99489D01*
X4328Y99509D01*
X4308Y99524D01*
X4284Y99536D01*
X4258Y99543D01*
X4229Y99545D01*
X4198Y99543D01*
X4171Y99535D01*
X4147Y99523D01*
X4126Y99506D01*
X4109Y99485D01*
X4097Y99460D01*
X4089Y99432D01*
X4087Y99399D01*
X3995Y99409D01*
X4003Y99457D01*
X4017Y99499D01*
X4038Y99535D01*
X4066Y99565D01*
X4099Y99589D01*
X4138Y99605D01*
X4182Y99616D01*
X4231Y99619D01*
X4281Y99615D01*
X4325Y99604D01*
X4363Y99586D01*
X4397Y99561D01*
X4423Y99530D01*
X4442Y99496D01*
X4454Y99458D01*
X4458Y99417D01*
X4457Y99395D01*
X4453Y99374D01*
X4448Y99352D01*
X4440Y99331D01*
X4429Y99310D01*
X4416Y99288D01*
X4400Y99265D01*
X4381Y99242D01*
X4356Y99217D01*
X4325Y99187D01*
X4288Y99153D01*
X4243Y99114D01*
X4206Y99083D01*
X4177Y99058D01*
X4155Y99038D01*
X4140Y99023D01*
X4129Y99011D01*
X4119Y98999D01*
X4110Y98987D01*
X4102Y98974D01*
X4459Y98974D01*
X4459Y98974D01*
X4799Y98889D02*
X4517Y99616D01*
X4621Y99616D01*
X4810Y99088D01*
X4821Y99056D01*
X4831Y99026D01*
X4840Y98997D01*
X4848Y98969D01*
X4857Y98998D01*
X4866Y99028D01*
X4877Y99058D01*
X4887Y99088D01*
X5084Y99616D01*
X5182Y99616D01*
X4897Y98889D01*
X4799Y98889D01*
X4799Y98889D01*
X3608Y96720D02*
X3608Y96920D01*
X3410Y96920D01*
X3410Y97003D01*
X3608Y97003D01*
X3608Y97201D01*
X3693Y97201D01*
X3693Y97003D01*
X3891Y97003D01*
X3891Y96920D01*
X3693Y96920D01*
X3693Y96720D01*
X3608Y96720D01*
X3608Y96720D01*
X3989Y96793D02*
X4083Y96801D01*
X4090Y96769D01*
X4100Y96741D01*
X4114Y96718D01*
X4132Y96698D01*
X4152Y96683D01*
X4173Y96672D01*
X4197Y96666D01*
X4223Y96664D01*
X4254Y96667D01*
X4283Y96676D01*
X4309Y96691D01*
X4332Y96712D01*
X4352Y96739D01*
X4366Y96769D01*
X4374Y96803D01*
X4377Y96841D01*
X4374Y96877D01*
X4366Y96910D01*
X4353Y96938D01*
X4334Y96962D01*
X4311Y96981D01*
X4284Y96995D01*
X4255Y97003D01*
X4222Y97006D01*
X4201Y97005D01*
X4181Y97001D01*
X4162Y96995D01*
X4144Y96986D01*
X4127Y96976D01*
X4113Y96964D01*
X4100Y96950D01*
X4089Y96936D01*
X4005Y96946D01*
X4076Y97320D01*
X4437Y97320D01*
X4437Y97235D01*
X4147Y97235D01*
X4108Y97039D01*
X4141Y97059D01*
X4175Y97073D01*
X4210Y97082D01*
X4245Y97085D01*
X4291Y97081D01*
X4333Y97068D01*
X4372Y97048D01*
X4406Y97019D01*
X4435Y96984D01*
X4455Y96943D01*
X4468Y96899D01*
X4472Y96849D01*
X4468Y96802D01*
X4457Y96757D01*
X4439Y96716D01*
X4414Y96679D01*
X4376Y96640D01*
X4331Y96612D01*
X4280Y96596D01*
X4223Y96590D01*
X4176Y96594D01*
X4133Y96604D01*
X4095Y96622D01*
X4061Y96646D01*
X4033Y96676D01*
X4012Y96710D01*
X3997Y96750D01*
X3989Y96793D01*
X3989Y96793D01*
X4799Y96603D02*
X4517Y97330D01*
X4621Y97330D01*
X4810Y96802D01*
X4821Y96770D01*
X4831Y96740D01*
X4840Y96711D01*
X4848Y96683D01*
X4857Y96712D01*
X4866Y96742D01*
X4877Y96772D01*
X4887Y96802D01*
X5084Y97330D01*
X5182Y97330D01*
X4897Y96603D01*
X4799Y96603D01*
X4799Y96603D01*
X3351Y101968D02*
X3351Y102053D01*
X3659Y102054D01*
X3659Y101784D01*
X3623Y101757D01*
X3587Y101734D01*
X3550Y101715D01*
X3513Y101699D01*
X3475Y101686D01*
X3436Y101677D01*
X3397Y101672D01*
X3358Y101670D01*
X3306Y101673D01*
X3256Y101682D01*
X3208Y101696D01*
X3163Y101716D01*
X3122Y101742D01*
X3086Y101772D01*
X3056Y101808D01*
X3031Y101849D01*
X3011Y101894D01*
X2997Y101941D01*
X2989Y101991D01*
X2986Y102043D01*
X2989Y102095D01*
X2997Y102145D01*
X3011Y102194D01*
X3031Y102241D01*
X3055Y102284D01*
X3085Y102321D01*
X3119Y102352D01*
X3158Y102378D01*
X3202Y102397D01*
X3248Y102411D01*
X3298Y102420D01*
X3350Y102422D01*
X3389Y102421D01*
X3426Y102416D01*
X3460Y102408D01*
X3493Y102397D01*
X3523Y102383D01*
X3550Y102366D01*
X3573Y102347D01*
X3593Y102326D01*
X3610Y102301D01*
X3625Y102273D01*
X3638Y102242D01*
X3648Y102207D01*
X3561Y102183D01*
X3553Y102209D01*
X3543Y102232D01*
X3532Y102253D01*
X3521Y102270D01*
X3507Y102285D01*
X3491Y102299D01*
X3472Y102311D01*
X3451Y102321D01*
X3428Y102329D01*
X3404Y102335D01*
X3378Y102339D01*
X3351Y102340D01*
X3319Y102339D01*
X3289Y102335D01*
X3262Y102329D01*
X3237Y102320D01*
X3214Y102309D01*
X3193Y102297D01*
X3175Y102283D01*
X3159Y102267D01*
X3145Y102250D01*
X3133Y102233D01*
X3122Y102214D01*
X3113Y102195D01*
X3101Y102161D01*
X3092Y102125D01*
X3087Y102088D01*
X3086Y102049D01*
X3088Y102002D01*
X3094Y101959D01*
X3104Y101921D01*
X3119Y101886D01*
X3138Y101855D01*
X3160Y101829D01*
X3186Y101807D01*
X3217Y101789D01*
X3249Y101775D01*
X3282Y101765D01*
X3317Y101759D01*
X3352Y101757D01*
X3383Y101759D01*
X3414Y101763D01*
X3445Y101771D01*
X3474Y101781D01*
X3502Y101793D01*
X3527Y101806D01*
X3548Y101819D01*
X3565Y101832D01*
X3565Y101968D01*
X3351Y101968D01*
X3351Y101968D01*
X3800Y101683D02*
X3800Y102410D01*
X3899Y102410D01*
X4281Y101839D01*
X4281Y102410D01*
X4373Y102410D01*
X4373Y101683D01*
X4274Y101683D01*
X3892Y102254D01*
X3892Y101683D01*
X3800Y101683D01*
X3800Y101683D01*
X4535Y101683D02*
X4535Y102410D01*
X4784Y102410D01*
X4784Y102324D01*
X4631Y102324D01*
X4631Y101768D01*
X4631Y101768D01*
X4786Y101768D01*
X4820Y101769D01*
X4850Y101772D01*
X4877Y101776D01*
X4899Y101782D01*
X4918Y101789D01*
X4936Y101798D01*
X4951Y101808D01*
X4964Y101820D01*
X4980Y101838D01*
X4995Y101860D01*
X5007Y101884D01*
X5018Y101912D01*
X5026Y101942D01*
X5032Y101976D01*
X5036Y102012D01*
X5037Y102052D01*
X5034Y102106D01*
X5027Y102153D01*
X5016Y102193D01*
X4999Y102227D01*
X4980Y102255D01*
X4958Y102278D01*
X4934Y102296D01*
X4908Y102309D01*
X4886Y102316D01*
X4858Y102320D01*
X4824Y102323D01*
X4784Y102324D01*
X4784Y102410D01*
X4785Y102410D01*
X4825Y102409D01*
X4860Y102407D01*
X4890Y102404D01*
X4915Y102400D01*
X4945Y102391D01*
X4973Y102379D01*
X4998Y102365D01*
X5021Y102347D01*
X5048Y102321D01*
X5072Y102292D01*
X5091Y102259D01*
X5107Y102223D01*
X5120Y102184D01*
X5129Y102142D01*
X5134Y102098D01*
X5136Y102050D01*
X5135Y102010D01*
X5131Y101972D01*
X5125Y101937D01*
X5117Y101903D01*
X5106Y101873D01*
X5094Y101845D01*
X5081Y101820D01*
X5067Y101798D01*
X5051Y101778D01*
X5035Y101760D01*
X5018Y101745D01*
X5001Y101732D01*
X4982Y101720D01*
X4961Y101710D01*
X4938Y101702D01*
X4914Y101695D01*
X4888Y101690D01*
X4859Y101686D01*
X4829Y101683D01*
X4797Y101683D01*
X4535Y101683D01*
X4535Y101683D01*
X3351Y104508D02*
X3351Y104593D01*
X3659Y104594D01*
X3659Y104324D01*
X3623Y104297D01*
X3587Y104274D01*
X3550Y104255D01*
X3513Y104239D01*
X3475Y104226D01*
X3436Y104217D01*
X3397Y104212D01*
X3358Y104210D01*
X3306Y104213D01*
X3256Y104222D01*
X3208Y104236D01*
X3163Y104256D01*
X3122Y104282D01*
X3086Y104312D01*
X3056Y104348D01*
X3031Y104389D01*
X3011Y104434D01*
X2997Y104481D01*
X2989Y104531D01*
X2986Y104583D01*
X2989Y104635D01*
X2997Y104685D01*
X3011Y104734D01*
X3031Y104781D01*
X3055Y104824D01*
X3085Y104861D01*
X3119Y104892D01*
X3158Y104918D01*
X3202Y104937D01*
X3248Y104951D01*
X3298Y104960D01*
X3350Y104962D01*
X3389Y104961D01*
X3426Y104956D01*
X3460Y104948D01*
X3493Y104937D01*
X3523Y104923D01*
X3550Y104906D01*
X3573Y104887D01*
X3593Y104866D01*
X3610Y104841D01*
X3625Y104813D01*
X3638Y104782D01*
X3648Y104747D01*
X3561Y104723D01*
X3553Y104749D01*
X3543Y104772D01*
X3532Y104793D01*
X3521Y104810D01*
X3507Y104825D01*
X3491Y104839D01*
X3472Y104851D01*
X3451Y104861D01*
X3428Y104869D01*
X3404Y104875D01*
X3378Y104879D01*
X3351Y104880D01*
X3319Y104879D01*
X3289Y104875D01*
X3262Y104869D01*
X3237Y104860D01*
X3214Y104849D01*
X3193Y104837D01*
X3175Y104823D01*
X3159Y104807D01*
X3145Y104790D01*
X3133Y104773D01*
X3122Y104754D01*
X3113Y104735D01*
X3101Y104701D01*
X3092Y104665D01*
X3087Y104628D01*
X3086Y104589D01*
X3088Y104542D01*
X3094Y104499D01*
X3104Y104461D01*
X3119Y104426D01*
X3138Y104395D01*
X3160Y104369D01*
X3186Y104347D01*
X3217Y104329D01*
X3249Y104315D01*
X3282Y104305D01*
X3317Y104299D01*
X3352Y104297D01*
X3383Y104299D01*
X3414Y104303D01*
X3445Y104311D01*
X3474Y104321D01*
X3502Y104333D01*
X3527Y104346D01*
X3548Y104359D01*
X3565Y104372D01*
X3565Y104508D01*
X3351Y104508D01*
X3351Y104508D01*
X3800Y104223D02*
X3800Y104950D01*
X3899Y104950D01*
X4281Y104379D01*
X4281Y104950D01*
X4373Y104950D01*
X4373Y104223D01*
X4274Y104223D01*
X3892Y104794D01*
X3892Y104223D01*
X3800Y104223D01*
X3800Y104223D01*
X4535Y104223D02*
X4535Y104950D01*
X4784Y104950D01*
X4784Y104864D01*
X4631Y104864D01*
X4631Y104308D01*
X4631Y104308D01*
X4786Y104308D01*
X4820Y104309D01*
X4850Y104312D01*
X4877Y104316D01*
X4899Y104322D01*
X4918Y104329D01*
X4936Y104338D01*
X4951Y104348D01*
X4964Y104360D01*
X4980Y104378D01*
X4995Y104400D01*
X5007Y104424D01*
X5018Y104452D01*
X5026Y104482D01*
X5032Y104516D01*
X5036Y104552D01*
X5037Y104592D01*
X5034Y104646D01*
X5027Y104693D01*
X5016Y104733D01*
X4999Y104767D01*
X4980Y104795D01*
X4958Y104818D01*
X4934Y104836D01*
X4908Y104849D01*
X4886Y104856D01*
X4858Y104860D01*
X4824Y104863D01*
X4784Y104864D01*
X4784Y104950D01*
X4785Y104950D01*
X4825Y104949D01*
X4860Y104947D01*
X4890Y104944D01*
X4915Y104940D01*
X4945Y104931D01*
X4973Y104919D01*
X4998Y104905D01*
X5021Y104887D01*
X5048Y104861D01*
X5072Y104832D01*
X5091Y104799D01*
X5107Y104763D01*
X5120Y104724D01*
X5129Y104682D01*
X5134Y104638D01*
X5136Y104590D01*
X5135Y104550D01*
X5131Y104512D01*
X5125Y104477D01*
X5117Y104443D01*
X5106Y104413D01*
X5094Y104385D01*
X5081Y104360D01*
X5067Y104338D01*
X5051Y104318D01*
X5035Y104300D01*
X5018Y104285D01*
X5001Y104272D01*
X4982Y104260D01*
X4961Y104250D01*
X4938Y104242D01*
X4914Y104235D01*
X4888Y104230D01*
X4859Y104226D01*
X4829Y104223D01*
X4797Y104223D01*
X4535Y104223D01*
X4535Y104223D01*
X3351Y107048D02*
X3351Y107133D01*
X3659Y107134D01*
X3659Y106864D01*
X3623Y106837D01*
X3587Y106814D01*
X3550Y106795D01*
X3513Y106779D01*
X3475Y106766D01*
X3436Y106757D01*
X3397Y106752D01*
X3358Y106750D01*
X3306Y106753D01*
X3256Y106762D01*
X3208Y106776D01*
X3163Y106796D01*
X3122Y106822D01*
X3086Y106852D01*
X3056Y106888D01*
X3031Y106929D01*
X3011Y106974D01*
X2997Y107021D01*
X2989Y107071D01*
X2986Y107123D01*
X2989Y107175D01*
X2997Y107225D01*
X3011Y107274D01*
X3031Y107321D01*
X3055Y107364D01*
X3085Y107401D01*
X3119Y107432D01*
X3158Y107458D01*
X3202Y107477D01*
X3248Y107491D01*
X3298Y107500D01*
X3350Y107502D01*
X3389Y107501D01*
X3426Y107496D01*
X3460Y107488D01*
X3493Y107477D01*
X3523Y107463D01*
X3550Y107446D01*
X3573Y107427D01*
X3593Y107406D01*
X3610Y107381D01*
X3625Y107353D01*
X3638Y107322D01*
X3648Y107287D01*
X3561Y107263D01*
X3553Y107289D01*
X3543Y107312D01*
X3532Y107333D01*
X3521Y107350D01*
X3507Y107365D01*
X3491Y107379D01*
X3472Y107391D01*
X3451Y107401D01*
X3428Y107409D01*
X3404Y107415D01*
X3378Y107419D01*
X3351Y107420D01*
X3319Y107419D01*
X3289Y107415D01*
X3262Y107409D01*
X3237Y107400D01*
X3214Y107389D01*
X3193Y107377D01*
X3175Y107363D01*
X3159Y107347D01*
X3145Y107330D01*
X3133Y107313D01*
X3122Y107294D01*
X3113Y107275D01*
X3101Y107241D01*
X3092Y107205D01*
X3087Y107168D01*
X3086Y107129D01*
X3088Y107082D01*
X3094Y107039D01*
X3104Y107001D01*
X3119Y106966D01*
X3138Y106935D01*
X3160Y106909D01*
X3186Y106887D01*
X3217Y106869D01*
X3249Y106855D01*
X3282Y106845D01*
X3317Y106839D01*
X3352Y106837D01*
X3383Y106839D01*
X3414Y106843D01*
X3445Y106851D01*
X3474Y106861D01*
X3502Y106873D01*
X3527Y106886D01*
X3548Y106899D01*
X3565Y106912D01*
X3565Y107048D01*
X3351Y107048D01*
X3351Y107048D01*
X3800Y106763D02*
X3800Y107490D01*
X3899Y107490D01*
X4281Y106919D01*
X4281Y107490D01*
X4373Y107490D01*
X4373Y106763D01*
X4274Y106763D01*
X3892Y107334D01*
X3892Y106763D01*
X3800Y106763D01*
X3800Y106763D01*
X4535Y106763D02*
X4535Y107490D01*
X4784Y107490D01*
X4784Y107404D01*
X4631Y107404D01*
X4631Y106848D01*
X4631Y106848D01*
X4786Y106848D01*
X4820Y106849D01*
X4850Y106852D01*
X4877Y106856D01*
X4899Y106862D01*
X4918Y106869D01*
X4936Y106878D01*
X4951Y106888D01*
X4964Y106900D01*
X4980Y106918D01*
X4995Y106940D01*
X5007Y106964D01*
X5018Y106992D01*
X5026Y107022D01*
X5032Y107056D01*
X5036Y107092D01*
X5037Y107132D01*
X5034Y107186D01*
X5027Y107233D01*
X5016Y107273D01*
X4999Y107307D01*
X4980Y107335D01*
X4958Y107358D01*
X4934Y107376D01*
X4908Y107389D01*
X4886Y107396D01*
X4858Y107400D01*
X4824Y107403D01*
X4784Y107404D01*
X4784Y107490D01*
X4785Y107490D01*
X4825Y107489D01*
X4860Y107487D01*
X4890Y107484D01*
X4915Y107480D01*
X4945Y107471D01*
X4973Y107459D01*
X4998Y107445D01*
X5021Y107427D01*
X5048Y107401D01*
X5072Y107372D01*
X5091Y107339D01*
X5107Y107303D01*
X5120Y107264D01*
X5129Y107222D01*
X5134Y107178D01*
X5136Y107130D01*
X5135Y107090D01*
X5131Y107052D01*
X5125Y107017D01*
X5117Y106983D01*
X5106Y106953D01*
X5094Y106925D01*
X5081Y106900D01*
X5067Y106878D01*
X5051Y106858D01*
X5035Y106840D01*
X5018Y106825D01*
X5001Y106812D01*
X4982Y106800D01*
X4961Y106790D01*
X4938Y106782D01*
X4914Y106775D01*
X4888Y106770D01*
X4859Y106766D01*
X4829Y106763D01*
X4797Y106763D01*
X4535Y106763D01*
X4535Y106763D01*
X3076Y109521D02*
X3076Y109611D01*
X3350Y109611D01*
X3350Y109521D01*
X3076Y109521D01*
X3076Y109521D01*
X3761Y109303D02*
X3671Y109303D01*
X3671Y109872D01*
X3654Y109856D01*
X3634Y109841D01*
X3612Y109826D01*
X3587Y109810D01*
X3561Y109796D01*
X3537Y109783D01*
X3514Y109773D01*
X3493Y109764D01*
X3493Y109850D01*
X3529Y109869D01*
X3563Y109889D01*
X3595Y109912D01*
X3624Y109936D01*
X3650Y109961D01*
X3672Y109985D01*
X3689Y110009D01*
X3703Y110033D01*
X3761Y110033D01*
X3761Y109303D01*
X3761Y109303D01*
X4459Y109388D02*
X4459Y109303D01*
X3978Y109303D01*
X3978Y109319D01*
X3980Y109334D01*
X3984Y109350D01*
X3988Y109365D01*
X3999Y109389D01*
X4012Y109413D01*
X4028Y109438D01*
X4047Y109461D01*
X4070Y109486D01*
X4097Y109513D01*
X4128Y109541D01*
X4164Y109572D01*
X4219Y109618D01*
X4263Y109659D01*
X4299Y109695D01*
X4324Y109726D01*
X4343Y109754D01*
X4356Y109781D01*
X4363Y109807D01*
X4366Y109833D01*
X4364Y109858D01*
X4356Y109882D01*
X4345Y109903D01*
X4328Y109923D01*
X4308Y109938D01*
X4284Y109950D01*
X4258Y109957D01*
X4229Y109959D01*
X4198Y109957D01*
X4171Y109949D01*
X4147Y109937D01*
X4126Y109920D01*
X4109Y109899D01*
X4097Y109874D01*
X4089Y109846D01*
X4087Y109813D01*
X3995Y109823D01*
X4003Y109871D01*
X4017Y109913D01*
X4038Y109949D01*
X4066Y109979D01*
X4099Y110003D01*
X4138Y110019D01*
X4182Y110030D01*
X4231Y110033D01*
X4281Y110029D01*
X4325Y110018D01*
X4363Y110000D01*
X4397Y109975D01*
X4423Y109944D01*
X4442Y109910D01*
X4454Y109872D01*
X4458Y109831D01*
X4457Y109809D01*
X4453Y109788D01*
X4448Y109766D01*
X4440Y109745D01*
X4429Y109724D01*
X4416Y109702D01*
X4400Y109679D01*
X4381Y109656D01*
X4356Y109631D01*
X4325Y109601D01*
X4288Y109567D01*
X4243Y109528D01*
X4206Y109497D01*
X4177Y109472D01*
X4155Y109452D01*
X4140Y109437D01*
X4129Y109425D01*
X4119Y109413D01*
X4110Y109401D01*
X4102Y109388D01*
X4459Y109388D01*
X4459Y109388D01*
X4799Y109303D02*
X4517Y110030D01*
X4621Y110030D01*
X4810Y109502D01*
X4821Y109470D01*
X4831Y109440D01*
X4840Y109411D01*
X4848Y109383D01*
X4857Y109412D01*
X4866Y109442D01*
X4877Y109472D01*
X4887Y109502D01*
X5084Y110030D01*
X5182Y110030D01*
X4897Y109303D01*
X4799Y109303D01*
X4799Y109303D01*
G37*
M02*