%FSLAX33Y33*%
%MOMM*%
%AMRR-H508000-W8636000-R152400-RO1.750*
21,1,8.3312,0.508,0.,0.,45*
21,1,8.636,0.2032,0.,0.,45*
1,1,0.3048,-3.0173660567,-2.8736819587*
1,1,0.3048,2.8736819587,3.0173660567*
1,1,0.3048,3.0173660567,2.8736819587*
1,1,0.3048,-2.8736819587,-3.0173660567*%
%AMRect-W1000000-H4500000-RO1.750*
21,1,1.,4.5,0.,0.,45*%
%ADD10C,0.1*%
%ADD11RR-H508000-W8636000-R152400-RO1.750*%
%ADD12Rect-W1000000-H4500000-RO1.750*%
D10*
%LNtop silkscreen_traces*%
%LNtop silkscreen component 0a00c536e324cf6a*%
G01*
X26544Y49595D02*
X6745Y69394D01*
X12756Y75405*
X32555Y55606*
X26544Y49595*
X26544Y49949D02*
X7099Y69394D01*
X12756Y75051*
X32201Y55606*
X26544Y49949*
D11*
X9323Y72827D03*
D12*
X16981Y59866D03*
G36*
X6904Y71163D02*
X6133Y71934D01*
X6475Y72276D01*
X6525Y72323D01*
X6571Y72362D01*
X6614Y72391D01*
X6653Y72412D01*
X6691Y72425D01*
X6730Y72432D01*
X6770Y72432D01*
X6812Y72425D01*
X6853Y72412D01*
X6891Y72393D01*
X6927Y72370D01*
X6960Y72340D01*
X6996Y72298D01*
X7023Y72252D01*
X7039Y72202D01*
X7045Y72149D01*
X7041Y72093D01*
X7024Y72035D01*
X6995Y71975D01*
X6974Y71945D01*
X6875Y72011D01*
X6890Y72039D01*
X6900Y72066D01*
X6906Y72093D01*
X6907Y72119D01*
X6904Y72146D01*
X6896Y72171D01*
X6886Y72194D01*
X6872Y72216D01*
X6855Y72235D01*
X6826Y72259D01*
X6795Y72275D01*
X6762Y72284D01*
X6725Y72285D01*
X6687Y72278D01*
X6648Y72261D01*
X6607Y72233D01*
X6565Y72195D01*
X6320Y71951D01*
X6576Y71696D01*
X6576Y71696D01*
X6795Y71915D01*
X6827Y71949D01*
X6854Y71981D01*
X6875Y72011D01*
X6974Y71945D01*
X6953Y71913D01*
X6982Y71923D01*
X7008Y71930D01*
X7032Y71934D01*
X7053Y71936D01*
X7097Y71937D01*
X7143Y71934D01*
X7190Y71928D01*
X7240Y71918D01*
X7584Y71843D01*
X7456Y71714D01*
X7193Y71773D01*
X7139Y71784D01*
X7091Y71793D01*
X7049Y71800D01*
X7013Y71805D01*
X6982Y71808D01*
X6955Y71809D01*
X6931Y71808D01*
X6910Y71805D01*
X6892Y71800D01*
X6874Y71794D01*
X6858Y71787D01*
X6843Y71779D01*
X6831Y71771D01*
X6817Y71759D01*
X6801Y71744D01*
X6782Y71726D01*
X6664Y71607D01*
X7007Y71265D01*
X6904Y71163D01*
X6904Y71163D01*
X7872Y72490D02*
X7982Y72576D01*
X8008Y72521D01*
X8025Y72466D01*
X8032Y72412D01*
X8029Y72357D01*
X8016Y72303D01*
X7993Y72250D01*
X7960Y72199D01*
X7916Y72149D01*
X7854Y72096D01*
X7788Y72058D01*
X7719Y72037D01*
X7646Y72031D01*
X7573Y72041D01*
X7502Y72067D01*
X7432Y72111D01*
X7363Y72171D01*
X7301Y72242D01*
X7256Y72314D01*
X7228Y72387D01*
X7217Y72462D01*
X7221Y72535D01*
X7242Y72604D01*
X7277Y72668D01*
X7327Y72728D01*
X7336Y72735D01*
X7406Y72651D01*
X7377Y72617D01*
X7357Y72580D01*
X7344Y72541D01*
X7340Y72498D01*
X7344Y72455D01*
X7356Y72412D01*
X7378Y72372D01*
X7408Y72332D01*
X7408Y72332D01*
X7720Y72644D01*
X7682Y72673D01*
X7646Y72694D01*
X7611Y72708D01*
X7578Y72714D01*
X7530Y72714D01*
X7485Y72703D01*
X7444Y72682D01*
X7406Y72651D01*
X7336Y72735D01*
X7385Y72777D01*
X7448Y72811D01*
X7515Y72830D01*
X7586Y72835D01*
X7660Y72824D01*
X7732Y72797D01*
X7802Y72752D01*
X7872Y72691D01*
X7877Y72687D01*
X7883Y72681D01*
X7889Y72674D01*
X7897Y72666D01*
X7480Y72249D01*
X7529Y72211D01*
X7577Y72183D01*
X7625Y72166D01*
X7673Y72160D01*
X7720Y72163D01*
X7763Y72176D01*
X7802Y72197D01*
X7839Y72228D01*
X7862Y72255D01*
X7880Y72283D01*
X7893Y72313D01*
X7901Y72344D01*
X7902Y72377D01*
X7898Y72413D01*
X7888Y72450D01*
X7872Y72490D01*
X7872Y72490D01*
X8631Y72889D02*
X8560Y72960D01*
X8473Y72961D01*
X8473Y72963D01*
X8463Y73011D01*
X8441Y73060D01*
X8408Y73110D01*
X8362Y73162D01*
X8305Y73213D01*
X8251Y73250D01*
X8199Y73275D01*
X8149Y73286D01*
X8102Y73286D01*
X8059Y73277D01*
X8021Y73259D01*
X7986Y73231D01*
X7959Y73197D01*
X7941Y73160D01*
X7932Y73119D01*
X7932Y73074D01*
X7943Y73026D01*
X7967Y72976D01*
X8003Y72923D01*
X8053Y72869D01*
X8053Y72869D01*
X8106Y72821D01*
X8158Y72786D01*
X8209Y72764D01*
X8258Y72754D01*
X8305Y72754D01*
X8348Y72763D01*
X8385Y72781D01*
X8418Y72807D01*
X8445Y72840D01*
X8463Y72877D01*
X8472Y72918D01*
X8473Y72961D01*
X8560Y72960D01*
X8567Y72894D01*
X8557Y72832D01*
X8531Y72774D01*
X8487Y72720D01*
X8452Y72690D01*
X8414Y72665D01*
X8372Y72647D01*
X8328Y72634D01*
X8281Y72628D01*
X8234Y72629D01*
X8186Y72636D01*
X8138Y72650D01*
X8090Y72671D01*
X8044Y72698D01*
X7999Y72732D01*
X7955Y72771D01*
X7916Y72814D01*
X7882Y72858D01*
X7854Y72904D01*
X7831Y72951D01*
X7815Y72999D01*
X7806Y73046D01*
X7805Y73093D01*
X7811Y73139D01*
X7823Y73184D01*
X7842Y73226D01*
X7868Y73264D01*
X7899Y73300D01*
X7925Y73323D01*
X7952Y73343D01*
X7981Y73358D01*
X8010Y73369D01*
X8041Y73376D01*
X8071Y73380D01*
X8100Y73381D01*
X8130Y73378D01*
X7853Y73654D01*
X7947Y73749D01*
X8719Y72977D01*
X8631Y72889D01*
X8631Y72889D01*
X9270Y73529D02*
X8540Y73916D01*
X8638Y74014D01*
X9050Y73781D01*
X9203Y73694D01*
X9195Y73707D01*
X9178Y73735D01*
X9152Y73779D01*
X9117Y73838D01*
X8878Y74254D01*
X8976Y74352D01*
X9383Y74111D01*
X9518Y74032D01*
X9442Y74172D01*
X9215Y74591D01*
X9307Y74683D01*
X9691Y73950D01*
X9593Y73851D01*
X9169Y74097D01*
X9052Y74171D01*
X9369Y73628D01*
X9270Y73529D01*
X9270Y73529D01*
X9946Y74204D02*
X9387Y74763D01*
X9482Y74858D01*
X10041Y74299D01*
X9946Y74204D01*
X9946Y74204D01*
X9283Y74867D02*
X9174Y74976D01*
X9269Y75070D01*
X9378Y74961D01*
X9283Y74867D01*
X9283Y74867D01*
X10184Y74442D02*
X9625Y75001D01*
X9710Y75086D01*
X9795Y75001D01*
X9784Y75045D01*
X9777Y75082D01*
X9775Y75114D01*
X9777Y75140D01*
X9783Y75162D01*
X9791Y75183D01*
X9803Y75202D01*
X9819Y75220D01*
X9844Y75242D01*
X9874Y75260D01*
X9908Y75275D01*
X9946Y75287D01*
X10002Y75166D01*
X9975Y75158D01*
X9951Y75147D01*
X9930Y75133D01*
X9912Y75117D01*
X9898Y75101D01*
X9887Y75083D01*
X9879Y75064D01*
X9875Y75043D01*
X9873Y75021D01*
X9876Y74999D01*
X9882Y74977D01*
X9891Y74956D01*
X9910Y74923D01*
X9932Y74891D01*
X9957Y74860D01*
X9986Y74829D01*
X10278Y74537D01*
X10184Y74442D01*
X10184Y74442D01*
X10746Y75364D02*
X10856Y75450D01*
X10883Y75396D01*
X10899Y75341D01*
X10906Y75286D01*
X10903Y75231D01*
X10891Y75177D01*
X10868Y75124D01*
X10834Y75073D01*
X10791Y75024D01*
X10728Y74971D01*
X10662Y74933D01*
X10593Y74911D01*
X10521Y74905D01*
X10448Y74915D01*
X10376Y74942D01*
X10306Y74985D01*
X10237Y75045D01*
X10175Y75116D01*
X10130Y75188D01*
X10102Y75262D01*
X10091Y75337D01*
X10096Y75410D01*
X10116Y75478D01*
X10151Y75543D01*
X10202Y75603D01*
X10210Y75610D01*
X10280Y75526D01*
X10252Y75492D01*
X10231Y75455D01*
X10219Y75415D01*
X10214Y75373D01*
X10218Y75329D01*
X10231Y75287D01*
X10252Y75246D01*
X10282Y75207D01*
X10282Y75207D01*
X10594Y75519D01*
X10556Y75547D01*
X10520Y75568D01*
X10486Y75582D01*
X10453Y75589D01*
X10404Y75588D01*
X10360Y75578D01*
X10318Y75557D01*
X10280Y75526D01*
X10210Y75610D01*
X10260Y75651D01*
X10322Y75686D01*
X10389Y75705D01*
X10461Y75710D01*
X10534Y75699D01*
X10606Y75671D01*
X10677Y75627D01*
X10747Y75566D01*
X10751Y75561D01*
X10757Y75555D01*
X10764Y75548D01*
X10771Y75540D01*
X10355Y75123D01*
X10403Y75085D01*
X10452Y75058D01*
X10500Y75041D01*
X10548Y75035D01*
X10594Y75038D01*
X10637Y75050D01*
X10677Y75072D01*
X10714Y75102D01*
X10737Y75129D01*
X10755Y75158D01*
X10768Y75187D01*
X10775Y75219D01*
X10777Y75252D01*
X10773Y75287D01*
X10762Y75325D01*
X10746Y75364D01*
X10746Y75364D01*
X29611Y59933D02*
X29551Y59994D01*
X29768Y60212D01*
X29959Y60021D01*
X29953Y59977D01*
X29943Y59935D01*
X29931Y59895D01*
X29916Y59857D01*
X29898Y59822D01*
X29877Y59788D01*
X29853Y59757D01*
X29827Y59728D01*
X29788Y59693D01*
X29746Y59663D01*
X29703Y59640D01*
X29657Y59622D01*
X29609Y59611D01*
X29563Y59608D01*
X29516Y59612D01*
X29469Y59623D01*
X29424Y59641D01*
X29381Y59664D01*
X29339Y59693D01*
X29301Y59728D01*
X29266Y59767D01*
X29236Y59809D01*
X29211Y59853D01*
X29192Y59900D01*
X29179Y59948D01*
X29173Y59995D01*
X29176Y60041D01*
X29185Y60087D01*
X29202Y60131D01*
X29225Y60174D01*
X29254Y60215D01*
X29290Y60254D01*
X29318Y60280D01*
X29347Y60303D01*
X29377Y60322D01*
X29409Y60337D01*
X29440Y60348D01*
X29470Y60356D01*
X29500Y60359D01*
X29530Y60357D01*
X29559Y60352D01*
X29589Y60343D01*
X29621Y60329D01*
X29653Y60312D01*
X29608Y60234D01*
X29583Y60246D01*
X29560Y60256D01*
X29538Y60263D01*
X29518Y60267D01*
X29497Y60268D01*
X29477Y60266D01*
X29455Y60261D01*
X29433Y60254D01*
X29410Y60243D01*
X29389Y60230D01*
X29368Y60214D01*
X29348Y60196D01*
X29327Y60173D01*
X29308Y60149D01*
X29293Y60125D01*
X29282Y60101D01*
X29273Y60078D01*
X29267Y60054D01*
X29264Y60031D01*
X29264Y60009D01*
X29266Y59987D01*
X29270Y59966D01*
X29275Y59946D01*
X29283Y59926D01*
X29298Y59893D01*
X29318Y59861D01*
X29340Y59831D01*
X29366Y59803D01*
X29401Y59771D01*
X29436Y59745D01*
X29470Y59725D01*
X29505Y59711D01*
X29540Y59703D01*
X29575Y59700D01*
X29609Y59703D01*
X29643Y59711D01*
X29676Y59725D01*
X29706Y59741D01*
X29735Y59761D01*
X29761Y59785D01*
X29782Y59808D01*
X29801Y59833D01*
X29817Y59860D01*
X29831Y59888D01*
X29842Y59917D01*
X29850Y59943D01*
X29856Y59967D01*
X29858Y59989D01*
X29763Y60084D01*
X29611Y59933D01*
X29611Y59933D01*
X30320Y60331D02*
X30317Y60299D01*
X30316Y60295D01*
X30257Y60306D01*
X30258Y60328D01*
X30256Y60349D01*
X30250Y60370D01*
X30243Y60386D01*
X30231Y60404D01*
X30216Y60423D01*
X30197Y60443D01*
X30174Y60466D01*
X30174Y60466D01*
X30161Y60440D01*
X30144Y60410D01*
X30122Y60377D01*
X30095Y60339D01*
X30080Y60318D01*
X30067Y60300D01*
X30058Y60285D01*
X30052Y60272D01*
X30049Y60260D01*
X30047Y60249D01*
X30046Y60237D01*
X30048Y60226D01*
X30051Y60215D01*
X30056Y60205D01*
X30062Y60196D01*
X30069Y60188D01*
X30082Y60177D01*
X30097Y60169D01*
X30113Y60165D01*
X30130Y60165D01*
X30148Y60168D01*
X30167Y60175D01*
X30185Y60187D01*
X30203Y60204D01*
X30220Y60222D01*
X30234Y60242D01*
X30244Y60263D01*
X30252Y60285D01*
X30257Y60306D01*
X30316Y60295D01*
X30311Y60271D01*
X30304Y60245D01*
X30295Y60221D01*
X30284Y60199D01*
X30270Y60178D01*
X30255Y60158D01*
X30238Y60139D01*
X30207Y60112D01*
X30176Y60092D01*
X30145Y60080D01*
X30113Y60075D01*
X30083Y60076D01*
X30054Y60084D01*
X30028Y60098D01*
X30004Y60118D01*
X29991Y60133D01*
X29980Y60148D01*
X29972Y60164D01*
X29966Y60181D01*
X29962Y60198D01*
X29960Y60216D01*
X29960Y60233D01*
X29962Y60250D01*
X29966Y60267D01*
X29972Y60283D01*
X29979Y60300D01*
X29987Y60316D01*
X29995Y60329D01*
X30006Y60344D01*
X30018Y60362D01*
X30034Y60381D01*
X30065Y60422D01*
X30090Y60458D01*
X30110Y60489D01*
X30125Y60516D01*
X30119Y60522D01*
X30114Y60527D01*
X30111Y60530D01*
X30108Y60533D01*
X30089Y60549D01*
X30071Y60561D01*
X30053Y60568D01*
X30036Y60569D01*
X30013Y60565D01*
X29990Y60555D01*
X29967Y60540D01*
X29943Y60519D01*
X29923Y60497D01*
X29908Y60476D01*
X29898Y60456D01*
X29893Y60437D01*
X29892Y60418D01*
X29896Y60397D01*
X29904Y60375D01*
X29917Y60351D01*
X29846Y60297D01*
X29832Y60321D01*
X29822Y60344D01*
X29814Y60367D01*
X29810Y60389D01*
X29809Y60411D01*
X29812Y60434D01*
X29818Y60458D01*
X29828Y60482D01*
X29842Y60507D01*
X29858Y60532D01*
X29877Y60556D01*
X29900Y60580D01*
X29923Y60602D01*
X29946Y60620D01*
X29968Y60635D01*
X29988Y60646D01*
X30008Y60654D01*
X30027Y60660D01*
X30044Y60662D01*
X30061Y60662D01*
X30076Y60659D01*
X30092Y60655D01*
X30107Y60648D01*
X30123Y60639D01*
X30134Y60630D01*
X30148Y60618D01*
X30165Y60603D01*
X30185Y60584D01*
X30269Y60499D01*
X30309Y60460D01*
X30342Y60429D01*
X30367Y60406D01*
X30384Y60392D01*
X30398Y60383D01*
X30413Y60375D01*
X30429Y60369D01*
X30445Y60363D01*
X30379Y60297D01*
X30364Y60303D01*
X30349Y60311D01*
X30335Y60320D01*
X30320Y60331D01*
X30320Y60331D01*
X30604Y60635D02*
X30669Y60589D01*
X30658Y60573D01*
X30648Y60559D01*
X30637Y60547D01*
X30627Y60536D01*
X30610Y60520D01*
X30594Y60508D01*
X30578Y60499D01*
X30563Y60493D01*
X30548Y60490D01*
X30534Y60490D01*
X30520Y60491D01*
X30507Y60495D01*
X30493Y60503D01*
X30474Y60517D01*
X30452Y60536D01*
X30425Y60562D01*
X30211Y60776D01*
X30165Y60730D01*
X30115Y60779D01*
X30162Y60825D01*
X30069Y60918D01*
X30094Y61018D01*
X30225Y60888D01*
X30288Y60952D01*
X30337Y60902D01*
X30274Y60839D01*
X30491Y60621D01*
X30504Y60609D01*
X30515Y60600D01*
X30523Y60593D01*
X30530Y60590D01*
X30535Y60588D01*
X30541Y60587D01*
X30547Y60587D01*
X30553Y60588D01*
X30559Y60590D01*
X30565Y60594D01*
X30572Y60599D01*
X30579Y60605D01*
X30584Y60611D01*
X30590Y60618D01*
X30597Y60626D01*
X30604Y60635D01*
X30604Y60635D01*
X30857Y61016D02*
X30931Y61073D01*
X30948Y61037D01*
X30959Y61000D01*
X30964Y60964D01*
X30962Y60927D01*
X30954Y60891D01*
X30938Y60856D01*
X30916Y60822D01*
X30887Y60789D01*
X30845Y60753D01*
X30801Y60728D01*
X30755Y60714D01*
X30707Y60709D01*
X30659Y60716D01*
X30611Y60734D01*
X30564Y60763D01*
X30518Y60803D01*
X30477Y60850D01*
X30447Y60898D01*
X30428Y60947D01*
X30421Y60997D01*
X30424Y61046D01*
X30437Y61092D01*
X30461Y61135D01*
X30494Y61175D01*
X30500Y61179D01*
X30547Y61123D01*
X30528Y61101D01*
X30514Y61076D01*
X30506Y61050D01*
X30503Y61021D01*
X30506Y60992D01*
X30514Y60964D01*
X30528Y60937D01*
X30548Y60910D01*
X30548Y60910D01*
X30756Y61119D01*
X30731Y61137D01*
X30707Y61152D01*
X30684Y61161D01*
X30662Y61165D01*
X30629Y61165D01*
X30600Y61158D01*
X30572Y61144D01*
X30547Y61123D01*
X30500Y61179D01*
X30533Y61207D01*
X30575Y61230D01*
X30620Y61243D01*
X30667Y61246D01*
X30716Y61239D01*
X30764Y61220D01*
X30811Y61191D01*
X30858Y61150D01*
X30861Y61147D01*
X30865Y61143D01*
X30869Y61138D01*
X30874Y61133D01*
X30596Y60855D01*
X30629Y60830D01*
X30661Y60811D01*
X30693Y60800D01*
X30725Y60796D01*
X30756Y60798D01*
X30785Y60806D01*
X30811Y60821D01*
X30836Y60841D01*
X30851Y60859D01*
X30863Y60878D01*
X30872Y60898D01*
X30877Y60919D01*
X30878Y60941D01*
X30875Y60964D01*
X30868Y60989D01*
X30857Y61016D01*
X30857Y61016D01*
X27963Y61834D02*
X28048Y61885D01*
X28075Y61833D01*
X28092Y61781D01*
X28100Y61730D01*
X28099Y61680D01*
X28089Y61632D01*
X28070Y61585D01*
X28043Y61542D01*
X28007Y61500D01*
X27965Y61463D01*
X27923Y61433D01*
X27881Y61412D01*
X27838Y61399D01*
X27795Y61393D01*
X27751Y61394D01*
X27706Y61402D01*
X27661Y61418D01*
X27616Y61438D01*
X27574Y61464D01*
X27534Y61494D01*
X27496Y61528D01*
X27459Y61569D01*
X27428Y61611D01*
X27404Y61654D01*
X27386Y61699D01*
X27375Y61744D01*
X27371Y61789D01*
X27373Y61833D01*
X27383Y61877D01*
X27398Y61920D01*
X27419Y61960D01*
X27445Y61998D01*
X27476Y62033D01*
X27516Y62068D01*
X27557Y62094D01*
X27600Y62113D01*
X27645Y62124D01*
X27691Y62126D01*
X27737Y62121D01*
X27783Y62108D01*
X27829Y62086D01*
X27778Y62004D01*
X27742Y62020D01*
X27708Y62030D01*
X27675Y62035D01*
X27644Y62033D01*
X27615Y62026D01*
X27587Y62014D01*
X27560Y61996D01*
X27533Y61973D01*
X27507Y61943D01*
X27486Y61912D01*
X27471Y61879D01*
X27463Y61846D01*
X27460Y61812D01*
X27462Y61779D01*
X27470Y61746D01*
X27483Y61714D01*
X27500Y61682D01*
X27519Y61653D01*
X27541Y61625D01*
X27566Y61599D01*
X27598Y61568D01*
X27632Y61542D01*
X27665Y61520D01*
X27699Y61503D01*
X27733Y61491D01*
X27766Y61485D01*
X27799Y61484D01*
X27832Y61490D01*
X27863Y61500D01*
X27892Y61513D01*
X27919Y61531D01*
X27943Y61553D01*
X27969Y61582D01*
X27988Y61614D01*
X28001Y61647D01*
X28007Y61683D01*
X28007Y61719D01*
X27999Y61757D01*
X27985Y61795D01*
X27963Y61834D01*
X27963Y61834D01*
X28442Y61953D02*
X27729Y62268D01*
X27802Y62341D01*
X28310Y62101D01*
X28339Y62087D01*
X28368Y62073D01*
X28395Y62058D01*
X28421Y62044D01*
X28406Y62071D01*
X28392Y62099D01*
X28378Y62127D01*
X28364Y62156D01*
X28130Y62669D01*
X28199Y62738D01*
X28512Y62022D01*
X28442Y61953D01*
X28442Y61953D01*
X26022Y63291D02*
X25881Y63432D01*
X25741Y63292D01*
X25682Y63351D01*
X25822Y63491D01*
X25682Y63631D01*
X25741Y63690D01*
X25881Y63550D01*
X26021Y63690D01*
X26080Y63631D01*
X25940Y63491D01*
X26081Y63350D01*
X26022Y63291D01*
X26022Y63291D01*
X26240Y63612D02*
X26300Y63683D01*
X26328Y63666D01*
X26355Y63653D01*
X26381Y63646D01*
X26407Y63645D01*
X26432Y63648D01*
X26455Y63656D01*
X26477Y63669D01*
X26496Y63685D01*
X26516Y63709D01*
X26530Y63736D01*
X26537Y63765D01*
X26539Y63797D01*
X26534Y63829D01*
X26523Y63860D01*
X26505Y63891D01*
X26479Y63920D01*
X26452Y63943D01*
X26424Y63960D01*
X26394Y63971D01*
X26364Y63974D01*
X26334Y63972D01*
X26305Y63963D01*
X26279Y63948D01*
X26253Y63926D01*
X26239Y63910D01*
X26228Y63894D01*
X26219Y63876D01*
X26212Y63857D01*
X26208Y63838D01*
X26206Y63819D01*
X26207Y63801D01*
X26209Y63783D01*
X26142Y63731D01*
X25928Y64045D01*
X26184Y64301D01*
X26244Y64241D01*
X26039Y64035D01*
X26149Y63869D01*
X26159Y63907D01*
X26173Y63941D01*
X26191Y63972D01*
X26214Y63999D01*
X26250Y64028D01*
X26288Y64049D01*
X26330Y64062D01*
X26375Y64066D01*
X26420Y64061D01*
X26463Y64047D01*
X26503Y64024D01*
X26541Y63992D01*
X26572Y63956D01*
X26596Y63917D01*
X26612Y63875D01*
X26621Y63831D01*
X26621Y63777D01*
X26609Y63725D01*
X26585Y63678D01*
X26548Y63633D01*
X26512Y63602D01*
X26475Y63579D01*
X26435Y63565D01*
X26394Y63558D01*
X26353Y63560D01*
X26314Y63569D01*
X26276Y63586D01*
X26240Y63612D01*
X26240Y63612D01*
X26946Y64049D02*
X26233Y64364D01*
X26307Y64438D01*
X26814Y64198D01*
X26844Y64183D01*
X26872Y64169D01*
X26899Y64155D01*
X26925Y64141D01*
X26910Y64168D01*
X26896Y64196D01*
X26882Y64224D01*
X26869Y64252D01*
X26634Y64765D01*
X26703Y64834D01*
X27016Y64119D01*
X26946Y64049D01*
X26946Y64049D01*
X24226Y65087D02*
X24085Y65228D01*
X23945Y65088D01*
X23886Y65147D01*
X24026Y65287D01*
X23886Y65427D01*
X23945Y65486D01*
X24085Y65346D01*
X24225Y65486D01*
X24284Y65427D01*
X24144Y65287D01*
X24285Y65146D01*
X24226Y65087D01*
X24226Y65087D01*
X24816Y65511D02*
X24753Y65448D01*
X24351Y65850D01*
X24349Y65827D01*
X24346Y65802D01*
X24341Y65775D01*
X24334Y65747D01*
X24326Y65718D01*
X24318Y65693D01*
X24309Y65669D01*
X24300Y65648D01*
X24239Y65709D01*
X24252Y65747D01*
X24261Y65786D01*
X24268Y65824D01*
X24272Y65862D01*
X24272Y65898D01*
X24271Y65930D01*
X24266Y65960D01*
X24259Y65986D01*
X24300Y66027D01*
X24816Y65511D01*
X24816Y65511D01*
X25249Y66065D02*
X25310Y66004D01*
X24970Y65664D01*
X24959Y65676D01*
X24949Y65688D01*
X24940Y65702D01*
X24933Y65716D01*
X24923Y65740D01*
X24916Y65767D01*
X24910Y65795D01*
X24906Y65826D01*
X24905Y65859D01*
X24905Y65897D01*
X24907Y65939D01*
X24911Y65986D01*
X24917Y66057D01*
X24920Y66118D01*
X24919Y66168D01*
X24915Y66208D01*
X24909Y66241D01*
X24899Y66269D01*
X24885Y66294D01*
X24869Y66314D01*
X24849Y66330D01*
X24828Y66342D01*
X24804Y66348D01*
X24779Y66350D01*
X24753Y66347D01*
X24729Y66339D01*
X24705Y66325D01*
X24683Y66306D01*
X24663Y66283D01*
X24649Y66258D01*
X24640Y66232D01*
X24637Y66206D01*
X24640Y66179D01*
X24649Y66152D01*
X24665Y66127D01*
X24686Y66102D01*
X24614Y66044D01*
X24585Y66084D01*
X24566Y66124D01*
X24555Y66164D01*
X24553Y66205D01*
X24560Y66245D01*
X24576Y66284D01*
X24600Y66323D01*
X24632Y66360D01*
X24670Y66392D01*
X24709Y66416D01*
X24749Y66430D01*
X24790Y66436D01*
X24831Y66433D01*
X24869Y66422D01*
X24903Y66404D01*
X24935Y66377D01*
X24950Y66361D01*
X24963Y66343D01*
X24974Y66324D01*
X24983Y66304D01*
X24991Y66281D01*
X24997Y66257D01*
X25002Y66229D01*
X25004Y66199D01*
X25005Y66164D01*
X25004Y66121D01*
X25002Y66070D01*
X24997Y66011D01*
X24993Y65964D01*
X24991Y65925D01*
X24989Y65895D01*
X24989Y65874D01*
X24990Y65857D01*
X24991Y65842D01*
X24994Y65827D01*
X24997Y65813D01*
X25249Y66065D01*
X25249Y66065D01*
X25550Y66245D02*
X24836Y66560D01*
X24910Y66633D01*
X25417Y66393D01*
X25447Y66379D01*
X25476Y66365D01*
X25503Y66350D01*
X25528Y66336D01*
X25514Y66363D01*
X25499Y66391D01*
X25485Y66419D01*
X25472Y66448D01*
X25237Y66961D01*
X25307Y67030D01*
X25620Y66314D01*
X25550Y66245D01*
X25550Y66245D01*
X16813Y72185D02*
X16750Y72248D01*
X16944Y72442D01*
X17007Y72379D01*
X16813Y72185D01*
X16813Y72185D01*
X17451Y72515D02*
X17388Y72451D01*
X16986Y72854D01*
X16985Y72831D01*
X16981Y72806D01*
X16976Y72779D01*
X16970Y72751D01*
X16962Y72722D01*
X16954Y72696D01*
X16945Y72673D01*
X16936Y72651D01*
X16875Y72712D01*
X16887Y72751D01*
X16897Y72790D01*
X16903Y72828D01*
X16907Y72865D01*
X16908Y72901D01*
X16906Y72934D01*
X16902Y72964D01*
X16894Y72990D01*
X16935Y73031D01*
X17451Y72515D01*
X17451Y72515D01*
X17884Y73069D02*
X17945Y73008D01*
X17605Y72668D01*
X17594Y72680D01*
X17584Y72692D01*
X17576Y72705D01*
X17569Y72720D01*
X17559Y72744D01*
X17551Y72771D01*
X17545Y72799D01*
X17542Y72829D01*
X17540Y72863D01*
X17540Y72901D01*
X17543Y72943D01*
X17547Y72990D01*
X17552Y73061D01*
X17555Y73122D01*
X17555Y73172D01*
X17551Y73212D01*
X17544Y73245D01*
X17534Y73273D01*
X17521Y73298D01*
X17504Y73318D01*
X17485Y73334D01*
X17463Y73345D01*
X17440Y73352D01*
X17414Y73354D01*
X17389Y73351D01*
X17364Y73343D01*
X17341Y73329D01*
X17319Y73310D01*
X17299Y73287D01*
X17284Y73262D01*
X17276Y73236D01*
X17273Y73210D01*
X17276Y73183D01*
X17285Y73156D01*
X17300Y73131D01*
X17321Y73106D01*
X17249Y73048D01*
X17221Y73088D01*
X17201Y73128D01*
X17191Y73168D01*
X17189Y73209D01*
X17196Y73249D01*
X17211Y73288D01*
X17235Y73326D01*
X17268Y73364D01*
X17305Y73396D01*
X17344Y73420D01*
X17384Y73434D01*
X17426Y73440D01*
X17467Y73437D01*
X17504Y73426D01*
X17539Y73408D01*
X17571Y73381D01*
X17585Y73365D01*
X17598Y73347D01*
X17609Y73328D01*
X17619Y73308D01*
X17627Y73285D01*
X17633Y73260D01*
X17637Y73233D01*
X17640Y73203D01*
X17641Y73168D01*
X17640Y73125D01*
X17637Y73074D01*
X17633Y73015D01*
X17629Y72967D01*
X17626Y72929D01*
X17625Y72899D01*
X17625Y72878D01*
X17625Y72861D01*
X17627Y72846D01*
X17629Y72831D01*
X17632Y72817D01*
X17884Y73069D01*
X17884Y73069D01*
X18185Y73249D02*
X17472Y73564D01*
X17546Y73637D01*
X18053Y73397D01*
X18083Y73383D01*
X18111Y73369D01*
X18138Y73354D01*
X18164Y73340D01*
X18149Y73367D01*
X18135Y73395D01*
X18121Y73423D01*
X18107Y73452D01*
X17873Y73964D01*
X17942Y74034D01*
X18255Y73318D01*
X18185Y73249D01*
X18185Y73249D01*
X18835Y70709D02*
X18775Y70770D01*
X18992Y70988D01*
X19183Y70797D01*
X19176Y70753D01*
X19167Y70711D01*
X19155Y70671D01*
X19140Y70634D01*
X19122Y70598D01*
X19101Y70564D01*
X19077Y70533D01*
X19050Y70504D01*
X19011Y70469D01*
X18970Y70440D01*
X18926Y70416D01*
X18880Y70399D01*
X18833Y70388D01*
X18786Y70384D01*
X18740Y70388D01*
X18693Y70399D01*
X18648Y70417D01*
X18604Y70440D01*
X18563Y70470D01*
X18524Y70505D01*
X18489Y70543D01*
X18460Y70585D01*
X18435Y70629D01*
X18415Y70676D01*
X18402Y70724D01*
X18397Y70771D01*
X18399Y70818D01*
X18409Y70863D01*
X18426Y70908D01*
X18449Y70950D01*
X18478Y70991D01*
X18513Y71030D01*
X18542Y71057D01*
X18571Y71079D01*
X18601Y71098D01*
X18632Y71113D01*
X18664Y71125D01*
X18694Y71132D01*
X18724Y71135D01*
X18753Y71134D01*
X18783Y71128D01*
X18813Y71119D01*
X18844Y71106D01*
X18876Y71088D01*
X18832Y71010D01*
X18807Y71023D01*
X18784Y71032D01*
X18762Y71039D01*
X18741Y71043D01*
X18721Y71044D01*
X18700Y71042D01*
X18679Y71038D01*
X18656Y71030D01*
X18634Y71019D01*
X18612Y71006D01*
X18592Y70991D01*
X18572Y70973D01*
X18550Y70949D01*
X18532Y70926D01*
X18517Y70902D01*
X18505Y70878D01*
X18497Y70854D01*
X18491Y70831D01*
X18488Y70808D01*
X18488Y70785D01*
X18490Y70764D01*
X18494Y70743D01*
X18499Y70722D01*
X18506Y70702D01*
X18522Y70669D01*
X18541Y70638D01*
X18564Y70608D01*
X18590Y70579D01*
X18625Y70547D01*
X18659Y70522D01*
X18694Y70502D01*
X18729Y70488D01*
X18764Y70479D01*
X18798Y70476D01*
X18833Y70479D01*
X18867Y70488D01*
X18899Y70501D01*
X18930Y70518D01*
X18959Y70538D01*
X18985Y70561D01*
X19006Y70584D01*
X19025Y70609D01*
X19041Y70636D01*
X19054Y70665D01*
X19066Y70693D01*
X19074Y70719D01*
X19079Y70743D01*
X19082Y70765D01*
X18986Y70861D01*
X18835Y70709D01*
X18835Y70709D01*
X19354Y70825D02*
X18840Y71340D01*
X18910Y71409D01*
X19584Y71276D01*
X19180Y71679D01*
X19245Y71745D01*
X19759Y71230D01*
X19690Y71161D01*
X19015Y71295D01*
X19419Y70891D01*
X19354Y70825D01*
X19354Y70825D01*
X19874Y71345D02*
X19359Y71859D01*
X19428Y71927D01*
X19488Y71866D01*
X19881Y71474D01*
X19881Y71474D01*
X19991Y71583D01*
X20014Y71608D01*
X20034Y71631D01*
X20050Y71653D01*
X20061Y71673D01*
X20070Y71692D01*
X20076Y71710D01*
X20079Y71728D01*
X20081Y71745D01*
X20079Y71770D01*
X20074Y71795D01*
X20065Y71821D01*
X20053Y71848D01*
X20038Y71876D01*
X20018Y71904D01*
X19995Y71932D01*
X19968Y71961D01*
X19928Y71997D01*
X19890Y72025D01*
X19853Y72046D01*
X19817Y72058D01*
X19783Y72064D01*
X19752Y72065D01*
X19722Y72061D01*
X19695Y72052D01*
X19674Y72041D01*
X19651Y72024D01*
X19625Y72002D01*
X19596Y71974D01*
X19488Y71866D01*
X19428Y71927D01*
X19537Y72036D01*
X19565Y72064D01*
X19591Y72087D01*
X19615Y72106D01*
X19636Y72120D01*
X19663Y72136D01*
X19691Y72147D01*
X19719Y72155D01*
X19748Y72159D01*
X19785Y72160D01*
X19823Y72155D01*
X19860Y72146D01*
X19897Y72132D01*
X19933Y72113D01*
X19969Y72090D01*
X20004Y72062D01*
X20039Y72030D01*
X20067Y72001D01*
X20091Y71971D01*
X20112Y71942D01*
X20129Y71912D01*
X20143Y71883D01*
X20155Y71855D01*
X20163Y71828D01*
X20169Y71802D01*
X20172Y71777D01*
X20173Y71753D01*
X20172Y71731D01*
X20169Y71709D01*
X20163Y71688D01*
X20156Y71666D01*
X20146Y71644D01*
X20133Y71622D01*
X20118Y71599D01*
X20101Y71577D01*
X20081Y71554D01*
X20059Y71530D01*
X19874Y71345D01*
X19874Y71345D01*
X20631Y68913D02*
X20571Y68974D01*
X20788Y69192D01*
X20979Y69001D01*
X20973Y68957D01*
X20963Y68915D01*
X20951Y68875D01*
X20936Y68837D01*
X20918Y68802D01*
X20897Y68768D01*
X20873Y68737D01*
X20846Y68708D01*
X20807Y68673D01*
X20766Y68644D01*
X20722Y68620D01*
X20676Y68603D01*
X20629Y68592D01*
X20582Y68588D01*
X20536Y68592D01*
X20489Y68603D01*
X20444Y68621D01*
X20400Y68644D01*
X20359Y68674D01*
X20320Y68709D01*
X20285Y68747D01*
X20256Y68789D01*
X20231Y68833D01*
X20212Y68880D01*
X20199Y68928D01*
X20193Y68975D01*
X20195Y69021D01*
X20205Y69067D01*
X20222Y69111D01*
X20245Y69154D01*
X20274Y69195D01*
X20309Y69234D01*
X20338Y69260D01*
X20367Y69283D01*
X20397Y69302D01*
X20428Y69317D01*
X20460Y69329D01*
X20490Y69336D01*
X20520Y69339D01*
X20549Y69338D01*
X20579Y69332D01*
X20609Y69323D01*
X20640Y69310D01*
X20672Y69292D01*
X20628Y69214D01*
X20603Y69227D01*
X20580Y69236D01*
X20558Y69243D01*
X20537Y69247D01*
X20517Y69248D01*
X20496Y69246D01*
X20475Y69242D01*
X20452Y69234D01*
X20430Y69223D01*
X20409Y69210D01*
X20388Y69195D01*
X20368Y69177D01*
X20346Y69153D01*
X20328Y69129D01*
X20313Y69106D01*
X20302Y69082D01*
X20293Y69058D01*
X20287Y69034D01*
X20284Y69012D01*
X20284Y68989D01*
X20286Y68968D01*
X20290Y68947D01*
X20295Y68926D01*
X20302Y68906D01*
X20318Y68873D01*
X20337Y68842D01*
X20360Y68812D01*
X20386Y68783D01*
X20421Y68751D01*
X20455Y68726D01*
X20490Y68706D01*
X20525Y68692D01*
X20560Y68683D01*
X20594Y68680D01*
X20629Y68683D01*
X20663Y68692D01*
X20695Y68705D01*
X20726Y68722D01*
X20755Y68742D01*
X20781Y68765D01*
X20802Y68788D01*
X20821Y68813D01*
X20837Y68840D01*
X20850Y68869D01*
X20862Y68897D01*
X20870Y68923D01*
X20875Y68947D01*
X20878Y68969D01*
X20782Y69065D01*
X20631Y68913D01*
X20631Y68913D01*
X21150Y69029D02*
X20636Y69543D01*
X20706Y69613D01*
X21380Y69480D01*
X20976Y69883D01*
X21041Y69949D01*
X21555Y69434D01*
X21486Y69365D01*
X20811Y69499D01*
X21216Y69094D01*
X21150Y69029D01*
X21150Y69029D01*
X21670Y69549D02*
X21156Y70063D01*
X21224Y70131D01*
X21284Y70070D01*
X21677Y69677D01*
X21677Y69677D01*
X21787Y69787D01*
X21810Y69812D01*
X21830Y69835D01*
X21846Y69857D01*
X21857Y69877D01*
X21866Y69896D01*
X21872Y69914D01*
X21876Y69932D01*
X21877Y69949D01*
X21875Y69974D01*
X21870Y69999D01*
X21861Y70025D01*
X21849Y70052D01*
X21834Y70080D01*
X21814Y70107D01*
X21791Y70136D01*
X21764Y70165D01*
X21724Y70201D01*
X21686Y70229D01*
X21649Y70250D01*
X21613Y70262D01*
X21579Y70268D01*
X21548Y70269D01*
X21518Y70265D01*
X21491Y70256D01*
X21471Y70245D01*
X21447Y70228D01*
X21421Y70206D01*
X21392Y70178D01*
X21284Y70070D01*
X21224Y70131D01*
X21333Y70240D01*
X21361Y70268D01*
X21387Y70291D01*
X21411Y70310D01*
X21432Y70324D01*
X21459Y70340D01*
X21487Y70351D01*
X21515Y70359D01*
X21544Y70363D01*
X21581Y70364D01*
X21619Y70359D01*
X21656Y70350D01*
X21693Y70336D01*
X21729Y70317D01*
X21765Y70294D01*
X21800Y70266D01*
X21835Y70234D01*
X21863Y70205D01*
X21887Y70175D01*
X21908Y70146D01*
X21925Y70116D01*
X21939Y70087D01*
X21951Y70059D01*
X21959Y70032D01*
X21965Y70006D01*
X21968Y69981D01*
X21969Y69957D01*
X21968Y69935D01*
X21965Y69913D01*
X21959Y69891D01*
X21952Y69870D01*
X21942Y69848D01*
X21929Y69826D01*
X21914Y69803D01*
X21897Y69780D01*
X21877Y69758D01*
X21855Y69734D01*
X21670Y69549D01*
X21670Y69549D01*
X22427Y67117D02*
X22367Y67178D01*
X22584Y67396D01*
X22775Y67205D01*
X22769Y67161D01*
X22759Y67119D01*
X22747Y67079D01*
X22732Y67041D01*
X22714Y67006D01*
X22693Y66972D01*
X22669Y66941D01*
X22643Y66912D01*
X22603Y66877D01*
X22562Y66848D01*
X22518Y66824D01*
X22472Y66807D01*
X22425Y66796D01*
X22378Y66792D01*
X22332Y66796D01*
X22285Y66807D01*
X22240Y66825D01*
X22196Y66848D01*
X22155Y66878D01*
X22116Y66913D01*
X22081Y66951D01*
X22052Y66993D01*
X22027Y67037D01*
X22008Y67084D01*
X21995Y67132D01*
X21989Y67179D01*
X21991Y67225D01*
X22001Y67271D01*
X22018Y67315D01*
X22041Y67358D01*
X22070Y67399D01*
X22105Y67438D01*
X22134Y67464D01*
X22163Y67487D01*
X22193Y67506D01*
X22224Y67521D01*
X22256Y67533D01*
X22286Y67540D01*
X22316Y67543D01*
X22345Y67541D01*
X22375Y67536D01*
X22405Y67527D01*
X22436Y67514D01*
X22469Y67496D01*
X22424Y67418D01*
X22399Y67430D01*
X22376Y67440D01*
X22354Y67447D01*
X22333Y67451D01*
X22313Y67452D01*
X22292Y67450D01*
X22271Y67446D01*
X22248Y67438D01*
X22226Y67427D01*
X22205Y67414D01*
X22184Y67399D01*
X22164Y67380D01*
X22142Y67357D01*
X22124Y67333D01*
X22109Y67310D01*
X22098Y67286D01*
X22089Y67262D01*
X22083Y67238D01*
X22080Y67216D01*
X22080Y67193D01*
X22082Y67172D01*
X22086Y67150D01*
X22091Y67130D01*
X22098Y67110D01*
X22114Y67077D01*
X22133Y67046D01*
X22156Y67015D01*
X22182Y66987D01*
X22217Y66955D01*
X22251Y66930D01*
X22286Y66910D01*
X22321Y66896D01*
X22356Y66887D01*
X22390Y66884D01*
X22425Y66887D01*
X22459Y66896D01*
X22491Y66909D01*
X22522Y66925D01*
X22551Y66946D01*
X22577Y66969D01*
X22598Y66992D01*
X22617Y67017D01*
X22633Y67044D01*
X22647Y67073D01*
X22658Y67101D01*
X22666Y67127D01*
X22671Y67151D01*
X22674Y67173D01*
X22578Y67269D01*
X22427Y67117D01*
X22427Y67117D01*
X22946Y67233D02*
X22432Y67747D01*
X22502Y67817D01*
X23176Y67684D01*
X22772Y68087D01*
X22837Y68153D01*
X23351Y67638D01*
X23282Y67569D01*
X22607Y67703D01*
X23012Y67298D01*
X22946Y67233D01*
X22946Y67233D01*
X23466Y67753D02*
X22952Y68267D01*
X23020Y68335D01*
X23080Y68274D01*
X23473Y67881D01*
X23473Y67881D01*
X23583Y67991D01*
X23606Y68016D01*
X23626Y68039D01*
X23642Y68061D01*
X23653Y68080D01*
X23662Y68099D01*
X23668Y68118D01*
X23672Y68136D01*
X23673Y68153D01*
X23671Y68178D01*
X23666Y68203D01*
X23657Y68229D01*
X23645Y68256D01*
X23630Y68283D01*
X23610Y68311D01*
X23587Y68340D01*
X23560Y68369D01*
X23520Y68405D01*
X23482Y68433D01*
X23445Y68454D01*
X23409Y68466D01*
X23376Y68472D01*
X23344Y68473D01*
X23314Y68469D01*
X23287Y68460D01*
X23267Y68449D01*
X23243Y68432D01*
X23217Y68410D01*
X23188Y68382D01*
X23080Y68274D01*
X23020Y68335D01*
X23129Y68444D01*
X23157Y68472D01*
X23183Y68495D01*
X23207Y68514D01*
X23228Y68528D01*
X23255Y68543D01*
X23283Y68555D01*
X23311Y68563D01*
X23340Y68567D01*
X23377Y68568D01*
X23415Y68563D01*
X23452Y68554D01*
X23489Y68540D01*
X23525Y68521D01*
X23561Y68498D01*
X23596Y68470D01*
X23631Y68438D01*
X23659Y68408D01*
X23683Y68379D01*
X23704Y68350D01*
X23721Y68320D01*
X23736Y68291D01*
X23747Y68263D01*
X23755Y68236D01*
X23761Y68210D01*
X23764Y68185D01*
X23765Y68161D01*
X23764Y68139D01*
X23761Y68117D01*
X23755Y68095D01*
X23748Y68074D01*
X23738Y68052D01*
X23725Y68030D01*
X23710Y68007D01*
X23693Y67984D01*
X23674Y67961D01*
X23651Y67938D01*
X23466Y67753D01*
X23466Y67753D01*
X21251Y51573D02*
X21191Y51634D01*
X21409Y51852D01*
X21599Y51661D01*
X21593Y51617D01*
X21583Y51575D01*
X21571Y51535D01*
X21556Y51497D01*
X21538Y51462D01*
X21517Y51428D01*
X21493Y51397D01*
X21467Y51368D01*
X21428Y51333D01*
X21386Y51304D01*
X21343Y51280D01*
X21297Y51262D01*
X21250Y51251D01*
X21203Y51248D01*
X21156Y51252D01*
X21109Y51263D01*
X21064Y51281D01*
X21021Y51304D01*
X20980Y51333D01*
X20941Y51368D01*
X20906Y51407D01*
X20876Y51449D01*
X20851Y51493D01*
X20832Y51540D01*
X20819Y51588D01*
X20813Y51635D01*
X20816Y51681D01*
X20826Y51727D01*
X20842Y51771D01*
X20865Y51814D01*
X20894Y51855D01*
X20930Y51894D01*
X20958Y51920D01*
X20987Y51943D01*
X21018Y51962D01*
X21049Y51977D01*
X21080Y51988D01*
X21110Y51996D01*
X21140Y51999D01*
X21170Y51997D01*
X21199Y51992D01*
X21229Y51983D01*
X21261Y51969D01*
X21293Y51952D01*
X21248Y51874D01*
X21224Y51886D01*
X21200Y51896D01*
X21178Y51903D01*
X21158Y51907D01*
X21138Y51908D01*
X21117Y51906D01*
X21095Y51901D01*
X21073Y51894D01*
X21050Y51883D01*
X21029Y51870D01*
X21008Y51855D01*
X20988Y51836D01*
X20967Y51813D01*
X20948Y51789D01*
X20933Y51765D01*
X20922Y51741D01*
X20913Y51718D01*
X20908Y51694D01*
X20905Y51671D01*
X20904Y51649D01*
X20906Y51627D01*
X20910Y51606D01*
X20916Y51586D01*
X20923Y51566D01*
X20939Y51533D01*
X20958Y51501D01*
X20980Y51471D01*
X21007Y51443D01*
X21041Y51411D01*
X21076Y51386D01*
X21110Y51366D01*
X21145Y51351D01*
X21180Y51343D01*
X21215Y51340D01*
X21249Y51343D01*
X21283Y51352D01*
X21316Y51365D01*
X21346Y51381D01*
X21375Y51402D01*
X21402Y51425D01*
X21422Y51448D01*
X21441Y51473D01*
X21457Y51500D01*
X21471Y51529D01*
X21482Y51557D01*
X21490Y51583D01*
X21496Y51607D01*
X21498Y51629D01*
X21403Y51724D01*
X21251Y51573D01*
X21251Y51573D01*
X21960Y51971D02*
X21957Y51940D01*
X21956Y51935D01*
X21897Y51947D01*
X21898Y51968D01*
X21896Y51989D01*
X21890Y52010D01*
X21883Y52026D01*
X21871Y52044D01*
X21856Y52063D01*
X21837Y52083D01*
X21814Y52106D01*
X21814Y52106D01*
X21802Y52080D01*
X21784Y52051D01*
X21762Y52017D01*
X21735Y51980D01*
X21720Y51959D01*
X21708Y51940D01*
X21698Y51925D01*
X21692Y51912D01*
X21689Y51900D01*
X21687Y51889D01*
X21687Y51878D01*
X21688Y51866D01*
X21691Y51856D01*
X21696Y51846D01*
X21702Y51836D01*
X21709Y51828D01*
X21723Y51817D01*
X21737Y51809D01*
X21753Y51805D01*
X21770Y51805D01*
X21788Y51808D01*
X21807Y51816D01*
X21825Y51827D01*
X21843Y51844D01*
X21860Y51862D01*
X21874Y51882D01*
X21884Y51903D01*
X21892Y51925D01*
X21897Y51947D01*
X21956Y51935D01*
X21951Y51911D01*
X21944Y51885D01*
X21935Y51861D01*
X21924Y51839D01*
X21911Y51818D01*
X21895Y51798D01*
X21878Y51779D01*
X21847Y51752D01*
X21816Y51732D01*
X21785Y51720D01*
X21753Y51715D01*
X21723Y51716D01*
X21694Y51724D01*
X21668Y51738D01*
X21644Y51759D01*
X21631Y51773D01*
X21621Y51788D01*
X21612Y51804D01*
X21606Y51821D01*
X21602Y51838D01*
X21600Y51856D01*
X21600Y51873D01*
X21602Y51890D01*
X21606Y51907D01*
X21612Y51923D01*
X21619Y51940D01*
X21627Y51956D01*
X21635Y51969D01*
X21646Y51984D01*
X21659Y52002D01*
X21674Y52022D01*
X21705Y52062D01*
X21730Y52098D01*
X21750Y52129D01*
X21765Y52156D01*
X21759Y52162D01*
X21754Y52167D01*
X21751Y52170D01*
X21749Y52173D01*
X21730Y52190D01*
X21711Y52201D01*
X21693Y52208D01*
X21676Y52209D01*
X21653Y52205D01*
X21630Y52195D01*
X21607Y52180D01*
X21583Y52159D01*
X21563Y52137D01*
X21548Y52116D01*
X21538Y52096D01*
X21533Y52077D01*
X21532Y52058D01*
X21536Y52037D01*
X21544Y52015D01*
X21557Y51991D01*
X21486Y51937D01*
X21472Y51961D01*
X21462Y51984D01*
X21454Y52007D01*
X21450Y52029D01*
X21449Y52051D01*
X21452Y52074D01*
X21459Y52098D01*
X21468Y52122D01*
X21482Y52147D01*
X21498Y52172D01*
X21517Y52196D01*
X21540Y52220D01*
X21563Y52242D01*
X21586Y52261D01*
X21608Y52275D01*
X21629Y52286D01*
X21648Y52294D01*
X21667Y52300D01*
X21684Y52302D01*
X21701Y52302D01*
X21716Y52299D01*
X21732Y52295D01*
X21747Y52288D01*
X21763Y52279D01*
X21774Y52270D01*
X21788Y52258D01*
X21805Y52243D01*
X21825Y52224D01*
X21909Y52139D01*
X21949Y52100D01*
X21982Y52069D01*
X22007Y52046D01*
X22024Y52032D01*
X22038Y52023D01*
X22053Y52015D01*
X22069Y52009D01*
X22085Y52003D01*
X22019Y51937D01*
X22004Y51943D01*
X21990Y51951D01*
X21975Y51960D01*
X21960Y51971D01*
X21960Y51971D01*
X22244Y52276D02*
X22309Y52229D01*
X22299Y52213D01*
X22288Y52199D01*
X22278Y52187D01*
X22267Y52176D01*
X22250Y52160D01*
X22234Y52148D01*
X22218Y52139D01*
X22203Y52133D01*
X22188Y52130D01*
X22174Y52130D01*
X22161Y52131D01*
X22148Y52135D01*
X22133Y52143D01*
X22114Y52157D01*
X22092Y52176D01*
X22065Y52202D01*
X21851Y52416D01*
X21805Y52370D01*
X21756Y52419D01*
X21802Y52465D01*
X21710Y52558D01*
X21734Y52658D01*
X21865Y52528D01*
X21928Y52592D01*
X21977Y52543D01*
X21914Y52479D01*
X22132Y52261D01*
X22144Y52249D01*
X22155Y52240D01*
X22163Y52233D01*
X22170Y52230D01*
X22175Y52228D01*
X22181Y52227D01*
X22187Y52227D01*
X22193Y52228D01*
X22199Y52231D01*
X22205Y52234D01*
X22212Y52239D01*
X22219Y52245D01*
X22224Y52251D01*
X22231Y52258D01*
X22237Y52266D01*
X22244Y52276D01*
X22244Y52276D01*
X22497Y52656D02*
X22571Y52713D01*
X22588Y52677D01*
X22600Y52640D01*
X22604Y52604D01*
X22602Y52567D01*
X22594Y52531D01*
X22578Y52496D01*
X22556Y52462D01*
X22527Y52429D01*
X22485Y52393D01*
X22441Y52368D01*
X22395Y52354D01*
X22347Y52350D01*
X22299Y52356D01*
X22251Y52374D01*
X22204Y52403D01*
X22158Y52443D01*
X22117Y52490D01*
X22087Y52538D01*
X22068Y52587D01*
X22061Y52637D01*
X22064Y52686D01*
X22077Y52732D01*
X22101Y52775D01*
X22134Y52815D01*
X22140Y52820D01*
X22187Y52764D01*
X22168Y52741D01*
X22154Y52716D01*
X22146Y52690D01*
X22143Y52661D01*
X22146Y52632D01*
X22154Y52604D01*
X22168Y52577D01*
X22188Y52551D01*
X22188Y52551D01*
X22396Y52759D01*
X22371Y52778D01*
X22347Y52792D01*
X22324Y52801D01*
X22302Y52805D01*
X22270Y52805D01*
X22240Y52798D01*
X22212Y52784D01*
X22187Y52764D01*
X22140Y52820D01*
X22173Y52847D01*
X22215Y52870D01*
X22260Y52883D01*
X22307Y52886D01*
X22356Y52879D01*
X22404Y52860D01*
X22451Y52831D01*
X22498Y52790D01*
X22501Y52787D01*
X22505Y52783D01*
X22509Y52778D01*
X22514Y52773D01*
X22236Y52495D01*
X22269Y52470D01*
X22301Y52451D01*
X22333Y52440D01*
X22365Y52436D01*
X22396Y52438D01*
X22425Y52446D01*
X22451Y52461D01*
X22476Y52481D01*
X22491Y52499D01*
X22503Y52518D01*
X22512Y52538D01*
X22517Y52559D01*
X22518Y52581D01*
X22515Y52604D01*
X22508Y52629D01*
X22497Y52656D01*
X22497Y52656D01*
X20163Y54034D02*
X20248Y54085D01*
X20274Y54032D01*
X20292Y53981D01*
X20300Y53930D01*
X20299Y53880D01*
X20289Y53831D01*
X20270Y53785D01*
X20243Y53741D01*
X20207Y53700D01*
X20165Y53662D01*
X20123Y53633D01*
X20080Y53612D01*
X20038Y53598D01*
X19994Y53593D01*
X19950Y53594D01*
X19906Y53602D01*
X19860Y53617D01*
X19816Y53638D01*
X19773Y53663D01*
X19733Y53693D01*
X19695Y53728D01*
X19658Y53769D01*
X19628Y53811D01*
X19604Y53854D01*
X19586Y53899D01*
X19575Y53944D01*
X19570Y53988D01*
X19573Y54033D01*
X19582Y54077D01*
X19598Y54119D01*
X19619Y54160D01*
X19645Y54197D01*
X19676Y54233D01*
X19716Y54267D01*
X19757Y54294D01*
X19800Y54312D01*
X19845Y54323D01*
X19891Y54326D01*
X19937Y54320D01*
X19983Y54307D01*
X20029Y54286D01*
X19978Y54203D01*
X19942Y54219D01*
X19907Y54230D01*
X19875Y54234D01*
X19844Y54233D01*
X19815Y54226D01*
X19786Y54214D01*
X19759Y54196D01*
X19733Y54173D01*
X19706Y54143D01*
X19686Y54111D01*
X19671Y54079D01*
X19662Y54045D01*
X19659Y54012D01*
X19662Y53978D01*
X19669Y53945D01*
X19683Y53913D01*
X19700Y53882D01*
X19719Y53852D01*
X19741Y53825D01*
X19765Y53798D01*
X19798Y53768D01*
X19831Y53742D01*
X19865Y53720D01*
X19899Y53703D01*
X19933Y53691D01*
X19966Y53685D01*
X19999Y53684D01*
X20031Y53689D01*
X20063Y53699D01*
X20092Y53713D01*
X20118Y53731D01*
X20143Y53752D01*
X20168Y53782D01*
X20187Y53813D01*
X20200Y53847D01*
X20207Y53882D01*
X20207Y53919D01*
X20199Y53956D01*
X20184Y53995D01*
X20163Y54034D01*
X20163Y54034D01*
X20642Y54152D02*
X19928Y54467D01*
X20002Y54541D01*
X20509Y54301D01*
X20539Y54287D01*
X20567Y54272D01*
X20595Y54258D01*
X20620Y54244D01*
X20606Y54271D01*
X20591Y54299D01*
X20577Y54327D01*
X20564Y54356D01*
X20329Y54868D01*
X20399Y54938D01*
X20712Y54222D01*
X20642Y54152D01*
X20642Y54152D01*
X15905Y56407D02*
X15764Y56548D01*
X15624Y56408D01*
X15565Y56467D01*
X15705Y56607D01*
X15565Y56747D01*
X15625Y56806D01*
X15765Y56666D01*
X15905Y56806D01*
X15964Y56747D01*
X15824Y56607D01*
X15965Y56466D01*
X15905Y56407D01*
X15905Y56407D01*
X16495Y56831D02*
X16432Y56768D01*
X16030Y57170D01*
X16028Y57147D01*
X16025Y57122D01*
X16020Y57095D01*
X16014Y57067D01*
X16006Y57039D01*
X15997Y57013D01*
X15989Y56989D01*
X15980Y56968D01*
X15919Y57029D01*
X15931Y57068D01*
X15941Y57106D01*
X15947Y57144D01*
X15951Y57182D01*
X15952Y57218D01*
X15950Y57250D01*
X15945Y57280D01*
X15938Y57307D01*
X15979Y57347D01*
X16495Y56831D01*
X16495Y56831D01*
X16928Y57385D02*
X16989Y57324D01*
X16649Y56985D01*
X16638Y56996D01*
X16628Y57008D01*
X16620Y57022D01*
X16613Y57036D01*
X16603Y57061D01*
X16595Y57087D01*
X16589Y57116D01*
X16586Y57146D01*
X16584Y57179D01*
X16584Y57217D01*
X16586Y57259D01*
X16590Y57306D01*
X16596Y57377D01*
X16599Y57438D01*
X16599Y57488D01*
X16595Y57528D01*
X16588Y57561D01*
X16578Y57590D01*
X16565Y57614D01*
X16548Y57634D01*
X16529Y57650D01*
X16507Y57662D01*
X16484Y57668D01*
X16458Y57670D01*
X16433Y57667D01*
X16408Y57659D01*
X16385Y57645D01*
X16362Y57626D01*
X16343Y57603D01*
X16328Y57578D01*
X16320Y57553D01*
X16317Y57526D01*
X16320Y57499D01*
X16329Y57473D01*
X16344Y57447D01*
X16365Y57422D01*
X16293Y57364D01*
X16265Y57404D01*
X16245Y57444D01*
X16235Y57484D01*
X16233Y57525D01*
X16240Y57565D01*
X16255Y57604D01*
X16279Y57643D01*
X16312Y57680D01*
X16349Y57712D01*
X16388Y57736D01*
X16428Y57750D01*
X16470Y57756D01*
X16510Y57753D01*
X16548Y57742D01*
X16583Y57724D01*
X16615Y57697D01*
X16629Y57681D01*
X16642Y57664D01*
X16653Y57645D01*
X16663Y57624D01*
X16670Y57602D01*
X16677Y57577D01*
X16681Y57549D01*
X16684Y57519D01*
X16685Y57484D01*
X16684Y57441D01*
X16681Y57390D01*
X16677Y57332D01*
X16673Y57284D01*
X16670Y57245D01*
X16669Y57215D01*
X16669Y57194D01*
X16669Y57178D01*
X16671Y57162D01*
X16673Y57147D01*
X16676Y57133D01*
X16928Y57385D01*
X16928Y57385D01*
X17229Y57565D02*
X16516Y57880D01*
X16589Y57953D01*
X17097Y57714D01*
X17127Y57699D01*
X17155Y57685D01*
X17182Y57671D01*
X17208Y57656D01*
X17193Y57684D01*
X17179Y57711D01*
X17165Y57740D01*
X17151Y57768D01*
X16917Y58281D01*
X16986Y58350D01*
X17299Y57635D01*
X17229Y57565D01*
X17229Y57565D01*
X17921Y55190D02*
X17780Y55331D01*
X17640Y55191D01*
X17581Y55250D01*
X17721Y55390D01*
X17581Y55530D01*
X17641Y55589D01*
X17781Y55450D01*
X17921Y55589D01*
X17980Y55531D01*
X17840Y55391D01*
X17981Y55250D01*
X17921Y55190D01*
X17921Y55190D01*
X18139Y55511D02*
X18200Y55583D01*
X18227Y55565D01*
X18254Y55553D01*
X18281Y55546D01*
X18307Y55544D01*
X18331Y55548D01*
X18354Y55556D01*
X18376Y55568D01*
X18396Y55585D01*
X18415Y55609D01*
X18429Y55635D01*
X18437Y55664D01*
X18438Y55696D01*
X18434Y55729D01*
X18422Y55760D01*
X18404Y55790D01*
X18379Y55819D01*
X18351Y55843D01*
X18323Y55860D01*
X18294Y55870D01*
X18263Y55874D01*
X18233Y55871D01*
X18205Y55862D01*
X18178Y55847D01*
X18153Y55826D01*
X18139Y55810D01*
X18127Y55793D01*
X18118Y55775D01*
X18111Y55757D01*
X18107Y55738D01*
X18105Y55719D01*
X18106Y55700D01*
X18109Y55682D01*
X18042Y55631D01*
X17827Y55944D01*
X18083Y56200D01*
X18143Y56140D01*
X17938Y55935D01*
X18049Y55769D01*
X18058Y55806D01*
X18072Y55840D01*
X18090Y55871D01*
X18114Y55898D01*
X18149Y55928D01*
X18187Y55949D01*
X18229Y55961D01*
X18274Y55965D01*
X18319Y55960D01*
X18362Y55947D01*
X18402Y55924D01*
X18440Y55892D01*
X18471Y55855D01*
X18495Y55816D01*
X18511Y55775D01*
X18520Y55730D01*
X18521Y55676D01*
X18509Y55625D01*
X18484Y55577D01*
X18448Y55533D01*
X18412Y55502D01*
X18374Y55479D01*
X18335Y55464D01*
X18294Y55457D01*
X18253Y55459D01*
X18213Y55468D01*
X18175Y55486D01*
X18139Y55511D01*
X18139Y55511D01*
X18846Y55948D02*
X18132Y56263D01*
X18206Y56337D01*
X18713Y56097D01*
X18743Y56083D01*
X18771Y56068D01*
X18799Y56054D01*
X18824Y56040D01*
X18809Y56067D01*
X18795Y56095D01*
X18781Y56123D01*
X18768Y56152D01*
X18533Y56664D01*
X18603Y56734D01*
X18916Y56018D01*
X18846Y55948D01*
X18846Y55948D01*
X14028Y58719D02*
X13968Y58779D01*
X14185Y58997D01*
X14376Y58806D01*
X14370Y58762D01*
X14360Y58720D01*
X14348Y58680D01*
X14333Y58643D01*
X14315Y58607D01*
X14294Y58573D01*
X14270Y58542D01*
X14244Y58513D01*
X14205Y58478D01*
X14163Y58449D01*
X14120Y58425D01*
X14074Y58408D01*
X14026Y58397D01*
X13980Y58393D01*
X13933Y58397D01*
X13886Y58408D01*
X13841Y58426D01*
X13798Y58449D01*
X13756Y58479D01*
X13717Y58514D01*
X13683Y58553D01*
X13653Y58594D01*
X13628Y58638D01*
X13609Y58685D01*
X13596Y58733D01*
X13590Y58780D01*
X13593Y58827D01*
X13602Y58872D01*
X13619Y58917D01*
X13642Y58959D01*
X13671Y59000D01*
X13707Y59040D01*
X13735Y59066D01*
X13764Y59088D01*
X13794Y59107D01*
X13826Y59122D01*
X13857Y59134D01*
X13887Y59141D01*
X13917Y59144D01*
X13947Y59143D01*
X13976Y59137D01*
X14006Y59128D01*
X14038Y59115D01*
X14070Y59097D01*
X14025Y59019D01*
X14000Y59032D01*
X13977Y59041D01*
X13955Y59048D01*
X13935Y59052D01*
X13914Y59053D01*
X13894Y59051D01*
X13872Y59047D01*
X13850Y59039D01*
X13827Y59028D01*
X13806Y59015D01*
X13785Y59000D01*
X13765Y58982D01*
X13744Y58958D01*
X13725Y58935D01*
X13710Y58911D01*
X13699Y58887D01*
X13690Y58863D01*
X13684Y58840D01*
X13681Y58817D01*
X13681Y58794D01*
X13683Y58773D01*
X13687Y58752D01*
X13692Y58731D01*
X13700Y58711D01*
X13715Y58678D01*
X13735Y58647D01*
X13757Y58617D01*
X13783Y58588D01*
X13818Y58557D01*
X13852Y58531D01*
X13887Y58511D01*
X13922Y58497D01*
X13957Y58488D01*
X13992Y58485D01*
X14026Y58488D01*
X14060Y58497D01*
X14093Y58510D01*
X14123Y58527D01*
X14152Y58547D01*
X14178Y58570D01*
X14199Y58594D01*
X14218Y58618D01*
X14234Y58645D01*
X14248Y58674D01*
X14259Y58702D01*
X14267Y58728D01*
X14273Y58752D01*
X14275Y58774D01*
X14179Y58870D01*
X14028Y58719D01*
X14028Y58719D01*
X14547Y58834D02*
X14033Y59349D01*
X14103Y59418D01*
X14777Y59285D01*
X14373Y59688D01*
X14438Y59754D01*
X14953Y59239D01*
X14883Y59170D01*
X14209Y59304D01*
X14613Y58900D01*
X14547Y58834D01*
X14547Y58834D01*
X15067Y59354D02*
X14553Y59868D01*
X14729Y60044D01*
X14790Y59984D01*
X14681Y59875D01*
X15074Y59483D01*
X15074Y59483D01*
X15184Y59592D01*
X15208Y59617D01*
X15227Y59640D01*
X15243Y59662D01*
X15254Y59682D01*
X15263Y59701D01*
X15269Y59719D01*
X15273Y59737D01*
X15274Y59754D01*
X15272Y59779D01*
X15267Y59804D01*
X15259Y59830D01*
X15247Y59857D01*
X15231Y59885D01*
X15212Y59913D01*
X15188Y59941D01*
X15161Y59970D01*
X15121Y60006D01*
X15083Y60035D01*
X15046Y60055D01*
X15011Y60067D01*
X14977Y60073D01*
X14945Y60074D01*
X14915Y60070D01*
X14888Y60061D01*
X14868Y60050D01*
X14845Y60033D01*
X14818Y60011D01*
X14790Y59984D01*
X14729Y60044D01*
X14730Y60045D01*
X14759Y60073D01*
X14785Y60096D01*
X14808Y60115D01*
X14829Y60129D01*
X14856Y60145D01*
X14884Y60156D01*
X14912Y60164D01*
X14941Y60168D01*
X14979Y60169D01*
X15016Y60164D01*
X15053Y60155D01*
X15090Y60141D01*
X15126Y60122D01*
X15162Y60099D01*
X15198Y60071D01*
X15232Y60039D01*
X15260Y60010D01*
X15284Y59980D01*
X15305Y59951D01*
X15322Y59921D01*
X15337Y59892D01*
X15348Y59864D01*
X15357Y59837D01*
X15362Y59811D01*
X15365Y59786D01*
X15366Y59763D01*
X15365Y59740D01*
X15362Y59718D01*
X15357Y59697D01*
X15349Y59675D01*
X15339Y59653D01*
X15326Y59631D01*
X15312Y59608D01*
X15294Y59586D01*
X15275Y59563D01*
X15253Y59539D01*
X15067Y59354D01*
X15067Y59354D01*
X12232Y60515D02*
X12172Y60575D01*
X12389Y60793D01*
X12580Y60602D01*
X12574Y60558D01*
X12564Y60516D01*
X12552Y60476D01*
X12537Y60439D01*
X12519Y60403D01*
X12498Y60369D01*
X12474Y60338D01*
X12448Y60309D01*
X12409Y60274D01*
X12367Y60245D01*
X12324Y60221D01*
X12277Y60204D01*
X12230Y60193D01*
X12183Y60189D01*
X12137Y60193D01*
X12090Y60204D01*
X12045Y60222D01*
X12001Y60245D01*
X11960Y60275D01*
X11921Y60310D01*
X11886Y60349D01*
X11857Y60390D01*
X11832Y60434D01*
X11813Y60481D01*
X11800Y60529D01*
X11794Y60576D01*
X11797Y60623D01*
X11806Y60668D01*
X11823Y60713D01*
X11846Y60755D01*
X11875Y60796D01*
X11911Y60836D01*
X11939Y60862D01*
X11968Y60884D01*
X11998Y60903D01*
X12029Y60918D01*
X12061Y60930D01*
X12091Y60937D01*
X12121Y60940D01*
X12150Y60939D01*
X12180Y60933D01*
X12210Y60924D01*
X12241Y60911D01*
X12274Y60893D01*
X12229Y60815D01*
X12204Y60828D01*
X12181Y60837D01*
X12159Y60844D01*
X12139Y60848D01*
X12118Y60849D01*
X12097Y60848D01*
X12076Y60843D01*
X12054Y60835D01*
X12031Y60825D01*
X12010Y60811D01*
X11989Y60796D01*
X11969Y60778D01*
X11947Y60754D01*
X11929Y60731D01*
X11914Y60707D01*
X11903Y60683D01*
X11894Y60659D01*
X11888Y60636D01*
X11885Y60613D01*
X11885Y60591D01*
X11887Y60569D01*
X11891Y60548D01*
X11896Y60527D01*
X11904Y60507D01*
X11919Y60474D01*
X11939Y60443D01*
X11961Y60413D01*
X11987Y60384D01*
X12022Y60353D01*
X12056Y60327D01*
X12091Y60307D01*
X12126Y60293D01*
X12161Y60284D01*
X12196Y60281D01*
X12230Y60284D01*
X12264Y60293D01*
X12297Y60306D01*
X12327Y60323D01*
X12356Y60343D01*
X12382Y60367D01*
X12403Y60390D01*
X12422Y60414D01*
X12438Y60441D01*
X12452Y60470D01*
X12463Y60498D01*
X12471Y60524D01*
X12477Y60548D01*
X12479Y60570D01*
X12383Y60666D01*
X12232Y60515D01*
X12232Y60515D01*
X12751Y60630D02*
X12237Y61145D01*
X12307Y61214D01*
X12981Y61081D01*
X12577Y61485D01*
X12642Y61550D01*
X13157Y61036D01*
X13087Y60966D01*
X12413Y61100D01*
X12817Y60696D01*
X12751Y60630D01*
X12751Y60630D01*
X13271Y61150D02*
X12757Y61664D01*
X12933Y61840D01*
X12993Y61780D01*
X12885Y61672D01*
X13278Y61279D01*
X13278Y61279D01*
X13388Y61388D01*
X13412Y61413D01*
X13431Y61436D01*
X13447Y61458D01*
X13458Y61478D01*
X13467Y61497D01*
X13473Y61515D01*
X13477Y61533D01*
X13478Y61550D01*
X13476Y61575D01*
X13471Y61600D01*
X13463Y61626D01*
X13451Y61653D01*
X13435Y61681D01*
X13415Y61709D01*
X13392Y61737D01*
X13365Y61766D01*
X13325Y61802D01*
X13287Y61831D01*
X13250Y61851D01*
X13214Y61863D01*
X13181Y61869D01*
X13149Y61870D01*
X13119Y61866D01*
X13092Y61857D01*
X13072Y61846D01*
X13048Y61829D01*
X13022Y61807D01*
X12993Y61780D01*
X12933Y61840D01*
X12934Y61841D01*
X12963Y61869D01*
X12989Y61892D01*
X13012Y61911D01*
X13033Y61925D01*
X13060Y61941D01*
X13088Y61952D01*
X13116Y61960D01*
X13145Y61964D01*
X13182Y61965D01*
X13220Y61960D01*
X13257Y61951D01*
X13294Y61937D01*
X13330Y61918D01*
X13366Y61895D01*
X13401Y61867D01*
X13436Y61835D01*
X13464Y61806D01*
X13488Y61776D01*
X13509Y61747D01*
X13526Y61717D01*
X13541Y61688D01*
X13552Y61661D01*
X13561Y61634D01*
X13566Y61607D01*
X13569Y61583D01*
X13570Y61559D01*
X13569Y61536D01*
X13566Y61514D01*
X13561Y61493D01*
X13553Y61471D01*
X13543Y61449D01*
X13530Y61427D01*
X13516Y61404D01*
X13498Y61382D01*
X13479Y61359D01*
X13457Y61335D01*
X13271Y61150D01*
X13271Y61150D01*
X10436Y62311D02*
X10376Y62371D01*
X10593Y62589D01*
X10784Y62398D01*
X10778Y62354D01*
X10768Y62312D01*
X10756Y62272D01*
X10741Y62235D01*
X10723Y62199D01*
X10702Y62166D01*
X10678Y62134D01*
X10652Y62105D01*
X10613Y62070D01*
X10571Y62041D01*
X10527Y62017D01*
X10481Y62000D01*
X10434Y61989D01*
X10387Y61985D01*
X10341Y61989D01*
X10294Y62000D01*
X10249Y62018D01*
X10205Y62041D01*
X10164Y62071D01*
X10125Y62106D01*
X10090Y62145D01*
X10061Y62186D01*
X10036Y62230D01*
X10017Y62277D01*
X10004Y62325D01*
X9998Y62372D01*
X10000Y62419D01*
X10010Y62464D01*
X10027Y62509D01*
X10050Y62551D01*
X10079Y62592D01*
X10115Y62632D01*
X10143Y62658D01*
X10172Y62680D01*
X10202Y62699D01*
X10233Y62714D01*
X10265Y62726D01*
X10295Y62733D01*
X10325Y62736D01*
X10354Y62735D01*
X10384Y62729D01*
X10414Y62720D01*
X10445Y62707D01*
X10478Y62689D01*
X10433Y62611D01*
X10408Y62624D01*
X10385Y62633D01*
X10363Y62640D01*
X10343Y62644D01*
X10322Y62645D01*
X10301Y62644D01*
X10280Y62639D01*
X10257Y62631D01*
X10235Y62621D01*
X10214Y62608D01*
X10193Y62592D01*
X10173Y62574D01*
X10151Y62550D01*
X10133Y62527D01*
X10118Y62503D01*
X10107Y62479D01*
X10098Y62455D01*
X10092Y62432D01*
X10089Y62409D01*
X10089Y62387D01*
X10091Y62365D01*
X10095Y62344D01*
X10100Y62323D01*
X10107Y62303D01*
X10123Y62270D01*
X10142Y62239D01*
X10165Y62209D01*
X10191Y62180D01*
X10226Y62149D01*
X10260Y62123D01*
X10295Y62103D01*
X10330Y62089D01*
X10365Y62080D01*
X10399Y62077D01*
X10434Y62080D01*
X10468Y62089D01*
X10501Y62102D01*
X10531Y62119D01*
X10560Y62139D01*
X10586Y62163D01*
X10607Y62186D01*
X10626Y62211D01*
X10642Y62237D01*
X10656Y62266D01*
X10667Y62294D01*
X10675Y62320D01*
X10680Y62344D01*
X10683Y62366D01*
X10587Y62462D01*
X10436Y62311D01*
X10436Y62311D01*
X10955Y62426D02*
X10441Y62941D01*
X10511Y63010D01*
X11185Y62877D01*
X10781Y63281D01*
X10846Y63346D01*
X11361Y62832D01*
X11291Y62762D01*
X10617Y62896D01*
X11021Y62492D01*
X10955Y62426D01*
X10955Y62426D01*
X11475Y62946D02*
X10961Y63460D01*
X11137Y63636D01*
X11197Y63576D01*
X11089Y63468D01*
X11482Y63075D01*
X11482Y63075D01*
X11592Y63184D01*
X11616Y63209D01*
X11635Y63232D01*
X11651Y63254D01*
X11662Y63274D01*
X11671Y63293D01*
X11677Y63311D01*
X11681Y63329D01*
X11682Y63347D01*
X11680Y63371D01*
X11675Y63396D01*
X11666Y63423D01*
X11654Y63449D01*
X11639Y63477D01*
X11619Y63505D01*
X11596Y63533D01*
X11569Y63562D01*
X11529Y63598D01*
X11491Y63627D01*
X11454Y63647D01*
X11418Y63659D01*
X11385Y63665D01*
X11353Y63666D01*
X11323Y63662D01*
X11296Y63653D01*
X11276Y63642D01*
X11252Y63625D01*
X11226Y63603D01*
X11197Y63576D01*
X11137Y63636D01*
X11138Y63637D01*
X11166Y63665D01*
X11193Y63688D01*
X11216Y63707D01*
X11237Y63722D01*
X11264Y63737D01*
X11292Y63748D01*
X11320Y63756D01*
X11349Y63760D01*
X11386Y63761D01*
X11424Y63757D01*
X11461Y63747D01*
X11498Y63733D01*
X11534Y63714D01*
X11570Y63691D01*
X11605Y63663D01*
X11640Y63631D01*
X11668Y63602D01*
X11692Y63572D01*
X11713Y63543D01*
X11730Y63514D01*
X11745Y63485D01*
X11756Y63457D01*
X11765Y63430D01*
X11770Y63404D01*
X11773Y63379D01*
X11774Y63355D01*
X11773Y63332D01*
X11770Y63310D01*
X11765Y63289D01*
X11757Y63267D01*
X11747Y63245D01*
X11734Y63223D01*
X11719Y63200D01*
X11702Y63178D01*
X11683Y63155D01*
X11660Y63132D01*
X11475Y62946D01*
X11475Y62946D01*
X8493Y63865D02*
X8430Y63929D01*
X8624Y64122D01*
X8687Y64059D01*
X8493Y63865D01*
X8493Y63865D01*
X9132Y64195D02*
X9068Y64132D01*
X8666Y64534D01*
X8665Y64511D01*
X8661Y64486D01*
X8657Y64459D01*
X8650Y64431D01*
X8642Y64402D01*
X8634Y64376D01*
X8625Y64353D01*
X8616Y64332D01*
X8555Y64393D01*
X8567Y64431D01*
X8577Y64470D01*
X8584Y64508D01*
X8587Y64546D01*
X8588Y64581D01*
X8586Y64614D01*
X8582Y64644D01*
X8575Y64670D01*
X8615Y64711D01*
X9132Y64195D01*
X9132Y64195D01*
X9564Y64749D02*
X9625Y64688D01*
X9285Y64348D01*
X9274Y64360D01*
X9264Y64372D01*
X9256Y64385D01*
X9249Y64400D01*
X9239Y64424D01*
X9231Y64451D01*
X9226Y64479D01*
X9222Y64510D01*
X9220Y64543D01*
X9221Y64581D01*
X9223Y64623D01*
X9227Y64670D01*
X9233Y64741D01*
X9235Y64802D01*
X9235Y64852D01*
X9231Y64892D01*
X9224Y64925D01*
X9214Y64953D01*
X9201Y64978D01*
X9185Y64998D01*
X9165Y65014D01*
X9143Y65026D01*
X9120Y65032D01*
X9094Y65034D01*
X9069Y65031D01*
X9044Y65023D01*
X9021Y65009D01*
X8999Y64990D01*
X8979Y64967D01*
X8964Y64942D01*
X8956Y64916D01*
X8953Y64890D01*
X8956Y64863D01*
X8965Y64836D01*
X8980Y64811D01*
X9001Y64786D01*
X8930Y64728D01*
X8901Y64768D01*
X8881Y64808D01*
X8871Y64848D01*
X8869Y64889D01*
X8876Y64929D01*
X8891Y64968D01*
X8915Y65006D01*
X8948Y65044D01*
X8985Y65076D01*
X9024Y65100D01*
X9065Y65114D01*
X9106Y65120D01*
X9147Y65117D01*
X9184Y65106D01*
X9219Y65088D01*
X9251Y65061D01*
X9265Y65045D01*
X9278Y65027D01*
X9289Y65008D01*
X9299Y64988D01*
X9307Y64965D01*
X9313Y64940D01*
X9317Y64913D01*
X9320Y64883D01*
X9321Y64848D01*
X9320Y64805D01*
X9317Y64754D01*
X9313Y64695D01*
X9309Y64648D01*
X9306Y64609D01*
X9305Y64579D01*
X9305Y64558D01*
X9306Y64541D01*
X9307Y64526D01*
X9309Y64511D01*
X9312Y64497D01*
X9564Y64749D01*
X9564Y64749D01*
X9865Y64929D02*
X9152Y65244D01*
X9226Y65317D01*
X9733Y65077D01*
X9763Y65063D01*
X9791Y65049D01*
X9818Y65034D01*
X9844Y65020D01*
X9829Y65047D01*
X9815Y65075D01*
X9801Y65103D01*
X9788Y65132D01*
X9553Y65645D01*
X9622Y65714D01*
X9935Y64998D01*
X9865Y64929D01*
X9865Y64929D01*
G37*
%LNtop silkscreen component 6f45595ed46c503a*%
D10*
X26544Y27095D02*
X6745Y46894D01*
X12756Y52905*
X32555Y33106*
X26544Y27095*
X26544Y27449D02*
X7099Y46894D01*
X12756Y52551*
X32201Y33106*
X26544Y27449*
D11*
X9323Y50327D03*
D12*
X16981Y37366D03*
G36*
X6904Y48663D02*
X6133Y49434D01*
X6475Y49776D01*
X6525Y49823D01*
X6571Y49862D01*
X6614Y49891D01*
X6653Y49912D01*
X6691Y49925D01*
X6730Y49932D01*
X6770Y49932D01*
X6812Y49925D01*
X6853Y49912D01*
X6891Y49893D01*
X6927Y49870D01*
X6960Y49840D01*
X6996Y49798D01*
X7023Y49752D01*
X7039Y49702D01*
X7045Y49649D01*
X7041Y49593D01*
X7024Y49535D01*
X6995Y49475D01*
X6974Y49445D01*
X6875Y49511D01*
X6890Y49539D01*
X6900Y49566D01*
X6906Y49593D01*
X6907Y49619D01*
X6904Y49646D01*
X6896Y49671D01*
X6886Y49694D01*
X6872Y49716D01*
X6855Y49735D01*
X6826Y49759D01*
X6795Y49775D01*
X6762Y49784D01*
X6725Y49785D01*
X6687Y49778D01*
X6648Y49761D01*
X6607Y49733D01*
X6565Y49695D01*
X6320Y49451D01*
X6576Y49196D01*
X6576Y49196D01*
X6795Y49415D01*
X6827Y49449D01*
X6854Y49481D01*
X6875Y49511D01*
X6974Y49445D01*
X6953Y49413D01*
X6982Y49423D01*
X7008Y49430D01*
X7032Y49434D01*
X7053Y49436D01*
X7097Y49437D01*
X7143Y49434D01*
X7190Y49428D01*
X7240Y49418D01*
X7584Y49343D01*
X7456Y49214D01*
X7193Y49273D01*
X7139Y49284D01*
X7091Y49293D01*
X7049Y49300D01*
X7013Y49305D01*
X6982Y49308D01*
X6955Y49309D01*
X6931Y49308D01*
X6910Y49305D01*
X6892Y49300D01*
X6874Y49294D01*
X6858Y49287D01*
X6843Y49279D01*
X6831Y49271D01*
X6817Y49259D01*
X6801Y49244D01*
X6782Y49226D01*
X6664Y49107D01*
X7007Y48765D01*
X6904Y48663D01*
X6904Y48663D01*
X7872Y49990D02*
X7982Y50076D01*
X8008Y50021D01*
X8025Y49966D01*
X8032Y49912D01*
X8029Y49857D01*
X8016Y49803D01*
X7993Y49750D01*
X7960Y49699D01*
X7916Y49649D01*
X7854Y49596D01*
X7788Y49558D01*
X7719Y49537D01*
X7646Y49531D01*
X7573Y49541D01*
X7502Y49567D01*
X7432Y49611D01*
X7363Y49671D01*
X7301Y49742D01*
X7256Y49814D01*
X7228Y49887D01*
X7217Y49962D01*
X7221Y50035D01*
X7242Y50104D01*
X7277Y50168D01*
X7327Y50228D01*
X7336Y50235D01*
X7406Y50151D01*
X7377Y50117D01*
X7357Y50080D01*
X7344Y50041D01*
X7340Y49998D01*
X7344Y49955D01*
X7356Y49912D01*
X7378Y49872D01*
X7408Y49832D01*
X7408Y49832D01*
X7720Y50144D01*
X7682Y50173D01*
X7646Y50194D01*
X7611Y50208D01*
X7578Y50214D01*
X7530Y50214D01*
X7485Y50203D01*
X7444Y50182D01*
X7406Y50151D01*
X7336Y50235D01*
X7385Y50277D01*
X7448Y50311D01*
X7515Y50330D01*
X7586Y50335D01*
X7660Y50324D01*
X7732Y50297D01*
X7802Y50252D01*
X7872Y50191D01*
X7877Y50187D01*
X7883Y50181D01*
X7889Y50174D01*
X7897Y50166D01*
X7480Y49749D01*
X7529Y49711D01*
X7577Y49683D01*
X7625Y49666D01*
X7673Y49660D01*
X7720Y49663D01*
X7763Y49676D01*
X7802Y49697D01*
X7839Y49728D01*
X7862Y49755D01*
X7880Y49783D01*
X7893Y49813D01*
X7901Y49844D01*
X7902Y49877D01*
X7898Y49913D01*
X7888Y49950D01*
X7872Y49990D01*
X7872Y49990D01*
X8631Y50389D02*
X8560Y50460D01*
X8473Y50461D01*
X8473Y50463D01*
X8463Y50511D01*
X8441Y50560D01*
X8408Y50610D01*
X8362Y50662D01*
X8305Y50713D01*
X8251Y50750D01*
X8199Y50775D01*
X8149Y50786D01*
X8102Y50786D01*
X8059Y50777D01*
X8021Y50759D01*
X7986Y50731D01*
X7959Y50697D01*
X7941Y50660D01*
X7932Y50619D01*
X7932Y50574D01*
X7943Y50526D01*
X7967Y50476D01*
X8003Y50423D01*
X8053Y50369D01*
X8053Y50369D01*
X8106Y50321D01*
X8158Y50286D01*
X8209Y50264D01*
X8258Y50254D01*
X8305Y50254D01*
X8348Y50263D01*
X8385Y50281D01*
X8418Y50307D01*
X8445Y50340D01*
X8463Y50377D01*
X8472Y50418D01*
X8473Y50461D01*
X8560Y50460D01*
X8567Y50394D01*
X8557Y50332D01*
X8531Y50274D01*
X8487Y50220D01*
X8452Y50190D01*
X8414Y50165D01*
X8372Y50147D01*
X8328Y50134D01*
X8281Y50128D01*
X8234Y50129D01*
X8186Y50136D01*
X8138Y50150D01*
X8090Y50171D01*
X8044Y50198D01*
X7999Y50232D01*
X7955Y50271D01*
X7916Y50314D01*
X7882Y50358D01*
X7854Y50404D01*
X7831Y50451D01*
X7815Y50499D01*
X7806Y50546D01*
X7805Y50593D01*
X7811Y50639D01*
X7823Y50684D01*
X7842Y50726D01*
X7868Y50764D01*
X7899Y50800D01*
X7925Y50823D01*
X7952Y50843D01*
X7981Y50858D01*
X8010Y50869D01*
X8041Y50876D01*
X8071Y50880D01*
X8100Y50881D01*
X8130Y50878D01*
X7853Y51154D01*
X7947Y51249D01*
X8719Y50477D01*
X8631Y50389D01*
X8631Y50389D01*
X9270Y51029D02*
X8540Y51416D01*
X8638Y51514D01*
X9050Y51281D01*
X9203Y51194D01*
X9195Y51207D01*
X9178Y51235D01*
X9152Y51279D01*
X9117Y51338D01*
X8878Y51754D01*
X8976Y51852D01*
X9383Y51611D01*
X9518Y51532D01*
X9442Y51672D01*
X9215Y52091D01*
X9307Y52183D01*
X9691Y51450D01*
X9593Y51351D01*
X9169Y51597D01*
X9052Y51671D01*
X9369Y51128D01*
X9270Y51029D01*
X9270Y51029D01*
X9946Y51704D02*
X9387Y52263D01*
X9482Y52358D01*
X10041Y51799D01*
X9946Y51704D01*
X9946Y51704D01*
X9283Y52367D02*
X9174Y52476D01*
X9269Y52570D01*
X9378Y52461D01*
X9283Y52367D01*
X9283Y52367D01*
X10184Y51942D02*
X9625Y52501D01*
X9710Y52586D01*
X9795Y52501D01*
X9784Y52545D01*
X9777Y52582D01*
X9775Y52614D01*
X9777Y52640D01*
X9783Y52662D01*
X9791Y52683D01*
X9803Y52702D01*
X9819Y52720D01*
X9844Y52742D01*
X9874Y52760D01*
X9908Y52775D01*
X9946Y52787D01*
X10002Y52666D01*
X9975Y52658D01*
X9951Y52647D01*
X9930Y52633D01*
X9912Y52617D01*
X9898Y52601D01*
X9887Y52583D01*
X9879Y52564D01*
X9875Y52543D01*
X9873Y52521D01*
X9876Y52499D01*
X9882Y52477D01*
X9891Y52456D01*
X9910Y52423D01*
X9932Y52391D01*
X9957Y52360D01*
X9986Y52329D01*
X10278Y52037D01*
X10184Y51942D01*
X10184Y51942D01*
X10746Y52864D02*
X10856Y52950D01*
X10883Y52896D01*
X10899Y52841D01*
X10906Y52786D01*
X10903Y52731D01*
X10891Y52677D01*
X10868Y52624D01*
X10834Y52573D01*
X10791Y52524D01*
X10728Y52471D01*
X10662Y52433D01*
X10593Y52411D01*
X10521Y52405D01*
X10448Y52415D01*
X10376Y52442D01*
X10306Y52485D01*
X10237Y52545D01*
X10175Y52616D01*
X10130Y52688D01*
X10102Y52762D01*
X10091Y52837D01*
X10096Y52910D01*
X10116Y52978D01*
X10151Y53043D01*
X10202Y53103D01*
X10210Y53110D01*
X10280Y53026D01*
X10252Y52992D01*
X10231Y52955D01*
X10219Y52915D01*
X10214Y52873D01*
X10218Y52829D01*
X10231Y52787D01*
X10252Y52746D01*
X10282Y52707D01*
X10282Y52707D01*
X10594Y53019D01*
X10556Y53047D01*
X10520Y53068D01*
X10486Y53082D01*
X10453Y53089D01*
X10404Y53088D01*
X10360Y53078D01*
X10318Y53057D01*
X10280Y53026D01*
X10210Y53110D01*
X10260Y53151D01*
X10322Y53186D01*
X10389Y53205D01*
X10461Y53210D01*
X10534Y53199D01*
X10606Y53171D01*
X10677Y53127D01*
X10747Y53066D01*
X10751Y53061D01*
X10757Y53055D01*
X10764Y53048D01*
X10771Y53040D01*
X10355Y52623D01*
X10403Y52585D01*
X10452Y52558D01*
X10500Y52541D01*
X10548Y52535D01*
X10594Y52538D01*
X10637Y52550D01*
X10677Y52572D01*
X10714Y52602D01*
X10737Y52629D01*
X10755Y52658D01*
X10768Y52687D01*
X10775Y52719D01*
X10777Y52752D01*
X10773Y52787D01*
X10762Y52825D01*
X10746Y52864D01*
X10746Y52864D01*
X29611Y37433D02*
X29551Y37494D01*
X29768Y37712D01*
X29959Y37521D01*
X29953Y37477D01*
X29943Y37435D01*
X29931Y37395D01*
X29916Y37357D01*
X29898Y37322D01*
X29877Y37288D01*
X29853Y37257D01*
X29827Y37228D01*
X29788Y37193D01*
X29746Y37163D01*
X29703Y37140D01*
X29657Y37122D01*
X29609Y37111D01*
X29563Y37108D01*
X29516Y37112D01*
X29469Y37123D01*
X29424Y37141D01*
X29381Y37164D01*
X29339Y37193D01*
X29301Y37228D01*
X29266Y37267D01*
X29236Y37309D01*
X29211Y37353D01*
X29192Y37400D01*
X29179Y37448D01*
X29173Y37495D01*
X29176Y37541D01*
X29185Y37587D01*
X29202Y37631D01*
X29225Y37674D01*
X29254Y37715D01*
X29290Y37754D01*
X29318Y37780D01*
X29347Y37803D01*
X29377Y37822D01*
X29409Y37837D01*
X29440Y37848D01*
X29470Y37856D01*
X29500Y37859D01*
X29530Y37857D01*
X29559Y37852D01*
X29589Y37843D01*
X29621Y37829D01*
X29653Y37812D01*
X29608Y37734D01*
X29583Y37746D01*
X29560Y37756D01*
X29538Y37763D01*
X29518Y37767D01*
X29497Y37768D01*
X29477Y37766D01*
X29455Y37761D01*
X29433Y37754D01*
X29410Y37743D01*
X29389Y37730D01*
X29368Y37714D01*
X29348Y37696D01*
X29327Y37673D01*
X29308Y37649D01*
X29293Y37625D01*
X29282Y37601D01*
X29273Y37578D01*
X29267Y37554D01*
X29264Y37531D01*
X29264Y37509D01*
X29266Y37487D01*
X29270Y37466D01*
X29275Y37446D01*
X29283Y37426D01*
X29298Y37393D01*
X29318Y37361D01*
X29340Y37331D01*
X29366Y37303D01*
X29401Y37271D01*
X29436Y37245D01*
X29470Y37225D01*
X29505Y37211D01*
X29540Y37203D01*
X29575Y37200D01*
X29609Y37203D01*
X29643Y37211D01*
X29676Y37225D01*
X29706Y37241D01*
X29735Y37261D01*
X29761Y37285D01*
X29782Y37308D01*
X29801Y37333D01*
X29817Y37360D01*
X29831Y37388D01*
X29842Y37417D01*
X29850Y37443D01*
X29856Y37467D01*
X29858Y37489D01*
X29763Y37584D01*
X29611Y37433D01*
X29611Y37433D01*
X30320Y37831D02*
X30317Y37799D01*
X30316Y37795D01*
X30257Y37806D01*
X30258Y37828D01*
X30256Y37849D01*
X30250Y37870D01*
X30243Y37886D01*
X30231Y37904D01*
X30216Y37923D01*
X30197Y37943D01*
X30174Y37966D01*
X30174Y37966D01*
X30161Y37940D01*
X30144Y37910D01*
X30122Y37877D01*
X30095Y37839D01*
X30080Y37818D01*
X30067Y37800D01*
X30058Y37785D01*
X30052Y37772D01*
X30049Y37760D01*
X30047Y37749D01*
X30046Y37737D01*
X30048Y37726D01*
X30051Y37715D01*
X30056Y37705D01*
X30062Y37696D01*
X30069Y37688D01*
X30082Y37677D01*
X30097Y37669D01*
X30113Y37665D01*
X30130Y37665D01*
X30148Y37668D01*
X30167Y37675D01*
X30185Y37687D01*
X30203Y37704D01*
X30220Y37722D01*
X30234Y37742D01*
X30244Y37763D01*
X30252Y37785D01*
X30257Y37806D01*
X30316Y37795D01*
X30311Y37771D01*
X30304Y37745D01*
X30295Y37721D01*
X30284Y37699D01*
X30270Y37678D01*
X30255Y37658D01*
X30238Y37639D01*
X30207Y37612D01*
X30176Y37592D01*
X30145Y37580D01*
X30113Y37575D01*
X30083Y37576D01*
X30054Y37584D01*
X30028Y37598D01*
X30004Y37618D01*
X29991Y37633D01*
X29980Y37648D01*
X29972Y37664D01*
X29966Y37681D01*
X29962Y37698D01*
X29960Y37716D01*
X29960Y37733D01*
X29962Y37750D01*
X29966Y37767D01*
X29972Y37783D01*
X29979Y37800D01*
X29987Y37816D01*
X29995Y37829D01*
X30006Y37844D01*
X30018Y37862D01*
X30034Y37881D01*
X30065Y37922D01*
X30090Y37958D01*
X30110Y37989D01*
X30125Y38016D01*
X30119Y38022D01*
X30114Y38027D01*
X30111Y38030D01*
X30108Y38033D01*
X30089Y38049D01*
X30071Y38061D01*
X30053Y38068D01*
X30036Y38069D01*
X30013Y38065D01*
X29990Y38055D01*
X29967Y38040D01*
X29943Y38019D01*
X29923Y37997D01*
X29908Y37976D01*
X29898Y37956D01*
X29893Y37937D01*
X29892Y37918D01*
X29896Y37897D01*
X29904Y37875D01*
X29917Y37851D01*
X29846Y37797D01*
X29832Y37821D01*
X29822Y37844D01*
X29814Y37867D01*
X29810Y37889D01*
X29809Y37911D01*
X29812Y37934D01*
X29818Y37958D01*
X29828Y37982D01*
X29842Y38007D01*
X29858Y38032D01*
X29877Y38056D01*
X29900Y38080D01*
X29923Y38102D01*
X29946Y38120D01*
X29968Y38135D01*
X29988Y38146D01*
X30008Y38154D01*
X30027Y38160D01*
X30044Y38162D01*
X30061Y38162D01*
X30076Y38159D01*
X30092Y38155D01*
X30107Y38148D01*
X30123Y38139D01*
X30134Y38130D01*
X30148Y38118D01*
X30165Y38103D01*
X30185Y38084D01*
X30269Y37999D01*
X30309Y37960D01*
X30342Y37929D01*
X30367Y37906D01*
X30384Y37892D01*
X30398Y37883D01*
X30413Y37875D01*
X30429Y37869D01*
X30445Y37863D01*
X30379Y37797D01*
X30364Y37803D01*
X30349Y37811D01*
X30335Y37820D01*
X30320Y37831D01*
X30320Y37831D01*
X30604Y38135D02*
X30669Y38089D01*
X30658Y38073D01*
X30648Y38059D01*
X30637Y38047D01*
X30627Y38036D01*
X30610Y38020D01*
X30594Y38008D01*
X30578Y37999D01*
X30563Y37993D01*
X30548Y37990D01*
X30534Y37990D01*
X30520Y37991D01*
X30507Y37995D01*
X30493Y38003D01*
X30474Y38017D01*
X30452Y38036D01*
X30425Y38062D01*
X30211Y38276D01*
X30165Y38230D01*
X30115Y38279D01*
X30162Y38325D01*
X30069Y38418D01*
X30094Y38518D01*
X30225Y38388D01*
X30288Y38452D01*
X30337Y38402D01*
X30274Y38339D01*
X30491Y38121D01*
X30504Y38109D01*
X30515Y38100D01*
X30523Y38093D01*
X30530Y38090D01*
X30535Y38088D01*
X30541Y38087D01*
X30547Y38087D01*
X30553Y38088D01*
X30559Y38090D01*
X30565Y38094D01*
X30572Y38099D01*
X30579Y38105D01*
X30584Y38111D01*
X30590Y38118D01*
X30597Y38126D01*
X30604Y38135D01*
X30604Y38135D01*
X30857Y38516D02*
X30931Y38573D01*
X30948Y38537D01*
X30959Y38500D01*
X30964Y38464D01*
X30962Y38427D01*
X30954Y38391D01*
X30938Y38356D01*
X30916Y38322D01*
X30887Y38289D01*
X30845Y38253D01*
X30801Y38228D01*
X30755Y38214D01*
X30707Y38209D01*
X30659Y38216D01*
X30611Y38234D01*
X30564Y38263D01*
X30518Y38303D01*
X30477Y38350D01*
X30447Y38398D01*
X30428Y38447D01*
X30421Y38497D01*
X30424Y38546D01*
X30437Y38592D01*
X30461Y38635D01*
X30494Y38675D01*
X30500Y38679D01*
X30547Y38623D01*
X30528Y38601D01*
X30514Y38576D01*
X30506Y38550D01*
X30503Y38521D01*
X30506Y38492D01*
X30514Y38464D01*
X30528Y38437D01*
X30548Y38410D01*
X30548Y38410D01*
X30756Y38619D01*
X30731Y38637D01*
X30707Y38652D01*
X30684Y38661D01*
X30662Y38665D01*
X30629Y38665D01*
X30600Y38658D01*
X30572Y38644D01*
X30547Y38623D01*
X30500Y38679D01*
X30533Y38707D01*
X30575Y38730D01*
X30620Y38743D01*
X30667Y38746D01*
X30716Y38739D01*
X30764Y38720D01*
X30811Y38691D01*
X30858Y38650D01*
X30861Y38647D01*
X30865Y38643D01*
X30869Y38638D01*
X30874Y38633D01*
X30596Y38355D01*
X30629Y38330D01*
X30661Y38311D01*
X30693Y38300D01*
X30725Y38296D01*
X30756Y38298D01*
X30785Y38306D01*
X30811Y38321D01*
X30836Y38341D01*
X30851Y38359D01*
X30863Y38378D01*
X30872Y38398D01*
X30877Y38419D01*
X30878Y38441D01*
X30875Y38464D01*
X30868Y38489D01*
X30857Y38516D01*
X30857Y38516D01*
X27963Y39334D02*
X28048Y39385D01*
X28075Y39333D01*
X28092Y39281D01*
X28100Y39230D01*
X28099Y39180D01*
X28089Y39132D01*
X28070Y39085D01*
X28043Y39042D01*
X28007Y39000D01*
X27965Y38963D01*
X27923Y38933D01*
X27881Y38912D01*
X27838Y38899D01*
X27795Y38893D01*
X27751Y38894D01*
X27706Y38902D01*
X27661Y38918D01*
X27616Y38938D01*
X27574Y38964D01*
X27534Y38994D01*
X27496Y39028D01*
X27459Y39069D01*
X27428Y39111D01*
X27404Y39154D01*
X27386Y39199D01*
X27375Y39244D01*
X27371Y39289D01*
X27373Y39333D01*
X27383Y39377D01*
X27398Y39420D01*
X27419Y39460D01*
X27445Y39498D01*
X27476Y39533D01*
X27516Y39568D01*
X27557Y39594D01*
X27600Y39613D01*
X27645Y39624D01*
X27691Y39626D01*
X27737Y39621D01*
X27783Y39608D01*
X27829Y39586D01*
X27778Y39504D01*
X27742Y39520D01*
X27708Y39530D01*
X27675Y39535D01*
X27644Y39533D01*
X27615Y39526D01*
X27587Y39514D01*
X27560Y39496D01*
X27533Y39473D01*
X27507Y39443D01*
X27486Y39412D01*
X27471Y39379D01*
X27463Y39346D01*
X27460Y39312D01*
X27462Y39279D01*
X27470Y39246D01*
X27483Y39214D01*
X27500Y39182D01*
X27519Y39153D01*
X27541Y39125D01*
X27566Y39099D01*
X27598Y39068D01*
X27632Y39042D01*
X27665Y39020D01*
X27699Y39003D01*
X27733Y38991D01*
X27766Y38985D01*
X27799Y38984D01*
X27832Y38990D01*
X27863Y39000D01*
X27892Y39013D01*
X27919Y39031D01*
X27943Y39053D01*
X27969Y39082D01*
X27988Y39114D01*
X28001Y39147D01*
X28007Y39183D01*
X28007Y39219D01*
X27999Y39257D01*
X27985Y39295D01*
X27963Y39334D01*
X27963Y39334D01*
X28442Y39453D02*
X27729Y39768D01*
X27802Y39841D01*
X28310Y39601D01*
X28339Y39587D01*
X28368Y39573D01*
X28395Y39558D01*
X28421Y39544D01*
X28406Y39571D01*
X28392Y39599D01*
X28378Y39627D01*
X28364Y39656D01*
X28130Y40169D01*
X28199Y40238D01*
X28512Y39522D01*
X28442Y39453D01*
X28442Y39453D01*
X26022Y40791D02*
X25881Y40932D01*
X25741Y40792D01*
X25682Y40851D01*
X25822Y40991D01*
X25682Y41131D01*
X25741Y41190D01*
X25881Y41050D01*
X26021Y41190D01*
X26080Y41131D01*
X25940Y40991D01*
X26081Y40850D01*
X26022Y40791D01*
X26022Y40791D01*
X26240Y41112D02*
X26300Y41183D01*
X26328Y41166D01*
X26355Y41153D01*
X26381Y41146D01*
X26407Y41145D01*
X26432Y41148D01*
X26455Y41156D01*
X26477Y41169D01*
X26496Y41185D01*
X26516Y41209D01*
X26530Y41236D01*
X26537Y41265D01*
X26539Y41297D01*
X26534Y41329D01*
X26523Y41360D01*
X26505Y41391D01*
X26479Y41420D01*
X26452Y41443D01*
X26424Y41460D01*
X26394Y41471D01*
X26364Y41474D01*
X26334Y41472D01*
X26305Y41463D01*
X26279Y41448D01*
X26253Y41426D01*
X26239Y41410D01*
X26228Y41394D01*
X26219Y41376D01*
X26212Y41357D01*
X26208Y41338D01*
X26206Y41319D01*
X26207Y41301D01*
X26209Y41283D01*
X26142Y41231D01*
X25928Y41545D01*
X26184Y41801D01*
X26244Y41741D01*
X26039Y41535D01*
X26149Y41369D01*
X26159Y41407D01*
X26173Y41441D01*
X26191Y41472D01*
X26214Y41499D01*
X26250Y41528D01*
X26288Y41549D01*
X26330Y41562D01*
X26375Y41566D01*
X26420Y41561D01*
X26463Y41547D01*
X26503Y41524D01*
X26541Y41492D01*
X26572Y41456D01*
X26596Y41417D01*
X26612Y41375D01*
X26621Y41331D01*
X26621Y41277D01*
X26609Y41225D01*
X26585Y41178D01*
X26548Y41133D01*
X26512Y41102D01*
X26475Y41079D01*
X26435Y41065D01*
X26394Y41058D01*
X26353Y41060D01*
X26314Y41069D01*
X26276Y41086D01*
X26240Y41112D01*
X26240Y41112D01*
X26946Y41549D02*
X26233Y41864D01*
X26307Y41938D01*
X26814Y41698D01*
X26844Y41683D01*
X26872Y41669D01*
X26899Y41655D01*
X26925Y41641D01*
X26910Y41668D01*
X26896Y41696D01*
X26882Y41724D01*
X26869Y41752D01*
X26634Y42265D01*
X26703Y42334D01*
X27016Y41619D01*
X26946Y41549D01*
X26946Y41549D01*
X24226Y42587D02*
X24085Y42728D01*
X23945Y42588D01*
X23886Y42647D01*
X24026Y42787D01*
X23886Y42927D01*
X23945Y42986D01*
X24085Y42846D01*
X24225Y42986D01*
X24284Y42927D01*
X24144Y42787D01*
X24285Y42646D01*
X24226Y42587D01*
X24226Y42587D01*
X24816Y43011D02*
X24753Y42948D01*
X24351Y43350D01*
X24349Y43327D01*
X24346Y43302D01*
X24341Y43275D01*
X24334Y43247D01*
X24326Y43218D01*
X24318Y43193D01*
X24309Y43169D01*
X24300Y43148D01*
X24239Y43209D01*
X24252Y43247D01*
X24261Y43286D01*
X24268Y43324D01*
X24272Y43362D01*
X24272Y43398D01*
X24271Y43430D01*
X24266Y43460D01*
X24259Y43486D01*
X24300Y43527D01*
X24816Y43011D01*
X24816Y43011D01*
X25249Y43565D02*
X25310Y43504D01*
X24970Y43164D01*
X24959Y43176D01*
X24949Y43188D01*
X24940Y43202D01*
X24933Y43216D01*
X24923Y43240D01*
X24916Y43267D01*
X24910Y43295D01*
X24906Y43326D01*
X24905Y43359D01*
X24905Y43397D01*
X24907Y43439D01*
X24911Y43486D01*
X24917Y43557D01*
X24920Y43618D01*
X24919Y43668D01*
X24915Y43708D01*
X24909Y43741D01*
X24899Y43769D01*
X24885Y43794D01*
X24869Y43814D01*
X24849Y43830D01*
X24828Y43842D01*
X24804Y43848D01*
X24779Y43850D01*
X24753Y43847D01*
X24729Y43839D01*
X24705Y43825D01*
X24683Y43806D01*
X24663Y43783D01*
X24649Y43758D01*
X24640Y43732D01*
X24637Y43706D01*
X24640Y43679D01*
X24649Y43652D01*
X24665Y43627D01*
X24686Y43602D01*
X24614Y43544D01*
X24585Y43584D01*
X24566Y43624D01*
X24555Y43664D01*
X24553Y43705D01*
X24560Y43745D01*
X24576Y43784D01*
X24600Y43823D01*
X24632Y43860D01*
X24670Y43892D01*
X24709Y43916D01*
X24749Y43930D01*
X24790Y43936D01*
X24831Y43933D01*
X24869Y43922D01*
X24903Y43904D01*
X24935Y43877D01*
X24950Y43861D01*
X24963Y43843D01*
X24974Y43824D01*
X24983Y43804D01*
X24991Y43781D01*
X24997Y43757D01*
X25002Y43729D01*
X25004Y43699D01*
X25005Y43664D01*
X25004Y43621D01*
X25002Y43570D01*
X24997Y43511D01*
X24993Y43464D01*
X24991Y43425D01*
X24989Y43395D01*
X24989Y43374D01*
X24990Y43357D01*
X24991Y43342D01*
X24994Y43327D01*
X24997Y43313D01*
X25249Y43565D01*
X25249Y43565D01*
X25550Y43745D02*
X24836Y44060D01*
X24910Y44133D01*
X25417Y43893D01*
X25447Y43879D01*
X25476Y43865D01*
X25503Y43850D01*
X25528Y43836D01*
X25514Y43863D01*
X25499Y43891D01*
X25485Y43919D01*
X25472Y43948D01*
X25237Y44461D01*
X25307Y44530D01*
X25620Y43814D01*
X25550Y43745D01*
X25550Y43745D01*
X16813Y49685D02*
X16750Y49748D01*
X16944Y49942D01*
X17007Y49879D01*
X16813Y49685D01*
X16813Y49685D01*
X17451Y50015D02*
X17388Y49951D01*
X16986Y50354D01*
X16985Y50331D01*
X16981Y50306D01*
X16976Y50279D01*
X16970Y50251D01*
X16962Y50222D01*
X16954Y50196D01*
X16945Y50173D01*
X16936Y50151D01*
X16875Y50212D01*
X16887Y50251D01*
X16897Y50290D01*
X16903Y50328D01*
X16907Y50365D01*
X16908Y50401D01*
X16906Y50434D01*
X16902Y50464D01*
X16894Y50490D01*
X16935Y50531D01*
X17451Y50015D01*
X17451Y50015D01*
X17884Y50569D02*
X17945Y50508D01*
X17605Y50168D01*
X17594Y50180D01*
X17584Y50192D01*
X17576Y50205D01*
X17569Y50220D01*
X17559Y50244D01*
X17551Y50271D01*
X17545Y50299D01*
X17542Y50329D01*
X17540Y50363D01*
X17540Y50401D01*
X17543Y50443D01*
X17547Y50490D01*
X17552Y50561D01*
X17555Y50622D01*
X17555Y50672D01*
X17551Y50712D01*
X17544Y50745D01*
X17534Y50773D01*
X17521Y50798D01*
X17504Y50818D01*
X17485Y50834D01*
X17463Y50845D01*
X17440Y50852D01*
X17414Y50854D01*
X17389Y50851D01*
X17364Y50843D01*
X17341Y50829D01*
X17319Y50810D01*
X17299Y50787D01*
X17284Y50762D01*
X17276Y50736D01*
X17273Y50710D01*
X17276Y50683D01*
X17285Y50656D01*
X17300Y50631D01*
X17321Y50606D01*
X17249Y50548D01*
X17221Y50588D01*
X17201Y50628D01*
X17191Y50668D01*
X17189Y50709D01*
X17196Y50749D01*
X17211Y50788D01*
X17235Y50826D01*
X17268Y50864D01*
X17305Y50896D01*
X17344Y50920D01*
X17384Y50934D01*
X17426Y50940D01*
X17467Y50937D01*
X17504Y50926D01*
X17539Y50908D01*
X17571Y50881D01*
X17585Y50865D01*
X17598Y50847D01*
X17609Y50828D01*
X17619Y50808D01*
X17627Y50785D01*
X17633Y50760D01*
X17637Y50733D01*
X17640Y50703D01*
X17641Y50668D01*
X17640Y50625D01*
X17637Y50574D01*
X17633Y50515D01*
X17629Y50467D01*
X17626Y50429D01*
X17625Y50399D01*
X17625Y50378D01*
X17625Y50361D01*
X17627Y50346D01*
X17629Y50331D01*
X17632Y50317D01*
X17884Y50569D01*
X17884Y50569D01*
X18185Y50749D02*
X17472Y51064D01*
X17546Y51137D01*
X18053Y50897D01*
X18083Y50883D01*
X18111Y50869D01*
X18138Y50854D01*
X18164Y50840D01*
X18149Y50867D01*
X18135Y50895D01*
X18121Y50923D01*
X18107Y50952D01*
X17873Y51464D01*
X17942Y51534D01*
X18255Y50818D01*
X18185Y50749D01*
X18185Y50749D01*
X18835Y48209D02*
X18775Y48270D01*
X18992Y48488D01*
X19183Y48297D01*
X19176Y48253D01*
X19167Y48211D01*
X19155Y48171D01*
X19140Y48134D01*
X19122Y48098D01*
X19101Y48064D01*
X19077Y48033D01*
X19050Y48004D01*
X19011Y47969D01*
X18970Y47940D01*
X18926Y47916D01*
X18880Y47899D01*
X18833Y47888D01*
X18786Y47884D01*
X18740Y47888D01*
X18693Y47899D01*
X18648Y47917D01*
X18604Y47940D01*
X18563Y47970D01*
X18524Y48005D01*
X18489Y48043D01*
X18460Y48085D01*
X18435Y48129D01*
X18415Y48176D01*
X18402Y48224D01*
X18397Y48271D01*
X18399Y48318D01*
X18409Y48363D01*
X18426Y48408D01*
X18449Y48450D01*
X18478Y48491D01*
X18513Y48530D01*
X18542Y48557D01*
X18571Y48579D01*
X18601Y48598D01*
X18632Y48613D01*
X18664Y48625D01*
X18694Y48632D01*
X18724Y48635D01*
X18753Y48634D01*
X18783Y48628D01*
X18813Y48619D01*
X18844Y48606D01*
X18876Y48588D01*
X18832Y48510D01*
X18807Y48523D01*
X18784Y48532D01*
X18762Y48539D01*
X18741Y48543D01*
X18721Y48544D01*
X18700Y48542D01*
X18679Y48538D01*
X18656Y48530D01*
X18634Y48519D01*
X18612Y48506D01*
X18592Y48491D01*
X18572Y48473D01*
X18550Y48449D01*
X18532Y48426D01*
X18517Y48402D01*
X18505Y48378D01*
X18497Y48354D01*
X18491Y48331D01*
X18488Y48308D01*
X18488Y48285D01*
X18490Y48264D01*
X18494Y48243D01*
X18499Y48222D01*
X18506Y48202D01*
X18522Y48169D01*
X18541Y48138D01*
X18564Y48108D01*
X18590Y48079D01*
X18625Y48047D01*
X18659Y48022D01*
X18694Y48002D01*
X18729Y47988D01*
X18764Y47979D01*
X18798Y47976D01*
X18833Y47979D01*
X18867Y47988D01*
X18899Y48001D01*
X18930Y48018D01*
X18959Y48038D01*
X18985Y48061D01*
X19006Y48084D01*
X19025Y48109D01*
X19041Y48136D01*
X19054Y48165D01*
X19066Y48193D01*
X19074Y48219D01*
X19079Y48243D01*
X19082Y48265D01*
X18986Y48361D01*
X18835Y48209D01*
X18835Y48209D01*
X19354Y48325D02*
X18840Y48840D01*
X18910Y48909D01*
X19584Y48776D01*
X19180Y49179D01*
X19245Y49245D01*
X19759Y48730D01*
X19690Y48661D01*
X19015Y48795D01*
X19419Y48391D01*
X19354Y48325D01*
X19354Y48325D01*
X19874Y48845D02*
X19359Y49359D01*
X19536Y49535D01*
X19596Y49474D01*
X19488Y49366D01*
X19881Y48974D01*
X19881Y48974D01*
X19991Y49083D01*
X20014Y49108D01*
X20034Y49131D01*
X20050Y49153D01*
X20061Y49173D01*
X20070Y49192D01*
X20076Y49210D01*
X20079Y49228D01*
X20081Y49245D01*
X20079Y49270D01*
X20074Y49295D01*
X20065Y49321D01*
X20053Y49348D01*
X20038Y49376D01*
X20018Y49404D01*
X19995Y49432D01*
X19968Y49461D01*
X19928Y49497D01*
X19890Y49525D01*
X19853Y49546D01*
X19817Y49558D01*
X19783Y49564D01*
X19752Y49565D01*
X19722Y49561D01*
X19695Y49552D01*
X19674Y49541D01*
X19651Y49524D01*
X19625Y49502D01*
X19596Y49474D01*
X19536Y49535D01*
X19537Y49536D01*
X19565Y49564D01*
X19591Y49587D01*
X19615Y49606D01*
X19636Y49620D01*
X19663Y49636D01*
X19691Y49647D01*
X19719Y49655D01*
X19748Y49659D01*
X19785Y49660D01*
X19823Y49655D01*
X19860Y49646D01*
X19897Y49632D01*
X19933Y49613D01*
X19969Y49590D01*
X20004Y49562D01*
X20039Y49530D01*
X20067Y49501D01*
X20091Y49471D01*
X20112Y49442D01*
X20129Y49412D01*
X20143Y49383D01*
X20155Y49355D01*
X20163Y49328D01*
X20169Y49302D01*
X20172Y49277D01*
X20173Y49253D01*
X20172Y49231D01*
X20169Y49209D01*
X20163Y49188D01*
X20156Y49166D01*
X20146Y49144D01*
X20133Y49122D01*
X20118Y49099D01*
X20101Y49077D01*
X20081Y49054D01*
X20059Y49030D01*
X19874Y48845D01*
X19874Y48845D01*
X20631Y46413D02*
X20571Y46474D01*
X20788Y46692D01*
X20979Y46501D01*
X20973Y46457D01*
X20963Y46415D01*
X20951Y46375D01*
X20936Y46337D01*
X20918Y46302D01*
X20897Y46268D01*
X20873Y46237D01*
X20846Y46208D01*
X20807Y46173D01*
X20766Y46144D01*
X20722Y46120D01*
X20676Y46103D01*
X20629Y46092D01*
X20582Y46088D01*
X20536Y46092D01*
X20489Y46103D01*
X20444Y46121D01*
X20400Y46144D01*
X20359Y46174D01*
X20320Y46209D01*
X20285Y46247D01*
X20256Y46289D01*
X20231Y46333D01*
X20212Y46380D01*
X20199Y46428D01*
X20193Y46475D01*
X20195Y46521D01*
X20205Y46567D01*
X20222Y46611D01*
X20245Y46654D01*
X20274Y46695D01*
X20309Y46734D01*
X20338Y46760D01*
X20367Y46783D01*
X20397Y46802D01*
X20428Y46817D01*
X20460Y46829D01*
X20490Y46836D01*
X20520Y46839D01*
X20549Y46838D01*
X20579Y46832D01*
X20609Y46823D01*
X20640Y46810D01*
X20672Y46792D01*
X20628Y46714D01*
X20603Y46727D01*
X20580Y46736D01*
X20558Y46743D01*
X20537Y46747D01*
X20517Y46748D01*
X20496Y46746D01*
X20475Y46742D01*
X20452Y46734D01*
X20430Y46723D01*
X20409Y46710D01*
X20388Y46695D01*
X20368Y46677D01*
X20346Y46653D01*
X20328Y46629D01*
X20313Y46606D01*
X20302Y46582D01*
X20293Y46558D01*
X20287Y46534D01*
X20284Y46512D01*
X20284Y46489D01*
X20286Y46468D01*
X20290Y46447D01*
X20295Y46426D01*
X20302Y46406D01*
X20318Y46373D01*
X20337Y46342D01*
X20360Y46312D01*
X20386Y46283D01*
X20421Y46251D01*
X20455Y46226D01*
X20490Y46206D01*
X20525Y46192D01*
X20560Y46183D01*
X20594Y46180D01*
X20629Y46183D01*
X20663Y46192D01*
X20695Y46205D01*
X20726Y46222D01*
X20755Y46242D01*
X20781Y46265D01*
X20802Y46288D01*
X20821Y46313D01*
X20837Y46340D01*
X20850Y46369D01*
X20862Y46397D01*
X20870Y46423D01*
X20875Y46447D01*
X20878Y46469D01*
X20782Y46565D01*
X20631Y46413D01*
X20631Y46413D01*
X21150Y46529D02*
X20636Y47043D01*
X20706Y47113D01*
X21380Y46980D01*
X20976Y47383D01*
X21041Y47449D01*
X21555Y46934D01*
X21486Y46865D01*
X20811Y46999D01*
X21216Y46594D01*
X21150Y46529D01*
X21150Y46529D01*
X21670Y47049D02*
X21156Y47563D01*
X21332Y47739D01*
X21392Y47678D01*
X21284Y47570D01*
X21677Y47177D01*
X21677Y47177D01*
X21787Y47287D01*
X21810Y47312D01*
X21830Y47335D01*
X21846Y47357D01*
X21857Y47377D01*
X21866Y47396D01*
X21872Y47414D01*
X21876Y47432D01*
X21877Y47449D01*
X21875Y47474D01*
X21870Y47499D01*
X21861Y47525D01*
X21849Y47552D01*
X21834Y47580D01*
X21814Y47607D01*
X21791Y47636D01*
X21764Y47665D01*
X21724Y47701D01*
X21686Y47729D01*
X21649Y47750D01*
X21613Y47762D01*
X21579Y47768D01*
X21548Y47769D01*
X21518Y47765D01*
X21491Y47756D01*
X21471Y47745D01*
X21447Y47728D01*
X21421Y47706D01*
X21392Y47678D01*
X21332Y47739D01*
X21333Y47740D01*
X21361Y47768D01*
X21387Y47791D01*
X21411Y47810D01*
X21432Y47824D01*
X21459Y47840D01*
X21487Y47851D01*
X21515Y47859D01*
X21544Y47863D01*
X21581Y47864D01*
X21619Y47859D01*
X21656Y47850D01*
X21693Y47836D01*
X21729Y47817D01*
X21765Y47794D01*
X21800Y47766D01*
X21835Y47734D01*
X21863Y47705D01*
X21887Y47675D01*
X21908Y47646D01*
X21925Y47616D01*
X21939Y47587D01*
X21951Y47559D01*
X21959Y47532D01*
X21965Y47506D01*
X21968Y47481D01*
X21969Y47457D01*
X21968Y47435D01*
X21965Y47413D01*
X21959Y47391D01*
X21952Y47370D01*
X21942Y47348D01*
X21929Y47326D01*
X21914Y47303D01*
X21897Y47280D01*
X21877Y47258D01*
X21855Y47234D01*
X21670Y47049D01*
X21670Y47049D01*
X22427Y44617D02*
X22367Y44678D01*
X22584Y44896D01*
X22775Y44705D01*
X22769Y44661D01*
X22759Y44619D01*
X22747Y44579D01*
X22732Y44541D01*
X22714Y44506D01*
X22693Y44472D01*
X22669Y44441D01*
X22643Y44412D01*
X22603Y44377D01*
X22562Y44348D01*
X22518Y44324D01*
X22472Y44307D01*
X22425Y44296D01*
X22378Y44292D01*
X22332Y44296D01*
X22285Y44307D01*
X22240Y44325D01*
X22196Y44348D01*
X22155Y44378D01*
X22116Y44413D01*
X22081Y44451D01*
X22052Y44493D01*
X22027Y44537D01*
X22008Y44584D01*
X21995Y44632D01*
X21989Y44679D01*
X21991Y44725D01*
X22001Y44771D01*
X22018Y44815D01*
X22041Y44858D01*
X22070Y44899D01*
X22105Y44938D01*
X22134Y44964D01*
X22163Y44987D01*
X22193Y45006D01*
X22224Y45021D01*
X22256Y45033D01*
X22286Y45040D01*
X22316Y45043D01*
X22345Y45041D01*
X22375Y45036D01*
X22405Y45027D01*
X22436Y45014D01*
X22469Y44996D01*
X22424Y44918D01*
X22399Y44930D01*
X22376Y44940D01*
X22354Y44947D01*
X22333Y44951D01*
X22313Y44952D01*
X22292Y44950D01*
X22271Y44946D01*
X22248Y44938D01*
X22226Y44927D01*
X22205Y44914D01*
X22184Y44899D01*
X22164Y44880D01*
X22142Y44857D01*
X22124Y44833D01*
X22109Y44810D01*
X22098Y44786D01*
X22089Y44762D01*
X22083Y44738D01*
X22080Y44716D01*
X22080Y44693D01*
X22082Y44672D01*
X22086Y44650D01*
X22091Y44630D01*
X22098Y44610D01*
X22114Y44577D01*
X22133Y44546D01*
X22156Y44515D01*
X22182Y44487D01*
X22217Y44455D01*
X22251Y44430D01*
X22286Y44410D01*
X22321Y44396D01*
X22356Y44387D01*
X22390Y44384D01*
X22425Y44387D01*
X22459Y44396D01*
X22491Y44409D01*
X22522Y44425D01*
X22551Y44446D01*
X22577Y44469D01*
X22598Y44492D01*
X22617Y44517D01*
X22633Y44544D01*
X22647Y44573D01*
X22658Y44601D01*
X22666Y44627D01*
X22671Y44651D01*
X22674Y44673D01*
X22578Y44769D01*
X22427Y44617D01*
X22427Y44617D01*
X22946Y44733D02*
X22432Y45247D01*
X22502Y45317D01*
X23176Y45184D01*
X22772Y45587D01*
X22837Y45653D01*
X23351Y45138D01*
X23282Y45069D01*
X22607Y45203D01*
X23012Y44798D01*
X22946Y44733D01*
X22946Y44733D01*
X23466Y45253D02*
X22952Y45767D01*
X23128Y45943D01*
X23188Y45882D01*
X23080Y45774D01*
X23473Y45381D01*
X23473Y45381D01*
X23583Y45491D01*
X23606Y45516D01*
X23626Y45539D01*
X23642Y45561D01*
X23653Y45580D01*
X23662Y45599D01*
X23668Y45618D01*
X23672Y45636D01*
X23673Y45653D01*
X23671Y45678D01*
X23666Y45703D01*
X23657Y45729D01*
X23645Y45756D01*
X23630Y45783D01*
X23610Y45811D01*
X23587Y45840D01*
X23560Y45869D01*
X23520Y45905D01*
X23482Y45933D01*
X23445Y45954D01*
X23409Y45966D01*
X23376Y45972D01*
X23344Y45973D01*
X23314Y45969D01*
X23287Y45960D01*
X23267Y45949D01*
X23243Y45932D01*
X23217Y45910D01*
X23188Y45882D01*
X23128Y45943D01*
X23129Y45944D01*
X23157Y45972D01*
X23183Y45995D01*
X23207Y46014D01*
X23228Y46028D01*
X23255Y46043D01*
X23283Y46055D01*
X23311Y46063D01*
X23340Y46067D01*
X23377Y46068D01*
X23415Y46063D01*
X23452Y46054D01*
X23489Y46040D01*
X23525Y46021D01*
X23561Y45998D01*
X23596Y45970D01*
X23631Y45938D01*
X23659Y45908D01*
X23683Y45879D01*
X23704Y45850D01*
X23721Y45820D01*
X23736Y45791D01*
X23747Y45763D01*
X23755Y45736D01*
X23761Y45710D01*
X23764Y45685D01*
X23765Y45661D01*
X23764Y45639D01*
X23761Y45617D01*
X23755Y45595D01*
X23748Y45574D01*
X23738Y45552D01*
X23725Y45530D01*
X23710Y45507D01*
X23693Y45484D01*
X23674Y45461D01*
X23651Y45438D01*
X23466Y45253D01*
X23466Y45253D01*
X21251Y29073D02*
X21191Y29134D01*
X21409Y29352D01*
X21599Y29161D01*
X21593Y29117D01*
X21583Y29075D01*
X21571Y29035D01*
X21556Y28997D01*
X21538Y28962D01*
X21517Y28928D01*
X21493Y28897D01*
X21467Y28868D01*
X21428Y28833D01*
X21386Y28804D01*
X21343Y28780D01*
X21297Y28762D01*
X21250Y28751D01*
X21203Y28748D01*
X21156Y28752D01*
X21109Y28763D01*
X21064Y28781D01*
X21021Y28804D01*
X20980Y28833D01*
X20941Y28868D01*
X20906Y28907D01*
X20876Y28949D01*
X20851Y28993D01*
X20832Y29040D01*
X20819Y29088D01*
X20813Y29135D01*
X20816Y29181D01*
X20826Y29227D01*
X20842Y29271D01*
X20865Y29314D01*
X20894Y29355D01*
X20930Y29394D01*
X20958Y29420D01*
X20987Y29443D01*
X21018Y29462D01*
X21049Y29477D01*
X21080Y29488D01*
X21110Y29496D01*
X21140Y29499D01*
X21170Y29497D01*
X21199Y29492D01*
X21229Y29483D01*
X21261Y29469D01*
X21293Y29452D01*
X21248Y29374D01*
X21224Y29386D01*
X21200Y29396D01*
X21178Y29403D01*
X21158Y29407D01*
X21138Y29408D01*
X21117Y29406D01*
X21095Y29401D01*
X21073Y29394D01*
X21050Y29383D01*
X21029Y29370D01*
X21008Y29355D01*
X20988Y29336D01*
X20967Y29313D01*
X20948Y29289D01*
X20933Y29265D01*
X20922Y29241D01*
X20913Y29218D01*
X20908Y29194D01*
X20905Y29171D01*
X20904Y29149D01*
X20906Y29127D01*
X20910Y29106D01*
X20916Y29086D01*
X20923Y29066D01*
X20939Y29033D01*
X20958Y29001D01*
X20980Y28971D01*
X21007Y28943D01*
X21041Y28911D01*
X21076Y28886D01*
X21110Y28866D01*
X21145Y28851D01*
X21180Y28843D01*
X21215Y28840D01*
X21249Y28843D01*
X21283Y28852D01*
X21316Y28865D01*
X21346Y28881D01*
X21375Y28902D01*
X21402Y28925D01*
X21422Y28948D01*
X21441Y28973D01*
X21457Y29000D01*
X21471Y29029D01*
X21482Y29057D01*
X21490Y29083D01*
X21496Y29107D01*
X21498Y29129D01*
X21403Y29224D01*
X21251Y29073D01*
X21251Y29073D01*
X21960Y29471D02*
X21957Y29440D01*
X21956Y29435D01*
X21897Y29447D01*
X21898Y29468D01*
X21896Y29489D01*
X21890Y29510D01*
X21883Y29526D01*
X21871Y29544D01*
X21856Y29563D01*
X21837Y29583D01*
X21814Y29606D01*
X21814Y29606D01*
X21802Y29580D01*
X21784Y29551D01*
X21762Y29517D01*
X21735Y29480D01*
X21720Y29459D01*
X21708Y29440D01*
X21698Y29425D01*
X21692Y29412D01*
X21689Y29400D01*
X21687Y29389D01*
X21687Y29378D01*
X21688Y29366D01*
X21691Y29356D01*
X21696Y29346D01*
X21702Y29336D01*
X21709Y29328D01*
X21723Y29317D01*
X21737Y29309D01*
X21753Y29305D01*
X21770Y29305D01*
X21788Y29308D01*
X21807Y29316D01*
X21825Y29327D01*
X21843Y29344D01*
X21860Y29362D01*
X21874Y29382D01*
X21884Y29403D01*
X21892Y29425D01*
X21897Y29447D01*
X21956Y29435D01*
X21951Y29411D01*
X21944Y29385D01*
X21935Y29361D01*
X21924Y29339D01*
X21911Y29318D01*
X21895Y29298D01*
X21878Y29279D01*
X21847Y29252D01*
X21816Y29232D01*
X21785Y29220D01*
X21753Y29215D01*
X21723Y29216D01*
X21694Y29224D01*
X21668Y29238D01*
X21644Y29259D01*
X21631Y29273D01*
X21621Y29288D01*
X21612Y29304D01*
X21606Y29321D01*
X21602Y29338D01*
X21600Y29356D01*
X21600Y29373D01*
X21602Y29390D01*
X21606Y29407D01*
X21612Y29423D01*
X21619Y29440D01*
X21627Y29456D01*
X21635Y29469D01*
X21646Y29484D01*
X21659Y29502D01*
X21674Y29522D01*
X21705Y29562D01*
X21730Y29598D01*
X21750Y29629D01*
X21765Y29656D01*
X21759Y29662D01*
X21754Y29667D01*
X21751Y29670D01*
X21749Y29673D01*
X21730Y29690D01*
X21711Y29701D01*
X21693Y29708D01*
X21676Y29709D01*
X21653Y29705D01*
X21630Y29695D01*
X21607Y29680D01*
X21583Y29659D01*
X21563Y29637D01*
X21548Y29616D01*
X21538Y29596D01*
X21533Y29577D01*
X21532Y29558D01*
X21536Y29537D01*
X21544Y29515D01*
X21557Y29491D01*
X21486Y29437D01*
X21472Y29461D01*
X21462Y29484D01*
X21454Y29507D01*
X21450Y29529D01*
X21449Y29551D01*
X21452Y29574D01*
X21459Y29598D01*
X21468Y29622D01*
X21482Y29647D01*
X21498Y29672D01*
X21517Y29696D01*
X21540Y29720D01*
X21563Y29742D01*
X21586Y29761D01*
X21608Y29775D01*
X21629Y29786D01*
X21648Y29794D01*
X21667Y29800D01*
X21684Y29802D01*
X21701Y29802D01*
X21716Y29799D01*
X21732Y29795D01*
X21747Y29788D01*
X21763Y29779D01*
X21774Y29770D01*
X21788Y29758D01*
X21805Y29743D01*
X21825Y29724D01*
X21909Y29639D01*
X21949Y29600D01*
X21982Y29569D01*
X22007Y29546D01*
X22024Y29532D01*
X22038Y29523D01*
X22053Y29515D01*
X22069Y29509D01*
X22085Y29503D01*
X22019Y29437D01*
X22004Y29443D01*
X21990Y29451D01*
X21975Y29460D01*
X21960Y29471D01*
X21960Y29471D01*
X22244Y29776D02*
X22309Y29729D01*
X22299Y29713D01*
X22288Y29699D01*
X22278Y29687D01*
X22267Y29676D01*
X22250Y29660D01*
X22234Y29648D01*
X22218Y29639D01*
X22203Y29633D01*
X22188Y29630D01*
X22174Y29630D01*
X22161Y29631D01*
X22148Y29635D01*
X22133Y29643D01*
X22114Y29657D01*
X22092Y29676D01*
X22065Y29702D01*
X21851Y29916D01*
X21805Y29870D01*
X21756Y29919D01*
X21802Y29965D01*
X21710Y30058D01*
X21734Y30158D01*
X21865Y30028D01*
X21928Y30092D01*
X21977Y30043D01*
X21914Y29979D01*
X22132Y29761D01*
X22144Y29749D01*
X22155Y29740D01*
X22163Y29733D01*
X22170Y29730D01*
X22175Y29728D01*
X22181Y29727D01*
X22187Y29727D01*
X22193Y29728D01*
X22199Y29731D01*
X22205Y29734D01*
X22212Y29739D01*
X22219Y29745D01*
X22224Y29751D01*
X22231Y29758D01*
X22237Y29766D01*
X22244Y29776D01*
X22244Y29776D01*
X22497Y30156D02*
X22571Y30213D01*
X22588Y30177D01*
X22600Y30140D01*
X22604Y30104D01*
X22602Y30067D01*
X22594Y30031D01*
X22578Y29996D01*
X22556Y29962D01*
X22527Y29929D01*
X22485Y29893D01*
X22441Y29868D01*
X22395Y29854D01*
X22347Y29850D01*
X22299Y29856D01*
X22251Y29874D01*
X22204Y29903D01*
X22158Y29943D01*
X22117Y29990D01*
X22087Y30038D01*
X22068Y30087D01*
X22061Y30137D01*
X22064Y30186D01*
X22077Y30232D01*
X22101Y30275D01*
X22134Y30315D01*
X22140Y30320D01*
X22187Y30264D01*
X22168Y30241D01*
X22154Y30216D01*
X22146Y30190D01*
X22143Y30161D01*
X22146Y30132D01*
X22154Y30104D01*
X22168Y30077D01*
X22188Y30051D01*
X22188Y30051D01*
X22396Y30259D01*
X22371Y30278D01*
X22347Y30292D01*
X22324Y30301D01*
X22302Y30305D01*
X22270Y30305D01*
X22240Y30298D01*
X22212Y30284D01*
X22187Y30264D01*
X22140Y30320D01*
X22173Y30347D01*
X22215Y30370D01*
X22260Y30383D01*
X22307Y30386D01*
X22356Y30379D01*
X22404Y30360D01*
X22451Y30331D01*
X22498Y30290D01*
X22501Y30287D01*
X22505Y30283D01*
X22509Y30278D01*
X22514Y30273D01*
X22236Y29995D01*
X22269Y29970D01*
X22301Y29951D01*
X22333Y29940D01*
X22365Y29936D01*
X22396Y29938D01*
X22425Y29946D01*
X22451Y29961D01*
X22476Y29981D01*
X22491Y29999D01*
X22503Y30018D01*
X22512Y30038D01*
X22517Y30059D01*
X22518Y30081D01*
X22515Y30104D01*
X22508Y30129D01*
X22497Y30156D01*
X22497Y30156D01*
X20163Y31534D02*
X20248Y31585D01*
X20274Y31532D01*
X20292Y31481D01*
X20300Y31430D01*
X20299Y31380D01*
X20289Y31331D01*
X20270Y31285D01*
X20243Y31241D01*
X20207Y31200D01*
X20165Y31162D01*
X20123Y31133D01*
X20080Y31112D01*
X20038Y31098D01*
X19994Y31093D01*
X19950Y31094D01*
X19906Y31102D01*
X19860Y31117D01*
X19816Y31138D01*
X19773Y31163D01*
X19733Y31193D01*
X19695Y31228D01*
X19658Y31269D01*
X19628Y31311D01*
X19604Y31354D01*
X19586Y31399D01*
X19575Y31444D01*
X19570Y31488D01*
X19573Y31533D01*
X19582Y31577D01*
X19598Y31619D01*
X19619Y31660D01*
X19645Y31697D01*
X19676Y31733D01*
X19716Y31767D01*
X19757Y31794D01*
X19800Y31812D01*
X19845Y31823D01*
X19891Y31826D01*
X19937Y31820D01*
X19983Y31807D01*
X20029Y31786D01*
X19978Y31703D01*
X19942Y31719D01*
X19907Y31730D01*
X19875Y31734D01*
X19844Y31733D01*
X19815Y31726D01*
X19786Y31714D01*
X19759Y31696D01*
X19733Y31673D01*
X19706Y31643D01*
X19686Y31611D01*
X19671Y31579D01*
X19662Y31545D01*
X19659Y31512D01*
X19662Y31478D01*
X19669Y31445D01*
X19683Y31413D01*
X19700Y31382D01*
X19719Y31352D01*
X19741Y31325D01*
X19765Y31298D01*
X19798Y31268D01*
X19831Y31242D01*
X19865Y31220D01*
X19899Y31203D01*
X19933Y31191D01*
X19966Y31185D01*
X19999Y31184D01*
X20031Y31189D01*
X20063Y31199D01*
X20092Y31213D01*
X20118Y31231D01*
X20143Y31252D01*
X20168Y31282D01*
X20187Y31313D01*
X20200Y31347D01*
X20207Y31382D01*
X20207Y31419D01*
X20199Y31456D01*
X20184Y31495D01*
X20163Y31534D01*
X20163Y31534D01*
X20642Y31652D02*
X19928Y31967D01*
X20002Y32041D01*
X20509Y31801D01*
X20539Y31787D01*
X20567Y31772D01*
X20595Y31758D01*
X20620Y31744D01*
X20606Y31771D01*
X20591Y31799D01*
X20577Y31827D01*
X20564Y31856D01*
X20329Y32368D01*
X20399Y32438D01*
X20712Y31722D01*
X20642Y31652D01*
X20642Y31652D01*
X15905Y33907D02*
X15764Y34048D01*
X15624Y33908D01*
X15565Y33967D01*
X15705Y34107D01*
X15565Y34247D01*
X15625Y34306D01*
X15765Y34166D01*
X15905Y34306D01*
X15964Y34247D01*
X15824Y34107D01*
X15965Y33966D01*
X15905Y33907D01*
X15905Y33907D01*
X16495Y34331D02*
X16432Y34268D01*
X16030Y34670D01*
X16028Y34647D01*
X16025Y34622D01*
X16020Y34595D01*
X16014Y34567D01*
X16006Y34539D01*
X15997Y34513D01*
X15989Y34489D01*
X15980Y34468D01*
X15919Y34529D01*
X15931Y34568D01*
X15941Y34606D01*
X15947Y34644D01*
X15951Y34682D01*
X15952Y34718D01*
X15950Y34750D01*
X15945Y34780D01*
X15938Y34807D01*
X15979Y34847D01*
X16495Y34331D01*
X16495Y34331D01*
X16928Y34885D02*
X16989Y34824D01*
X16649Y34485D01*
X16638Y34496D01*
X16628Y34508D01*
X16620Y34522D01*
X16613Y34536D01*
X16603Y34561D01*
X16595Y34587D01*
X16589Y34616D01*
X16586Y34646D01*
X16584Y34679D01*
X16584Y34717D01*
X16586Y34759D01*
X16590Y34806D01*
X16596Y34877D01*
X16599Y34938D01*
X16599Y34988D01*
X16595Y35028D01*
X16588Y35061D01*
X16578Y35090D01*
X16565Y35114D01*
X16548Y35134D01*
X16529Y35150D01*
X16507Y35162D01*
X16484Y35168D01*
X16458Y35170D01*
X16433Y35167D01*
X16408Y35159D01*
X16385Y35145D01*
X16362Y35126D01*
X16343Y35103D01*
X16328Y35078D01*
X16320Y35053D01*
X16317Y35026D01*
X16320Y34999D01*
X16329Y34973D01*
X16344Y34947D01*
X16365Y34922D01*
X16293Y34864D01*
X16265Y34904D01*
X16245Y34944D01*
X16235Y34984D01*
X16233Y35025D01*
X16240Y35065D01*
X16255Y35104D01*
X16279Y35143D01*
X16312Y35180D01*
X16349Y35212D01*
X16388Y35236D01*
X16428Y35250D01*
X16470Y35256D01*
X16510Y35253D01*
X16548Y35242D01*
X16583Y35224D01*
X16615Y35197D01*
X16629Y35181D01*
X16642Y35164D01*
X16653Y35145D01*
X16663Y35124D01*
X16670Y35102D01*
X16677Y35077D01*
X16681Y35049D01*
X16684Y35019D01*
X16685Y34984D01*
X16684Y34941D01*
X16681Y34890D01*
X16677Y34832D01*
X16673Y34784D01*
X16670Y34745D01*
X16669Y34715D01*
X16669Y34694D01*
X16669Y34678D01*
X16671Y34662D01*
X16673Y34647D01*
X16676Y34633D01*
X16928Y34885D01*
X16928Y34885D01*
X17229Y35065D02*
X16516Y35380D01*
X16589Y35453D01*
X17097Y35214D01*
X17127Y35199D01*
X17155Y35185D01*
X17182Y35171D01*
X17208Y35156D01*
X17193Y35184D01*
X17179Y35211D01*
X17165Y35240D01*
X17151Y35268D01*
X16917Y35781D01*
X16986Y35850D01*
X17299Y35135D01*
X17229Y35065D01*
X17229Y35065D01*
X17921Y32690D02*
X17780Y32831D01*
X17640Y32691D01*
X17581Y32750D01*
X17721Y32890D01*
X17581Y33030D01*
X17641Y33089D01*
X17781Y32950D01*
X17921Y33089D01*
X17980Y33031D01*
X17840Y32891D01*
X17981Y32750D01*
X17921Y32690D01*
X17921Y32690D01*
X18139Y33011D02*
X18200Y33083D01*
X18227Y33065D01*
X18254Y33053D01*
X18281Y33046D01*
X18307Y33044D01*
X18331Y33048D01*
X18354Y33056D01*
X18376Y33068D01*
X18396Y33085D01*
X18415Y33109D01*
X18429Y33135D01*
X18437Y33164D01*
X18438Y33196D01*
X18434Y33229D01*
X18422Y33260D01*
X18404Y33290D01*
X18379Y33319D01*
X18351Y33343D01*
X18323Y33360D01*
X18294Y33370D01*
X18263Y33374D01*
X18233Y33371D01*
X18205Y33362D01*
X18178Y33347D01*
X18153Y33326D01*
X18139Y33310D01*
X18127Y33293D01*
X18118Y33275D01*
X18111Y33257D01*
X18107Y33238D01*
X18105Y33219D01*
X18106Y33200D01*
X18109Y33182D01*
X18042Y33131D01*
X17827Y33444D01*
X18083Y33700D01*
X18143Y33640D01*
X17938Y33435D01*
X18049Y33269D01*
X18058Y33306D01*
X18072Y33340D01*
X18090Y33371D01*
X18114Y33398D01*
X18149Y33428D01*
X18187Y33449D01*
X18229Y33461D01*
X18274Y33465D01*
X18319Y33460D01*
X18362Y33447D01*
X18402Y33424D01*
X18440Y33392D01*
X18471Y33355D01*
X18495Y33316D01*
X18511Y33275D01*
X18520Y33230D01*
X18521Y33176D01*
X18509Y33125D01*
X18484Y33077D01*
X18448Y33033D01*
X18412Y33002D01*
X18374Y32979D01*
X18335Y32964D01*
X18294Y32957D01*
X18253Y32959D01*
X18213Y32968D01*
X18175Y32986D01*
X18139Y33011D01*
X18139Y33011D01*
X18846Y33448D02*
X18132Y33763D01*
X18206Y33837D01*
X18713Y33597D01*
X18743Y33583D01*
X18771Y33568D01*
X18799Y33554D01*
X18824Y33540D01*
X18809Y33567D01*
X18795Y33595D01*
X18781Y33623D01*
X18768Y33652D01*
X18533Y34164D01*
X18603Y34234D01*
X18916Y33518D01*
X18846Y33448D01*
X18846Y33448D01*
X14028Y36219D02*
X13968Y36279D01*
X14185Y36497D01*
X14376Y36306D01*
X14370Y36262D01*
X14360Y36220D01*
X14348Y36180D01*
X14333Y36143D01*
X14315Y36107D01*
X14294Y36073D01*
X14270Y36042D01*
X14244Y36013D01*
X14205Y35978D01*
X14163Y35949D01*
X14120Y35925D01*
X14074Y35908D01*
X14026Y35897D01*
X13980Y35893D01*
X13933Y35897D01*
X13886Y35908D01*
X13841Y35926D01*
X13798Y35949D01*
X13756Y35979D01*
X13717Y36014D01*
X13683Y36053D01*
X13653Y36094D01*
X13628Y36138D01*
X13609Y36185D01*
X13596Y36233D01*
X13590Y36280D01*
X13593Y36327D01*
X13602Y36372D01*
X13619Y36417D01*
X13642Y36459D01*
X13671Y36500D01*
X13707Y36540D01*
X13735Y36566D01*
X13764Y36588D01*
X13794Y36607D01*
X13826Y36622D01*
X13857Y36634D01*
X13887Y36641D01*
X13917Y36644D01*
X13947Y36643D01*
X13976Y36637D01*
X14006Y36628D01*
X14038Y36615D01*
X14070Y36597D01*
X14025Y36519D01*
X14000Y36532D01*
X13977Y36541D01*
X13955Y36548D01*
X13935Y36552D01*
X13914Y36553D01*
X13894Y36551D01*
X13872Y36547D01*
X13850Y36539D01*
X13827Y36528D01*
X13806Y36515D01*
X13785Y36500D01*
X13765Y36482D01*
X13744Y36458D01*
X13725Y36435D01*
X13710Y36411D01*
X13699Y36387D01*
X13690Y36363D01*
X13684Y36340D01*
X13681Y36317D01*
X13681Y36294D01*
X13683Y36273D01*
X13687Y36252D01*
X13692Y36231D01*
X13700Y36211D01*
X13715Y36178D01*
X13735Y36147D01*
X13757Y36117D01*
X13783Y36088D01*
X13818Y36057D01*
X13852Y36031D01*
X13887Y36011D01*
X13922Y35997D01*
X13957Y35988D01*
X13992Y35985D01*
X14026Y35988D01*
X14060Y35997D01*
X14093Y36010D01*
X14123Y36027D01*
X14152Y36047D01*
X14178Y36070D01*
X14199Y36094D01*
X14218Y36118D01*
X14234Y36145D01*
X14248Y36174D01*
X14259Y36202D01*
X14267Y36228D01*
X14273Y36252D01*
X14275Y36274D01*
X14179Y36370D01*
X14028Y36219D01*
X14028Y36219D01*
X14547Y36334D02*
X14033Y36849D01*
X14103Y36918D01*
X14777Y36785D01*
X14373Y37188D01*
X14438Y37254D01*
X14953Y36739D01*
X14883Y36670D01*
X14209Y36804D01*
X14613Y36400D01*
X14547Y36334D01*
X14547Y36334D01*
X15067Y36854D02*
X14553Y37368D01*
X14729Y37544D01*
X14790Y37484D01*
X14681Y37375D01*
X15074Y36983D01*
X15074Y36983D01*
X15184Y37092D01*
X15208Y37117D01*
X15227Y37140D01*
X15243Y37162D01*
X15254Y37182D01*
X15263Y37201D01*
X15269Y37219D01*
X15273Y37237D01*
X15274Y37254D01*
X15272Y37279D01*
X15267Y37304D01*
X15259Y37330D01*
X15247Y37357D01*
X15231Y37385D01*
X15212Y37413D01*
X15188Y37441D01*
X15161Y37470D01*
X15121Y37506D01*
X15083Y37535D01*
X15046Y37555D01*
X15011Y37567D01*
X14977Y37573D01*
X14945Y37574D01*
X14915Y37570D01*
X14888Y37561D01*
X14868Y37550D01*
X14845Y37533D01*
X14818Y37511D01*
X14790Y37484D01*
X14729Y37544D01*
X14730Y37545D01*
X14759Y37573D01*
X14785Y37596D01*
X14808Y37615D01*
X14829Y37629D01*
X14856Y37645D01*
X14884Y37656D01*
X14912Y37664D01*
X14941Y37668D01*
X14979Y37669D01*
X15016Y37664D01*
X15053Y37655D01*
X15090Y37641D01*
X15126Y37622D01*
X15162Y37599D01*
X15198Y37571D01*
X15232Y37539D01*
X15260Y37510D01*
X15284Y37480D01*
X15305Y37451D01*
X15322Y37421D01*
X15337Y37392D01*
X15348Y37364D01*
X15357Y37337D01*
X15362Y37311D01*
X15365Y37286D01*
X15366Y37263D01*
X15365Y37240D01*
X15362Y37218D01*
X15357Y37197D01*
X15349Y37175D01*
X15339Y37153D01*
X15326Y37131D01*
X15312Y37108D01*
X15294Y37086D01*
X15275Y37063D01*
X15253Y37039D01*
X15067Y36854D01*
X15067Y36854D01*
X12232Y38015D02*
X12172Y38075D01*
X12389Y38293D01*
X12580Y38102D01*
X12574Y38058D01*
X12564Y38016D01*
X12552Y37976D01*
X12537Y37939D01*
X12519Y37903D01*
X12498Y37869D01*
X12474Y37838D01*
X12448Y37809D01*
X12409Y37774D01*
X12367Y37745D01*
X12324Y37721D01*
X12277Y37704D01*
X12230Y37693D01*
X12183Y37689D01*
X12137Y37693D01*
X12090Y37704D01*
X12045Y37722D01*
X12001Y37745D01*
X11960Y37775D01*
X11921Y37810D01*
X11886Y37849D01*
X11857Y37890D01*
X11832Y37934D01*
X11813Y37981D01*
X11800Y38029D01*
X11794Y38076D01*
X11797Y38123D01*
X11806Y38168D01*
X11823Y38213D01*
X11846Y38255D01*
X11875Y38296D01*
X11911Y38336D01*
X11939Y38362D01*
X11968Y38384D01*
X11998Y38403D01*
X12029Y38418D01*
X12061Y38430D01*
X12091Y38437D01*
X12121Y38440D01*
X12150Y38439D01*
X12180Y38433D01*
X12210Y38424D01*
X12241Y38411D01*
X12274Y38393D01*
X12229Y38315D01*
X12204Y38328D01*
X12181Y38337D01*
X12159Y38344D01*
X12139Y38348D01*
X12118Y38349D01*
X12097Y38348D01*
X12076Y38343D01*
X12054Y38335D01*
X12031Y38325D01*
X12010Y38311D01*
X11989Y38296D01*
X11969Y38278D01*
X11947Y38254D01*
X11929Y38231D01*
X11914Y38207D01*
X11903Y38183D01*
X11894Y38159D01*
X11888Y38136D01*
X11885Y38113D01*
X11885Y38091D01*
X11887Y38069D01*
X11891Y38048D01*
X11896Y38027D01*
X11904Y38007D01*
X11919Y37974D01*
X11939Y37943D01*
X11961Y37913D01*
X11987Y37884D01*
X12022Y37853D01*
X12056Y37827D01*
X12091Y37807D01*
X12126Y37793D01*
X12161Y37784D01*
X12196Y37781D01*
X12230Y37784D01*
X12264Y37793D01*
X12297Y37806D01*
X12327Y37823D01*
X12356Y37843D01*
X12382Y37867D01*
X12403Y37890D01*
X12422Y37914D01*
X12438Y37941D01*
X12452Y37970D01*
X12463Y37998D01*
X12471Y38024D01*
X12477Y38048D01*
X12479Y38070D01*
X12383Y38166D01*
X12232Y38015D01*
X12232Y38015D01*
X12751Y38130D02*
X12237Y38645D01*
X12307Y38714D01*
X12981Y38581D01*
X12577Y38985D01*
X12642Y39050D01*
X13157Y38536D01*
X13087Y38466D01*
X12413Y38600D01*
X12817Y38196D01*
X12751Y38130D01*
X12751Y38130D01*
X13271Y38650D02*
X12757Y39164D01*
X12933Y39340D01*
X12993Y39280D01*
X12885Y39172D01*
X13278Y38779D01*
X13278Y38779D01*
X13388Y38888D01*
X13412Y38913D01*
X13431Y38936D01*
X13447Y38958D01*
X13458Y38978D01*
X13467Y38997D01*
X13473Y39015D01*
X13477Y39033D01*
X13478Y39050D01*
X13476Y39075D01*
X13471Y39100D01*
X13463Y39126D01*
X13451Y39153D01*
X13435Y39181D01*
X13415Y39209D01*
X13392Y39237D01*
X13365Y39266D01*
X13325Y39302D01*
X13287Y39331D01*
X13250Y39351D01*
X13214Y39363D01*
X13181Y39369D01*
X13149Y39370D01*
X13119Y39366D01*
X13092Y39357D01*
X13072Y39346D01*
X13048Y39329D01*
X13022Y39307D01*
X12993Y39280D01*
X12933Y39340D01*
X12934Y39341D01*
X12963Y39369D01*
X12989Y39392D01*
X13012Y39411D01*
X13033Y39425D01*
X13060Y39441D01*
X13088Y39452D01*
X13116Y39460D01*
X13145Y39464D01*
X13182Y39465D01*
X13220Y39460D01*
X13257Y39451D01*
X13294Y39437D01*
X13330Y39418D01*
X13366Y39395D01*
X13401Y39367D01*
X13436Y39335D01*
X13464Y39306D01*
X13488Y39276D01*
X13509Y39247D01*
X13526Y39217D01*
X13541Y39188D01*
X13552Y39161D01*
X13561Y39134D01*
X13566Y39107D01*
X13569Y39083D01*
X13570Y39059D01*
X13569Y39036D01*
X13566Y39014D01*
X13561Y38993D01*
X13553Y38971D01*
X13543Y38949D01*
X13530Y38927D01*
X13516Y38904D01*
X13498Y38882D01*
X13479Y38859D01*
X13457Y38835D01*
X13271Y38650D01*
X13271Y38650D01*
X10436Y39811D02*
X10376Y39871D01*
X10593Y40089D01*
X10784Y39898D01*
X10778Y39854D01*
X10768Y39812D01*
X10756Y39772D01*
X10741Y39735D01*
X10723Y39699D01*
X10702Y39666D01*
X10678Y39634D01*
X10652Y39605D01*
X10613Y39570D01*
X10571Y39541D01*
X10527Y39517D01*
X10481Y39500D01*
X10434Y39489D01*
X10387Y39485D01*
X10341Y39489D01*
X10294Y39500D01*
X10249Y39518D01*
X10205Y39541D01*
X10164Y39571D01*
X10125Y39606D01*
X10090Y39645D01*
X10061Y39686D01*
X10036Y39730D01*
X10017Y39777D01*
X10004Y39825D01*
X9998Y39872D01*
X10000Y39919D01*
X10010Y39964D01*
X10027Y40009D01*
X10050Y40051D01*
X10079Y40092D01*
X10115Y40132D01*
X10143Y40158D01*
X10172Y40180D01*
X10202Y40199D01*
X10233Y40214D01*
X10265Y40226D01*
X10295Y40233D01*
X10325Y40236D01*
X10354Y40235D01*
X10384Y40229D01*
X10414Y40220D01*
X10445Y40207D01*
X10478Y40189D01*
X10433Y40111D01*
X10408Y40124D01*
X10385Y40133D01*
X10363Y40140D01*
X10343Y40144D01*
X10322Y40145D01*
X10301Y40144D01*
X10280Y40139D01*
X10257Y40131D01*
X10235Y40121D01*
X10214Y40108D01*
X10193Y40092D01*
X10173Y40074D01*
X10151Y40050D01*
X10133Y40027D01*
X10118Y40003D01*
X10107Y39979D01*
X10098Y39955D01*
X10092Y39932D01*
X10089Y39909D01*
X10089Y39887D01*
X10091Y39865D01*
X10095Y39844D01*
X10100Y39823D01*
X10107Y39803D01*
X10123Y39770D01*
X10142Y39739D01*
X10165Y39709D01*
X10191Y39680D01*
X10226Y39649D01*
X10260Y39623D01*
X10295Y39603D01*
X10330Y39589D01*
X10365Y39580D01*
X10399Y39577D01*
X10434Y39580D01*
X10468Y39589D01*
X10501Y39602D01*
X10531Y39619D01*
X10560Y39639D01*
X10586Y39663D01*
X10607Y39686D01*
X10626Y39711D01*
X10642Y39737D01*
X10656Y39766D01*
X10667Y39794D01*
X10675Y39820D01*
X10680Y39844D01*
X10683Y39866D01*
X10587Y39962D01*
X10436Y39811D01*
X10436Y39811D01*
X10955Y39926D02*
X10441Y40441D01*
X10511Y40510D01*
X11185Y40377D01*
X10781Y40781D01*
X10846Y40846D01*
X11361Y40332D01*
X11291Y40262D01*
X10617Y40396D01*
X11021Y39992D01*
X10955Y39926D01*
X10955Y39926D01*
X11475Y40446D02*
X10961Y40960D01*
X11137Y41136D01*
X11197Y41076D01*
X11089Y40968D01*
X11482Y40575D01*
X11482Y40575D01*
X11592Y40684D01*
X11616Y40709D01*
X11635Y40732D01*
X11651Y40754D01*
X11662Y40774D01*
X11671Y40793D01*
X11677Y40811D01*
X11681Y40829D01*
X11682Y40847D01*
X11680Y40871D01*
X11675Y40896D01*
X11666Y40923D01*
X11654Y40949D01*
X11639Y40977D01*
X11619Y41005D01*
X11596Y41033D01*
X11569Y41062D01*
X11529Y41098D01*
X11491Y41127D01*
X11454Y41147D01*
X11418Y41159D01*
X11385Y41165D01*
X11353Y41166D01*
X11323Y41162D01*
X11296Y41153D01*
X11276Y41142D01*
X11252Y41125D01*
X11226Y41103D01*
X11197Y41076D01*
X11137Y41136D01*
X11138Y41137D01*
X11166Y41165D01*
X11193Y41188D01*
X11216Y41207D01*
X11237Y41222D01*
X11264Y41237D01*
X11292Y41248D01*
X11320Y41256D01*
X11349Y41260D01*
X11386Y41261D01*
X11424Y41257D01*
X11461Y41247D01*
X11498Y41233D01*
X11534Y41214D01*
X11570Y41191D01*
X11605Y41163D01*
X11640Y41131D01*
X11668Y41102D01*
X11692Y41072D01*
X11713Y41043D01*
X11730Y41014D01*
X11745Y40985D01*
X11756Y40957D01*
X11765Y40930D01*
X11770Y40904D01*
X11773Y40879D01*
X11774Y40855D01*
X11773Y40832D01*
X11770Y40810D01*
X11765Y40789D01*
X11757Y40767D01*
X11747Y40745D01*
X11734Y40723D01*
X11719Y40700D01*
X11702Y40678D01*
X11683Y40655D01*
X11660Y40632D01*
X11475Y40446D01*
X11475Y40446D01*
X8493Y41365D02*
X8430Y41429D01*
X8624Y41622D01*
X8687Y41559D01*
X8493Y41365D01*
X8493Y41365D01*
X9132Y41695D02*
X9068Y41632D01*
X8666Y42034D01*
X8665Y42011D01*
X8661Y41986D01*
X8657Y41959D01*
X8650Y41931D01*
X8642Y41902D01*
X8634Y41876D01*
X8625Y41853D01*
X8616Y41832D01*
X8555Y41893D01*
X8567Y41931D01*
X8577Y41970D01*
X8584Y42008D01*
X8587Y42046D01*
X8588Y42081D01*
X8586Y42114D01*
X8582Y42144D01*
X8575Y42170D01*
X8615Y42211D01*
X9132Y41695D01*
X9132Y41695D01*
X9564Y42249D02*
X9625Y42188D01*
X9285Y41848D01*
X9274Y41860D01*
X9264Y41872D01*
X9256Y41885D01*
X9249Y41900D01*
X9239Y41924D01*
X9231Y41951D01*
X9226Y41979D01*
X9222Y42010D01*
X9220Y42043D01*
X9221Y42081D01*
X9223Y42123D01*
X9227Y42170D01*
X9233Y42241D01*
X9235Y42302D01*
X9235Y42352D01*
X9231Y42392D01*
X9224Y42425D01*
X9214Y42453D01*
X9201Y42478D01*
X9185Y42498D01*
X9165Y42514D01*
X9143Y42526D01*
X9120Y42532D01*
X9094Y42534D01*
X9069Y42531D01*
X9044Y42523D01*
X9021Y42509D01*
X8999Y42490D01*
X8979Y42467D01*
X8964Y42442D01*
X8956Y42416D01*
X8953Y42390D01*
X8956Y42363D01*
X8965Y42336D01*
X8980Y42311D01*
X9001Y42286D01*
X8930Y42228D01*
X8901Y42268D01*
X8881Y42308D01*
X8871Y42348D01*
X8869Y42389D01*
X8876Y42429D01*
X8891Y42468D01*
X8915Y42506D01*
X8948Y42544D01*
X8985Y42576D01*
X9024Y42600D01*
X9065Y42614D01*
X9106Y42620D01*
X9147Y42617D01*
X9184Y42606D01*
X9219Y42588D01*
X9251Y42561D01*
X9265Y42545D01*
X9278Y42527D01*
X9289Y42508D01*
X9299Y42488D01*
X9307Y42465D01*
X9313Y42440D01*
X9317Y42413D01*
X9320Y42383D01*
X9321Y42348D01*
X9320Y42305D01*
X9317Y42254D01*
X9313Y42195D01*
X9309Y42148D01*
X9306Y42109D01*
X9305Y42079D01*
X9305Y42058D01*
X9306Y42041D01*
X9307Y42026D01*
X9309Y42011D01*
X9312Y41997D01*
X9564Y42249D01*
X9564Y42249D01*
X9865Y42429D02*
X9152Y42744D01*
X9226Y42817D01*
X9733Y42577D01*
X9763Y42563D01*
X9791Y42549D01*
X9818Y42534D01*
X9844Y42520D01*
X9829Y42547D01*
X9815Y42575D01*
X9801Y42603D01*
X9788Y42632D01*
X9553Y43145D01*
X9622Y43214D01*
X9935Y42498D01*
X9865Y42429D01*
X9865Y42429D01*
G37*
%LNtext*%
G36*
X2679Y9700D02*
X2679Y15069D01*
X4704Y15069D01*
X4955Y15065D01*
X5175Y15056D01*
X5364Y15040D01*
X5520Y15017D01*
X5710Y14977D01*
X5884Y14922D01*
X6042Y14852D01*
X6183Y14767D01*
X6310Y14665D01*
X6424Y14545D01*
X6526Y14406D01*
X6614Y14248D01*
X6685Y14078D01*
X6736Y13899D01*
X6766Y13711D01*
X6777Y13516D01*
X6749Y13187D01*
X6668Y12884D01*
X6531Y12607D01*
X6341Y12357D01*
X6079Y12149D01*
X5729Y12001D01*
X5292Y11912D01*
X5132Y11903D01*
X5096Y12532D01*
X5366Y12580D01*
X5585Y12660D01*
X5755Y12773D01*
X5881Y12914D01*
X5972Y13081D01*
X6026Y13274D01*
X6044Y13494D01*
X6033Y13656D01*
X6002Y13807D01*
X5948Y13945D01*
X5874Y14071D01*
X5782Y14180D01*
X5677Y14270D01*
X5558Y14339D01*
X5425Y14387D01*
X5316Y14408D01*
X5170Y14423D01*
X4985Y14432D01*
X4762Y14435D01*
X3389Y14435D01*
X3389Y12516D01*
X3389Y12516D01*
X4777Y12516D01*
X5096Y12532D01*
X5132Y11903D01*
X4766Y11883D01*
X3389Y11883D01*
X3389Y9700D01*
X2679Y9700D01*
X2679Y9700D01*
X7352Y11645D02*
X7389Y12150D01*
X7502Y12585D01*
X7689Y12950D01*
X7952Y13245D01*
X8217Y13434D01*
X8509Y13569D01*
X8828Y13650D01*
X9175Y13677D01*
X9558Y13644D01*
X9904Y13546D01*
X10214Y13381D01*
X10486Y13152D01*
X10709Y12864D01*
X10868Y12526D01*
X10964Y12138D01*
X10995Y11700D01*
X10981Y11344D01*
X10939Y11029D01*
X10869Y10754D01*
X10770Y10518D01*
X10645Y10315D01*
X10494Y10136D01*
X10317Y9981D01*
X10115Y9850D01*
X9895Y9746D01*
X9665Y9672D01*
X9425Y9627D01*
X9175Y9612D01*
X9130Y9616D01*
X9175Y10154D01*
X9410Y10177D01*
X9625Y10247D01*
X9819Y10364D01*
X9992Y10528D01*
X10135Y10739D01*
X10236Y10999D01*
X10298Y11308D01*
X10318Y11667D01*
X10297Y12005D01*
X10236Y12301D01*
X10134Y12552D01*
X9990Y12760D01*
X9816Y12922D01*
X9623Y13038D01*
X9409Y13108D01*
X9175Y13131D01*
X8939Y13108D01*
X8723Y13039D01*
X8528Y12923D01*
X8355Y12762D01*
X8212Y12553D01*
X8111Y12297D01*
X8049Y11995D01*
X8029Y11645D01*
X8029Y11645D01*
X8049Y11295D01*
X8111Y10991D01*
X8212Y10735D01*
X8355Y10526D01*
X8528Y10363D01*
X8723Y10247D01*
X8939Y10177D01*
X9175Y10154D01*
X9130Y9616D01*
X8787Y9645D01*
X8437Y9743D01*
X8126Y9907D01*
X7855Y10136D01*
X7635Y10426D01*
X7477Y10775D01*
X7383Y11181D01*
X7352Y11645D01*
X7352Y11645D01*
X12486Y9700D02*
X11296Y13589D01*
X11977Y13589D01*
X12596Y11344D01*
X12826Y10509D01*
X12845Y10583D01*
X12884Y10741D01*
X12945Y10984D01*
X13028Y11311D01*
X13647Y13589D01*
X14324Y13589D01*
X14907Y11333D01*
X15101Y10590D01*
X15324Y11341D01*
X15991Y13589D01*
X16631Y13589D01*
X15416Y9700D01*
X14731Y9700D01*
X14112Y12029D01*
X13962Y12692D01*
X13174Y9700D01*
X12486Y9700D01*
X12486Y9700D01*
X19847Y10952D02*
X20528Y10868D01*
X20430Y10586D01*
X20298Y10338D01*
X20132Y10123D01*
X19931Y9942D01*
X19698Y9798D01*
X19435Y9695D01*
X19141Y9633D01*
X18818Y9612D01*
X18413Y9645D01*
X18053Y9743D01*
X17737Y9908D01*
X17465Y10138D01*
X17246Y10427D01*
X17090Y10769D01*
X16996Y11164D01*
X16965Y11612D01*
X16996Y12075D01*
X17091Y12483D01*
X17249Y12837D01*
X17470Y13135D01*
X17742Y13372D01*
X18051Y13542D01*
X18397Y13643D01*
X18781Y13677D01*
X18836Y13672D01*
X18788Y13135D01*
X18570Y13116D01*
X18371Y13059D01*
X18189Y12964D01*
X18025Y12831D01*
X17887Y12666D01*
X17785Y12476D01*
X17716Y12260D01*
X17683Y12018D01*
X17683Y12018D01*
X19854Y12018D01*
X19822Y12248D01*
X19770Y12447D01*
X19698Y12616D01*
X19605Y12754D01*
X19436Y12921D01*
X19243Y13040D01*
X19028Y13111D01*
X18788Y13135D01*
X18836Y13672D01*
X19153Y13644D01*
X19490Y13544D01*
X19791Y13378D01*
X20056Y13146D01*
X20272Y12854D01*
X20426Y12507D01*
X20519Y12106D01*
X20550Y11652D01*
X20550Y11619D01*
X20549Y11579D01*
X20548Y11531D01*
X20546Y11476D01*
X17646Y11476D01*
X17682Y11174D01*
X17755Y10910D01*
X17864Y10684D01*
X18008Y10495D01*
X18181Y10346D01*
X18375Y10239D01*
X18588Y10175D01*
X18821Y10154D01*
X18996Y10166D01*
X19157Y10202D01*
X19306Y10261D01*
X19440Y10345D01*
X19562Y10454D01*
X19670Y10592D01*
X19765Y10758D01*
X19847Y10952D01*
X19847Y10952D01*
X21348Y9700D02*
X21348Y13589D01*
X21942Y13589D01*
X21942Y13000D01*
X22053Y13189D01*
X22160Y13343D01*
X22263Y13462D01*
X22361Y13545D01*
X22459Y13603D01*
X22563Y13644D01*
X22671Y13669D01*
X22784Y13677D01*
X22951Y13664D01*
X23120Y13624D01*
X23290Y13558D01*
X23461Y13465D01*
X23234Y12853D01*
X23113Y12916D01*
X22993Y12960D01*
X22872Y12987D01*
X22751Y12996D01*
X22646Y12988D01*
X22546Y12963D01*
X22452Y12923D01*
X22363Y12866D01*
X22283Y12795D01*
X22215Y12711D01*
X22160Y12614D01*
X22117Y12505D01*
X22069Y12325D01*
X22035Y12137D01*
X22014Y11941D01*
X22008Y11736D01*
X22008Y9700D01*
X21348Y9700D01*
X21348Y9700D01*
X26002Y97721D02*
X26002Y98506D01*
X25223Y98506D01*
X25223Y98834D01*
X26002Y98834D01*
X26002Y99613D01*
X26334Y99613D01*
X26334Y98834D01*
X27113Y98834D01*
X27113Y98506D01*
X26334Y98506D01*
X26334Y97721D01*
X26002Y97721D01*
X26002Y97721D01*
X28826Y97258D02*
X28475Y97258D01*
X28475Y99498D01*
X28406Y99438D01*
X28328Y99377D01*
X28240Y99317D01*
X28142Y99256D01*
X28041Y99199D01*
X27946Y99150D01*
X27856Y99108D01*
X27772Y99074D01*
X27772Y99414D01*
X27914Y99487D01*
X28048Y99568D01*
X28172Y99655D01*
X28287Y99750D01*
X28389Y99848D01*
X28476Y99945D01*
X28546Y100039D01*
X28600Y100133D01*
X28826Y100133D01*
X28826Y97258D01*
X28826Y97258D01*
X31574Y97596D02*
X31574Y97258D01*
X29682Y97258D01*
X29683Y97321D01*
X29690Y97383D01*
X29703Y97443D01*
X29723Y97502D01*
X29764Y97598D01*
X29817Y97694D01*
X29880Y97789D01*
X29954Y97883D01*
X30043Y97980D01*
X30149Y98085D01*
X30273Y98197D01*
X30414Y98317D01*
X30629Y98498D01*
X30805Y98660D01*
X30944Y98801D01*
X31045Y98923D01*
X31117Y99033D01*
X31168Y99141D01*
X31199Y99245D01*
X31209Y99346D01*
X31200Y99446D01*
X31172Y99539D01*
X31125Y99623D01*
X31060Y99698D01*
X30979Y99761D01*
X30888Y99806D01*
X30784Y99833D01*
X30670Y99842D01*
X30549Y99832D01*
X30441Y99804D01*
X30346Y99756D01*
X30264Y99690D01*
X30197Y99606D01*
X30149Y99508D01*
X30120Y99395D01*
X30109Y99268D01*
X29748Y99305D01*
X29780Y99495D01*
X29837Y99661D01*
X29919Y99803D01*
X30027Y99921D01*
X30159Y100014D01*
X30311Y100080D01*
X30484Y100120D01*
X30678Y100133D01*
X30873Y100119D01*
X31047Y100076D01*
X31199Y100004D01*
X31330Y99904D01*
X31435Y99783D01*
X31510Y99649D01*
X31555Y99500D01*
X31570Y99338D01*
X31566Y99253D01*
X31553Y99168D01*
X31531Y99084D01*
X31500Y99000D01*
X31459Y98916D01*
X31407Y98830D01*
X31342Y98741D01*
X31267Y98651D01*
X31172Y98550D01*
X31050Y98433D01*
X30901Y98298D01*
X30725Y98147D01*
X30581Y98025D01*
X30465Y97924D01*
X30378Y97844D01*
X30318Y97786D01*
X30275Y97739D01*
X30236Y97691D01*
X30201Y97644D01*
X30170Y97596D01*
X31574Y97596D01*
X31574Y97596D01*
X32912Y97258D02*
X31803Y100121D01*
X32213Y100121D01*
X32957Y98041D01*
X33000Y97918D01*
X33040Y97799D01*
X33075Y97684D01*
X33108Y97572D01*
X33142Y97690D01*
X33179Y97807D01*
X33219Y97924D01*
X33262Y98041D01*
X34035Y100121D01*
X34422Y100121D01*
X33301Y97258D01*
X32912Y97258D01*
X32912Y97258D01*
X5877Y98117D02*
X5877Y98471D01*
X6957Y98471D01*
X6957Y98117D01*
X5877Y98117D01*
X5877Y98117D01*
X8572Y97258D02*
X8221Y97258D01*
X8221Y99498D01*
X8152Y99438D01*
X8074Y99377D01*
X7986Y99317D01*
X7888Y99256D01*
X7787Y99199D01*
X7692Y99150D01*
X7602Y99108D01*
X7518Y99074D01*
X7518Y99414D01*
X7660Y99487D01*
X7794Y99568D01*
X7918Y99655D01*
X8033Y99750D01*
X8135Y99848D01*
X8222Y99945D01*
X8292Y100039D01*
X8346Y100133D01*
X8572Y100133D01*
X8572Y97258D01*
X8572Y97258D01*
X11320Y97596D02*
X11320Y97258D01*
X9428Y97258D01*
X9429Y97321D01*
X9436Y97383D01*
X9449Y97443D01*
X9469Y97502D01*
X9510Y97598D01*
X9563Y97694D01*
X9626Y97789D01*
X9700Y97883D01*
X9789Y97980D01*
X9895Y98085D01*
X10019Y98197D01*
X10160Y98317D01*
X10375Y98498D01*
X10551Y98660D01*
X10690Y98801D01*
X10791Y98923D01*
X10863Y99033D01*
X10914Y99141D01*
X10945Y99245D01*
X10955Y99346D01*
X10946Y99446D01*
X10918Y99539D01*
X10871Y99623D01*
X10806Y99698D01*
X10725Y99761D01*
X10634Y99806D01*
X10530Y99833D01*
X10416Y99842D01*
X10295Y99832D01*
X10187Y99804D01*
X10092Y99756D01*
X10010Y99690D01*
X9943Y99606D01*
X9895Y99508D01*
X9866Y99395D01*
X9855Y99268D01*
X9494Y99305D01*
X9525Y99495D01*
X9582Y99661D01*
X9665Y99803D01*
X9773Y99921D01*
X9905Y100014D01*
X10057Y100080D01*
X10230Y100120D01*
X10424Y100133D01*
X10619Y100119D01*
X10793Y100076D01*
X10945Y100004D01*
X11076Y99904D01*
X11181Y99783D01*
X11256Y99649D01*
X11301Y99500D01*
X11316Y99338D01*
X11312Y99253D01*
X11299Y99168D01*
X11277Y99084D01*
X11246Y99000D01*
X11205Y98916D01*
X11153Y98830D01*
X11088Y98741D01*
X11013Y98651D01*
X10918Y98550D01*
X10796Y98433D01*
X10647Y98298D01*
X10471Y98147D01*
X10327Y98025D01*
X10211Y97924D01*
X10124Y97844D01*
X10064Y97786D01*
X10021Y97739D01*
X9982Y97691D01*
X9947Y97644D01*
X9916Y97596D01*
X11320Y97596D01*
X11320Y97596D01*
X12658Y97258D02*
X11549Y100121D01*
X11959Y100121D01*
X12703Y98041D01*
X12746Y97918D01*
X12786Y97799D01*
X12821Y97684D01*
X12854Y97572D01*
X12888Y97690D01*
X12925Y97807D01*
X12965Y97924D01*
X13008Y98041D01*
X13781Y100121D01*
X14168Y100121D01*
X13047Y97258D01*
X12658Y97258D01*
X12658Y97258D01*
X7148Y118381D02*
X7148Y118717D01*
X8361Y118719D01*
X8361Y117656D01*
X8221Y117552D01*
X8078Y117461D01*
X7932Y117385D01*
X7785Y117321D01*
X7636Y117272D01*
X7484Y117237D01*
X7331Y117216D01*
X7176Y117209D01*
X6970Y117220D01*
X6773Y117254D01*
X6586Y117311D01*
X6409Y117390D01*
X6247Y117490D01*
X6107Y117611D01*
X5987Y117751D01*
X5889Y117912D01*
X5812Y118088D01*
X5757Y118274D01*
X5724Y118470D01*
X5713Y118676D01*
X5724Y118881D01*
X5757Y119080D01*
X5811Y119272D01*
X5888Y119456D01*
X5985Y119626D01*
X6101Y119772D01*
X6236Y119895D01*
X6391Y119994D01*
X6561Y120071D01*
X6744Y120126D01*
X6939Y120159D01*
X7146Y120170D01*
X7298Y120164D01*
X7442Y120145D01*
X7579Y120114D01*
X7708Y120070D01*
X7827Y120014D01*
X7932Y119949D01*
X8023Y119874D01*
X8102Y119789D01*
X8169Y119693D01*
X8227Y119582D01*
X8277Y119458D01*
X8318Y119320D01*
X7977Y119227D01*
X7942Y119330D01*
X7904Y119422D01*
X7862Y119502D01*
X7816Y119570D01*
X7763Y119630D01*
X7700Y119683D01*
X7627Y119730D01*
X7543Y119771D01*
X7452Y119804D01*
X7355Y119827D01*
X7254Y119841D01*
X7148Y119846D01*
X7023Y119841D01*
X6906Y119826D01*
X6798Y119801D01*
X6699Y119767D01*
X6609Y119724D01*
X6528Y119675D01*
X6456Y119620D01*
X6394Y119559D01*
X6339Y119493D01*
X6290Y119424D01*
X6248Y119351D01*
X6213Y119276D01*
X6165Y119140D01*
X6131Y118999D01*
X6110Y118852D01*
X6104Y118699D01*
X6112Y118516D01*
X6136Y118348D01*
X6178Y118195D01*
X6235Y118059D01*
X6309Y117938D01*
X6397Y117834D01*
X6501Y117747D01*
X6619Y117676D01*
X6747Y117621D01*
X6879Y117582D01*
X7015Y117559D01*
X7154Y117551D01*
X7277Y117557D01*
X7397Y117575D01*
X7517Y117604D01*
X7635Y117646D01*
X7745Y117694D01*
X7841Y117744D01*
X7923Y117795D01*
X7990Y117848D01*
X7990Y118381D01*
X7148Y118381D01*
X7148Y118381D01*
X8916Y117258D02*
X8916Y120121D01*
X9305Y120121D01*
X10809Y117873D01*
X10809Y120121D01*
X11172Y120121D01*
X11172Y117258D01*
X10783Y117258D01*
X9279Y119508D01*
X9279Y117258D01*
X8916Y117258D01*
X8916Y117258D01*
X11809Y117258D02*
X11809Y120121D01*
X12789Y120121D01*
X12789Y119783D01*
X12188Y119783D01*
X12188Y117596D01*
X12188Y117596D01*
X12799Y117596D01*
X12933Y117599D01*
X13052Y117609D01*
X13155Y117626D01*
X13243Y117649D01*
X13320Y117678D01*
X13388Y117712D01*
X13448Y117752D01*
X13500Y117797D01*
X13564Y117870D01*
X13620Y117955D01*
X13669Y118051D01*
X13710Y118159D01*
X13743Y118279D01*
X13766Y118411D01*
X13781Y118555D01*
X13785Y118711D01*
X13776Y118923D01*
X13748Y119108D01*
X13702Y119268D01*
X13638Y119402D01*
X13560Y119512D01*
X13474Y119603D01*
X13381Y119674D01*
X13279Y119725D01*
X13192Y119750D01*
X13081Y119769D01*
X12947Y119780D01*
X12789Y119783D01*
X12789Y120121D01*
X12795Y120121D01*
X12952Y120119D01*
X13089Y120111D01*
X13207Y120098D01*
X13305Y120080D01*
X13423Y120046D01*
X13533Y120001D01*
X13633Y119944D01*
X13725Y119875D01*
X13831Y119773D01*
X13923Y119657D01*
X14000Y119528D01*
X14064Y119386D01*
X14113Y119232D01*
X14148Y119067D01*
X14169Y118891D01*
X14176Y118705D01*
X14171Y118547D01*
X14157Y118398D01*
X14133Y118258D01*
X14100Y118127D01*
X14059Y118007D01*
X14013Y117897D01*
X13961Y117798D01*
X13904Y117710D01*
X13843Y117632D01*
X13780Y117563D01*
X13713Y117502D01*
X13644Y117450D01*
X13569Y117406D01*
X13487Y117367D01*
X13398Y117334D01*
X13302Y117307D01*
X13198Y117285D01*
X13087Y117270D01*
X12968Y117261D01*
X12842Y117258D01*
X11809Y117258D01*
X11809Y117258D01*
X16157Y5421D02*
X16202Y6053D01*
X16336Y6612D01*
X16561Y7099D01*
X16875Y7514D01*
X17260Y7844D01*
X17697Y8081D01*
X18186Y8222D01*
X18728Y8270D01*
X19090Y8248D01*
X19435Y8181D01*
X19761Y8070D01*
X20068Y7915D01*
X20349Y7719D01*
X20594Y7489D01*
X20804Y7224D01*
X20978Y6924D01*
X21115Y6596D01*
X21213Y6246D01*
X21272Y5875D01*
X21291Y5483D01*
X21271Y5085D01*
X21209Y4709D01*
X21106Y4355D01*
X20962Y4022D01*
X20780Y3719D01*
X20563Y3455D01*
X20313Y3231D01*
X20028Y3046D01*
X19720Y2901D01*
X19400Y2797D01*
X19215Y2763D01*
X19104Y3357D01*
X19452Y3463D01*
X19764Y3639D01*
X20041Y3886D01*
X20267Y4198D01*
X20429Y4568D01*
X20527Y4998D01*
X20559Y5487D01*
X20545Y5804D01*
X20504Y6100D01*
X20434Y6376D01*
X20337Y6631D01*
X20214Y6862D01*
X20065Y7065D01*
X19890Y7241D01*
X19689Y7389D01*
X19469Y7507D01*
X19236Y7591D01*
X18990Y7641D01*
X18732Y7658D01*
X18367Y7626D01*
X18030Y7529D01*
X17718Y7367D01*
X17433Y7140D01*
X17195Y6838D01*
X17025Y6448D01*
X16923Y5972D01*
X16889Y5410D01*
X16889Y5410D01*
X16922Y4950D01*
X17020Y4542D01*
X17183Y4186D01*
X17411Y3881D01*
X17689Y3636D01*
X18000Y3462D01*
X18343Y3357D01*
X18721Y3322D01*
X19104Y3357D01*
X19215Y2763D01*
X19068Y2735D01*
X18724Y2714D01*
X18355Y2737D01*
X18006Y2806D01*
X17678Y2920D01*
X17369Y3081D01*
X17089Y3280D01*
X16845Y3514D01*
X16637Y3780D01*
X16465Y4080D01*
X16330Y4402D01*
X16234Y4732D01*
X16176Y5072D01*
X16157Y5421D01*
X16157Y5421D01*
X24672Y2806D02*
X24672Y3377D01*
X24424Y3089D01*
X24136Y2883D01*
X23807Y2759D01*
X23437Y2718D01*
X23268Y2726D01*
X23105Y2751D01*
X22947Y2792D01*
X22795Y2850D01*
X22655Y2920D01*
X22535Y2999D01*
X22434Y3086D01*
X22352Y3181D01*
X22285Y3287D01*
X22229Y3403D01*
X22183Y3531D01*
X22148Y3670D01*
X22131Y3781D01*
X22118Y3921D01*
X22111Y4089D01*
X22108Y4285D01*
X22108Y6695D01*
X22767Y6695D01*
X22767Y4538D01*
X22770Y4301D01*
X22777Y4106D01*
X22790Y3953D01*
X22808Y3842D01*
X22847Y3719D01*
X22905Y3610D01*
X22979Y3515D01*
X23071Y3434D01*
X23178Y3369D01*
X23297Y3323D01*
X23427Y3295D01*
X23569Y3286D01*
X23715Y3295D01*
X23857Y3324D01*
X23994Y3371D01*
X24126Y3438D01*
X24246Y3520D01*
X24348Y3617D01*
X24430Y3727D01*
X24494Y3851D01*
X24541Y3997D01*
X24575Y4172D01*
X24595Y4377D01*
X24602Y4611D01*
X24602Y6695D01*
X25261Y6695D01*
X25261Y2806D01*
X24672Y2806D01*
X24672Y2806D01*
X27733Y3395D02*
X27828Y2813D01*
X27693Y2788D01*
X27565Y2769D01*
X27444Y2758D01*
X27330Y2755D01*
X27161Y2762D01*
X27012Y2783D01*
X26883Y2818D01*
X26774Y2868D01*
X26682Y2929D01*
X26605Y3000D01*
X26543Y3079D01*
X26495Y3167D01*
X26460Y3285D01*
X26435Y3454D01*
X26420Y3674D01*
X26415Y3945D01*
X26415Y6182D01*
X25931Y6182D01*
X25931Y6695D01*
X26415Y6695D01*
X26415Y7658D01*
X27070Y8054D01*
X27070Y6695D01*
X27733Y6695D01*
X27733Y6182D01*
X27070Y6182D01*
X27070Y3908D01*
X27073Y3780D01*
X27079Y3677D01*
X27090Y3599D01*
X27105Y3546D01*
X27125Y3507D01*
X27151Y3473D01*
X27182Y3443D01*
X27219Y3417D01*
X27262Y3397D01*
X27314Y3382D01*
X27375Y3373D01*
X27444Y3370D01*
X27503Y3371D01*
X27571Y3376D01*
X27648Y3384D01*
X27733Y3395D01*
X27733Y3395D01*
X28378Y1315D02*
X28378Y6695D01*
X28978Y6695D01*
X28978Y6190D01*
X29301Y5875D01*
X29299Y5873D01*
X29157Y5654D01*
X29056Y5390D01*
X28995Y5082D01*
X28975Y4729D01*
X28975Y4729D01*
X28994Y4378D01*
X29051Y4076D01*
X29146Y3823D01*
X29279Y3619D01*
X29439Y3462D01*
X29615Y3350D01*
X29807Y3282D01*
X30015Y3260D01*
X30226Y3283D01*
X30423Y3353D01*
X30603Y3469D01*
X30767Y3632D01*
X30904Y3843D01*
X31002Y4105D01*
X31061Y4419D01*
X31080Y4783D01*
X31061Y5132D01*
X31004Y5433D01*
X30908Y5688D01*
X30775Y5897D01*
X30614Y6059D01*
X30439Y6174D01*
X30249Y6243D01*
X30044Y6267D01*
X29839Y6242D01*
X29647Y6168D01*
X29467Y6045D01*
X29301Y5875D01*
X28978Y6190D01*
X29088Y6329D01*
X29204Y6449D01*
X29328Y6551D01*
X29458Y6635D01*
X29599Y6700D01*
X29754Y6746D01*
X29923Y6774D01*
X30106Y6783D01*
X30348Y6767D01*
X30575Y6719D01*
X30787Y6639D01*
X30985Y6527D01*
X31164Y6385D01*
X31319Y6218D01*
X31451Y6024D01*
X31560Y5803D01*
X31645Y5564D01*
X31706Y5314D01*
X31742Y5052D01*
X31754Y4780D01*
X31741Y4489D01*
X31701Y4213D01*
X31634Y3951D01*
X31540Y3705D01*
X31421Y3480D01*
X31277Y3283D01*
X31109Y3114D01*
X30917Y2973D01*
X30711Y2861D01*
X30498Y2782D01*
X30281Y2734D01*
X30059Y2718D01*
X29898Y2727D01*
X29746Y2753D01*
X29602Y2796D01*
X29467Y2857D01*
X29342Y2931D01*
X29229Y3015D01*
X29127Y3107D01*
X29037Y3209D01*
X29037Y1315D01*
X28378Y1315D01*
X28378Y1315D01*
X35098Y2806D02*
X35098Y3377D01*
X34850Y3089D01*
X34562Y2883D01*
X34233Y2759D01*
X33864Y2718D01*
X33694Y2726D01*
X33531Y2751D01*
X33373Y2792D01*
X33221Y2850D01*
X33081Y2920D01*
X32961Y2999D01*
X32860Y3086D01*
X32778Y3181D01*
X32711Y3287D01*
X32655Y3403D01*
X32609Y3531D01*
X32575Y3670D01*
X32557Y3781D01*
X32544Y3921D01*
X32537Y4089D01*
X32534Y4285D01*
X32534Y6695D01*
X33193Y6695D01*
X33193Y4538D01*
X33196Y4301D01*
X33203Y4106D01*
X33216Y3953D01*
X33234Y3842D01*
X33274Y3719D01*
X33331Y3610D01*
X33405Y3515D01*
X33497Y3434D01*
X33604Y3369D01*
X33723Y3323D01*
X33853Y3295D01*
X33995Y3286D01*
X34141Y3295D01*
X34283Y3324D01*
X34420Y3371D01*
X34552Y3438D01*
X34673Y3520D01*
X34774Y3617D01*
X34857Y3727D01*
X34920Y3851D01*
X34967Y3997D01*
X35001Y4172D01*
X35021Y4377D01*
X35028Y4611D01*
X35028Y6695D01*
X35687Y6695D01*
X35687Y2806D01*
X35098Y2806D01*
X35098Y2806D01*
X38159Y3395D02*
X38255Y2813D01*
X38119Y2788D01*
X37991Y2769D01*
X37870Y2758D01*
X37756Y2755D01*
X37587Y2762D01*
X37438Y2783D01*
X37309Y2818D01*
X37200Y2868D01*
X37108Y2929D01*
X37031Y3000D01*
X36969Y3079D01*
X36921Y3167D01*
X36886Y3285D01*
X36861Y3454D01*
X36846Y3674D01*
X36841Y3945D01*
X36841Y6182D01*
X36358Y6182D01*
X36358Y6695D01*
X36841Y6695D01*
X36841Y7658D01*
X37496Y8054D01*
X37496Y6695D01*
X38159Y6695D01*
X38159Y6182D01*
X37496Y6182D01*
X37496Y3908D01*
X37499Y3780D01*
X37505Y3677D01*
X37516Y3599D01*
X37531Y3546D01*
X37551Y3507D01*
X37577Y3473D01*
X37608Y3443D01*
X37645Y3417D01*
X37688Y3397D01*
X37740Y3382D01*
X37801Y3373D01*
X37870Y3370D01*
X37929Y3371D01*
X37997Y3376D01*
X38074Y3384D01*
X38159Y3395D01*
X38159Y3395D01*
X27002Y117721D02*
X27002Y118506D01*
X26223Y118506D01*
X26223Y118834D01*
X27002Y118834D01*
X27002Y119613D01*
X27334Y119613D01*
X27334Y118834D01*
X28113Y118834D01*
X28113Y118506D01*
X27334Y118506D01*
X27334Y117721D01*
X27002Y117721D01*
X27002Y117721D01*
X28502Y118008D02*
X28871Y118039D01*
X28898Y117913D01*
X28939Y117803D01*
X28994Y117710D01*
X29062Y117634D01*
X29140Y117575D01*
X29226Y117532D01*
X29320Y117507D01*
X29422Y117498D01*
X29544Y117510D01*
X29656Y117546D01*
X29759Y117606D01*
X29852Y117690D01*
X29929Y117793D01*
X29983Y117912D01*
X30016Y118047D01*
X30027Y118197D01*
X30017Y118340D01*
X29985Y118466D01*
X29932Y118577D01*
X29858Y118672D01*
X29767Y118748D01*
X29663Y118802D01*
X29546Y118835D01*
X29416Y118846D01*
X29333Y118841D01*
X29254Y118827D01*
X29180Y118802D01*
X29109Y118769D01*
X29045Y118727D01*
X28987Y118680D01*
X28937Y118627D01*
X28895Y118569D01*
X28565Y118612D01*
X28842Y120082D01*
X30266Y120082D01*
X30266Y119746D01*
X29123Y119746D01*
X28969Y118977D01*
X29099Y119055D01*
X29233Y119112D01*
X29370Y119145D01*
X29510Y119156D01*
X29690Y119140D01*
X29856Y119091D01*
X30006Y119010D01*
X30143Y118897D01*
X30255Y118758D01*
X30336Y118600D01*
X30384Y118424D01*
X30400Y118229D01*
X30386Y118041D01*
X30344Y117866D01*
X30273Y117705D01*
X30174Y117557D01*
X30024Y117405D01*
X29848Y117296D01*
X29648Y117231D01*
X29422Y117209D01*
X29236Y117223D01*
X29067Y117264D01*
X28917Y117332D01*
X28784Y117428D01*
X28674Y117546D01*
X28590Y117682D01*
X28533Y117836D01*
X28502Y118008D01*
X28502Y118008D01*
X31688Y117258D02*
X30578Y120121D01*
X30988Y120121D01*
X31733Y118041D01*
X31776Y117918D01*
X31815Y117799D01*
X31851Y117684D01*
X31883Y117572D01*
X31917Y117690D01*
X31955Y117807D01*
X31995Y117924D01*
X32037Y118041D01*
X32811Y120121D01*
X33197Y120121D01*
X32076Y117258D01*
X31688Y117258D01*
X31688Y117258D01*
G37*
M02*