%FSLAX33Y33*%
%MOMM*%
%ADD10C,0.3302*%
%ADD11C,6.5*%
%ADD12C,3.2*%
%ADD13C,1.35*%
D10*
%LNhole_traces*%
G01*
X19000Y17500D03*
X2000Y68000D03*
X2000Y44000D03*
X12500Y17500D03*
X22000Y102000D03*
X17145Y17500D03*
X2000Y88000D03*
X2000Y52000D03*
X2000Y20000D03*
X20000Y84000D03*
X14000Y102000D03*
X26000Y102000D03*
X2000Y36000D03*
X38000Y112000D03*
X20000Y108000D03*
X27305Y17780D03*
X38000Y68000D03*
X38000Y108000D03*
X10000Y102000D03*
X34000Y102000D03*
X38000Y32000D03*
X30000Y102000D03*
X36000Y100000D03*
X38000Y104000D03*
X20000Y92000D03*
X20000Y76000D03*
X27305Y22860D03*
X17145Y20090D03*
X38000Y12000D03*
X2000Y104000D03*
X20000Y80000D03*
X2000Y56000D03*
X36000Y96000D03*
X38000Y40000D03*
X2000Y40000D03*
X18000Y102000D03*
X24000Y116000D03*
X25750Y28000D03*
X6000Y24000D03*
X16000Y116000D03*
X20000Y88000D03*
X2000Y48000D03*
X34000Y116000D03*
X2000Y96000D03*
X20000Y112000D03*
X36000Y84000D03*
X38000Y72000D03*
X2000Y72000D03*
X38000Y16000D03*
X2000Y84000D03*
X38000Y52000D03*
X36000Y76000D03*
X17145Y15240D03*
X2000Y100000D03*
X2000Y80000D03*
X2000Y32000D03*
X2000Y92000D03*
X30000Y24000D03*
X6000Y116000D03*
X28000Y116000D03*
X34000Y12000D03*
X2000Y28000D03*
X20800Y47900D03*
X9000Y12000D03*
X20000Y116000D03*
X38000Y20000D03*
X20000Y100000D03*
X27305Y12700D03*
X30000Y12000D03*
X2000Y112000D03*
X2000Y76000D03*
X2000Y16000D03*
X2000Y60000D03*
X38000Y64000D03*
X14605Y20090D03*
X20000Y104000D03*
X20000Y96000D03*
X38000Y116000D03*
X2000Y12000D03*
X38000Y48000D03*
X6000Y102000D03*
X23750Y30500D03*
X38000Y44000D03*
X36000Y80000D03*
X14605Y15240D03*
X38000Y28000D03*
X22100Y46700D03*
X2000Y24000D03*
X38000Y24000D03*
X2000Y116000D03*
X12000Y116000D03*
X38000Y36000D03*
X27000Y36500D03*
X38000Y56000D03*
X2000Y64000D03*
X38000Y60000D03*
X34000Y24000D03*
X14605Y17500D03*
X27750Y37250D03*
X2000Y108000D03*
%LNhole component eecf59461bf5fa29*%
D11*
X10000Y90000D03*
%LNhole component 94d666b17c943f9c*%
X30000Y110000D03*
%LNhole component 4f0a132b13f5211a*%
X30000Y90000D03*
%LNhole component 83fe1253e416a6f9*%
D12*
X7500Y3000D03*
%LNhole component 6f45595ed46c503a*%
D13*
X12466Y45388D03*
X14262Y43592D03*
X16058Y41796D03*
X17854Y40000D03*
X19650Y38204D03*
X21446Y36408D03*
X23242Y34612D03*
X25038Y32816D03*
X14262Y47184D03*
X16058Y45388D03*
X17854Y43592D03*
X19650Y41796D03*
X21446Y40000D03*
X23242Y38204D03*
X25038Y36408D03*
X26834Y34612D03*
%LNhole component 0a00c536e324cf6a*%
X12466Y67888D03*
X14262Y66092D03*
X16058Y64296D03*
X17854Y62500D03*
X19650Y60704D03*
X21446Y58908D03*
X23242Y57112D03*
X25038Y55316D03*
X14262Y69684D03*
X16058Y67888D03*
X17854Y66092D03*
X19650Y64296D03*
X21446Y62500D03*
X23242Y60704D03*
X25038Y58908D03*
X26834Y57112D03*
%LNhole component c1a0b31987059e51*%
D12*
X32900Y125500D03*
%LNhole component 1e60447ce060ffe6*%
D11*
X10000Y110000D03*
M02*