<?xml version="1.0" encoding="utf-8" ?>
<svg baseProfile="tiny" height="465.101563434" version="1.2" width="152.581886034" xmlns="http://www.w3.org/2000/svg" xmlns:ev="http://www.w3.org/2001/xml-events" xmlns:xlink="http://www.w3.org/1999/xlink"><defs /><g id="paths" stroke="green"><path d="M 4.893306967,460.208256467 L 147.688579067,460.208256467 L 147.688579067,4.893306967 L 4.893306967,4.893306967 L 4.893306967,460.208256467 Z" fill-opacity="0" stroke-linejoin="round" stroke-width="1.0" /></g><g fill="red" id="top_parts" stroke="red"><line stroke-linecap="round" stroke-width="0.5" x1="28.794" x2="50.0907" y1="294.0474" y2="272.7507" /><line stroke-linecap="round" stroke-width="0.5" x1="50.0907" x2="120.2446" y1="272.7507" y2="342.9046" /><line stroke-linecap="round" stroke-width="0.5" x1="120.2446" x2="98.9479" y1="342.9046" y2="364.2013" /><line stroke-linecap="round" stroke-width="0.5" x1="98.9479" x2="28.794" y1="364.2013" y2="294.0474" /><text font-family="monospace" font-size="2" stroke-width="0.1" text-anchor="middle" x="74.519289517" y="318.475976467">J2</text><line stroke-linecap="round" stroke-width="0.5" x1="28.794" x2="50.0907" y1="214.323" y2="193.0263" /><line stroke-linecap="round" stroke-width="0.5" x1="50.0907" x2="120.2446" y1="193.0263" y2="263.1802" /><line stroke-linecap="round" stroke-width="0.5" x1="120.2446" x2="98.9479" y1="263.1802" y2="284.4769" /><line stroke-linecap="round" stroke-width="0.5" x1="98.9479" x2="28.794" y1="284.4769" y2="214.323" /><text font-family="monospace" font-size="2" stroke-width="0.1" text-anchor="middle" x="74.519289517" y="238.751568967">J3</text></g><g fill="blue" id="bottom_parts" stroke="blue"><line stroke-linecap="round" stroke-width="0.5" x1="42.4891" x2="27.5338" y1="187.6394" y2="187.6394" /><line stroke-linecap="round" stroke-width="0.5" x1="27.5338" x2="27.5338" y1="187.6394" y2="194.1945" /><line stroke-linecap="round" stroke-width="0.5" x1="27.5338" x2="42.4891" y1="194.1945" y2="194.1945" /><line stroke-linecap="round" stroke-width="0.5" x1="42.4891" x2="42.4891" y1="194.1945" y2="187.6394" /><text font-family="monospace" font-size="2" stroke-width="0.1" text-anchor="middle" x="35.011416467" y="190.916924467">C4</text><line stroke-linecap="round" stroke-width="0.5" x1="113.3552" x2="98.3999" y1="171.6945" y2="171.6945" /><line stroke-linecap="round" stroke-width="0.5" x1="98.3999" x2="98.3999" y1="171.6945" y2="178.2496" /><line stroke-linecap="round" stroke-width="0.5" x1="98.3999" x2="113.3552" y1="178.2496" y2="178.2496" /><line stroke-linecap="round" stroke-width="0.5" x1="113.3552" x2="113.3552" y1="178.2496" y2="171.6945" /><text font-family="monospace" font-size="2" stroke-width="0.1" text-anchor="middle" x="105.877556467" y="174.972042967">C1</text><line stroke-linecap="round" stroke-width="0.5" x1="141.7016" x2="126.7464" y1="180.5528" y2="180.5528" /><line stroke-linecap="round" stroke-width="0.5" x1="126.7464" x2="126.7464" y1="180.5528" y2="187.1079" /><line stroke-linecap="round" stroke-width="0.5" x1="126.7464" x2="141.7016" y1="187.1079" y2="187.1079" /><line stroke-linecap="round" stroke-width="0.5" x1="141.7016" x2="141.7016" y1="187.1079" y2="180.5528" /><text font-family="monospace" font-size="2" stroke-width="0.1" text-anchor="middle" x="134.224012467" y="183.830310467">C6</text><line stroke-linecap="round" stroke-width="0.5" x1="42.4891" x2="27.5338" y1="171.6945" y2="171.6945" /><line stroke-linecap="round" stroke-width="0.5" x1="27.5338" x2="27.5338" y1="171.6945" y2="178.2496" /><line stroke-linecap="round" stroke-width="0.5" x1="27.5338" x2="42.4891" y1="178.2496" y2="178.2496" /><line stroke-linecap="round" stroke-width="0.5" x1="42.4891" x2="42.4891" y1="178.2496" y2="171.6945" /><text font-family="monospace" font-size="2" stroke-width="0.1" text-anchor="middle" x="35.011416467" y="174.972042967">C3</text><line stroke-linecap="round" stroke-width="0.5" x1="24.4878" x2="24.4878" y1="377.6492" y2="418.7516" /><line stroke-linecap="round" stroke-width="0.5" x1="24.4878" x2="124.5508" y1="418.7516" y2="418.7516" /><line stroke-linecap="round" stroke-width="0.5" x1="124.5508" x2="124.5508" y1="418.7516" y2="377.6492" /><line stroke-linecap="round" stroke-width="0.5" x1="124.5508" x2="24.4878" y1="377.6492" y2="377.6492" /><text font-family="monospace" font-size="2" stroke-width="0.1" text-anchor="middle" x="74.519289517" y="398.200383967">J1</text><line stroke-linecap="round" stroke-width="0.5" x1="141.7016" x2="126.7464" y1="164.6079" y2="164.6079" /><line stroke-linecap="round" stroke-width="0.5" x1="126.7464" x2="126.7464" y1="164.6079" y2="171.163" /><line stroke-linecap="round" stroke-width="0.5" x1="126.7464" x2="141.7016" y1="171.163" y2="171.163" /><line stroke-linecap="round" stroke-width="0.5" x1="141.7016" x2="141.7016" y1="171.163" y2="164.6079" /><text font-family="monospace" font-size="2" stroke-width="0.1" text-anchor="middle" x="134.224012467" y="167.885428967">C5</text><line stroke-linecap="round" stroke-width="0.5" x1="113.3552" x2="98.3999" y1="187.6394" y2="187.6394" /><line stroke-linecap="round" stroke-width="0.5" x1="98.3999" x2="98.3999" y1="187.6394" y2="194.1945" /><line stroke-linecap="round" stroke-width="0.5" x1="98.3999" x2="113.3552" y1="194.1945" y2="194.1945" /><line stroke-linecap="round" stroke-width="0.5" x1="113.3552" x2="113.3552" y1="194.1945" y2="187.6394" /><text font-family="monospace" font-size="2" stroke-width="0.1" text-anchor="middle" x="105.877556467" y="190.916924467">C2</text></g></svg>