<?xml version="1.0" encoding="utf-8" ?>
<svg baseProfile="tiny" height="465.101563434" version="1.2" width="80.652753934" xmlns="http://www.w3.org/2000/svg" xmlns:ev="http://www.w3.org/2001/xml-events" xmlns:xlink="http://www.w3.org/1999/xlink"><defs /><g id="paths" stroke="green"><path d="M 4.893306967,460.208256467 L 75.759446967,460.208256467 L 75.759446967,4.893306967 L 4.893306967,4.893306967 L 4.893306967,460.208256467 Z" fill-opacity="0" stroke-linejoin="round" stroke-width="1.0" /></g><g fill="red" id="top_parts" stroke="red"><line stroke-linecap="round" stroke-width="0.5" x1="25.2673" x2="55.3854" y1="182.9445" y2="182.9445" /><line stroke-linecap="round" stroke-width="0.5" x1="55.3854" x2="55.3854" y1="182.9445" y2="282.1571" /><line stroke-linecap="round" stroke-width="0.5" x1="55.3854" x2="25.2673" y1="282.1571" y2="282.1571" /><line stroke-linecap="round" stroke-width="0.5" x1="25.2673" x2="25.2673" y1="282.1571" y2="182.9445" /><text font-family="monospace" font-size="2" stroke-width="0.1" text-anchor="middle" x="40.326376967" y="232.550781717">J2</text><line stroke-linecap="round" stroke-width="0.5" x1="25.2673" x2="55.3854" y1="53.9091" y2="53.9091" /><line stroke-linecap="round" stroke-width="0.5" x1="55.3854" x2="55.3854" y1="53.9091" y2="153.1217" /><line stroke-linecap="round" stroke-width="0.5" x1="55.3854" x2="25.2673" y1="153.1217" y2="153.1217" /><line stroke-linecap="round" stroke-width="0.5" x1="25.2673" x2="25.2673" y1="153.1217" y2="53.9091" /><text font-family="monospace" font-size="2" stroke-width="0.1" text-anchor="middle" x="40.326376967" y="103.515354163">J1</text></g><g fill="blue" id="bottom_parts" stroke="blue"><line stroke-linecap="round" stroke-width="0.5" x1="60.8776" x2="19.7752" y1="311.5547" y2="311.5547" /><line stroke-linecap="round" stroke-width="0.5" x1="19.7752" x2="19.7752" y1="311.5547" y2="411.6177" /><line stroke-linecap="round" stroke-width="0.5" x1="19.7752" x2="60.8776" y1="411.6177" y2="411.6177" /><line stroke-linecap="round" stroke-width="0.5" x1="60.8776" x2="60.8776" y1="411.6177" y2="311.5547" /><text font-family="monospace" font-size="2" stroke-width="0.1" text-anchor="middle" x="40.326376967" y="361.586212815">J3</text></g></svg>