<?xml version="1.0" encoding="utf-8" ?>
<svg baseProfile="tiny" height="465.101563434" version="1.2" width="80.652753934" xmlns="http://www.w3.org/2000/svg" xmlns:ev="http://www.w3.org/2001/xml-events" xmlns:xlink="http://www.w3.org/1999/xlink"><defs /><g id="paths" stroke="blue"><path d="M 4.893306967,460.208256467 L 75.759446967,460.208256467 L 75.759446967,4.893306967 L 4.893306967,4.893306967 L 4.893306967,460.208256467 Z" fill-opacity="0" stroke-linejoin="round" stroke-width="1.0" /></g><g fill="red" id="holes"><circle cx="35.8264" cy="201.0508" r="2.3917" stroke-width="0.0" /><circle cx="35.8264" cy="210.0508" r="2.3917" stroke-width="0.0" /><circle cx="35.8264" cy="219.0508" r="2.3917" stroke-width="0.0" /><circle cx="35.8264" cy="228.0508" r="2.3917" stroke-width="0.0" /><circle cx="35.8264" cy="237.0508" r="2.3917" stroke-width="0.0" /><circle cx="35.8264" cy="246.0508" r="2.3917" stroke-width="0.0" /><circle cx="35.8264" cy="255.0508" r="2.3917" stroke-width="0.0" /><circle cx="35.8264" cy="264.0508" r="2.3917" stroke-width="0.0" /><circle cx="44.8264" cy="201.0508" r="2.3917" stroke-width="0.0" /><circle cx="44.8264" cy="210.0508" r="2.3917" stroke-width="0.0" /><circle cx="44.8264" cy="219.0508" r="2.3917" stroke-width="0.0" /><circle cx="44.8264" cy="228.0508" r="2.3917" stroke-width="0.0" /><circle cx="44.8264" cy="237.0508" r="2.3917" stroke-width="0.0" /><circle cx="44.8264" cy="246.0508" r="2.3917" stroke-width="0.0" /><circle cx="44.8264" cy="255.0508" r="2.3917" stroke-width="0.0" /><circle cx="44.8264" cy="264.0508" r="2.3917" stroke-width="0.0" /><circle cx="31.4681" cy="449.5783" r="5.6693" stroke-width="0.0" /><circle cx="31.4681" cy="15.5232" r="5.6693" stroke-width="0.0" /><circle cx="35.8264" cy="72.0154" r="2.3917" stroke-width="0.0" /><circle cx="35.8264" cy="81.0154" r="2.3917" stroke-width="0.0" /><circle cx="35.8264" cy="90.0154" r="2.3917" stroke-width="0.0" /><circle cx="35.8264" cy="99.0154" r="2.3917" stroke-width="0.0" /><circle cx="35.8264" cy="108.0154" r="2.3917" stroke-width="0.0" /><circle cx="35.8264" cy="117.0154" r="2.3917" stroke-width="0.0" /><circle cx="35.8264" cy="126.0154" r="2.3917" stroke-width="0.0" /><circle cx="35.8264" cy="135.0154" r="2.3917" stroke-width="0.0" /><circle cx="44.8264" cy="72.0154" r="2.3917" stroke-width="0.0" /><circle cx="44.8264" cy="81.0154" r="2.3917" stroke-width="0.0" /><circle cx="44.8264" cy="90.0154" r="2.3917" stroke-width="0.0" /><circle cx="44.8264" cy="99.0154" r="2.3917" stroke-width="0.0" /><circle cx="44.8264" cy="108.0154" r="2.3917" stroke-width="0.0" /><circle cx="44.8264" cy="117.0154" r="2.3917" stroke-width="0.0" /><circle cx="44.8264" cy="126.0154" r="2.3917" stroke-width="0.0" /><circle cx="44.8264" cy="135.0154" r="2.3917" stroke-width="0.0" /></g><g id="rulers" stroke="black" /></svg>