<?xml version="1.0" encoding="utf-8" ?>
<svg baseProfile="tiny" height="465.101563434" version="1.2" width="152.581886034" xmlns="http://www.w3.org/2000/svg" xmlns:ev="http://www.w3.org/2001/xml-events" xmlns:xlink="http://www.w3.org/1999/xlink"><defs /><g id="paths" stroke="blue"><path d="M 4.893306967,460.208256467 L 147.688579067,460.208256467 L 147.688579067,4.893306967 L 4.893306967,4.893306967 L 4.893306967,460.208256467 Z" fill-opacity="0" stroke-linejoin="round" stroke-width="1.0" /></g><g fill="red" id="holes"><circle cx="72.2161" cy="398.2004" r="0.585" stroke-width="0.0" /><circle cx="11.9799" cy="219.2634" r="0.585" stroke-width="0.0" /><circle cx="40.3264" cy="98.7909" r="0.585" stroke-width="0.0" /><circle cx="11.9799" cy="304.3027" r="0.585" stroke-width="0.0" /><circle cx="11.9799" cy="403.5153" r="0.585" stroke-width="0.0" /><circle cx="82.8461" cy="98.7909" r="0.585" stroke-width="0.0" /><circle cx="65.6433" cy="398.2004" r="0.585" stroke-width="0.0" /><circle cx="11.9799" cy="148.3972" r="0.585" stroke-width="0.0" /><circle cx="11.9799" cy="275.9563" r="0.585" stroke-width="0.0" /><circle cx="139.539" cy="233.4366" r="0.585" stroke-width="0.0" /><circle cx="11.9799" cy="389.3421" r="0.585" stroke-width="0.0" /><circle cx="75.7594" cy="162.5705" r="0.585" stroke-width="0.0" /><circle cx="54.4996" cy="98.7909" r="0.585" stroke-width="0.0" /><circle cx="11.9799" cy="190.9169" r="0.585" stroke-width="0.0" /><circle cx="97.0193" cy="98.7909" r="0.585" stroke-width="0.0" /><circle cx="11.9799" cy="332.6492" r="0.585" stroke-width="0.0" /><circle cx="139.539" cy="63.3579" r="0.585" stroke-width="0.0" /><circle cx="75.7594" cy="77.5311" r="0.585" stroke-width="0.0" /><circle cx="101.6433" cy="397.2083" r="0.585" stroke-width="0.0" /><circle cx="139.539" cy="219.2634" r="0.585" stroke-width="0.0" /><circle cx="139.539" cy="77.5311" r="0.585" stroke-width="0.0" /><circle cx="125.3657" cy="98.7909" r="0.585" stroke-width="0.0" /><circle cx="139.539" cy="346.8224" r="0.585" stroke-width="0.0" /><circle cx="111.1925" cy="98.7909" r="0.585" stroke-width="0.0" /><circle cx="132.4524" cy="105.8776" r="0.585" stroke-width="0.0" /><circle cx="139.539" cy="91.7043" r="0.585" stroke-width="0.0" /><circle cx="75.7594" cy="134.224" r="0.585" stroke-width="0.0" /><circle cx="75.7594" cy="190.9169" r="0.585" stroke-width="0.0" /><circle cx="101.6433" cy="379.2083" r="0.585" stroke-width="0.0" /><circle cx="65.6433" cy="389.0232" r="0.585" stroke-width="0.0" /><circle cx="139.539" cy="417.6886" r="0.585" stroke-width="0.0" /><circle cx="11.9799" cy="91.7043" r="0.585" stroke-width="0.0" /><circle cx="75.7594" cy="176.7437" r="0.585" stroke-width="0.0" /><circle cx="11.9799" cy="261.7831" r="0.585" stroke-width="0.0" /><circle cx="139.539" cy="318.476" r="0.585" stroke-width="0.0" /><circle cx="11.9799" cy="318.476" r="0.585" stroke-width="0.0" /><circle cx="68.6728" cy="98.7909" r="0.585" stroke-width="0.0" /><circle cx="89.9327" cy="49.1846" r="0.585" stroke-width="0.0" /><circle cx="96.1335" cy="360.9957" r="0.585" stroke-width="0.0" /><circle cx="26.1531" cy="375.1689" r="0.585" stroke-width="0.0" /><circle cx="61.5862" cy="49.1846" r="0.585" stroke-width="0.0" /><circle cx="49.1846" cy="398.2004" r="0.585" stroke-width="0.0" /><circle cx="75.7594" cy="148.3972" r="0.585" stroke-width="0.0" /><circle cx="11.9799" cy="290.1295" r="0.585" stroke-width="0.0" /><circle cx="125.3657" cy="49.1846" r="0.585" stroke-width="0.0" /><circle cx="11.9799" cy="120.0508" r="0.585" stroke-width="0.0" /><circle cx="75.7594" cy="63.3579" r="0.585" stroke-width="0.0" /><circle cx="132.4524" cy="162.5705" r="0.585" stroke-width="0.0" /><circle cx="139.539" cy="205.0902" r="0.585" stroke-width="0.0" /><circle cx="75.7594" cy="120.0508" r="0.585" stroke-width="0.0" /><circle cx="11.9799" cy="205.0902" r="0.585" stroke-width="0.0" /><circle cx="139.539" cy="403.5153" r="0.585" stroke-width="0.0" /><circle cx="11.9799" cy="162.5705" r="0.585" stroke-width="0.0" /><circle cx="139.539" cy="275.9563" r="0.585" stroke-width="0.0" /><circle cx="132.4524" cy="190.9169" r="0.585" stroke-width="0.0" /><circle cx="65.6433" cy="406.2083" r="0.585" stroke-width="0.0" /><circle cx="11.9799" cy="105.8776" r="0.585" stroke-width="0.0" /><circle cx="11.9799" cy="176.7437" r="0.585" stroke-width="0.0" /><circle cx="132.4524" cy="120.0508" r="0.585" stroke-width="0.0" /><circle cx="11.9799" cy="134.224" r="0.585" stroke-width="0.0" /><circle cx="111.1925" cy="375.1689" r="0.585" stroke-width="0.0" /><circle cx="26.1531" cy="49.1846" r="0.585" stroke-width="0.0" /><circle cx="125.3657" cy="417.6886" r="0.585" stroke-width="0.0" /><circle cx="11.9799" cy="360.9957" r="0.585" stroke-width="0.0" /><circle cx="78.5941" cy="290.4839" r="0.585" stroke-width="0.0" /><circle cx="36.7831" cy="417.6886" r="0.585" stroke-width="0.0" /><circle cx="75.7594" cy="49.1846" r="0.585" stroke-width="0.0" /><circle cx="139.539" cy="389.3421" r="0.585" stroke-width="0.0" /><circle cx="75.7594" cy="105.8776" r="0.585" stroke-width="0.0" /><circle cx="101.6433" cy="415.2083" r="0.585" stroke-width="0.0" /><circle cx="111.1925" cy="417.6886" r="0.585" stroke-width="0.0" /><circle cx="11.9799" cy="63.3579" r="0.585" stroke-width="0.0" /><circle cx="11.9799" cy="247.6098" r="0.585" stroke-width="0.0" /><circle cx="11.9799" cy="346.8224" r="0.585" stroke-width="0.0" /><circle cx="56.6433" cy="389.0232" r="0.585" stroke-width="0.0" /><circle cx="75.7594" cy="91.7043" r="0.585" stroke-width="0.0" /><circle cx="139.539" cy="49.1846" r="0.585" stroke-width="0.0" /><circle cx="11.9799" cy="417.6886" r="0.585" stroke-width="0.0" /><circle cx="139.539" cy="290.1295" r="0.585" stroke-width="0.0" /><circle cx="26.1531" cy="98.7909" r="0.585" stroke-width="0.0" /><circle cx="89.0468" cy="352.1374" r="0.585" stroke-width="0.0" /><circle cx="139.539" cy="304.3027" r="0.585" stroke-width="0.0" /><circle cx="132.4524" cy="176.7437" r="0.585" stroke-width="0.0" /><circle cx="56.6433" cy="406.2083" r="0.585" stroke-width="0.0" /><circle cx="139.539" cy="360.9957" r="0.585" stroke-width="0.0" /><circle cx="83.2004" cy="294.7358" r="0.585" stroke-width="0.0" /><circle cx="11.9799" cy="375.1689" r="0.585" stroke-width="0.0" /><circle cx="139.539" cy="375.1689" r="0.585" stroke-width="0.0" /><circle cx="11.9799" cy="49.1846" r="0.585" stroke-width="0.0" /><circle cx="139.539" cy="332.6492" r="0.585" stroke-width="0.0" /><circle cx="100.5626" cy="330.8776" r="0.585" stroke-width="0.0" /><circle cx="139.539" cy="261.7831" r="0.585" stroke-width="0.0" /><circle cx="11.9799" cy="233.4366" r="0.585" stroke-width="0.0" /><circle cx="139.539" cy="247.6098" r="0.585" stroke-width="0.0" /><circle cx="125.3657" cy="375.1689" r="0.585" stroke-width="0.0" /><circle cx="56.6433" cy="398.2004" r="0.585" stroke-width="0.0" /><circle cx="103.2201" cy="328.2201" r="0.585" stroke-width="0.0" /><circle cx="11.9799" cy="77.5311" r="0.585" stroke-width="0.0" /><circle cx="111.1925" cy="70.4445" r="10.6299" stroke-width="0.0" /><circle cx="31.4681" cy="449.5783" r="5.6693" stroke-width="0.0" /><circle cx="111.1925" cy="141.3106" r="10.6299" stroke-width="0.0" /><circle cx="49.0634" cy="219.6597" r="2.3917" stroke-width="0.0" /><circle cx="55.4274" cy="226.0236" r="2.3917" stroke-width="0.0" /><circle cx="61.7914" cy="232.3876" r="2.3917" stroke-width="0.0" /><circle cx="68.1553" cy="238.7516" r="2.3917" stroke-width="0.0" /><circle cx="74.5193" cy="245.1155" r="2.3917" stroke-width="0.0" /><circle cx="80.8833" cy="251.4795" r="2.3917" stroke-width="0.0" /><circle cx="87.2472" cy="257.8435" r="2.3917" stroke-width="0.0" /><circle cx="93.6112" cy="264.2074" r="2.3917" stroke-width="0.0" /><circle cx="55.4274" cy="213.2957" r="2.3917" stroke-width="0.0" /><circle cx="61.7914" cy="219.6597" r="2.3917" stroke-width="0.0" /><circle cx="68.1553" cy="226.0236" r="2.3917" stroke-width="0.0" /><circle cx="74.5193" cy="232.3876" r="2.3917" stroke-width="0.0" /><circle cx="80.8833" cy="238.7516" r="2.3917" stroke-width="0.0" /><circle cx="87.2472" cy="245.1155" r="2.3917" stroke-width="0.0" /><circle cx="93.6112" cy="251.4795" r="2.3917" stroke-width="0.0" /><circle cx="99.9751" cy="257.8435" r="2.3917" stroke-width="0.0" /><circle cx="121.4681" cy="15.5232" r="5.6693" stroke-width="0.0" /><circle cx="40.3264" cy="141.3106" r="10.6299" stroke-width="0.0" /><circle cx="40.3264" cy="70.4445" r="10.6299" stroke-width="0.0" /><circle cx="49.0634" cy="299.3841" r="2.3917" stroke-width="0.0" /><circle cx="55.4274" cy="305.7481" r="2.3917" stroke-width="0.0" /><circle cx="61.7914" cy="312.112" r="2.3917" stroke-width="0.0" /><circle cx="68.1553" cy="318.476" r="2.3917" stroke-width="0.0" /><circle cx="74.5193" cy="324.8399" r="2.3917" stroke-width="0.0" /><circle cx="80.8833" cy="331.2039" r="2.3917" stroke-width="0.0" /><circle cx="87.2472" cy="337.5679" r="2.3917" stroke-width="0.0" /><circle cx="93.6112" cy="343.9318" r="2.3917" stroke-width="0.0" /><circle cx="55.4274" cy="293.0201" r="2.3917" stroke-width="0.0" /><circle cx="61.7914" cy="299.3841" r="2.3917" stroke-width="0.0" /><circle cx="68.1553" cy="305.7481" r="2.3917" stroke-width="0.0" /><circle cx="74.5193" cy="312.112" r="2.3917" stroke-width="0.0" /><circle cx="80.8833" cy="318.476" r="2.3917" stroke-width="0.0" /><circle cx="87.2472" cy="324.8399" r="2.3917" stroke-width="0.0" /><circle cx="93.6112" cy="331.2039" r="2.3917" stroke-width="0.0" /><circle cx="99.9751" cy="337.5679" r="2.3917" stroke-width="0.0" /></g><g id="rulers" stroke="black" /></svg>