<?xml version='1.0' encoding='UTF-8' standalone='no'?>
<svg xmlns="http://www.w3.org/2000/svg" width="1269" height="585" x="0" y="0"><text x="936" y="110" font-size="10" font-family="sans-serif" text-anchor="start" alignment-baseline="middle">Gate</text><text x="67" y="521" font-size="10" font-family="sans-serif" text-anchor="end" alignment-baseline="hanging">C3</text><text x="937" y="225" font-size="10" font-family="sans-serif" text-anchor="start" alignment-baseline="hanging">+12V</text><text x="831" y="60" font-size="10" font-family="sans serif" text-anchor="start" alignment-baseline="hanging">J3</text><text x="481" y="450" font-size="10" font-family="sans-serif" text-anchor="start" alignment-baseline="hanging">J4</text><text x="433" y="106" font-size="10" font-family="sans-serif" text-anchor="end" alignment-baseline="hanging">-12V</text><text x="291" y="195" font-size="10" font-family="sans-serif" text-anchor="end" alignment-baseline="hanging">+5V</text><text x="375" y="470" font-size="10" font-family="sans-serif" text-anchor="start" alignment-baseline="hanging">5v</text><text x="11" y="530" font-size="10" font-family="sans-serif" text-anchor="start" alignment-baseline="hanging">GND</text><text x="81" y="330" font-size="10" font-family="sans-serif" text-anchor="start" alignment-baseline="hanging">GND</text><text x="55" y="439" font-size="10" font-family="sans-serif" text-anchor="start" alignment-baseline="hanging">C1</text><text x="839" y="412" font-size="10" font-family="sans-serif" text-anchor="end" alignment-baseline="hanging">+5V</text><text x="700" y="404" font-size="10" font-family="sans-serif" text-anchor="start" alignment-baseline="hanging">+12V</text><text x="276" y="110" font-size="10" font-family="sans-serif" text-anchor="start" alignment-baseline="middle">Gate</text><text x="1141" y="430" font-size="10" font-family="sans-serif" text-anchor="start" alignment-baseline="hanging">M2</text><text x="106" y="270" font-size="10" font-family="sans serif" text-anchor="start" alignment-baseline="hanging">Eurorack power connector - 16 pin</text><text x="350" y="405" font-size="10" font-family="sans-serif" text-anchor="start" alignment-baseline="hanging">+5V</text><text x="177" y="521" font-size="10" font-family="sans-serif" text-anchor="end" alignment-baseline="hanging">C4</text><text x="871" y="450" font-size="10" font-family="sans-serif" text-anchor="start" alignment-baseline="hanging">J7</text><text x="471" y="490" font-size="10" font-family="sans-serif" text-anchor="start" alignment-baseline="hanging">PRT-09740</text><text x="140" y="384" font-size="10" font-family="sans-serif" text-anchor="start" alignment-baseline="hanging">+12V</text><text x="375" y="459" font-size="10" font-family="sans-serif" text-anchor="start" alignment-baseline="hanging">C6</text><text x="464" y="532" font-size="10" font-family="sans-serif" text-anchor="end" alignment-baseline="hanging">-12V</text><text x="177" y="510" font-size="10" font-family="sans-serif" text-anchor="end" alignment-baseline="hanging">5v</text><text x="939" y="185" font-size="10" font-family="sans-serif" text-anchor="start" alignment-baseline="hanging">+5V</text><text x="187" y="500" font-size="10" font-family="sans-serif" text-anchor="end" alignment-baseline="hanging">10uF</text><text x="70" y="384" font-size="10" font-family="sans-serif" text-anchor="start" alignment-baseline="hanging">+12V</text><text x="741" y="450" font-size="10" font-family="sans-serif" text-anchor="start" alignment-baseline="hanging">J6</text><text x="626" y="110" font-size="10" font-family="sans-serif" text-anchor="start" alignment-baseline="middle">Gate</text><text x="626" y="150" font-size="10" font-family="sans-serif" text-anchor="start" alignment-baseline="middle">CV</text><text x="290" y="404" font-size="10" font-family="sans-serif" text-anchor="start" alignment-baseline="hanging">+5V</text><text x="315" y="480" font-size="10" font-family="sans-serif" text-anchor="start" alignment-baseline="hanging">0.1uF</text><text x="165" y="439" font-size="10" font-family="sans-serif" text-anchor="start" alignment-baseline="hanging">C2</text><text x="731" y="490" font-size="10" font-family="sans-serif" text-anchor="start" alignment-baseline="hanging">PRT-09739</text><text x="211" y="530" font-size="10" font-family="sans-serif" text-anchor="start" alignment-baseline="hanging">GND</text><text x="351" y="530" font-size="10" font-family="sans-serif" text-anchor="start" alignment-baseline="hanging">GND</text><text x="163" y="565" font-size="10" font-family="sans-serif" text-anchor="end" alignment-baseline="hanging">-12V</text><text x="741" y="330" font-size="10" font-family="sans-serif" text-anchor="start" alignment-baseline="hanging">GND</text><text x="170" y="60" font-size="10" font-family="sans serif" text-anchor="start" alignment-baseline="hanging">J1</text><text x="277" y="225" font-size="10" font-family="sans-serif" text-anchor="start" alignment-baseline="hanging">+12V</text><text x="521" y="59" font-size="10" font-family="sans serif" text-anchor="start" alignment-baseline="hanging">J2</text><text x="561" y="530" font-size="10" font-family="sans-serif" text-anchor="start" alignment-baseline="hanging">GND</text><text x="167" y="10" font-size="10" font-family="sans-serif" text-anchor="start" alignment-baseline="hanging">Input</text><text x="67" y="510" font-size="10" font-family="sans-serif" text-anchor="end" alignment-baseline="hanging">5v</text><text x="315" y="470" font-size="10" font-family="sans-serif" text-anchor="start" alignment-baseline="hanging">5v</text><text x="69" y="500" font-size="10" font-family="sans-serif" text-anchor="end" alignment-baseline="hanging">0.1uF</text><text x="861" y="490" font-size="10" font-family="sans-serif" text-anchor="start" alignment-baseline="hanging">PRT-09739</text><text x="431" y="330" font-size="10" font-family="sans-serif" text-anchor="start" alignment-baseline="hanging">GND</text><text x="45" y="460" font-size="10" font-family="sans-serif" text-anchor="start" alignment-baseline="hanging">0.1uF</text><text x="456" y="270" font-size="10" font-family="sans serif" text-anchor="start" alignment-baseline="hanging">Eurorack power connector - 16 pin</text><text x="611" y="450" font-size="10" font-family="sans-serif" text-anchor="start" alignment-baseline="hanging">J5</text><text x="766" y="270" font-size="10" font-family="sans serif" text-anchor="start" alignment-baseline="hanging">Eurorack power connector - 16 pin</text><text x="63" y="115" font-size="10" font-family="sans-serif" text-anchor="start" alignment-baseline="hanging">-12V</text><text x="93" y="565" font-size="10" font-family="sans-serif" text-anchor="end" alignment-baseline="hanging">-12V</text><text x="1111" y="280" font-size="10" font-family="sans-serif" text-anchor="start" alignment-baseline="hanging">Mounting hole M3 - Non-plated</text><text x="276" y="150" font-size="10" font-family="sans-serif" text-anchor="start" alignment-baseline="middle">CV</text><text x="315" y="459" font-size="10" font-family="sans-serif" text-anchor="start" alignment-baseline="hanging">C5</text><text x="936" y="150" font-size="10" font-family="sans-serif" text-anchor="start" alignment-baseline="middle">CV</text><text x="651" y="20" font-size="10" font-family="sans-serif" text-anchor="start" alignment-baseline="hanging">Outputs</text><text x="375" y="480" font-size="10" font-family="sans-serif" text-anchor="start" alignment-baseline="hanging">10uF</text><text x="629" y="185" font-size="10" font-family="sans-serif" text-anchor="start" alignment-baseline="hanging">+5V</text><text x="601" y="490" font-size="10" font-family="sans-serif" text-anchor="start" alignment-baseline="hanging">PRT-09740</text><text x="1111" y="370" font-size="10" font-family="sans-serif" text-anchor="start" alignment-baseline="hanging">Mounting hole M3 - Non-plated</text><text x="163" y="460" font-size="10" font-family="sans-serif" text-anchor="start" alignment-baseline="hanging">10uF</text><text x="1141" y="340" font-size="10" font-family="sans-serif" text-anchor="start" alignment-baseline="hanging">M1</text><text x="55" y="450" font-size="10" font-family="sans-serif" text-anchor="start" alignment-baseline="hanging">5v</text><text x="165" y="450" font-size="10" font-family="sans-serif" text-anchor="start" alignment-baseline="hanging">5v</text><text x="627" y="225" font-size="10" font-family="sans-serif" text-anchor="start" alignment-baseline="hanging">+12V</text><text x="743" y="106" font-size="10" font-family="sans-serif" text-anchor="end" alignment-baseline="hanging">-12V</text><text x="291" y="530" font-size="10" font-family="sans-serif" text-anchor="start" alignment-baseline="hanging">GND</text><line x1="311" y1="467" x2="291" y2="467" stroke-width="2" stroke="black"></line><line x1="311" y1="473" x2="291" y2="473" stroke-width="2" stroke="black"></line><line x1="301" y1="460" x2="301" y2="467" stroke-width="2" stroke="black"></line><line x1="301" y1="474" x2="301" y2="480" stroke-width="2" stroke="black"></line><rect width="70" height="170" x="806" y="85" style="stroke: #000; stroke-width: 1; fill: none;"></rect><line x1="876" y1="100" x2="881" y2="100" stroke-width="2" stroke="black"></line><line x1="876" y1="120" x2="881" y2="120" stroke-width="2" stroke="black"></line><line x1="876" y1="140" x2="881" y2="140" stroke-width="2" stroke="black"></line><line x1="876" y1="160" x2="881" y2="160" stroke-width="2" stroke="black"></line><line x1="876" y1="180" x2="881" y2="180" stroke-width="2" stroke="black"></line><line x1="876" y1="200" x2="881" y2="200" stroke-width="2" stroke="black"></line><line x1="876" y1="220" x2="881" y2="220" stroke-width="2" stroke="black"></line><line x1="876" y1="240" x2="881" y2="240" stroke-width="2" stroke="black"></line><line x1="801" y1="100" x2="806" y2="100" stroke-width="2" stroke="black"></line><line x1="801" y1="120" x2="806" y2="120" stroke-width="2" stroke="black"></line><line x1="801" y1="140" x2="806" y2="140" stroke-width="2" stroke="black"></line><line x1="801" y1="160" x2="806" y2="160" stroke-width="2" stroke="black"></line><line x1="801" y1="180" x2="806" y2="180" stroke-width="2" stroke="black"></line><line x1="801" y1="200" x2="806" y2="200" stroke-width="2" stroke="black"></line><line x1="801" y1="220" x2="806" y2="220" stroke-width="2" stroke="black"></line><line x1="801" y1="240" x2="806" y2="240" stroke-width="2" stroke="black"></line><text x="813" y="100" font-size="10" font-family="sans-serif" text-anchor="start" alignment-baseline="middle">-12v</text><text x="813" y="120" font-size="10" font-family="sans-serif" text-anchor="start" alignment-baseline="middle">-12v</text><text x="813" y="140" font-size="10" font-family="sans-serif" text-anchor="start" alignment-baseline="middle">GND</text><text x="813" y="160" font-size="10" font-family="sans-serif" text-anchor="start" alignment-baseline="middle">GND</text><text x="813" y="180" font-size="10" font-family="sans-serif" text-anchor="start" alignment-baseline="middle">GND</text><text x="813" y="200" font-size="10" font-family="sans-serif" text-anchor="start" alignment-baseline="middle">GND</text><text x="813" y="220" font-size="10" font-family="sans-serif" text-anchor="start" alignment-baseline="middle">GND</text><text x="813" y="240" font-size="10" font-family="sans-serif" text-anchor="start" alignment-baseline="middle">GND</text><text x="869" y="240" font-size="10" font-family="sans-serif" text-anchor="end" alignment-baseline="middle">+12v</text><text x="869" y="220" font-size="10" font-family="sans-serif" text-anchor="end" alignment-baseline="middle">+12v</text><text x="869" y="200" font-size="10" font-family="sans-serif" text-anchor="end" alignment-baseline="middle">+5v</text><text x="869" y="180" font-size="10" font-family="sans-serif" text-anchor="end" alignment-baseline="middle">+5v</text><text x="869" y="160" font-size="10" font-family="sans-serif" text-anchor="end" alignment-baseline="middle">CV</text><text x="869" y="140" font-size="10" font-family="sans-serif" text-anchor="end" alignment-baseline="middle">CV</text><text x="869" y="120" font-size="10" font-family="sans-serif" text-anchor="end" alignment-baseline="middle">Gate</text><text x="869" y="100" font-size="10" font-family="sans-serif" text-anchor="end" alignment-baseline="middle">Gate</text><line x1="151" y1="540" x2="151" y2="560" stroke-width="2" stroke="black"></line><line x1="151" y1="560" x2="144" y2="553" stroke-width="2" stroke="black"></line><line x1="151" y1="560" x2="158" y2="553" stroke-width="2" stroke="black"></line><rect width="20" height="20" x="481" y="460" style="stroke: #000; stroke-width: 1; fill: none;"></rect><line x1="471" y1="470" x2="481" y2="470" stroke-width="2" stroke="black"></line><text x="483" y="470" font-size="10" font-family="sans-serif" text-anchor="start" alignment-baseline="middle">1</text><line x1="361" y1="440" x2="361" y2="420" stroke-width="2" stroke="black"></line><line x1="361" y1="420" x2="354" y2="427" stroke-width="2" stroke="black"></line><line x1="361" y1="420" x2="368" y2="427" stroke-width="2" stroke="black"></line><line x1="751" y1="300" x2="751" y2="310" stroke-width="2" stroke="black"></line><line x1="741" y1="310" x2="761" y2="310" stroke-width="2" stroke="black"></line><line x1="744" y1="315" x2="758" y2="315" stroke-width="2" stroke="black"></line><line x1="747" y1="320" x2="755" y2="320" stroke-width="2" stroke="black"></line><line x1="916" y1="150" x2="911" y2="150" stroke-width="2" stroke="black"></line><line x1="931" y1="150" x2="926" y2="147" stroke-width="2" stroke="black"></line><line x1="931" y1="150" x2="926" y2="153" stroke-width="2" stroke="black"></line><line x1="926" y1="147" x2="921" y2="147" stroke-width="2" stroke="black"></line><line x1="926" y1="153" x2="921" y2="153" stroke-width="2" stroke="black"></line><line x1="921" y1="147" x2="916" y2="150" stroke-width="2" stroke="black"></line><line x1="921" y1="153" x2="916" y2="150" stroke-width="2" stroke="black"></line><rect width="20" height="20" x="871" y="460" style="stroke: #000; stroke-width: 1; fill: none;"></rect><line x1="861" y1="470" x2="871" y2="470" stroke-width="2" stroke="black"></line><text x="873" y="470" font-size="10" font-family="sans-serif" text-anchor="start" alignment-baseline="middle">1</text><line x1="371" y1="467" x2="351" y2="467" stroke-width="2" stroke="black"></line><line x1="371" y1="473" x2="351" y2="473" stroke-width="2" stroke="black"></line><line x1="361" y1="460" x2="361" y2="467" stroke-width="2" stroke="black"></line><line x1="361" y1="474" x2="361" y2="480" stroke-width="2" stroke="black"></line><line x1="251" y1="230" x2="271" y2="230" stroke-width="2" stroke="black"></line><line x1="271" y1="230" x2="264" y2="223" stroke-width="2" stroke="black"></line><line x1="271" y1="230" x2="264" y2="237" stroke-width="2" stroke="black"></line><line x1="81" y1="420" x2="81" y2="400" stroke-width="2" stroke="black"></line><line x1="81" y1="400" x2="74" y2="407" stroke-width="2" stroke="black"></line><line x1="81" y1="400" x2="88" y2="407" stroke-width="2" stroke="black"></line><line x1="916" y1="110" x2="911" y2="110" stroke-width="2" stroke="black"></line><line x1="931" y1="110" x2="926" y2="107" stroke-width="2" stroke="black"></line><line x1="931" y1="110" x2="926" y2="113" stroke-width="2" stroke="black"></line><line x1="926" y1="107" x2="921" y2="107" stroke-width="2" stroke="black"></line><line x1="926" y1="113" x2="921" y2="113" stroke-width="2" stroke="black"></line><line x1="921" y1="107" x2="916" y2="110" stroke-width="2" stroke="black"></line><line x1="921" y1="113" x2="916" y2="110" stroke-width="2" stroke="black"></line><line x1="301" y1="440" x2="301" y2="420" stroke-width="2" stroke="black"></line><line x1="301" y1="420" x2="294" y2="427" stroke-width="2" stroke="black"></line><line x1="301" y1="420" x2="308" y2="427" stroke-width="2" stroke="black"></line><line x1="911" y1="190" x2="931" y2="190" stroke-width="2" stroke="black"></line><line x1="931" y1="190" x2="924" y2="183" stroke-width="2" stroke="black"></line><line x1="931" y1="190" x2="924" y2="197" stroke-width="2" stroke="black"></line><line x1="301" y1="500" x2="301" y2="510" stroke-width="2" stroke="black"></line><line x1="291" y1="510" x2="311" y2="510" stroke-width="2" stroke="black"></line><line x1="294" y1="515" x2="308" y2="515" stroke-width="2" stroke="black"></line><line x1="297" y1="520" x2="305" y2="520" stroke-width="2" stroke="black"></line><line x1="91" y1="447" x2="71" y2="447" stroke-width="2" stroke="black"></line><line x1="91" y1="453" x2="71" y2="453" stroke-width="2" stroke="black"></line><line x1="81" y1="440" x2="81" y2="447" stroke-width="2" stroke="black"></line><line x1="81" y1="454" x2="81" y2="460" stroke-width="2" stroke="black"></line><line x1="831" y1="440" x2="831" y2="420" stroke-width="2" stroke="black"></line><line x1="831" y1="420" x2="824" y2="427" stroke-width="2" stroke="black"></line><line x1="831" y1="420" x2="838" y2="427" stroke-width="2" stroke="black"></line><line x1="606" y1="110" x2="601" y2="110" stroke-width="2" stroke="black"></line><line x1="621" y1="110" x2="616" y2="107" stroke-width="2" stroke="black"></line><line x1="621" y1="110" x2="616" y2="113" stroke-width="2" stroke="black"></line><line x1="616" y1="107" x2="611" y2="107" stroke-width="2" stroke="black"></line><line x1="616" y1="113" x2="611" y2="113" stroke-width="2" stroke="black"></line><line x1="611" y1="107" x2="606" y2="110" stroke-width="2" stroke="black"></line><line x1="611" y1="113" x2="606" y2="110" stroke-width="2" stroke="black"></line><line x1="161" y1="447" x2="141" y2="447" stroke-width="2" stroke="black"></line><line x1="161" y1="453" x2="141" y2="453" stroke-width="2" stroke="black"></line><line x1="151" y1="440" x2="151" y2="447" stroke-width="2" stroke="black"></line><line x1="151" y1="454" x2="151" y2="460" stroke-width="2" stroke="black"></line><line x1="451" y1="500" x2="451" y2="520" stroke-width="2" stroke="black"></line><line x1="451" y1="520" x2="444" y2="513" stroke-width="2" stroke="black"></line><line x1="451" y1="520" x2="458" y2="513" stroke-width="2" stroke="black"></line><line x1="111" y1="110" x2="91" y2="110" stroke-width="2" stroke="black"></line><line x1="91" y1="110" x2="98" y2="103" stroke-width="2" stroke="black"></line><line x1="91" y1="110" x2="98" y2="117" stroke-width="2" stroke="black"></line><line x1="606" y1="150" x2="601" y2="150" stroke-width="2" stroke="black"></line><line x1="621" y1="150" x2="616" y2="147" stroke-width="2" stroke="black"></line><line x1="621" y1="150" x2="616" y2="153" stroke-width="2" stroke="black"></line><line x1="616" y1="147" x2="611" y2="147" stroke-width="2" stroke="black"></line><line x1="616" y1="153" x2="611" y2="153" stroke-width="2" stroke="black"></line><line x1="611" y1="147" x2="606" y2="150" stroke-width="2" stroke="black"></line><line x1="611" y1="153" x2="606" y2="150" stroke-width="2" stroke="black"></line><rect width="70" height="170" x="496" y="85" style="stroke: #000; stroke-width: 1; fill: none;"></rect><line x1="566" y1="100" x2="571" y2="100" stroke-width="2" stroke="black"></line><line x1="566" y1="120" x2="571" y2="120" stroke-width="2" stroke="black"></line><line x1="566" y1="140" x2="571" y2="140" stroke-width="2" stroke="black"></line><line x1="566" y1="160" x2="571" y2="160" stroke-width="2" stroke="black"></line><line x1="566" y1="180" x2="571" y2="180" stroke-width="2" stroke="black"></line><line x1="566" y1="200" x2="571" y2="200" stroke-width="2" stroke="black"></line><line x1="566" y1="220" x2="571" y2="220" stroke-width="2" stroke="black"></line><line x1="566" y1="240" x2="571" y2="240" stroke-width="2" stroke="black"></line><line x1="491" y1="100" x2="496" y2="100" stroke-width="2" stroke="black"></line><line x1="491" y1="120" x2="496" y2="120" stroke-width="2" stroke="black"></line><line x1="491" y1="140" x2="496" y2="140" stroke-width="2" stroke="black"></line><line x1="491" y1="160" x2="496" y2="160" stroke-width="2" stroke="black"></line><line x1="491" y1="180" x2="496" y2="180" stroke-width="2" stroke="black"></line><line x1="491" y1="200" x2="496" y2="200" stroke-width="2" stroke="black"></line><line x1="491" y1="220" x2="496" y2="220" stroke-width="2" stroke="black"></line><line x1="491" y1="240" x2="496" y2="240" stroke-width="2" stroke="black"></line><text x="503" y="100" font-size="10" font-family="sans-serif" text-anchor="start" alignment-baseline="middle">-12v</text><text x="503" y="120" font-size="10" font-family="sans-serif" text-anchor="start" alignment-baseline="middle">-12v</text><text x="503" y="140" font-size="10" font-family="sans-serif" text-anchor="start" alignment-baseline="middle">GND</text><text x="503" y="160" font-size="10" font-family="sans-serif" text-anchor="start" alignment-baseline="middle">GND</text><text x="503" y="180" font-size="10" font-family="sans-serif" text-anchor="start" alignment-baseline="middle">GND</text><text x="503" y="200" font-size="10" font-family="sans-serif" text-anchor="start" alignment-baseline="middle">GND</text><text x="503" y="220" font-size="10" font-family="sans-serif" text-anchor="start" alignment-baseline="middle">GND</text><text x="503" y="240" font-size="10" font-family="sans-serif" text-anchor="start" alignment-baseline="middle">GND</text><text x="559" y="240" font-size="10" font-family="sans-serif" text-anchor="end" alignment-baseline="middle">+12v</text><text x="559" y="220" font-size="10" font-family="sans-serif" text-anchor="end" alignment-baseline="middle">+12v</text><text x="559" y="200" font-size="10" font-family="sans-serif" text-anchor="end" alignment-baseline="middle">+5v</text><text x="559" y="180" font-size="10" font-family="sans-serif" text-anchor="end" alignment-baseline="middle">+5v</text><text x="559" y="160" font-size="10" font-family="sans-serif" text-anchor="end" alignment-baseline="middle">CV</text><text x="559" y="140" font-size="10" font-family="sans-serif" text-anchor="end" alignment-baseline="middle">CV</text><text x="559" y="120" font-size="10" font-family="sans-serif" text-anchor="end" alignment-baseline="middle">Gate</text><text x="559" y="100" font-size="10" font-family="sans-serif" text-anchor="end" alignment-baseline="middle">Gate</text><line x1="81" y1="540" x2="81" y2="560" stroke-width="2" stroke="black"></line><line x1="81" y1="560" x2="74" y2="553" stroke-width="2" stroke="black"></line><line x1="81" y1="560" x2="88" y2="553" stroke-width="2" stroke="black"></line><line x1="461" y1="110" x2="441" y2="110" stroke-width="2" stroke="black"></line><line x1="441" y1="110" x2="448" y2="103" stroke-width="2" stroke="black"></line><line x1="441" y1="110" x2="448" y2="117" stroke-width="2" stroke="black"></line><line x1="71" y1="513" x2="91" y2="513" stroke-width="2" stroke="black"></line><line x1="71" y1="507" x2="91" y2="507" stroke-width="2" stroke="black"></line><line x1="81" y1="520" x2="81" y2="513" stroke-width="2" stroke="black"></line><line x1="81" y1="506" x2="81" y2="500" stroke-width="2" stroke="black"></line><circle cx="1171" cy="320" r="20" style="stroke: #000; stroke-width: 1; fill: none;"></circle><line x1="221" y1="500" x2="221" y2="510" stroke-width="2" stroke="black"></line><line x1="211" y1="510" x2="231" y2="510" stroke-width="2" stroke="black"></line><line x1="214" y1="515" x2="228" y2="515" stroke-width="2" stroke="black"></line><line x1="217" y1="520" x2="225" y2="520" stroke-width="2" stroke="black"></line><line x1="711" y1="440" x2="711" y2="420" stroke-width="2" stroke="black"></line><line x1="711" y1="420" x2="704" y2="427" stroke-width="2" stroke="black"></line><line x1="711" y1="420" x2="718" y2="427" stroke-width="2" stroke="black"></line><line x1="256" y1="150" x2="251" y2="150" stroke-width="2" stroke="black"></line><line x1="271" y1="150" x2="266" y2="147" stroke-width="2" stroke="black"></line><line x1="271" y1="150" x2="266" y2="153" stroke-width="2" stroke="black"></line><line x1="266" y1="147" x2="261" y2="147" stroke-width="2" stroke="black"></line><line x1="266" y1="153" x2="261" y2="153" stroke-width="2" stroke="black"></line><line x1="261" y1="147" x2="256" y2="150" stroke-width="2" stroke="black"></line><line x1="261" y1="153" x2="256" y2="150" stroke-width="2" stroke="black"></line><line x1="251" y1="190" x2="271" y2="190" stroke-width="2" stroke="black"></line><line x1="271" y1="190" x2="264" y2="183" stroke-width="2" stroke="black"></line><line x1="271" y1="190" x2="264" y2="197" stroke-width="2" stroke="black"></line><line x1="141" y1="513" x2="161" y2="513" stroke-width="2" stroke="black"></line><line x1="141" y1="507" x2="161" y2="507" stroke-width="2" stroke="black"></line><line x1="151" y1="520" x2="151" y2="513" stroke-width="2" stroke="black"></line><line x1="151" y1="506" x2="151" y2="500" stroke-width="2" stroke="black"></line><rect width="20" height="20" x="741" y="460" style="stroke: #000; stroke-width: 1; fill: none;"></rect><line x1="731" y1="470" x2="741" y2="470" stroke-width="2" stroke="black"></line><text x="743" y="470" font-size="10" font-family="sans-serif" text-anchor="start" alignment-baseline="middle">1</text><line x1="911" y1="230" x2="931" y2="230" stroke-width="2" stroke="black"></line><line x1="931" y1="230" x2="924" y2="223" stroke-width="2" stroke="black"></line><line x1="931" y1="230" x2="924" y2="237" stroke-width="2" stroke="black"></line><line x1="601" y1="190" x2="621" y2="190" stroke-width="2" stroke="black"></line><line x1="621" y1="190" x2="614" y2="183" stroke-width="2" stroke="black"></line><line x1="621" y1="190" x2="614" y2="197" stroke-width="2" stroke="black"></line><line x1="21" y1="500" x2="21" y2="510" stroke-width="2" stroke="black"></line><line x1="11" y1="510" x2="31" y2="510" stroke-width="2" stroke="black"></line><line x1="14" y1="515" x2="28" y2="515" stroke-width="2" stroke="black"></line><line x1="17" y1="520" x2="25" y2="520" stroke-width="2" stroke="black"></line><line x1="571" y1="500" x2="571" y2="510" stroke-width="2" stroke="black"></line><line x1="561" y1="510" x2="581" y2="510" stroke-width="2" stroke="black"></line><line x1="564" y1="515" x2="578" y2="515" stroke-width="2" stroke="black"></line><line x1="567" y1="520" x2="575" y2="520" stroke-width="2" stroke="black"></line><line x1="771" y1="110" x2="751" y2="110" stroke-width="2" stroke="black"></line><line x1="751" y1="110" x2="758" y2="103" stroke-width="2" stroke="black"></line><line x1="751" y1="110" x2="758" y2="117" stroke-width="2" stroke="black"></line><circle cx="1171" cy="410" r="20" style="stroke: #000; stroke-width: 1; fill: none;"></circle><line x1="91" y1="300" x2="91" y2="310" stroke-width="2" stroke="black"></line><line x1="81" y1="310" x2="101" y2="310" stroke-width="2" stroke="black"></line><line x1="84" y1="315" x2="98" y2="315" stroke-width="2" stroke="black"></line><line x1="87" y1="320" x2="95" y2="320" stroke-width="2" stroke="black"></line><line x1="151" y1="420" x2="151" y2="400" stroke-width="2" stroke="black"></line><line x1="151" y1="400" x2="144" y2="407" stroke-width="2" stroke="black"></line><line x1="151" y1="400" x2="158" y2="407" stroke-width="2" stroke="black"></line><line x1="361" y1="500" x2="361" y2="510" stroke-width="2" stroke="black"></line><line x1="351" y1="510" x2="371" y2="510" stroke-width="2" stroke="black"></line><line x1="354" y1="515" x2="368" y2="515" stroke-width="2" stroke="black"></line><line x1="357" y1="520" x2="365" y2="520" stroke-width="2" stroke="black"></line><line x1="256" y1="110" x2="251" y2="110" stroke-width="2" stroke="black"></line><line x1="271" y1="110" x2="266" y2="107" stroke-width="2" stroke="black"></line><line x1="271" y1="110" x2="266" y2="113" stroke-width="2" stroke="black"></line><line x1="266" y1="107" x2="261" y2="107" stroke-width="2" stroke="black"></line><line x1="266" y1="113" x2="261" y2="113" stroke-width="2" stroke="black"></line><line x1="261" y1="107" x2="256" y2="110" stroke-width="2" stroke="black"></line><line x1="261" y1="113" x2="256" y2="110" stroke-width="2" stroke="black"></line><line x1="601" y1="230" x2="621" y2="230" stroke-width="2" stroke="black"></line><line x1="621" y1="230" x2="614" y2="223" stroke-width="2" stroke="black"></line><line x1="621" y1="230" x2="614" y2="237" stroke-width="2" stroke="black"></line><rect width="20" height="20" x="611" y="460" style="stroke: #000; stroke-width: 1; fill: none;"></rect><line x1="601" y1="470" x2="611" y2="470" stroke-width="2" stroke="black"></line><text x="613" y="470" font-size="10" font-family="sans-serif" text-anchor="start" alignment-baseline="middle">1</text><line x1="441" y1="300" x2="441" y2="310" stroke-width="2" stroke="black"></line><line x1="431" y1="310" x2="451" y2="310" stroke-width="2" stroke="black"></line><line x1="434" y1="315" x2="448" y2="315" stroke-width="2" stroke="black"></line><line x1="437" y1="320" x2="445" y2="320" stroke-width="2" stroke="black"></line><rect width="70" height="170" x="146" y="85" style="stroke: #000; stroke-width: 1; fill: none;"></rect><line x1="216" y1="100" x2="221" y2="100" stroke-width="2" stroke="black"></line><line x1="216" y1="120" x2="221" y2="120" stroke-width="2" stroke="black"></line><line x1="216" y1="140" x2="221" y2="140" stroke-width="2" stroke="black"></line><line x1="216" y1="160" x2="221" y2="160" stroke-width="2" stroke="black"></line><line x1="216" y1="180" x2="221" y2="180" stroke-width="2" stroke="black"></line><line x1="216" y1="200" x2="221" y2="200" stroke-width="2" stroke="black"></line><line x1="216" y1="220" x2="221" y2="220" stroke-width="2" stroke="black"></line><line x1="216" y1="240" x2="221" y2="240" stroke-width="2" stroke="black"></line><line x1="141" y1="100" x2="146" y2="100" stroke-width="2" stroke="black"></line><line x1="141" y1="120" x2="146" y2="120" stroke-width="2" stroke="black"></line><line x1="141" y1="140" x2="146" y2="140" stroke-width="2" stroke="black"></line><line x1="141" y1="160" x2="146" y2="160" stroke-width="2" stroke="black"></line><line x1="141" y1="180" x2="146" y2="180" stroke-width="2" stroke="black"></line><line x1="141" y1="200" x2="146" y2="200" stroke-width="2" stroke="black"></line><line x1="141" y1="220" x2="146" y2="220" stroke-width="2" stroke="black"></line><line x1="141" y1="240" x2="146" y2="240" stroke-width="2" stroke="black"></line><text x="153" y="100" font-size="10" font-family="sans-serif" text-anchor="start" alignment-baseline="middle">-12v</text><text x="153" y="120" font-size="10" font-family="sans-serif" text-anchor="start" alignment-baseline="middle">-12v</text><text x="153" y="140" font-size="10" font-family="sans-serif" text-anchor="start" alignment-baseline="middle">GND</text><text x="153" y="160" font-size="10" font-family="sans-serif" text-anchor="start" alignment-baseline="middle">GND</text><text x="153" y="180" font-size="10" font-family="sans-serif" text-anchor="start" alignment-baseline="middle">GND</text><text x="153" y="200" font-size="10" font-family="sans-serif" text-anchor="start" alignment-baseline="middle">GND</text><text x="153" y="220" font-size="10" font-family="sans-serif" text-anchor="start" alignment-baseline="middle">GND</text><text x="153" y="240" font-size="10" font-family="sans-serif" text-anchor="start" alignment-baseline="middle">GND</text><text x="209" y="240" font-size="10" font-family="sans-serif" text-anchor="end" alignment-baseline="middle">+12v</text><text x="209" y="220" font-size="10" font-family="sans-serif" text-anchor="end" alignment-baseline="middle">+12v</text><text x="209" y="200" font-size="10" font-family="sans-serif" text-anchor="end" alignment-baseline="middle">+5v</text><text x="209" y="180" font-size="10" font-family="sans-serif" text-anchor="end" alignment-baseline="middle">+5v</text><text x="209" y="160" font-size="10" font-family="sans-serif" text-anchor="end" alignment-baseline="middle">CV</text><text x="209" y="140" font-size="10" font-family="sans-serif" text-anchor="end" alignment-baseline="middle">CV</text><text x="209" y="120" font-size="10" font-family="sans-serif" text-anchor="end" alignment-baseline="middle">Gate</text><text x="209" y="100" font-size="10" font-family="sans-serif" text-anchor="end" alignment-baseline="middle">Gate</text><circle cx="91" cy="200" r="2" style="stroke: #000; stroke-width: 1; fill: none;"></circle><circle cx="441" cy="200" r="2" style="stroke: #000; stroke-width: 1; fill: none;"></circle><circle cx="581" cy="110" r="2" style="stroke: #000; stroke-width: 1; fill: none;"></circle><circle cx="231" cy="230" r="2" style="stroke: #000; stroke-width: 1; fill: none;"></circle><circle cx="751" cy="240" r="2" style="stroke: #000; stroke-width: 1; fill: none;"></circle><circle cx="891" cy="150" r="2" style="stroke: #000; stroke-width: 1; fill: none;"></circle><circle cx="441" cy="160" r="2" style="stroke: #000; stroke-width: 1; fill: none;"></circle><circle cx="891" cy="110" r="2" style="stroke: #000; stroke-width: 1; fill: none;"></circle><circle cx="231" cy="190" r="2" style="stroke: #000; stroke-width: 1; fill: none;"></circle><circle cx="581" cy="150" r="2" style="stroke: #000; stroke-width: 1; fill: none;"></circle><circle cx="481" cy="110" r="2" style="stroke: #000; stroke-width: 1; fill: none;"></circle><circle cx="581" cy="190" r="2" style="stroke: #000; stroke-width: 1; fill: none;"></circle><circle cx="131" cy="110" r="2" style="stroke: #000; stroke-width: 1; fill: none;"></circle><circle cx="91" cy="180" r="2" style="stroke: #000; stroke-width: 1; fill: none;"></circle><circle cx="231" cy="110" r="2" style="stroke: #000; stroke-width: 1; fill: none;"></circle><circle cx="441" cy="180" r="2" style="stroke: #000; stroke-width: 1; fill: none;"></circle><circle cx="231" cy="150" r="2" style="stroke: #000; stroke-width: 1; fill: none;"></circle><circle cx="91" cy="220" r="2" style="stroke: #000; stroke-width: 1; fill: none;"></circle><circle cx="751" cy="220" r="2" style="stroke: #000; stroke-width: 1; fill: none;"></circle><circle cx="751" cy="180" r="2" style="stroke: #000; stroke-width: 1; fill: none;"></circle><circle cx="151" cy="480" r="2" style="stroke: #000; stroke-width: 1; fill: none;"></circle><circle cx="581" cy="230" r="2" style="stroke: #000; stroke-width: 1; fill: none;"></circle><circle cx="751" cy="200" r="2" style="stroke: #000; stroke-width: 1; fill: none;"></circle><circle cx="891" cy="190" r="2" style="stroke: #000; stroke-width: 1; fill: none;"></circle><circle cx="751" cy="160" r="2" style="stroke: #000; stroke-width: 1; fill: none;"></circle><circle cx="81" cy="480" r="2" style="stroke: #000; stroke-width: 1; fill: none;"></circle><circle cx="441" cy="220" r="2" style="stroke: #000; stroke-width: 1; fill: none;"></circle><circle cx="91" cy="240" r="2" style="stroke: #000; stroke-width: 1; fill: none;"></circle><circle cx="441" cy="240" r="2" style="stroke: #000; stroke-width: 1; fill: none;"></circle><circle cx="791" cy="110" r="2" style="stroke: #000; stroke-width: 1; fill: none;"></circle><circle cx="891" cy="230" r="2" style="stroke: #000; stroke-width: 1; fill: none;"></circle><circle cx="91" cy="160" r="2" style="stroke: #000; stroke-width: 1; fill: none;"></circle><line x1="581" y1="110" x2="601" y2="110" stroke-width="2" stroke="black"></line><line x1="791" y1="120" x2="801" y2="120" stroke-width="2" stroke="black"></line><line x1="831" y1="470" x2="861" y2="470" stroke-width="2" stroke="black"></line><line x1="571" y1="160" x2="581" y2="160" stroke-width="2" stroke="black"></line><line x1="481" y1="120" x2="491" y2="120" stroke-width="2" stroke="black"></line><line x1="491" y1="200" x2="441" y2="200" stroke-width="2" stroke="black"></line><line x1="151" y1="530" x2="151" y2="540" stroke-width="2" stroke="black"></line><line x1="751" y1="240" x2="801" y2="240" stroke-width="2" stroke="black"></line><line x1="221" y1="480" x2="221" y2="500" stroke-width="2" stroke="black"></line><line x1="831" y1="440" x2="831" y2="470" stroke-width="2" stroke="black"></line><line x1="751" y1="300" x2="751" y2="240" stroke-width="2" stroke="black"></line><line x1="881" y1="140" x2="891" y2="140" stroke-width="2" stroke="black"></line><line x1="891" y1="150" x2="891" y2="140" stroke-width="2" stroke="black"></line><line x1="891" y1="110" x2="891" y2="120" stroke-width="2" stroke="black"></line><line x1="231" y1="140" x2="221" y2="140" stroke-width="2" stroke="black"></line><line x1="231" y1="190" x2="251" y2="190" stroke-width="2" stroke="black"></line><line x1="231" y1="190" x2="231" y2="200" stroke-width="2" stroke="black"></line><line x1="581" y1="150" x2="601" y2="150" stroke-width="2" stroke="black"></line><line x1="581" y1="150" x2="581" y2="140" stroke-width="2" stroke="black"></line><line x1="581" y1="150" x2="581" y2="160" stroke-width="2" stroke="black"></line><line x1="801" y1="140" x2="751" y2="140" stroke-width="2" stroke="black"></line><line x1="571" y1="200" x2="581" y2="200" stroke-width="2" stroke="black"></line><line x1="231" y1="180" x2="231" y2="190" stroke-width="2" stroke="black"></line><line x1="481" y1="110" x2="481" y2="120" stroke-width="2" stroke="black"></line><line x1="581" y1="190" x2="581" y2="180" stroke-width="2" stroke="black"></line><line x1="581" y1="190" x2="581" y2="200" stroke-width="2" stroke="black"></line><line x1="891" y1="100" x2="891" y2="110" stroke-width="2" stroke="black"></line><line x1="891" y1="100" x2="881" y2="100" stroke-width="2" stroke="black"></line><line x1="911" y1="150" x2="891" y2="150" stroke-width="2" stroke="black"></line><line x1="251" y1="230" x2="231" y2="230" stroke-width="2" stroke="black"></line><line x1="891" y1="160" x2="891" y2="150" stroke-width="2" stroke="black"></line><line x1="891" y1="160" x2="881" y2="160" stroke-width="2" stroke="black"></line><line x1="881" y1="120" x2="891" y2="120" stroke-width="2" stroke="black"></line><line x1="601" y1="190" x2="581" y2="190" stroke-width="2" stroke="black"></line><line x1="91" y1="180" x2="91" y2="200" stroke-width="2" stroke="black"></line><line x1="221" y1="180" x2="231" y2="180" stroke-width="2" stroke="black"></line><line x1="231" y1="110" x2="251" y2="110" stroke-width="2" stroke="black"></line><line x1="231" y1="110" x2="231" y2="120" stroke-width="2" stroke="black"></line><line x1="151" y1="420" x2="151" y2="440" stroke-width="2" stroke="black"></line><line x1="571" y1="500" x2="571" y2="470" stroke-width="2" stroke="black"></line><line x1="441" y1="180" x2="441" y2="200" stroke-width="2" stroke="black"></line><line x1="441" y1="180" x2="491" y2="180" stroke-width="2" stroke="black"></line><line x1="441" y1="180" x2="441" y2="160" stroke-width="2" stroke="black"></line><line x1="231" y1="150" x2="231" y2="140" stroke-width="2" stroke="black"></line><line x1="581" y1="100" x2="581" y2="110" stroke-width="2" stroke="black"></line><line x1="581" y1="100" x2="571" y2="100" stroke-width="2" stroke="black"></line><line x1="891" y1="200" x2="881" y2="200" stroke-width="2" stroke="black"></line><line x1="91" y1="220" x2="141" y2="220" stroke-width="2" stroke="black"></line><line x1="91" y1="220" x2="91" y2="200" stroke-width="2" stroke="black"></line><line x1="571" y1="180" x2="581" y2="180" stroke-width="2" stroke="black"></line><line x1="751" y1="220" x2="751" y2="240" stroke-width="2" stroke="black"></line><line x1="751" y1="220" x2="801" y2="220" stroke-width="2" stroke="black"></line><line x1="461" y1="110" x2="481" y2="110" stroke-width="2" stroke="black"></line><line x1="751" y1="180" x2="801" y2="180" stroke-width="2" stroke="black"></line><line x1="231" y1="100" x2="231" y2="110" stroke-width="2" stroke="black"></line><line x1="151" y1="480" x2="221" y2="480" stroke-width="2" stroke="black"></line><line x1="221" y1="200" x2="231" y2="200" stroke-width="2" stroke="black"></line><line x1="21" y1="500" x2="21" y2="480" stroke-width="2" stroke="black"></line><line x1="581" y1="230" x2="581" y2="220" stroke-width="2" stroke="black"></line><line x1="751" y1="200" x2="751" y2="220" stroke-width="2" stroke="black"></line><line x1="751" y1="200" x2="801" y2="200" stroke-width="2" stroke="black"></line><line x1="751" y1="200" x2="751" y2="180" stroke-width="2" stroke="black"></line><line x1="231" y1="160" x2="231" y2="150" stroke-width="2" stroke="black"></line><line x1="231" y1="160" x2="221" y2="160" stroke-width="2" stroke="black"></line><line x1="891" y1="190" x2="911" y2="190" stroke-width="2" stroke="black"></line><line x1="891" y1="190" x2="891" y2="200" stroke-width="2" stroke="black"></line><line x1="751" y1="160" x2="751" y2="180" stroke-width="2" stroke="black"></line><line x1="751" y1="160" x2="801" y2="160" stroke-width="2" stroke="black"></line><line x1="751" y1="160" x2="751" y2="140" stroke-width="2" stroke="black"></line><line x1="571" y1="220" x2="581" y2="220" stroke-width="2" stroke="black"></line><line x1="111" y1="110" x2="131" y2="110" stroke-width="2" stroke="black"></line><line x1="81" y1="480" x2="21" y2="480" stroke-width="2" stroke="black"></line><line x1="81" y1="480" x2="81" y2="500" stroke-width="2" stroke="black"></line><line x1="81" y1="480" x2="81" y2="460" stroke-width="2" stroke="black"></line><line x1="441" y1="220" x2="491" y2="220" stroke-width="2" stroke="black"></line><line x1="441" y1="220" x2="441" y2="200" stroke-width="2" stroke="black"></line><line x1="481" y1="100" x2="481" y2="110" stroke-width="2" stroke="black"></line><line x1="91" y1="240" x2="91" y2="220" stroke-width="2" stroke="black"></line><line x1="91" y1="300" x2="91" y2="240" stroke-width="2" stroke="black"></line><line x1="911" y1="110" x2="891" y2="110" stroke-width="2" stroke="black"></line><line x1="891" y1="220" x2="881" y2="220" stroke-width="2" stroke="black"></line><line x1="441" y1="240" x2="441" y2="300" stroke-width="2" stroke="black"></line><line x1="441" y1="240" x2="491" y2="240" stroke-width="2" stroke="black"></line><line x1="441" y1="240" x2="441" y2="220" stroke-width="2" stroke="black"></line><line x1="141" y1="200" x2="91" y2="200" stroke-width="2" stroke="black"></line><line x1="221" y1="120" x2="231" y2="120" stroke-width="2" stroke="black"></line><line x1="141" y1="240" x2="91" y2="240" stroke-width="2" stroke="black"></line><line x1="451" y1="500" x2="451" y2="470" stroke-width="2" stroke="black"></line><line x1="251" y1="150" x2="231" y2="150" stroke-width="2" stroke="black"></line><line x1="581" y1="240" x2="581" y2="230" stroke-width="2" stroke="black"></line><line x1="581" y1="240" x2="571" y2="240" stroke-width="2" stroke="black"></line><line x1="891" y1="180" x2="891" y2="190" stroke-width="2" stroke="black"></line><line x1="221" y1="100" x2="231" y2="100" stroke-width="2" stroke="black"></line><line x1="361" y1="460" x2="361" y2="440" stroke-width="2" stroke="black"></line><line x1="711" y1="470" x2="731" y2="470" stroke-width="2" stroke="black"></line><line x1="711" y1="470" x2="711" y2="440" stroke-width="2" stroke="black"></line><line x1="91" y1="140" x2="141" y2="140" stroke-width="2" stroke="black"></line><line x1="361" y1="490" x2="361" y2="480" stroke-width="2" stroke="black"></line><line x1="361" y1="490" x2="361" y2="500" stroke-width="2" stroke="black"></line><line x1="471" y1="470" x2="451" y2="470" stroke-width="2" stroke="black"></line><line x1="791" y1="110" x2="791" y2="100" stroke-width="2" stroke="black"></line><line x1="791" y1="110" x2="791" y2="120" stroke-width="2" stroke="black"></line><line x1="81" y1="420" x2="81" y2="440" stroke-width="2" stroke="black"></line><line x1="891" y1="230" x2="911" y2="230" stroke-width="2" stroke="black"></line><line x1="891" y1="230" x2="891" y2="220" stroke-width="2" stroke="black"></line><line x1="891" y1="230" x2="891" y2="240" stroke-width="2" stroke="black"></line><line x1="801" y1="100" x2="791" y2="100" stroke-width="2" stroke="black"></line><line x1="601" y1="230" x2="581" y2="230" stroke-width="2" stroke="black"></line><line x1="131" y1="120" x2="131" y2="110" stroke-width="2" stroke="black"></line><line x1="131" y1="120" x2="141" y2="120" stroke-width="2" stroke="black"></line><line x1="151" y1="460" x2="151" y2="480" stroke-width="2" stroke="black"></line><line x1="441" y1="140" x2="441" y2="160" stroke-width="2" stroke="black"></line><line x1="441" y1="140" x2="491" y2="140" stroke-width="2" stroke="black"></line><line x1="131" y1="100" x2="131" y2="110" stroke-width="2" stroke="black"></line><line x1="131" y1="100" x2="141" y2="100" stroke-width="2" stroke="black"></line><line x1="771" y1="110" x2="791" y2="110" stroke-width="2" stroke="black"></line><line x1="81" y1="520" x2="81" y2="540" stroke-width="2" stroke="black"></line><line x1="91" y1="160" x2="91" y2="180" stroke-width="2" stroke="black"></line><line x1="91" y1="160" x2="141" y2="160" stroke-width="2" stroke="black"></line><line x1="91" y1="160" x2="91" y2="140" stroke-width="2" stroke="black"></line><line x1="881" y1="180" x2="891" y2="180" stroke-width="2" stroke="black"></line><line x1="581" y1="120" x2="581" y2="110" stroke-width="2" stroke="black"></line><line x1="581" y1="120" x2="571" y2="120" stroke-width="2" stroke="black"></line><line x1="231" y1="220" x2="231" y2="230" stroke-width="2" stroke="black"></line><line x1="231" y1="220" x2="221" y2="220" stroke-width="2" stroke="black"></line><line x1="301" y1="460" x2="301" y2="440" stroke-width="2" stroke="black"></line><line x1="141" y1="180" x2="91" y2="180" stroke-width="2" stroke="black"></line><line x1="601" y1="470" x2="571" y2="470" stroke-width="2" stroke="black"></line><line x1="301" y1="490" x2="301" y2="500" stroke-width="2" stroke="black"></line><line x1="301" y1="490" x2="301" y2="480" stroke-width="2" stroke="black"></line><line x1="231" y1="240" x2="231" y2="230" stroke-width="2" stroke="black"></line><line x1="231" y1="240" x2="221" y2="240" stroke-width="2" stroke="black"></line><line x1="881" y1="240" x2="891" y2="240" stroke-width="2" stroke="black"></line><line x1="491" y1="100" x2="481" y2="100" stroke-width="2" stroke="black"></line><line x1="571" y1="140" x2="581" y2="140" stroke-width="2" stroke="black"></line><line x1="151" y1="500" x2="151" y2="480" stroke-width="2" stroke="black"></line><line x1="151" y1="520" x2="151" y2="530" stroke-width="2" stroke="black"></line><line x1="491" y1="160" x2="441" y2="160" stroke-width="2" stroke="black"></line></svg>