<?xml version='1.0' encoding='UTF-8' standalone='no'?>
<svg xmlns="http://www.w3.org/2000/svg" width="1151" height="350" x="0" y="0"><text x="922" y="106" font-size="10" font-family="sans-serif" text-anchor="end" alignment-baseline="hanging">-12V</text><text x="635" y="270" font-size="10" font-family="sans serif" text-anchor="start" alignment-baseline="hanging">Eurorack power connector - 16 pin</text><text x="945" y="270" font-size="10" font-family="sans serif" text-anchor="start" alignment-baseline="hanging">Eurorack power connector - 16 pin</text><text x="808" y="185" font-size="10" font-family="sans-serif" text-anchor="start" alignment-baseline="hanging">+5V</text><text x="830" y="20" font-size="10" font-family="sans-serif" text-anchor="start" alignment-baseline="hanging">Outputs</text><text x="1115" y="150" font-size="10" font-family="sans-serif" text-anchor="start" alignment-baseline="middle">CV</text><text x="455" y="150" font-size="10" font-family="sans-serif" text-anchor="start" alignment-baseline="middle">CV</text><text x="700" y="60" font-size="10" font-family="sans serif" text-anchor="start" alignment-baseline="hanging">J2</text><text x="242" y="115" font-size="10" font-family="sans-serif" text-anchor="start" alignment-baseline="hanging">-12V</text><text x="805" y="150" font-size="10" font-family="sans-serif" text-anchor="start" alignment-baseline="middle">CV</text><text x="610" y="330" font-size="10" font-family="sans-serif" text-anchor="start" alignment-baseline="hanging">GND</text><text x="455" y="110" font-size="10" font-family="sans-serif" text-anchor="start" alignment-baseline="middle">Gate</text><text x="346" y="10" font-size="10" font-family="sans-serif" text-anchor="start" alignment-baseline="hanging">Input</text><text x="456" y="225" font-size="10" font-family="sans-serif" text-anchor="start" alignment-baseline="hanging">+12V</text><text x="1010" y="60" font-size="10" font-family="sans serif" text-anchor="start" alignment-baseline="hanging">J1</text><text x="350" y="60" font-size="10" font-family="sans serif" text-anchor="start" alignment-baseline="hanging">J3</text><text x="920" y="330" font-size="10" font-family="sans-serif" text-anchor="start" alignment-baseline="hanging">GND</text><text x="806" y="225" font-size="10" font-family="sans-serif" text-anchor="start" alignment-baseline="hanging">+12V</text><text x="805" y="110" font-size="10" font-family="sans-serif" text-anchor="start" alignment-baseline="middle">Gate</text><text x="10" y="30" font-size="10" font-family="sans-serif" text-anchor="start" alignment-baseline="hanging">Mounting Hole M3</text><text x="1118" y="185" font-size="10" font-family="sans-serif" text-anchor="start" alignment-baseline="hanging">+5V</text><text x="10" y="90" font-size="10" font-family="sans-serif" text-anchor="start" alignment-baseline="hanging">M1</text><text x="285" y="270" font-size="10" font-family="sans serif" text-anchor="start" alignment-baseline="hanging">Eurorack power connector - 16 pin</text><text x="10" y="220" font-size="10" font-family="sans-serif" text-anchor="start" alignment-baseline="hanging">M2</text><text x="260" y="330" font-size="10" font-family="sans-serif" text-anchor="start" alignment-baseline="hanging">GND</text><text x="470" y="195" font-size="10" font-family="sans-serif" text-anchor="end" alignment-baseline="hanging">+5V</text><text x="612" y="106" font-size="10" font-family="sans-serif" text-anchor="end" alignment-baseline="hanging">-12V</text><text x="10" y="160" font-size="10" font-family="sans-serif" text-anchor="start" alignment-baseline="hanging">Mounting Hole M3</text><text x="1116" y="225" font-size="10" font-family="sans-serif" text-anchor="start" alignment-baseline="hanging">+12V</text><text x="1115" y="110" font-size="10" font-family="sans-serif" text-anchor="start" alignment-baseline="middle">Gate</text><rect width="70" height="170" x="325" y="85" style="stroke: #000; stroke-width: 1; fill: none;"></rect><line x1="395" y1="100" x2="400" y2="100" stroke-width="2" stroke="black"></line><line x1="395" y1="120" x2="400" y2="120" stroke-width="2" stroke="black"></line><line x1="395" y1="140" x2="400" y2="140" stroke-width="2" stroke="black"></line><line x1="395" y1="160" x2="400" y2="160" stroke-width="2" stroke="black"></line><line x1="395" y1="180" x2="400" y2="180" stroke-width="2" stroke="black"></line><line x1="395" y1="200" x2="400" y2="200" stroke-width="2" stroke="black"></line><line x1="395" y1="220" x2="400" y2="220" stroke-width="2" stroke="black"></line><line x1="395" y1="240" x2="400" y2="240" stroke-width="2" stroke="black"></line><line x1="320" y1="100" x2="325" y2="100" stroke-width="2" stroke="black"></line><line x1="320" y1="120" x2="325" y2="120" stroke-width="2" stroke="black"></line><line x1="320" y1="140" x2="325" y2="140" stroke-width="2" stroke="black"></line><line x1="320" y1="160" x2="325" y2="160" stroke-width="2" stroke="black"></line><line x1="320" y1="180" x2="325" y2="180" stroke-width="2" stroke="black"></line><line x1="320" y1="200" x2="325" y2="200" stroke-width="2" stroke="black"></line><line x1="320" y1="220" x2="325" y2="220" stroke-width="2" stroke="black"></line><line x1="320" y1="240" x2="325" y2="240" stroke-width="2" stroke="black"></line><text x="332" y="100" font-size="10" font-family="sans-serif" text-anchor="start" alignment-baseline="middle">-12v</text><text x="332" y="120" font-size="10" font-family="sans-serif" text-anchor="start" alignment-baseline="middle">-12v</text><text x="332" y="140" font-size="10" font-family="sans-serif" text-anchor="start" alignment-baseline="middle">GND</text><text x="332" y="160" font-size="10" font-family="sans-serif" text-anchor="start" alignment-baseline="middle">GND</text><text x="332" y="180" font-size="10" font-family="sans-serif" text-anchor="start" alignment-baseline="middle">GND</text><text x="332" y="200" font-size="10" font-family="sans-serif" text-anchor="start" alignment-baseline="middle">GND</text><text x="332" y="220" font-size="10" font-family="sans-serif" text-anchor="start" alignment-baseline="middle">GND</text><text x="332" y="240" font-size="10" font-family="sans-serif" text-anchor="start" alignment-baseline="middle">GND</text><text x="388" y="240" font-size="10" font-family="sans-serif" text-anchor="end" alignment-baseline="middle">+12v</text><text x="388" y="220" font-size="10" font-family="sans-serif" text-anchor="end" alignment-baseline="middle">+12v</text><text x="388" y="200" font-size="10" font-family="sans-serif" text-anchor="end" alignment-baseline="middle">+5v</text><text x="388" y="180" font-size="10" font-family="sans-serif" text-anchor="end" alignment-baseline="middle">+5v</text><text x="388" y="160" font-size="10" font-family="sans-serif" text-anchor="end" alignment-baseline="middle">CV</text><text x="388" y="140" font-size="10" font-family="sans-serif" text-anchor="end" alignment-baseline="middle">CV</text><text x="388" y="120" font-size="10" font-family="sans-serif" text-anchor="end" alignment-baseline="middle">Gate</text><text x="388" y="100" font-size="10" font-family="sans-serif" text-anchor="end" alignment-baseline="middle">Gate</text><line x1="620" y1="300" x2="620" y2="310" stroke-width="2" stroke="black"></line><line x1="610" y1="310" x2="630" y2="310" stroke-width="2" stroke="black"></line><line x1="613" y1="315" x2="627" y2="315" stroke-width="2" stroke="black"></line><line x1="616" y1="320" x2="624" y2="320" stroke-width="2" stroke="black"></line><line x1="435" y1="110" x2="430" y2="110" stroke-width="2" stroke="black"></line><line x1="450" y1="110" x2="445" y2="107" stroke-width="2" stroke="black"></line><line x1="450" y1="110" x2="445" y2="113" stroke-width="2" stroke="black"></line><line x1="445" y1="107" x2="440" y2="107" stroke-width="2" stroke="black"></line><line x1="445" y1="113" x2="440" y2="113" stroke-width="2" stroke="black"></line><line x1="440" y1="107" x2="435" y2="110" stroke-width="2" stroke="black"></line><line x1="440" y1="113" x2="435" y2="110" stroke-width="2" stroke="black"></line><line x1="785" y1="110" x2="780" y2="110" stroke-width="2" stroke="black"></line><line x1="800" y1="110" x2="795" y2="107" stroke-width="2" stroke="black"></line><line x1="800" y1="110" x2="795" y2="113" stroke-width="2" stroke="black"></line><line x1="795" y1="107" x2="790" y2="107" stroke-width="2" stroke="black"></line><line x1="795" y1="113" x2="790" y2="113" stroke-width="2" stroke="black"></line><line x1="790" y1="107" x2="785" y2="110" stroke-width="2" stroke="black"></line><line x1="790" y1="113" x2="785" y2="110" stroke-width="2" stroke="black"></line><line x1="270" y1="300" x2="270" y2="310" stroke-width="2" stroke="black"></line><line x1="260" y1="310" x2="280" y2="310" stroke-width="2" stroke="black"></line><line x1="263" y1="315" x2="277" y2="315" stroke-width="2" stroke="black"></line><line x1="266" y1="320" x2="274" y2="320" stroke-width="2" stroke="black"></line><line x1="950" y1="110" x2="930" y2="110" stroke-width="2" stroke="black"></line><line x1="930" y1="110" x2="937" y2="103" stroke-width="2" stroke="black"></line><line x1="930" y1="110" x2="937" y2="117" stroke-width="2" stroke="black"></line><line x1="780" y1="190" x2="800" y2="190" stroke-width="2" stroke="black"></line><line x1="800" y1="190" x2="793" y2="183" stroke-width="2" stroke="black"></line><line x1="800" y1="190" x2="793" y2="197" stroke-width="2" stroke="black"></line><line x1="1090" y1="230" x2="1110" y2="230" stroke-width="2" stroke="black"></line><line x1="1110" y1="230" x2="1103" y2="223" stroke-width="2" stroke="black"></line><line x1="1110" y1="230" x2="1103" y2="237" stroke-width="2" stroke="black"></line><rect width="70" height="170" x="675" y="85" style="stroke: #000; stroke-width: 1; fill: none;"></rect><line x1="745" y1="100" x2="750" y2="100" stroke-width="2" stroke="black"></line><line x1="745" y1="120" x2="750" y2="120" stroke-width="2" stroke="black"></line><line x1="745" y1="140" x2="750" y2="140" stroke-width="2" stroke="black"></line><line x1="745" y1="160" x2="750" y2="160" stroke-width="2" stroke="black"></line><line x1="745" y1="180" x2="750" y2="180" stroke-width="2" stroke="black"></line><line x1="745" y1="200" x2="750" y2="200" stroke-width="2" stroke="black"></line><line x1="745" y1="220" x2="750" y2="220" stroke-width="2" stroke="black"></line><line x1="745" y1="240" x2="750" y2="240" stroke-width="2" stroke="black"></line><line x1="670" y1="100" x2="675" y2="100" stroke-width="2" stroke="black"></line><line x1="670" y1="120" x2="675" y2="120" stroke-width="2" stroke="black"></line><line x1="670" y1="140" x2="675" y2="140" stroke-width="2" stroke="black"></line><line x1="670" y1="160" x2="675" y2="160" stroke-width="2" stroke="black"></line><line x1="670" y1="180" x2="675" y2="180" stroke-width="2" stroke="black"></line><line x1="670" y1="200" x2="675" y2="200" stroke-width="2" stroke="black"></line><line x1="670" y1="220" x2="675" y2="220" stroke-width="2" stroke="black"></line><line x1="670" y1="240" x2="675" y2="240" stroke-width="2" stroke="black"></line><text x="682" y="100" font-size="10" font-family="sans-serif" text-anchor="start" alignment-baseline="middle">-12v</text><text x="682" y="120" font-size="10" font-family="sans-serif" text-anchor="start" alignment-baseline="middle">-12v</text><text x="682" y="140" font-size="10" font-family="sans-serif" text-anchor="start" alignment-baseline="middle">GND</text><text x="682" y="160" font-size="10" font-family="sans-serif" text-anchor="start" alignment-baseline="middle">GND</text><text x="682" y="180" font-size="10" font-family="sans-serif" text-anchor="start" alignment-baseline="middle">GND</text><text x="682" y="200" font-size="10" font-family="sans-serif" text-anchor="start" alignment-baseline="middle">GND</text><text x="682" y="220" font-size="10" font-family="sans-serif" text-anchor="start" alignment-baseline="middle">GND</text><text x="682" y="240" font-size="10" font-family="sans-serif" text-anchor="start" alignment-baseline="middle">GND</text><text x="738" y="240" font-size="10" font-family="sans-serif" text-anchor="end" alignment-baseline="middle">+12v</text><text x="738" y="220" font-size="10" font-family="sans-serif" text-anchor="end" alignment-baseline="middle">+12v</text><text x="738" y="200" font-size="10" font-family="sans-serif" text-anchor="end" alignment-baseline="middle">+5v</text><text x="738" y="180" font-size="10" font-family="sans-serif" text-anchor="end" alignment-baseline="middle">+5v</text><text x="738" y="160" font-size="10" font-family="sans-serif" text-anchor="end" alignment-baseline="middle">CV</text><text x="738" y="140" font-size="10" font-family="sans-serif" text-anchor="end" alignment-baseline="middle">CV</text><text x="738" y="120" font-size="10" font-family="sans-serif" text-anchor="end" alignment-baseline="middle">Gate</text><text x="738" y="100" font-size="10" font-family="sans-serif" text-anchor="end" alignment-baseline="middle">Gate</text><line x1="117" y1="67" x2="123" y2="73" stroke-width="2" stroke="black"></line><line x1="117" y1="73" x2="123" y2="67" stroke-width="2" stroke="black"></line><line x1="430" y1="190" x2="450" y2="190" stroke-width="2" stroke="black"></line><line x1="450" y1="190" x2="443" y2="183" stroke-width="2" stroke="black"></line><line x1="450" y1="190" x2="443" y2="197" stroke-width="2" stroke="black"></line><line x1="117" y1="197" x2="123" y2="203" stroke-width="2" stroke="black"></line><line x1="117" y1="203" x2="123" y2="197" stroke-width="2" stroke="black"></line><line x1="435" y1="150" x2="430" y2="150" stroke-width="2" stroke="black"></line><line x1="450" y1="150" x2="445" y2="147" stroke-width="2" stroke="black"></line><line x1="450" y1="150" x2="445" y2="153" stroke-width="2" stroke="black"></line><line x1="445" y1="147" x2="440" y2="147" stroke-width="2" stroke="black"></line><line x1="445" y1="153" x2="440" y2="153" stroke-width="2" stroke="black"></line><line x1="440" y1="147" x2="435" y2="150" stroke-width="2" stroke="black"></line><line x1="440" y1="153" x2="435" y2="150" stroke-width="2" stroke="black"></line><line x1="640" y1="110" x2="620" y2="110" stroke-width="2" stroke="black"></line><line x1="620" y1="110" x2="627" y2="103" stroke-width="2" stroke="black"></line><line x1="620" y1="110" x2="627" y2="117" stroke-width="2" stroke="black"></line><line x1="785" y1="150" x2="780" y2="150" stroke-width="2" stroke="black"></line><line x1="800" y1="150" x2="795" y2="147" stroke-width="2" stroke="black"></line><line x1="800" y1="150" x2="795" y2="153" stroke-width="2" stroke="black"></line><line x1="795" y1="147" x2="790" y2="147" stroke-width="2" stroke="black"></line><line x1="795" y1="153" x2="790" y2="153" stroke-width="2" stroke="black"></line><line x1="790" y1="147" x2="785" y2="150" stroke-width="2" stroke="black"></line><line x1="790" y1="153" x2="785" y2="150" stroke-width="2" stroke="black"></line><line x1="290" y1="110" x2="270" y2="110" stroke-width="2" stroke="black"></line><line x1="270" y1="110" x2="277" y2="103" stroke-width="2" stroke="black"></line><line x1="270" y1="110" x2="277" y2="117" stroke-width="2" stroke="black"></line><circle cx="40" cy="200" r="20" style="stroke: #000; stroke-width: 1; fill: none;"></circle><line x1="70" y1="200" x2="60" y2="200" stroke-width="2" stroke="black"></line><line x1="1090" y1="190" x2="1110" y2="190" stroke-width="2" stroke="black"></line><line x1="1110" y1="190" x2="1103" y2="183" stroke-width="2" stroke="black"></line><line x1="1110" y1="190" x2="1103" y2="197" stroke-width="2" stroke="black"></line><line x1="1095" y1="110" x2="1090" y2="110" stroke-width="2" stroke="black"></line><line x1="1110" y1="110" x2="1105" y2="107" stroke-width="2" stroke="black"></line><line x1="1110" y1="110" x2="1105" y2="113" stroke-width="2" stroke="black"></line><line x1="1105" y1="107" x2="1100" y2="107" stroke-width="2" stroke="black"></line><line x1="1105" y1="113" x2="1100" y2="113" stroke-width="2" stroke="black"></line><line x1="1100" y1="107" x2="1095" y2="110" stroke-width="2" stroke="black"></line><line x1="1100" y1="113" x2="1095" y2="110" stroke-width="2" stroke="black"></line><line x1="430" y1="230" x2="450" y2="230" stroke-width="2" stroke="black"></line><line x1="450" y1="230" x2="443" y2="223" stroke-width="2" stroke="black"></line><line x1="450" y1="230" x2="443" y2="237" stroke-width="2" stroke="black"></line><line x1="780" y1="230" x2="800" y2="230" stroke-width="2" stroke="black"></line><line x1="800" y1="230" x2="793" y2="223" stroke-width="2" stroke="black"></line><line x1="800" y1="230" x2="793" y2="237" stroke-width="2" stroke="black"></line><rect width="70" height="170" x="985" y="85" style="stroke: #000; stroke-width: 1; fill: none;"></rect><line x1="1055" y1="100" x2="1060" y2="100" stroke-width="2" stroke="black"></line><line x1="1055" y1="120" x2="1060" y2="120" stroke-width="2" stroke="black"></line><line x1="1055" y1="140" x2="1060" y2="140" stroke-width="2" stroke="black"></line><line x1="1055" y1="160" x2="1060" y2="160" stroke-width="2" stroke="black"></line><line x1="1055" y1="180" x2="1060" y2="180" stroke-width="2" stroke="black"></line><line x1="1055" y1="200" x2="1060" y2="200" stroke-width="2" stroke="black"></line><line x1="1055" y1="220" x2="1060" y2="220" stroke-width="2" stroke="black"></line><line x1="1055" y1="240" x2="1060" y2="240" stroke-width="2" stroke="black"></line><line x1="980" y1="100" x2="985" y2="100" stroke-width="2" stroke="black"></line><line x1="980" y1="120" x2="985" y2="120" stroke-width="2" stroke="black"></line><line x1="980" y1="140" x2="985" y2="140" stroke-width="2" stroke="black"></line><line x1="980" y1="160" x2="985" y2="160" stroke-width="2" stroke="black"></line><line x1="980" y1="180" x2="985" y2="180" stroke-width="2" stroke="black"></line><line x1="980" y1="200" x2="985" y2="200" stroke-width="2" stroke="black"></line><line x1="980" y1="220" x2="985" y2="220" stroke-width="2" stroke="black"></line><line x1="980" y1="240" x2="985" y2="240" stroke-width="2" stroke="black"></line><text x="992" y="100" font-size="10" font-family="sans-serif" text-anchor="start" alignment-baseline="middle">-12v</text><text x="992" y="120" font-size="10" font-family="sans-serif" text-anchor="start" alignment-baseline="middle">-12v</text><text x="992" y="140" font-size="10" font-family="sans-serif" text-anchor="start" alignment-baseline="middle">GND</text><text x="992" y="160" font-size="10" font-family="sans-serif" text-anchor="start" alignment-baseline="middle">GND</text><text x="992" y="180" font-size="10" font-family="sans-serif" text-anchor="start" alignment-baseline="middle">GND</text><text x="992" y="200" font-size="10" font-family="sans-serif" text-anchor="start" alignment-baseline="middle">GND</text><text x="992" y="220" font-size="10" font-family="sans-serif" text-anchor="start" alignment-baseline="middle">GND</text><text x="992" y="240" font-size="10" font-family="sans-serif" text-anchor="start" alignment-baseline="middle">GND</text><text x="1048" y="240" font-size="10" font-family="sans-serif" text-anchor="end" alignment-baseline="middle">+12v</text><text x="1048" y="220" font-size="10" font-family="sans-serif" text-anchor="end" alignment-baseline="middle">+12v</text><text x="1048" y="200" font-size="10" font-family="sans-serif" text-anchor="end" alignment-baseline="middle">+5v</text><text x="1048" y="180" font-size="10" font-family="sans-serif" text-anchor="end" alignment-baseline="middle">+5v</text><text x="1048" y="160" font-size="10" font-family="sans-serif" text-anchor="end" alignment-baseline="middle">CV</text><text x="1048" y="140" font-size="10" font-family="sans-serif" text-anchor="end" alignment-baseline="middle">CV</text><text x="1048" y="120" font-size="10" font-family="sans-serif" text-anchor="end" alignment-baseline="middle">Gate</text><text x="1048" y="100" font-size="10" font-family="sans-serif" text-anchor="end" alignment-baseline="middle">Gate</text><line x1="1095" y1="150" x2="1090" y2="150" stroke-width="2" stroke="black"></line><line x1="1110" y1="150" x2="1105" y2="147" stroke-width="2" stroke="black"></line><line x1="1110" y1="150" x2="1105" y2="153" stroke-width="2" stroke="black"></line><line x1="1105" y1="147" x2="1100" y2="147" stroke-width="2" stroke="black"></line><line x1="1105" y1="153" x2="1100" y2="153" stroke-width="2" stroke="black"></line><line x1="1100" y1="147" x2="1095" y2="150" stroke-width="2" stroke="black"></line><line x1="1100" y1="153" x2="1095" y2="150" stroke-width="2" stroke="black"></line><circle cx="40" cy="70" r="20" style="stroke: #000; stroke-width: 1; fill: none;"></circle><line x1="70" y1="70" x2="60" y2="70" stroke-width="2" stroke="black"></line><line x1="930" y1="300" x2="930" y2="310" stroke-width="2" stroke="black"></line><line x1="920" y1="310" x2="940" y2="310" stroke-width="2" stroke="black"></line><line x1="923" y1="315" x2="937" y2="315" stroke-width="2" stroke="black"></line><line x1="926" y1="320" x2="934" y2="320" stroke-width="2" stroke="black"></line><circle cx="930" cy="200" r="2" style="stroke: #000; stroke-width: 1; fill: none;"></circle><circle cx="270" cy="160" r="2" style="stroke: #000; stroke-width: 1; fill: none;"></circle><circle cx="1070" cy="230" r="2" style="stroke: #000; stroke-width: 1; fill: none;"></circle><circle cx="970" cy="110" r="2" style="stroke: #000; stroke-width: 1; fill: none;"></circle><circle cx="620" cy="240" r="2" style="stroke: #000; stroke-width: 1; fill: none;"></circle><circle cx="270" cy="240" r="2" style="stroke: #000; stroke-width: 1; fill: none;"></circle><circle cx="620" cy="220" r="2" style="stroke: #000; stroke-width: 1; fill: none;"></circle><circle cx="930" cy="160" r="2" style="stroke: #000; stroke-width: 1; fill: none;"></circle><circle cx="1070" cy="190" r="2" style="stroke: #000; stroke-width: 1; fill: none;"></circle><circle cx="760" cy="230" r="2" style="stroke: #000; stroke-width: 1; fill: none;"></circle><circle cx="930" cy="180" r="2" style="stroke: #000; stroke-width: 1; fill: none;"></circle><circle cx="930" cy="220" r="2" style="stroke: #000; stroke-width: 1; fill: none;"></circle><circle cx="270" cy="220" r="2" style="stroke: #000; stroke-width: 1; fill: none;"></circle><circle cx="410" cy="150" r="2" style="stroke: #000; stroke-width: 1; fill: none;"></circle><circle cx="620" cy="180" r="2" style="stroke: #000; stroke-width: 1; fill: none;"></circle><circle cx="410" cy="110" r="2" style="stroke: #000; stroke-width: 1; fill: none;"></circle><circle cx="270" cy="180" r="2" style="stroke: #000; stroke-width: 1; fill: none;"></circle><circle cx="310" cy="110" r="2" style="stroke: #000; stroke-width: 1; fill: none;"></circle><circle cx="760" cy="110" r="2" style="stroke: #000; stroke-width: 1; fill: none;"></circle><circle cx="760" cy="190" r="2" style="stroke: #000; stroke-width: 1; fill: none;"></circle><circle cx="660" cy="110" r="2" style="stroke: #000; stroke-width: 1; fill: none;"></circle><circle cx="760" cy="150" r="2" style="stroke: #000; stroke-width: 1; fill: none;"></circle><circle cx="410" cy="190" r="2" style="stroke: #000; stroke-width: 1; fill: none;"></circle><circle cx="1070" cy="110" r="2" style="stroke: #000; stroke-width: 1; fill: none;"></circle><circle cx="620" cy="160" r="2" style="stroke: #000; stroke-width: 1; fill: none;"></circle><circle cx="1070" cy="150" r="2" style="stroke: #000; stroke-width: 1; fill: none;"></circle><circle cx="930" cy="240" r="2" style="stroke: #000; stroke-width: 1; fill: none;"></circle><circle cx="410" cy="230" r="2" style="stroke: #000; stroke-width: 1; fill: none;"></circle><circle cx="620" cy="200" r="2" style="stroke: #000; stroke-width: 1; fill: none;"></circle><circle cx="270" cy="200" r="2" style="stroke: #000; stroke-width: 1; fill: none;"></circle><line x1="970" y1="110" x2="950" y2="110" stroke-width="2" stroke="black"></line><line x1="270" y1="140" x2="270" y2="160" stroke-width="2" stroke="black"></line><line x1="270" y1="140" x2="320" y2="140" stroke-width="2" stroke="black"></line><line x1="320" y1="120" x2="310" y2="120" stroke-width="2" stroke="black"></line><line x1="400" y1="240" x2="410" y2="240" stroke-width="2" stroke="black"></line><line x1="970" y1="100" x2="980" y2="100" stroke-width="2" stroke="black"></line><line x1="970" y1="100" x2="970" y2="110" stroke-width="2" stroke="black"></line><line x1="750" y1="160" x2="760" y2="160" stroke-width="2" stroke="black"></line><line x1="620" y1="220" x2="620" y2="240" stroke-width="2" stroke="black"></line><line x1="670" y1="240" x2="620" y2="240" stroke-width="2" stroke="black"></line><line x1="750" y1="220" x2="760" y2="220" stroke-width="2" stroke="black"></line><line x1="930" y1="160" x2="930" y2="140" stroke-width="2" stroke="black"></line><line x1="320" y1="160" x2="270" y2="160" stroke-width="2" stroke="black"></line><line x1="1070" y1="220" x2="1070" y2="230" stroke-width="2" stroke="black"></line><line x1="760" y1="230" x2="780" y2="230" stroke-width="2" stroke="black"></line><line x1="760" y1="230" x2="760" y2="220" stroke-width="2" stroke="black"></line><line x1="400" y1="160" x2="410" y2="160" stroke-width="2" stroke="black"></line><line x1="1090" y1="190" x2="1070" y2="190" stroke-width="2" stroke="black"></line><line x1="410" y1="100" x2="400" y2="100" stroke-width="2" stroke="black"></line><line x1="930" y1="180" x2="930" y2="200" stroke-width="2" stroke="black"></line><line x1="930" y1="180" x2="930" y2="160" stroke-width="2" stroke="black"></line><line x1="930" y1="220" x2="930" y2="200" stroke-width="2" stroke="black"></line><line x1="270" y1="220" x2="270" y2="240" stroke-width="2" stroke="black"></line><line x1="670" y1="220" x2="620" y2="220" stroke-width="2" stroke="black"></line><line x1="750" y1="100" x2="760" y2="100" stroke-width="2" stroke="black"></line><line x1="410" y1="150" x2="430" y2="150" stroke-width="2" stroke="black"></line><line x1="410" y1="150" x2="410" y2="160" stroke-width="2" stroke="black"></line><line x1="660" y1="100" x2="670" y2="100" stroke-width="2" stroke="black"></line><line x1="410" y1="110" x2="430" y2="110" stroke-width="2" stroke="black"></line><line x1="410" y1="110" x2="410" y2="100" stroke-width="2" stroke="black"></line><line x1="270" y1="180" x2="320" y2="180" stroke-width="2" stroke="black"></line><line x1="270" y1="180" x2="270" y2="160" stroke-width="2" stroke="black"></line><line x1="970" y1="120" x2="970" y2="110" stroke-width="2" stroke="black"></line><line x1="1060" y1="120" x2="1070" y2="120" stroke-width="2" stroke="black"></line><line x1="320" y1="220" x2="270" y2="220" stroke-width="2" stroke="black"></line><line x1="400" y1="220" x2="410" y2="220" stroke-width="2" stroke="black"></line><line x1="320" y1="240" x2="270" y2="240" stroke-width="2" stroke="black"></line><line x1="310" y1="110" x2="290" y2="110" stroke-width="2" stroke="black"></line><line x1="310" y1="110" x2="310" y2="100" stroke-width="2" stroke="black"></line><line x1="310" y1="110" x2="310" y2="120" stroke-width="2" stroke="black"></line><line x1="1070" y1="200" x2="1070" y2="190" stroke-width="2" stroke="black"></line><line x1="760" y1="200" x2="750" y2="200" stroke-width="2" stroke="black"></line><line x1="760" y1="110" x2="760" y2="100" stroke-width="2" stroke="black"></line><line x1="760" y1="190" x2="760" y2="200" stroke-width="2" stroke="black"></line><line x1="760" y1="190" x2="780" y2="190" stroke-width="2" stroke="black"></line><line x1="760" y1="190" x2="760" y2="180" stroke-width="2" stroke="black"></line><line x1="660" y1="110" x2="660" y2="120" stroke-width="2" stroke="black"></line><line x1="660" y1="110" x2="640" y2="110" stroke-width="2" stroke="black"></line><line x1="660" y1="110" x2="660" y2="100" stroke-width="2" stroke="black"></line><line x1="410" y1="180" x2="400" y2="180" stroke-width="2" stroke="black"></line><line x1="750" y1="180" x2="760" y2="180" stroke-width="2" stroke="black"></line><line x1="980" y1="220" x2="930" y2="220" stroke-width="2" stroke="black"></line><line x1="980" y1="160" x2="930" y2="160" stroke-width="2" stroke="black"></line><line x1="670" y1="140" x2="620" y2="140" stroke-width="2" stroke="black"></line><line x1="980" y1="140" x2="930" y2="140" stroke-width="2" stroke="black"></line><line x1="1060" y1="160" x2="1070" y2="160" stroke-width="2" stroke="black"></line><line x1="760" y1="150" x2="760" y2="160" stroke-width="2" stroke="black"></line><line x1="410" y1="190" x2="410" y2="180" stroke-width="2" stroke="black"></line><line x1="410" y1="140" x2="410" y2="150" stroke-width="2" stroke="black"></line><line x1="1070" y1="110" x2="1070" y2="120" stroke-width="2" stroke="black"></line><line x1="1070" y1="110" x2="1070" y2="100" stroke-width="2" stroke="black"></line><line x1="120" y1="70" x2="70" y2="70" stroke-width="2" stroke="black"></line><line x1="620" y1="160" x2="620" y2="180" stroke-width="2" stroke="black"></line><line x1="620" y1="160" x2="670" y2="160" stroke-width="2" stroke="black"></line><line x1="620" y1="160" x2="620" y2="140" stroke-width="2" stroke="black"></line><line x1="1070" y1="150" x2="1070" y2="160" stroke-width="2" stroke="black"></line><line x1="1070" y1="150" x2="1090" y2="150" stroke-width="2" stroke="black"></line><line x1="760" y1="120" x2="750" y2="120" stroke-width="2" stroke="black"></line><line x1="760" y1="120" x2="760" y2="110" stroke-width="2" stroke="black"></line><line x1="980" y1="180" x2="930" y2="180" stroke-width="2" stroke="black"></line><line x1="1070" y1="180" x2="1060" y2="180" stroke-width="2" stroke="black"></line><line x1="1070" y1="180" x2="1070" y2="190" stroke-width="2" stroke="black"></line><line x1="1060" y1="220" x2="1070" y2="220" stroke-width="2" stroke="black"></line><line x1="410" y1="120" x2="410" y2="110" stroke-width="2" stroke="black"></line><line x1="410" y1="120" x2="400" y2="120" stroke-width="2" stroke="black"></line><line x1="320" y1="100" x2="310" y2="100" stroke-width="2" stroke="black"></line><line x1="430" y1="190" x2="410" y2="190" stroke-width="2" stroke="black"></line><line x1="930" y1="240" x2="930" y2="300" stroke-width="2" stroke="black"></line><line x1="930" y1="240" x2="930" y2="220" stroke-width="2" stroke="black"></line><line x1="1060" y1="100" x2="1070" y2="100" stroke-width="2" stroke="black"></line><line x1="410" y1="230" x2="430" y2="230" stroke-width="2" stroke="black"></line><line x1="410" y1="230" x2="410" y2="220" stroke-width="2" stroke="black"></line><line x1="410" y1="230" x2="410" y2="240" stroke-width="2" stroke="black"></line><line x1="620" y1="300" x2="620" y2="240" stroke-width="2" stroke="black"></line><line x1="1090" y1="110" x2="1070" y2="110" stroke-width="2" stroke="black"></line><line x1="400" y1="140" x2="410" y2="140" stroke-width="2" stroke="black"></line><line x1="270" y1="300" x2="270" y2="240" stroke-width="2" stroke="black"></line><line x1="980" y1="200" x2="930" y2="200" stroke-width="2" stroke="black"></line><line x1="670" y1="120" x2="660" y2="120" stroke-width="2" stroke="black"></line><line x1="670" y1="180" x2="620" y2="180" stroke-width="2" stroke="black"></line><line x1="1070" y1="140" x2="1060" y2="140" stroke-width="2" stroke="black"></line><line x1="1070" y1="140" x2="1070" y2="150" stroke-width="2" stroke="black"></line><line x1="980" y1="120" x2="970" y2="120" stroke-width="2" stroke="black"></line><line x1="980" y1="240" x2="930" y2="240" stroke-width="2" stroke="black"></line><line x1="1070" y1="240" x2="1060" y2="240" stroke-width="2" stroke="black"></line><line x1="1070" y1="240" x2="1070" y2="230" stroke-width="2" stroke="black"></line><line x1="620" y1="200" x2="620" y2="220" stroke-width="2" stroke="black"></line><line x1="620" y1="200" x2="670" y2="200" stroke-width="2" stroke="black"></line><line x1="620" y1="200" x2="620" y2="180" stroke-width="2" stroke="black"></line><line x1="760" y1="140" x2="750" y2="140" stroke-width="2" stroke="black"></line><line x1="760" y1="140" x2="760" y2="150" stroke-width="2" stroke="black"></line><line x1="780" y1="150" x2="760" y2="150" stroke-width="2" stroke="black"></line><line x1="1090" y1="230" x2="1070" y2="230" stroke-width="2" stroke="black"></line><line x1="760" y1="240" x2="750" y2="240" stroke-width="2" stroke="black"></line><line x1="760" y1="240" x2="760" y2="230" stroke-width="2" stroke="black"></line><line x1="70" y1="200" x2="120" y2="200" stroke-width="2" stroke="black"></line><line x1="1060" y1="200" x2="1070" y2="200" stroke-width="2" stroke="black"></line><line x1="410" y1="200" x2="410" y2="190" stroke-width="2" stroke="black"></line><line x1="410" y1="200" x2="400" y2="200" stroke-width="2" stroke="black"></line><line x1="780" y1="110" x2="760" y2="110" stroke-width="2" stroke="black"></line><line x1="270" y1="200" x2="270" y2="220" stroke-width="2" stroke="black"></line><line x1="270" y1="200" x2="320" y2="200" stroke-width="2" stroke="black"></line><line x1="270" y1="200" x2="270" y2="180" stroke-width="2" stroke="black"></line></svg>